<svg width="819" height="697" viewBox="0 0 819 697" fill="none" xmlns="http://www.w3.org/2000/svg">
<path d="M632.145 673.537L620.504 677.384L600.124 634.316L617.305 628.638L632.145 673.537Z" fill="#FFB8B8"/>
<path d="M611.091 676.807L633.54 669.386L638.212 683.521L601.628 695.613C601.014 693.757 600.772 691.798 600.916 689.848C601.059 687.899 601.586 685.996 602.464 684.25C603.343 682.504 604.557 680.947 606.037 679.67C607.517 678.393 609.234 677.42 611.091 676.807Z" fill="#2F2E41"/>
<path d="M555.351 684.229L543.091 684.228L537.259 636.94L555.353 636.941L555.351 684.229Z" fill="#FFB8B8"/>
<path d="M534.334 680.725H557.978V695.612H519.447C519.447 693.657 519.832 691.722 520.58 689.915C521.328 688.109 522.425 686.468 523.807 685.086C525.19 683.703 526.831 682.607 528.637 681.859C530.443 681.111 532.379 680.725 534.334 680.725Z" fill="#2F2E41"/>
<path d="M544.019 508.69L543.394 511.456C534.947 548.866 531.939 603.297 534.462 641.566L536.411 671.127C536.478 672.14 536.927 673.09 537.668 673.783C538.41 674.477 539.387 674.863 540.402 674.863H555.1C556.08 674.863 557.026 674.504 557.758 673.853C558.491 673.201 558.958 672.304 559.073 671.331L570.48 574.366C570.587 573.457 571.003 572.613 571.657 571.973C572.311 571.333 573.165 570.938 574.076 570.851C574.987 570.765 575.9 570.994 576.663 571.499C577.425 572.005 577.992 572.756 578.267 573.629L607.833 661.253C608.076 662.022 608.545 662.699 609.18 663.197C609.815 663.694 610.585 663.988 611.39 664.04L633.841 665.488C634.489 665.53 635.137 665.413 635.73 665.148C636.323 664.883 636.843 664.478 637.244 663.968C637.645 663.457 637.916 662.856 638.033 662.217C638.15 661.579 638.11 660.921 637.916 660.301L624.401 623.143C613.959 589.795 608.346 539.124 607.733 504.185C607.723 503.634 607.6 503.091 607.37 502.589C607.141 502.088 606.81 501.64 606.399 501.272C605.987 500.905 605.505 500.627 604.981 500.455C604.457 500.283 603.903 500.221 603.354 500.273L547.542 505.589C546.703 505.669 545.91 506.012 545.278 506.568C544.645 507.125 544.205 507.868 544.019 508.69Z" fill="#2F2E41"/>
<path d="M576.701 353.358C590.265 353.358 601.262 342.361 601.262 328.797C601.262 315.232 590.265 304.236 576.701 304.236C563.136 304.236 552.14 315.232 552.14 328.797C552.14 342.361 563.136 353.358 576.701 353.358Z" fill="#A0616A"/>
<path d="M560.578 516.737C555.686 516.726 550.798 516.469 545.933 515.964C544.37 515.794 542.936 515.019 541.936 513.806C540.937 512.592 540.452 511.035 540.585 509.469L548.959 428.563C550.979 405.678 554.098 383.587 569.884 364.878C570.42 364.244 571.082 363.727 571.827 363.361C572.573 362.995 573.386 362.788 574.215 362.751L574.809 362.729C581.035 362.469 583.905 362.695 584.712 363.504L589.055 367.783C615.539 387.369 616.639 511.445 610.114 509C608.852 508.529 593.78 509.002 592.731 509.718C584.223 515.517 570.55 516.736 560.578 516.737Z" fill="#EB542E"/>
<path d="M464.212 471.828C464.838 470.497 465.747 469.32 466.876 468.379C468.006 467.438 469.328 466.756 470.749 466.381C472.171 466.006 473.657 465.948 475.104 466.21C476.55 466.471 477.922 467.047 479.122 467.896L508.186 447.105L508.891 465.661L481.183 482.56C479.623 484.482 477.412 485.764 474.97 486.164C472.527 486.565 470.023 486.055 467.931 484.732C465.839 483.409 464.305 481.365 463.62 478.987C462.934 476.608 463.145 474.061 464.212 471.828Z" fill="#A0616A"/>
<path d="M493.077 477.314L483.233 459.985L572.9 395.331C574.923 393.872 577.226 392.846 579.664 392.317C582.102 391.788 584.623 391.767 587.069 392.256C589.515 392.746 591.834 393.734 593.881 395.16C595.928 396.586 597.659 398.419 598.965 400.544C600.272 402.669 601.126 405.04 601.475 407.51C601.824 409.98 601.659 412.496 600.992 414.9C600.325 417.303 599.169 419.544 597.596 421.48C596.024 423.417 594.07 425.009 591.854 426.156L493.077 477.314Z" fill="#EB542E"/>
<path d="M587.736 349.562C588.567 350.382 589.667 350.875 590.833 350.95C591.998 351.024 593.152 350.676 594.082 349.969C599.87 345.678 604.952 340.337 607.959 333.822C611.405 326.357 611.79 317.197 607.635 310.102C604.123 304.104 597.921 300.234 591.739 297.056C589.339 295.701 586.754 294.705 584.065 294.098C581.348 293.499 578.505 293.957 576.114 295.381C574.944 296.114 574.023 297.183 573.47 298.448C572.916 299.713 572.757 301.115 573.013 302.472C570.044 299.084 566.241 296.531 561.981 295.066C559.299 294.017 556.362 293.804 553.556 294.456C549.633 295.568 546.77 299.053 545.203 302.818C543.937 305.681 543.499 308.843 543.941 311.943C544.173 313.485 544.727 314.962 545.566 316.277C546.405 317.592 547.511 318.716 548.812 319.577C552.055 321.584 556.192 321.439 559.917 320.619C563.641 319.8 567.247 318.374 571.043 318.013C574.84 317.653 579.067 318.599 581.378 321.633C583.005 323.77 583.423 326.562 583.788 329.223L585.688 343.062C585.843 345.064 586.355 347.022 587.198 348.844C587.344 349.107 587.525 349.348 587.736 349.562Z" fill="#2F2E41"/>
<path d="M640.729 521.653C639.537 520.792 638.549 519.68 637.833 518.396C637.118 517.112 636.692 515.686 636.587 514.22C636.482 512.754 636.7 511.282 637.225 509.909C637.751 508.536 638.571 507.295 639.627 506.273L624.581 473.86L642.946 476.605L654.419 506.964C656.018 508.853 656.869 511.263 656.81 513.738C656.75 516.212 655.786 518.579 654.098 520.389C652.411 522.2 650.118 523.328 647.653 523.561C645.189 523.794 642.725 523.115 640.729 521.653V521.653Z" fill="#A0616A"/>
<path d="M650.79 487.222L633.461 497.066L568.807 407.399C567.348 405.375 566.322 403.073 565.793 400.635C565.264 398.197 565.243 395.676 565.733 393.23C566.222 390.784 567.21 388.465 568.636 386.418C570.062 384.371 571.895 382.64 574.02 381.333C576.145 380.027 578.517 379.172 580.987 378.824C583.457 378.475 585.972 378.639 588.376 379.307C590.78 379.974 593.02 381.13 594.957 382.702C596.894 384.274 598.485 386.229 599.633 388.444L650.79 487.222Z" fill="#EB542E"/>
<path d="M492.954 165.283H489.132V60.5937C489.132 44.5233 482.748 29.111 471.385 17.7475C460.021 6.38397 444.609 7.95649e-06 428.539 0H206.733C190.662 0 175.25 6.38396 163.887 17.7475C152.523 29.111 146.139 44.5233 146.139 60.5937V634.937C146.139 651.008 152.523 666.42 163.887 677.783C175.25 689.147 190.662 695.531 206.733 695.531H428.539C444.609 695.531 460.021 689.146 471.384 677.783C482.748 666.42 489.131 651.007 489.131 634.937V239.803H492.953L492.954 165.283Z" fill="#EB542E"/>
<path d="M430.984 15.7585H402.033C403.365 19.023 403.873 22.5649 403.513 26.0721C403.153 29.5793 401.936 32.9441 399.969 35.8702C398.003 38.7963 395.347 41.1938 392.235 42.8515C389.123 44.5091 385.652 45.3761 382.126 45.3759H255.056C251.531 45.3758 248.059 44.5086 244.948 42.8508C241.837 41.193 239.181 38.7955 237.214 35.8694C235.248 32.9434 234.031 29.5787 233.671 26.0716C233.311 22.5646 233.82 19.0228 235.151 15.7585H208.109C196.108 15.7585 184.598 20.526 176.112 29.0121C167.626 37.4983 162.859 49.008 162.859 61.0093V634.519C162.859 646.52 167.626 658.03 176.112 666.516C184.598 675.002 196.108 679.77 208.109 679.77H430.984C442.985 679.77 454.495 675.002 462.981 666.516C471.467 658.03 476.234 646.52 476.234 634.519V61.0083C476.234 49.0072 471.467 37.4978 462.98 29.0118C454.494 20.5258 442.985 15.7585 430.984 15.7585H430.984Z" fill="white"/>
<path d="M319.546 355C298.779 355 278.479 348.842 261.212 337.304C243.944 325.767 230.486 309.368 222.539 290.182C214.592 270.996 212.513 249.883 216.564 229.515C220.615 209.147 230.616 190.438 245.3 175.754C259.985 161.069 278.694 151.069 299.062 147.018C319.43 142.966 340.542 145.045 359.728 152.993C378.914 160.94 395.313 174.398 406.851 191.665C418.388 208.932 424.546 229.233 424.546 250C424.515 277.838 413.442 304.527 393.758 324.211C374.073 343.896 347.385 354.968 319.546 355ZM319.546 147C299.175 147 279.261 153.041 262.323 164.359C245.385 175.676 232.183 191.763 224.387 210.584C216.591 229.404 214.551 250.114 218.526 270.094C222.5 290.074 232.31 308.427 246.714 322.832C261.119 337.237 279.472 347.047 299.452 351.021C319.432 354.995 340.142 352.955 358.963 345.16C377.784 337.364 393.87 324.162 405.188 307.224C416.506 290.285 422.546 270.371 422.546 250C422.516 222.692 411.654 196.512 392.344 177.202C373.035 157.893 346.854 147.031 319.546 147Z" fill="#3F3D56"/>
<path d="M358.111 219.498C367.104 211.899 372.566 199.896 371.133 188.21C369.701 176.524 360.829 165.782 349.32 163.3C337.811 160.819 324.692 167.688 321.197 178.93C319.273 157.256 317.056 134.673 305.533 116.215C295.099 99.502 277.026 87.5431 257.44 85.4036C237.853 83.2642 217.231 91.3446 205.016 106.804C192.801 122.263 189.81 144.738 198.365 162.486C204.668 175.561 216.279 185.291 228.444 193.208C267.257 218.463 315.404 226.996 361.217 220.254L358.111 219.498Z" fill="#E6E6E6"/>
<path d="M224.385 91.7925C240.546 104.956 255.372 119.678 268.649 135.747C289.427 160.807 306.241 188.905 318.505 219.061C319.402 221.261 315.83 222.218 314.942 220.043C294.877 171.033 262.843 127.837 221.773 94.4048C219.928 92.903 222.556 90.3031 224.385 91.7925Z" fill="white"/>
<path d="M229.884 458C235.959 458 240.884 453.075 240.884 447C240.884 440.925 235.959 436 229.884 436C223.809 436 218.884 440.925 218.884 447C218.884 453.075 223.809 458 229.884 458Z" fill="#3F3D56"/>
<path d="M412.209 455H272.209C270.087 455 268.052 454.157 266.552 452.657C265.052 451.157 264.209 449.122 264.209 447C264.209 444.878 265.052 442.843 266.552 441.343C268.052 439.843 270.087 439 272.209 439H412.209C414.331 439 416.365 439.843 417.866 441.343C419.366 442.843 420.209 444.878 420.209 447C420.209 449.122 419.366 451.157 417.866 452.657C416.365 454.157 414.331 455 412.209 455Z" fill="#CCCCCC"/>
<path d="M368.788 455.096H271.63C269.483 455.096 267.423 454.243 265.905 452.725C264.387 451.207 263.534 449.147 263.534 447C263.534 444.853 264.387 442.793 265.905 441.275C267.423 439.757 269.483 438.904 271.63 438.904H368.788C370.935 438.904 372.994 439.757 374.513 441.275C376.031 442.793 376.884 444.853 376.884 447C376.884 449.147 376.031 451.207 374.513 452.725C372.994 454.243 370.935 455.096 368.788 455.096Z" fill="#EB542E"/>
<path d="M229.884 506C235.959 506 240.884 501.075 240.884 495C240.884 488.925 235.959 484 229.884 484C223.809 484 218.884 488.925 218.884 495C218.884 501.075 223.809 506 229.884 506Z" fill="#3F3D56"/>
<path d="M412.209 503H272.209C270.087 503 268.052 502.157 266.552 500.657C265.052 499.157 264.209 497.122 264.209 495C264.209 492.878 265.052 490.843 266.552 489.343C268.052 487.843 270.087 487 272.209 487H412.209C414.331 487 416.365 487.843 417.866 489.343C419.366 490.843 420.209 492.878 420.209 495C420.209 497.122 419.366 499.157 417.866 500.657C416.365 502.157 414.331 503 412.209 503Z" fill="#CCCCCC"/>
<path d="M229.884 554C235.959 554 240.884 549.075 240.884 543C240.884 536.925 235.959 532 229.884 532C223.809 532 218.884 536.925 218.884 543C218.884 549.075 223.809 554 229.884 554Z" fill="#3F3D56"/>
<path d="M412.209 551H272.209C270.087 551 268.052 550.157 266.552 548.657C265.052 547.157 264.209 545.122 264.209 543C264.209 540.878 265.052 538.843 266.552 537.343C268.052 535.843 270.087 535 272.209 535H412.209C414.331 535 416.365 535.843 417.866 537.343C419.366 538.843 420.209 540.878 420.209 543C420.209 545.122 419.366 547.157 417.866 548.657C416.365 550.157 414.331 551 412.209 551Z" fill="#CCCCCC"/>
<path d="M336.788 503.096H271.63C269.483 503.096 267.423 502.243 265.905 500.725C264.387 499.207 263.534 497.147 263.534 495C263.534 492.853 264.387 490.793 265.905 489.275C267.423 487.757 269.483 486.904 271.63 486.904H336.788C338.935 486.904 340.994 487.757 342.513 489.275C344.031 490.793 344.884 492.853 344.884 495C344.884 497.147 344.031 499.207 342.513 500.725C340.994 502.243 338.935 503.096 336.788 503.096Z" fill="#EB542E"/>
<path d="M394.788 551.096H271.63C269.483 551.096 267.423 550.243 265.905 548.725C264.387 547.207 263.534 545.147 263.534 543C263.534 540.853 264.387 538.793 265.905 537.275C267.423 535.757 269.483 534.904 271.63 534.904H394.788C396.935 534.904 398.994 535.757 400.513 537.275C402.031 538.793 402.884 540.853 402.884 543C402.884 545.147 402.031 547.207 400.513 548.725C398.994 550.243 396.935 551.096 394.788 551.096Z" fill="#EB542E"/>
<path d="M375.14 233.673H361.396V193.059C361.397 191.866 361.871 190.722 362.715 189.879C363.559 189.035 364.702 188.56 365.896 188.559H370.64C371.833 188.56 372.977 189.035 373.82 189.879C374.664 190.722 375.138 191.866 375.14 193.059V233.673Z" fill="#3F3D56"/>
<path d="M383.472 302.786H252.093L251.621 228.74C251.616 227.596 251.841 226.463 252.282 225.407C252.723 224.352 253.372 223.396 254.19 222.596L287.194 190.45C288.759 188.92 290.857 188.056 293.047 188.04L348.284 187.535C349.537 187.527 350.776 187.794 351.913 188.318C353.051 188.842 354.06 189.609 354.869 190.565L354.874 190.571L381.11 222.746C382.636 224.621 383.47 226.964 383.472 229.381L383.472 302.786Z" fill="#3F3D56"/>
<path d="M383.472 302.786H312.87V236.425C312.87 234.403 313.591 232.448 314.903 230.909L345.578 194.945V194.945C346.376 194.009 347.367 193.257 348.483 192.742C349.6 192.226 350.815 191.96 352.045 191.961H352.077C353.313 191.965 354.532 192.238 355.651 192.762C356.769 193.286 357.76 194.047 358.554 194.994L381.481 222.288C382.766 223.82 383.471 225.755 383.472 227.755V302.786Z" fill="#EB542E"/>
<path d="M353.523 277.298H343.309C342.646 277.297 342.01 277.033 341.542 276.565C341.073 276.096 340.809 275.461 340.809 274.798V266.233C340.809 265.571 341.073 264.935 341.542 264.466C342.01 263.998 342.646 263.734 343.309 263.733H353.523C354.186 263.734 354.822 263.998 355.29 264.466C355.759 264.935 356.023 265.571 356.023 266.233V274.798C356.023 275.461 355.759 276.096 355.29 276.565C354.822 277.033 354.186 277.297 353.523 277.298Z" fill="white"/>
<path d="M353.523 255.352H343.309C342.646 255.351 342.01 255.087 341.542 254.618C341.073 254.15 340.809 253.514 340.809 252.852V244.486C340.809 243.824 341.073 243.188 341.542 242.719C342.01 242.251 342.646 241.987 343.309 241.986H353.523C354.186 241.987 354.822 242.251 355.29 242.719C355.759 243.188 356.023 243.824 356.023 244.486V252.852C356.023 253.514 355.759 254.15 355.29 254.618C354.822 255.087 354.186 255.351 353.523 255.352Z" fill="white"/>
<path d="M290.352 273.964H280.138C279.475 273.963 278.839 273.699 278.371 273.231C277.902 272.762 277.638 272.127 277.638 271.464V262.9C277.638 262.237 277.902 261.602 278.371 261.133C278.839 260.664 279.475 260.401 280.138 260.4H290.352C291.015 260.401 291.65 260.664 292.119 261.133C292.588 261.602 292.851 262.237 292.852 262.9V271.464C292.851 272.127 292.588 272.762 292.119 273.231C291.65 273.699 291.015 273.963 290.352 273.964Z" fill="white"/>
<path d="M290.352 252.018H280.138C279.475 252.017 278.839 251.753 278.371 251.284C277.902 250.816 277.638 250.18 277.638 249.518V241.153C277.638 240.49 277.902 239.855 278.371 239.386C278.839 238.917 279.475 238.654 280.138 238.653H290.352C291.015 238.654 291.65 238.917 292.119 239.386C292.588 239.855 292.851 240.49 292.852 241.153V249.518C292.851 250.18 292.588 250.816 292.119 251.284C291.65 251.753 291.015 252.017 290.352 252.018Z" fill="white"/>
<path d="M408.898 303.652H230.195C229.93 303.652 229.675 303.547 229.488 303.359C229.3 303.172 229.195 302.918 229.195 302.652C229.195 302.387 229.3 302.133 229.488 301.945C229.675 301.758 229.93 301.652 230.195 301.652H408.898C409.163 301.652 409.418 301.758 409.605 301.945C409.793 302.133 409.898 302.387 409.898 302.652C409.898 302.918 409.793 303.172 409.605 303.359C409.418 303.547 409.163 303.652 408.898 303.652Z" fill="#3F3D56"/>
</svg>
