<svg width="184" height="241" viewBox="0 0 184 241" fill="none" xmlns="http://www.w3.org/2000/svg">
<g id="balloon 2">
<path id="Vector" d="M176.802 91.5297C189.174 72.1751 184.457 47.0596 171.303 38.6517C158.15 30.2438 133.375 36.5081 121.003 55.8627C109.552 73.7778 113.335 96.9938 123.784 106.629C123.583 106.661 123.39 106.731 123.216 106.835L120.155 108.754C119.922 108.9 119.73 109.103 119.597 109.345C119.465 109.586 119.396 109.857 119.398 110.132C119.4 110.408 119.472 110.678 119.607 110.918C119.743 111.157 119.937 111.358 120.173 111.501L126.743 115.506C126.978 115.649 127.246 115.73 127.521 115.74C127.797 115.751 128.07 115.691 128.315 115.566C128.561 115.442 128.77 115.256 128.924 115.028C129.078 114.8 129.171 114.536 129.194 114.261L129.495 110.662C129.503 110.537 129.496 110.41 129.474 110.287C142.611 115.799 165.326 109.484 176.802 91.5297Z" fill="#6C63FF"/>
<path id="Vector_2" d="M171.976 57.719C174.464 65.7011 173.821 74.331 170.177 81.8563C166.534 89.3815 160.163 95.2381 152.358 98.2367C150.575 98.9239 151.35 101.826 153.156 101.13C161.713 97.8972 168.72 91.529 172.752 83.3183C176.785 75.1076 177.542 65.6698 174.869 56.9214C174.31 55.0788 171.414 55.8642 171.976 57.719Z" fill="white"/>
<path id="Vector_3" d="M92.8522 40.6534C81.8899 14.4081 53.0074 1.4841 35.1708 8.93423C17.3341 16.3844 6.225 46.0123 17.1873 72.2576C27.3342 96.5508 53.6248 109.085 70.802 105.252C70.6927 105.479 70.6277 105.725 70.6107 105.976L70.4028 110.443C70.387 110.784 70.4584 111.123 70.6104 111.428C70.7624 111.733 70.9898 111.995 71.2712 112.187C71.5525 112.38 71.8784 112.497 72.2179 112.528C72.5574 112.559 72.8992 112.503 73.2109 112.365L81.9216 108.505C82.2333 108.367 82.5045 108.152 82.7095 107.879C82.9145 107.607 83.0465 107.286 83.0929 106.949C83.1393 106.611 83.0985 106.267 82.9746 105.949C82.8507 105.632 82.6476 105.351 82.3847 105.134L78.9356 102.287C78.8133 102.191 78.68 102.109 78.5385 102.044C93.4171 92.5674 103.021 64.9995 92.8522 40.6534Z" fill="#6C63FF"/>
<path id="Vector_4" d="M58.8283 23.2382C66.5835 26.5501 72.7711 32.713 76.114 40.4548C79.4569 48.1967 79.6999 56.9265 76.7927 64.8423C76.1473 66.6607 79.0612 67.3796 79.7024 65.5731C82.7368 57.0163 82.424 47.6287 78.8268 39.2928C75.2296 30.9569 68.6139 24.2892 60.3065 20.6268C58.5532 19.8554 57.0621 22.4611 58.8283 23.2382Z" fill="white"/>
<path id="Vector 1" d="M78 109C79.1572 135.728 86.8656 146.681 108 162M108 162C117.567 188.438 101.341 198.413 108 215C114.659 231.587 120.091 235.897 131 240M108 162C122.18 145.809 124.991 135.33 124 115" stroke="black" stroke-width="2"/>
</g>
</svg>
