<svg width="181" height="206" viewBox="0 0 181 206" fill="none" xmlns="http://www.w3.org/2000/svg">
<g id="balloon 1">
<path id="Vector" d="M21.5776 72.6562C1.44154 55.5516 -1.85034 26.3444 9.77417 12.6596C21.3987 -1.0252 50.7538 -2.50053 70.8899 14.604C89.5283 30.4364 93.2059 57.2397 84.9693 71.3612C85.201 71.3285 85.4368 71.3403 85.664 71.3961L89.6763 72.4721C89.9822 72.5541 90.262 72.7129 90.4892 72.9335C90.7164 73.1541 90.8835 73.4291 90.9745 73.7324C91.0655 74.0357 91.0775 74.3573 91.0093 74.6665C90.9411 74.9757 90.795 75.2624 90.5849 75.4993L84.7119 82.1199C84.5017 82.3568 84.2345 82.5361 83.9356 82.6407C83.6367 82.7453 83.316 82.7717 83.004 82.7175C82.692 82.6633 82.399 82.5303 82.1529 82.331C81.9068 82.1317 81.7157 81.8729 81.5978 81.579L80.0511 77.7235C80.0002 77.588 79.9654 77.447 79.9475 77.3034C67.3641 87.7986 40.2566 88.523 21.5776 72.6562Z" fill="#6C63FF"/>
<path id="Vector_2" d="M15.761 37.632C16.5048 45.4297 20.214 52.6442 26.1229 57.7864C32.0319 62.9286 39.6895 65.6059 47.5153 65.2656C49.3067 65.2073 49.1211 67.989 47.3414 68.0469C38.9125 68.319 30.6923 65.3944 24.3293 59.8596C17.9664 54.3248 13.9312 46.589 13.0329 38.2037C12.8447 36.4344 15.5715 35.8496 15.761 37.632Z" fill="white"/>
<path id="Vector_3" d="M173.097 100.795C185.527 81.3497 180.788 56.1162 167.572 47.6688C154.357 39.2215 129.466 45.5153 117.036 64.9607C105.531 82.9598 109.332 106.285 119.83 115.965C119.628 115.997 119.434 116.068 119.259 116.173L116.184 118.1C115.95 118.247 115.757 118.451 115.624 118.693C115.49 118.936 115.421 119.208 115.423 119.485C115.425 119.762 115.497 120.033 115.634 120.274C115.77 120.515 115.965 120.717 116.202 120.861L122.803 124.883C123.039 125.027 123.308 125.109 123.585 125.119C123.861 125.13 124.136 125.07 124.382 124.945C124.629 124.819 124.84 124.633 124.994 124.404C125.149 124.174 125.242 123.909 125.265 123.633L125.568 120.017C125.576 119.891 125.569 119.764 125.547 119.64C138.745 125.178 161.567 118.833 173.097 100.795Z" fill="#6C63FF"/>
<path id="Vector_4" d="M166.779 62.4343C168.798 68.9111 168.276 75.9134 165.319 82.0195C162.363 88.1255 157.194 92.8776 150.861 95.3107C149.414 95.8683 150.043 98.2227 151.508 97.6579C158.452 95.0351 164.137 89.868 167.409 83.2058C170.681 76.5436 171.295 68.8857 169.126 61.7872C168.673 60.2921 166.323 60.9294 166.779 62.4343Z" fill="white"/>
<path id="Vector 2" d="M87 81C75.3728 97.3031 78.8234 107.868 87 127M87 127C95.0592 140.159 88.1193 147.858 61 162M87 127C102.629 128.536 109.167 126.947 118 121M61 162C40.7875 178.233 48.2422 187.949 53 205M61 162C69.8156 168.19 72.2708 172.788 70 184" stroke="black" stroke-width="2"/>
</g>
</svg>
