<svg width="466" height="544" viewBox="0 0 466 544" fill="none" xmlns="http://www.w3.org/2000/svg">
<g id="patake">
<g id="hand">
<path id="Vector" d="M408.405 473.688L429.117 506.568C429.117 506.568 333.945 467.517 315.245 450.807C296.546 434.097 279.833 375.693 279.833 375.693L320.391 380.5L408.405 473.688Z" fill="#FBBEC6"/>
<path id="Vector_2" d="M242.306 378.895L234.815 384.625C234.815 384.625 237.862 399.693 251.582 393.17L242.306 378.895Z" fill="#FBBEC6"/>
<path id="Vector_3" d="M253.812 398.81L246.32 404.541C246.32 404.541 249.367 419.609 263.087 413.085L253.812 398.81Z" fill="#FBBEC6"/>
<path id="Vector_4" d="M266.318 420.458L258.862 426.25C258.862 426.25 262.338 442.06 276.093 435.598L266.318 420.458Z" fill="#FBBEC6"/>
<path id="Vector_5" d="M281.421 440.604L273.93 446.334C273.93 446.334 276.977 461.402 290.697 454.879L281.421 440.604Z" fill="#FBBEC6"/>
</g>
<path id="Rectangle 3" d="M244.377 385.23C241.997 381.508 243.01 376.447 246.639 373.927L284.859 347.383C288.488 344.863 293.359 345.838 295.738 349.56L339.006 417.242C348.307 431.791 344.35 451.57 330.167 461.42C315.984 471.27 296.946 467.461 287.645 452.912L244.377 385.23Z" fill="#EB5A5A"/>
<path id="Vector 3" d="M268.325 422.151C299.641 421.152 312.321 413.266 325.469 385.13" stroke="#CDBC63" stroke-width="4"/>
<path id="Vector 5" d="M273.327 430.81C304.644 429.811 317.324 421.925 330.472 393.789" stroke="#CDBC63" stroke-width="4"/>
<rect id="Rectangle 4" width="62.5312" height="129.906" rx="8" transform="matrix(0.821393 -0.570363 0.538594 0.842566 169.347 267.653)" fill="#EB5A5A"/>
<path id="Vector 4" d="M279.695 439.834C311.012 438.835 323.692 430.95 336.84 402.814" stroke="#CDBC63" stroke-width="4"/>
<path id="hand - thumb" d="M456.259 469.589L371.884 425.687L344.533 381.995L305.932 353.509L291.761 339.93C291.761 339.93 281.635 347.957 308.64 373.71L321.98 388.132C324.392 400.121 328.951 412.063 335.342 423.125L357.306 461.143C362.478 470.095 421.649 500.948 429.561 506.311L456.259 469.589Z" fill="#FBBEC6"/>
<g id="cracles">
<rect id="Rectangle 5" x="121" y="177" width="20" height="20" fill="#E0CF34"/>
<rect id="Rectangle 6" x="141" y="113" width="50" height="50" fill="#0AE36E"/>
<rect id="Rectangle 9" x="178.314" y="0.603851" width="20" height="50" transform="rotate(33.1849 178.314 0.603851)" fill="#3E35AA"/>
<path id="Vector_6" d="M93.84 97.3289C100.176 101.265 105.488 106.646 109.343 113.031C113.197 119.417 115.483 126.625 116.014 134.064C116.153 136.167 116.509 138.587 114.787 140.159C114.15 140.774 113.324 141.155 112.443 141.24C111.561 141.325 110.678 141.108 109.935 140.625C108.057 139.301 107.816 136.639 108.581 134.622C109.448 132.334 111.856 131.466 114.144 131.672C119.734 132.176 122.712 137.639 125.132 142.021C130.644 152.008 137.28 161.927 147.175 168.043C156.33 173.701 168.472 175.442 178.145 170.063C179.837 169.122 178.263 166.567 176.579 167.503C166.986 172.838 154.862 170.092 146.362 163.905C141.357 160.104 137.04 155.475 133.597 150.218C131.778 147.554 130.111 144.789 128.534 141.976C127.108 139.16 125.435 136.475 123.535 133.954C120.252 129.961 114.603 127.101 109.521 129.504C104.779 131.746 103.577 139.073 107.606 142.585C111.425 145.912 117.435 143.868 118.838 139.108C119.556 136.673 119.058 133.646 118.744 131.172C117.807 123.721 115.211 116.575 111.147 110.261C107.083 103.946 101.654 98.6241 95.2596 94.686C93.6048 93.6887 92.1894 96.3341 93.8399 97.3288L93.84 97.3289Z" fill="#6C63FF"/>
<path id="Vector_7" d="M206.753 225.858C202.378 219.414 199.669 211.985 198.868 204.237C198.068 196.488 199.2 188.663 202.165 181.459C202.851 179.826 203.682 178.426 205.548 178.051C206.314 177.878 207.115 177.94 207.846 178.23C208.576 178.52 209.202 179.024 209.641 179.676C210.915 181.706 209.967 184.385 208.325 185.914C206.558 187.558 204.005 187.249 202.055 186.109C197.01 183.163 196.758 176.603 196.312 171.439C195.352 160.315 193.219 148.74 186.766 139.372C180.702 130.57 170.397 124.082 159.44 125.042C157.516 125.21 157.834 128.193 159.759 128.025C170.571 127.077 180.334 134.283 185.668 143.211C188.817 148.769 190.949 154.844 191.963 161.151C192.524 164.222 192.917 167.322 193.21 170.43C193.376 173.544 193.774 176.64 194.4 179.695C195.697 184.94 199.738 190.298 205.701 190.059C211.097 189.842 214.992 183.27 212.391 178.474C211.881 177.599 211.188 176.844 210.359 176.262C209.53 175.679 208.586 175.283 207.59 175.1C206.594 174.916 205.57 174.95 204.588 175.199C203.606 175.448 202.69 175.906 201.901 176.542C200 178.102 199.208 180.599 198.424 182.845C195.834 190.253 195.019 198.166 196.047 205.946C197.074 213.727 199.914 221.157 204.338 227.639C205.442 229.224 207.858 227.445 206.753 225.858L206.753 225.858Z" fill="#FF6584"/>
<path id="Vector_8" d="M107.827 205.345C115.657 207.531 124.575 218.909 129.588 232.078C132.132 238.762 134.061 246.842 133.265 252.568C133.126 253.94 132.746 255.063 132.16 255.836C131.575 256.608 130.802 257.006 129.911 256.992C128.326 256.867 126.23 255.471 124.944 252.542C123.703 249.712 123.848 246.965 124.577 245.224C124.995 244.245 125.579 243.528 126.295 243.113C127.01 242.699 127.841 242.596 128.74 242.812C131.11 243.356 133.671 245.404 136.124 247.387C138.552 249.422 140.991 251.177 143.419 252.634C152.912 258.143 161.688 257.57 167.877 251.038C174.065 244.505 177.176 232.531 176.545 217.669C176.475 215.883 176.348 214.065 176.164 212.215C175.99 210.447 174.281 209.43 174.455 211.207C175.268 219.266 175.01 226.732 173.699 233.098C172.387 239.465 170.054 244.583 166.856 248.106C163.658 251.629 159.671 253.474 155.164 253.517C150.658 253.559 145.738 251.798 140.739 248.352C135.937 245.071 130.163 238.57 125.903 239.995C122.766 241.044 120.675 247.127 123.98 254.033C125.484 257.174 127.671 259.052 129.563 259.662C130.579 259.985 131.523 259.923 132.329 259.483C133.135 259.043 133.784 258.234 134.229 257.113C136.227 252.205 134.764 243.365 132.513 236.025C128.088 221.604 118.961 208.229 110.382 203.736C109.321 203.185 108.273 202.766 107.247 202.484C106.185 202.187 106.772 205.051 107.827 205.345L107.827 205.345Z" fill="black"/>
<rect id="Rectangle 7" x="72.3205" y="130.098" width="10" height="20" transform="rotate(-46.7005 72.3205 130.098)" fill="#FF8F0C"/>
<rect id="Rectangle 8" x="252.837" y="179.774" width="40" height="10" transform="rotate(122.526 252.837 179.774)" fill="#9010F5"/>
<path id="Arrow 1" d="M223.05 117.002C222.534 116.354 221.59 116.247 220.943 116.764L210.385 125.178C209.737 125.694 209.631 126.638 210.147 127.286C210.663 127.933 211.607 128.04 212.255 127.524L221.639 120.045L229.118 129.429C229.635 130.077 230.578 130.183 231.226 129.667C231.874 129.151 231.981 128.207 231.464 127.559L223.05 117.002ZM218.877 157.852L223.368 118.105L220.387 117.768L215.896 157.516L218.877 157.852Z" fill="#47DADA"/>
<path id="Arrow 2" d="M97.3476 250.674C96.5595 250.929 96.1273 251.774 96.3824 252.562L100.539 265.407C100.794 266.195 101.64 266.627 102.428 266.372C103.216 266.117 103.648 265.271 103.393 264.483L99.6985 253.066L111.115 249.371C111.904 249.116 112.336 248.27 112.081 247.482C111.826 246.694 110.98 246.262 110.192 246.517L97.3476 250.674ZM125.206 264.416L98.4921 250.765L97.127 253.436L123.841 267.087L125.206 264.416Z" fill="#3C50B8"/>
<path id="Polygon 1" d="M77 191L85.6603 206H68.3397L77 191Z" fill="#F09AA5"/>
<path id="Polygon 2" d="M191.02 61.0305L172.089 85.8624L161.768 71.9532L191.02 61.0305Z" fill="#76920A"/>
<circle id="Ellipse 1" cx="79" cy="161" r="15" fill="#5357AF"/>
<circle id="Ellipse 2" cx="118" cy="64" r="15" fill="#BAC9FF"/>
<path id="Star 1" d="M20 83L24.4903 96.8197H39.0211L27.2654 105.361L31.7557 119.18L20 110.639L8.2443 119.18L12.7346 105.361L0.97887 96.8197H15.5097L20 83Z" fill="#620A0A"/>
<path id="Vector 6" d="M17 70C39.2961 58.4478 48.7866 59.9981 63 70C80.9761 60.7643 83.8009 55.4986 80 46C110.794 28.325 122.224 25.4208 132 33" stroke="#CDBC63" stroke-width="4"/>
</g>
</g>
</svg>
