<svg width="572" height="529" viewBox="0 0 572 529" fill="none" xmlns="http://www.w3.org/2000/svg">
<g id="patake 2">
<g id="hand">
<path id="Vector" d="M56.5412 420.256L27.065 442.974C27.065 442.974 131.087 445.402 154.06 437.263C177.033 429.124 209.757 380.404 209.757 380.404L168.748 368.085L56.5412 420.256Z" fill="#FBBEC6"/>
<path id="Vector_2" d="M246.382 381.771L253.011 388.479C253.011 388.479 247.915 402.98 235.226 394.627L246.382 381.771Z" fill="#FBBEC6"/>
<path id="Vector_3" d="M232.239 399.906L238.869 406.614C238.869 406.614 233.773 421.115 221.084 412.762L232.239 399.906Z" fill="#FBBEC6"/>
<path id="Vector_4" d="M216.867 419.618L223.453 426.382C223.453 426.382 217.83 441.559 205.097 433.262L216.867 419.618Z" fill="#FBBEC6"/>
<path id="Vector_5" d="M199.129 437.485L205.759 444.193C205.759 444.193 200.663 458.694 187.974 450.341L199.129 437.485Z" fill="#FBBEC6"/>
</g>
<path id="Rectangle 3" d="M198.134 344.503C201.024 341.161 206.164 340.69 209.614 343.45L245.949 372.519C249.399 375.279 249.853 380.226 246.963 383.568L194.421 444.331C183.126 457.393 163.039 459.237 149.556 448.45V448.45C136.072 437.662 134.297 418.329 145.592 405.267L198.134 344.503Z" fill="#EB5A5A"/>
<path id="Vector 5" d="M162.907 385.021C171.918 412.13 182.105 421.163 210.111 425.342" stroke="#CDBC63" stroke-width="4"/>
<path id="Vector 6" d="M148.6 402.298C157.611 429.408 167.798 438.44 195.804 442.619" stroke="#CDBC63" stroke-width="4"/>
<path id="Vector 7" d="M176.6 370.298C185.611 397.408 195.798 406.44 223.804 410.619" stroke="#CDBC63" stroke-width="4"/>
<rect id="Rectangle 4" width="62.5312" height="129.906" rx="8" transform="matrix(0.780812 0.624766 -0.654115 0.756395 289.451 239.074)" fill="#EB5A5A"/>
<path id="hand - thumb" d="M18.0517 421.78L109.843 396.694L145.786 359.746L189.545 340.051L206.265 329.769C206.265 329.769 214.488 339.762 182.651 359.237L166.567 370.52C161.689 381.736 154.718 392.452 146.141 401.919L116.661 434.457C109.719 442.119 45.3332 459.775 36.464 463.347L18.0517 421.78Z" fill="#FBBEC6"/>
<g id="cracles">
<rect id="Rectangle 5" x="361.602" y="167.168" width="20" height="20" transform="rotate(73.4406 361.602 167.168)" fill="#E0CF34"/>
<rect id="Rectangle 6" x="428.648" y="168.098" width="50" height="50" transform="rotate(73.4406 428.648 168.098)" fill="#0AE36E"/>
<rect id="Rectangle 9" x="547.018" y="171.831" width="20" height="50" transform="rotate(106.625 547.018 171.831)" fill="#3E35AA"/>
<path id="Vector_6" d="M430.228 118.427C428.262 125.622 424.618 132.248 419.596 137.762C414.574 143.277 408.316 147.523 401.336 150.152C399.36 150.884 397.142 151.916 395.145 150.712C394.374 150.278 393.773 149.594 393.441 148.774C393.108 147.953 393.064 147.044 393.315 146.195C394.049 144.017 396.532 143.028 398.683 143.186C401.123 143.365 402.641 145.426 403.096 147.678C404.207 153.179 399.819 157.591 396.308 161.159C388.306 169.289 380.691 178.477 377.648 189.705C374.834 200.093 376.625 212.227 384.538 219.965C385.923 221.319 387.923 219.082 386.546 217.735C378.698 210.061 377.875 197.657 381.383 187.746C383.599 181.865 386.806 176.408 390.864 171.609C392.899 169.106 395.074 166.721 397.321 164.407C399.614 162.238 401.711 159.869 403.585 157.329C406.477 153.044 407.609 146.815 403.857 142.628C400.356 138.722 392.99 139.658 390.773 144.521C388.672 149.13 392.345 154.308 397.307 154.296C399.845 154.29 402.605 152.951 404.887 151.944C411.761 148.923 417.871 144.398 422.765 138.702C427.66 133.007 431.214 126.286 433.166 119.035C433.65 117.164 430.711 116.562 430.228 118.427L430.228 118.427Z" fill="#6C63FF"/>
<path id="Vector_7" d="M339.211 263.29C344.141 257.259 350.49 252.545 357.689 249.569C364.887 246.594 372.712 245.449 380.461 246.238C382.221 246.429 383.8 246.828 384.692 248.508C385.077 249.194 385.245 249.979 385.176 250.762C385.106 251.545 384.801 252.289 384.301 252.895C382.718 254.695 379.881 254.55 377.947 253.412C375.867 252.187 375.436 249.651 375.972 247.457C377.359 241.782 383.575 239.671 388.398 237.772C398.787 233.68 409.274 228.337 416.413 219.482C423.122 211.161 426.405 199.434 422.362 189.205C421.652 187.409 418.883 188.564 419.593 190.361C423.583 200.454 419.459 211.867 412.421 219.524C407.991 224.126 402.776 227.901 397.019 230.67C394.235 232.084 391.376 233.344 388.48 234.511C385.543 235.557 382.689 236.821 379.939 238.291C375.281 241.03 371.297 246.43 373.226 252.078C374.971 257.188 382.381 259.049 386.237 255.189C386.931 254.45 387.456 253.571 387.778 252.611C388.1 251.65 388.211 250.632 388.103 249.625C387.995 248.618 387.671 247.646 387.152 246.776C386.634 245.905 385.934 245.158 385.099 244.583C383.062 243.205 380.443 243.158 378.067 243.047C370.228 242.675 362.411 244.15 355.246 247.352C348.081 250.554 341.768 255.394 336.816 261.482C335.611 262.992 338.005 264.801 339.211 263.29L339.211 263.29Z" fill="#FF6584"/>
<path id="Vector_8" d="M330.679 162.62C330.815 170.749 322.451 182.539 311.257 191.097C305.575 195.441 298.38 199.593 292.665 200.462C291.31 200.719 290.125 200.676 289.218 200.334C288.31 199.993 287.709 199.366 287.468 198.508C287.136 196.953 287.876 194.546 290.318 192.479C292.677 190.482 295.351 189.838 297.228 190.042C298.285 190.163 299.139 190.519 299.74 191.086C300.341 191.653 300.677 192.421 300.726 193.344C300.88 195.771 299.647 198.81 298.445 201.725C297.187 204.633 296.2 207.471 295.495 210.213C292.92 220.883 295.971 229.132 303.996 233.202C312.021 237.272 324.385 236.841 338.451 232C340.143 231.424 341.849 230.784 343.57 230.08C345.216 229.41 345.703 227.482 344.049 228.156C336.556 231.231 329.327 233.112 322.85 233.669C316.374 234.227 310.803 233.449 306.515 231.388C302.227 229.327 299.321 226.031 297.997 221.723C296.672 217.416 296.958 212.198 298.836 206.424C300.612 200.886 305.198 193.499 302.618 189.822C300.718 187.114 294.291 186.843 288.614 191.98C286.031 194.317 284.855 196.948 284.809 198.936C284.79 200.001 285.117 200.888 285.769 201.536C286.421 202.183 287.381 202.574 288.582 202.682C293.857 203.198 301.913 199.276 308.306 195.026C320.868 186.675 331.087 174.114 332.949 164.61C333.175 163.436 333.278 162.312 333.256 161.248C333.237 160.146 330.66 161.525 330.679 162.62L330.679 162.62Z" fill="black"/>
<rect id="Rectangle 7" x="392.685" y="107.14" width="10" height="20" transform="rotate(26.7401 392.685 107.14)" fill="#FF8F0C"/>
<rect id="Rectangle 8" x="396.518" y="294.328" width="40" height="10" transform="rotate(-164.034 396.518 294.328)" fill="#9010F5"/>
<path id="Arrow 1" d="M448.198 247.886C448.671 247.206 448.505 246.271 447.825 245.797L436.751 238.076C436.072 237.602 435.137 237.769 434.663 238.449C434.189 239.128 434.356 240.063 435.035 240.537L444.879 247.4L438.015 257.244C437.542 257.923 437.708 258.858 438.388 259.332C439.067 259.806 440.002 259.639 440.476 258.96L448.198 247.886ZM407.852 255.529L447.23 248.505L446.704 245.551L407.325 252.575L407.852 255.529Z" fill="#47DADA"/>
<path id="Arrow 2" d="M284.243 165.494C283.774 164.812 282.841 164.638 282.158 165.107L271.031 172.753C270.348 173.222 270.175 174.155 270.644 174.838C271.113 175.521 272.047 175.694 272.73 175.225L282.62 168.43L289.416 178.32C289.885 179.003 290.819 179.176 291.502 178.707C292.184 178.238 292.358 177.304 291.889 176.621L284.243 165.494ZM279.011 196.114L284.482 166.617L281.532 166.07L276.061 195.567L279.011 196.114Z" fill="#3C50B8"/>
<path id="Polygon 1" d="M335.643 128.983L323.733 141.559L318.797 124.957L335.643 128.983Z" fill="#F09AA5"/>
<path id="Polygon 2" d="M492.719 201.232L463.521 190.163L473.912 176.306L492.719 201.232Z" fill="#76920A"/>
<circle id="Ellipse 1" cx="364.968" cy="122.35" r="15" transform="rotate(73.4406 364.968 122.35)" fill="#5357AF"/>
<circle id="Ellipse 2" cx="469.061" cy="132.086" r="15" transform="rotate(73.4406 469.061 132.086)" fill="#BAC9FF"/>
<path id="Star 1" d="M422.918 43.5661L410.951 51.8089L415.093 65.7371L403.555 56.9032L391.589 65.146L396.425 51.4436L384.888 42.6097L399.414 42.975L404.25 29.2726L408.392 43.2008L422.918 43.5661Z" fill="#620A0A"/>
<path id="Vector 6_2" d="M434.524 36.9854C451.951 55.0643 453.17 64.603 447.634 81.0775C461.61 95.6758 467.462 96.8826 475.484 90.5322C501.202 115.012 507.244 125.14 502.765 136.67" stroke="#CDBC63" stroke-width="4"/>
</g>
</g>
</svg>
