<svg width="645" height="570" viewBox="0 0 645 570" fill="none" xmlns="http://www.w3.org/2000/svg">
<g clip-path="url(#clip0_1_2)">
<path d="M559.995 340.901H17.6545C13.2799 340.896 9.08596 339.156 5.99268 336.063C2.8994 332.97 1.15942 328.776 1.15448 324.401V18.6016H576.495V324.401C576.49 328.776 574.75 332.97 571.656 336.063C568.563 339.156 564.369 340.896 559.995 340.901Z" fill="#E6E6E6"/>
<path d="M538.412 309.318H39.2371C36.9835 309.315 34.823 308.419 33.2295 306.825C31.636 305.232 30.7396 303.071 30.7371 300.818V58.6841C30.7396 56.4305 31.636 54.27 33.2295 52.6765C34.823 51.0829 36.9835 50.1866 39.2371 50.1841H538.412C540.665 50.1866 542.826 51.0829 544.419 52.6764C546.013 54.2699 546.909 56.4305 546.912 58.6841V300.818C546.909 303.071 546.013 305.232 544.419 306.826C542.826 308.419 540.665 309.315 538.412 309.318Z" fill="white"/>
<path d="M577.649 29.7476H0V16.5C0.00494149 12.1254 1.74492 7.93148 4.8382 4.8382C7.93148 1.74492 12.1254 0.00494149 16.5 0H561.149C565.524 0.00494149 569.718 1.74492 572.811 4.8382C575.904 7.93148 577.644 12.1254 577.649 16.5V29.7476Z" fill="#348DCB"/>
<path d="M157.311 216.609H68.4658C66.2123 216.606 64.0517 215.71 62.4582 214.116C60.8647 212.523 59.9684 210.362 59.9658 208.109V149.702C59.9684 147.449 60.8647 145.288 62.4582 143.695C64.0517 142.101 66.2123 141.205 68.4658 141.202H157.311C159.565 141.205 161.725 142.101 163.319 143.695C164.912 145.288 165.809 147.449 165.811 149.702V208.109C165.809 210.362 164.912 212.523 163.319 214.117C161.725 215.71 159.565 216.606 157.311 216.609Z" fill="#E6E6E6"/>
<path d="M512.955 184.479H232.24C230.987 184.479 229.784 183.98 228.898 183.094C228.011 182.207 227.513 181.005 227.513 179.751C227.513 178.497 228.011 177.295 228.898 176.408C229.784 175.522 230.987 175.023 232.24 175.023H512.955C514.209 175.023 515.412 175.522 516.298 176.408C517.185 177.295 517.683 178.497 517.683 179.751C517.683 181.005 517.185 182.207 516.298 183.094C515.412 183.98 514.209 184.479 512.955 184.479Z" fill="#E6E6E6"/>
<path d="M512.955 218.3H232.24C230.987 218.3 229.784 217.802 228.897 216.915C228.011 216.028 227.513 214.826 227.513 213.572C227.513 212.318 228.011 211.116 228.897 210.229C229.784 209.342 230.987 208.844 232.24 208.844H512.955C514.209 208.844 515.412 209.342 516.298 210.229C517.185 211.116 517.683 212.318 517.683 213.572C517.683 214.826 517.185 216.028 516.298 216.915C515.412 217.802 514.209 218.3 512.955 218.3Z" fill="#E6E6E6"/>
<path d="M419.548 556.311H407.288L401.456 509.023H419.55L419.548 556.311Z" fill="#A0616A"/>
<path d="M398.531 552.808H422.175V567.695H383.644C383.644 565.74 384.029 563.804 384.777 561.998C385.526 560.191 386.622 558.55 388.004 557.168C389.387 555.786 391.028 554.689 392.834 553.941C394.64 553.193 396.576 552.808 398.531 552.808Z" fill="#2F2E41"/>
<path d="M470.548 556.311H458.288L452.456 509.023H470.55L470.548 556.311Z" fill="#A0616A"/>
<path d="M449.531 552.808H473.175V567.695H434.644C434.644 565.74 435.029 563.804 435.777 561.998C436.526 560.191 437.622 558.55 439.004 557.168C440.387 555.786 442.028 554.689 443.834 553.941C445.64 553.193 447.576 552.808 449.531 552.808Z" fill="#2F2E41"/>
<path d="M468.987 545.443H456.507C455.38 545.437 454.295 545.01 453.466 544.247C452.636 543.483 452.122 542.438 452.023 541.315L441.447 413.916C441.416 413.546 441.249 413.2 440.977 412.946C440.706 412.692 440.35 412.548 439.978 412.541C439.607 412.535 439.246 412.666 438.966 412.911C438.686 413.155 438.506 413.495 438.463 413.864L423.273 541.475C423.143 542.568 422.616 543.576 421.792 544.307C420.969 545.038 419.906 545.442 418.805 545.443H403.481C402.292 545.441 401.153 544.969 400.31 544.131C399.468 543.293 398.991 542.156 398.983 540.967C398.949 532.951 398.895 524.877 398.84 516.802C398.354 444.88 397.851 370.51 412.869 341.374L413.005 341.109L467.198 340.182L467.334 340.48C483.73 376.31 478.754 456.355 473.941 533.763L473.478 541.222C473.405 542.364 472.9 543.436 472.066 544.22C471.232 545.004 470.131 545.441 468.987 545.443Z" fill="#2F2E41"/>
<path d="M443.314 244.425C456.878 244.425 467.875 233.428 467.875 219.864C467.875 206.299 456.878 195.303 443.314 195.303C429.749 195.303 418.753 206.299 418.753 219.864C418.753 233.428 429.749 244.425 443.314 244.425Z" fill="#A0616A"/>
<path d="M409.829 345.623L410.505 317.463L405.633 295.492C404.402 290.051 404.474 284.397 405.843 278.989C407.211 273.581 409.838 268.574 413.508 264.373C417.079 260.194 421.588 256.918 426.666 254.813C431.743 252.707 437.247 251.832 442.728 252.258C443.081 252.285 443.436 252.315 443.792 252.347C448.475 252.769 453.025 254.129 457.17 256.346C461.316 258.564 464.973 261.593 467.923 265.254C470.935 268.936 473.175 273.186 474.508 277.752C475.842 282.317 476.243 287.105 475.687 291.828L469.793 343.345L409.829 345.623Z" fill="#348DCB"/>
<path d="M388.965 396.093C390.123 395.188 391.07 394.041 391.737 392.731C392.404 391.421 392.776 389.98 392.826 388.511C392.876 387.042 392.604 385.579 392.028 384.227C391.452 382.874 390.586 381.665 389.492 380.683L403.32 347.732L385.07 351.16L374.736 381.925C373.209 383.872 372.449 386.312 372.6 388.783C372.751 391.253 373.803 393.582 375.557 395.329C377.311 397.075 379.645 398.118 382.116 398.259C384.587 398.399 387.024 397.629 388.965 396.093Z" fill="#A0616A"/>
<path d="M493.308 400.043C492.203 399.074 491.323 397.874 490.732 396.528C490.14 395.182 489.851 393.723 489.885 392.253C489.918 390.784 490.273 389.339 490.925 388.021C491.577 386.704 492.51 385.545 493.659 384.627L481.727 350.943L499.753 355.404L508.32 386.707C509.734 388.738 510.354 391.218 510.062 393.675C509.771 396.133 508.588 398.399 506.737 400.042C504.887 401.686 502.498 402.594 500.023 402.594C497.548 402.594 495.159 401.686 493.308 400.043Z" fill="#A0616A"/>
<path d="M391.16 379.947C390.526 379.947 389.899 379.813 389.321 379.554L378.8 374.841C377.788 374.389 376.979 373.579 376.527 372.567C376.076 371.554 376.015 370.411 376.356 369.356L394.004 314.536L400.824 273.237C401.066 271.769 401.601 270.365 402.397 269.109C403.193 267.853 404.234 266.769 405.457 265.923C406.68 265.077 408.061 264.486 409.518 264.184C410.974 263.882 412.476 263.877 413.935 264.168C415.393 264.459 416.779 265.04 418.008 265.877C419.238 266.714 420.286 267.79 421.091 269.04C421.896 270.291 422.442 271.691 422.695 273.156C422.948 274.622 422.904 276.123 422.565 277.572L412.2 321.864L395.465 376.759C395.184 377.682 394.614 378.49 393.839 379.064C393.064 379.638 392.125 379.947 391.16 379.947Z" fill="#348DCB"/>
<path d="M491.522 379.947C490.558 379.947 489.619 379.638 488.844 379.064C488.068 378.49 487.498 377.682 487.217 376.759L470.491 321.895L460.117 277.572C459.778 276.123 459.734 274.622 459.987 273.156C460.24 271.69 460.786 270.291 461.591 269.04C462.396 267.79 463.445 266.714 464.674 265.877C465.904 265.04 467.289 264.458 468.747 264.167C470.206 263.877 471.708 263.882 473.165 264.184C474.621 264.485 476.002 265.077 477.225 265.923C478.449 266.769 479.489 267.852 480.285 269.109C481.081 270.365 481.616 271.769 481.859 273.237L488.696 314.609L506.327 369.356C506.667 370.411 506.606 371.554 506.155 372.567C505.704 373.579 504.894 374.389 503.882 374.841L493.361 379.554C492.783 379.813 492.156 379.947 491.522 379.947Z" fill="#348DCB"/>
<path d="M443.819 192.714C436.993 189.758 428.076 193.437 425.321 200.347C423.606 204.647 424.13 209.498 425.075 214.03C426.02 218.562 427.368 223.085 427.223 227.712C427.078 232.34 425.085 237.251 420.98 239.392C418.527 240.671 415.658 240.813 412.999 241.576C410.34 242.339 407.596 244.123 407.213 246.862C406.633 251.007 411.661 254.163 411.627 258.348C411.592 262.782 406.05 265.415 405.332 269.79C405.209 271.072 405.412 272.363 405.925 273.544C406.437 274.725 407.241 275.756 408.261 276.54C410.319 278.086 412.657 279.218 415.146 279.873C434.294 285.993 454.682 287.155 474.401 283.249C478.319 282.468 482.352 281.411 485.396 278.824C488.441 276.236 490.182 271.707 488.432 268.115C485.809 262.731 477.479 262.424 474.576 257.184C472.835 254.042 473.636 250.183 474.003 246.609C474.95 237.378 477.134 226.595 474.841 217.604C472.769 209.48 468.271 198.984 461.841 193.604C457.228 189.744 448.42 191.502 442.523 192.693L443.819 192.714Z" fill="#2F2E41"/>
<path d="M643.463 569.058H293.463C293.198 569.058 292.943 568.953 292.756 568.765C292.568 568.578 292.463 568.323 292.463 568.058C292.463 567.793 292.568 567.539 292.756 567.351C292.943 567.163 293.198 567.058 293.463 567.058H643.463C643.728 567.058 643.982 567.163 644.17 567.351C644.358 567.539 644.463 567.793 644.463 568.058C644.463 568.323 644.358 568.578 644.17 568.765C643.982 568.953 643.728 569.058 643.463 569.058Z" fill="#CCCCCC"/>
<path d="M606.609 546.287C592.189 565.598 562.257 567.63 562.257 567.63C562.257 567.63 555.704 538.353 570.123 519.042C584.543 499.731 614.475 497.699 614.475 497.699C614.475 497.699 621.029 526.976 606.609 546.287Z" fill="#E6E6E6"/>
<path d="M533.152 553.546C542.667 566.289 562.419 567.63 562.419 567.63C562.419 567.63 566.743 548.311 557.228 535.568C547.713 522.826 527.962 521.484 527.962 521.484C527.962 521.484 523.637 540.803 533.152 553.546Z" fill="#E6E6E6"/>
<path d="M229.211 149V133H235.82C237.018 133 238.052 133.234 238.922 133.703C239.797 134.167 240.471 134.815 240.945 135.648C241.419 136.477 241.656 137.44 241.656 138.539C241.656 139.643 241.414 140.609 240.93 141.438C240.451 142.26 239.766 142.898 238.875 143.352C237.984 143.805 236.927 144.031 235.703 144.031H231.625V140.984H234.984C235.568 140.984 236.055 140.883 236.445 140.68C236.841 140.477 237.141 140.193 237.344 139.828C237.547 139.458 237.648 139.029 237.648 138.539C237.648 138.044 237.547 137.617 237.344 137.258C237.141 136.893 236.841 136.612 236.445 136.414C236.049 136.216 235.563 136.117 234.984 136.117H233.078V149H229.211ZM243.563 149V133H250.172C251.37 133 252.404 133.216 253.273 133.648C254.148 134.076 254.823 134.69 255.297 135.492C255.771 136.289 256.008 137.234 256.008 138.328C256.008 139.437 255.766 140.38 255.281 141.156C254.797 141.927 254.109 142.516 253.219 142.922C252.328 143.323 251.273 143.523 250.055 143.523H245.875V140.477H249.336C249.919 140.477 250.406 140.401 250.797 140.25C251.193 140.094 251.492 139.859 251.695 139.547C251.898 139.229 252 138.823 252 138.328C252 137.833 251.898 137.424 251.695 137.102C251.492 136.773 251.193 136.529 250.797 136.367C250.401 136.201 249.914 136.117 249.336 136.117H247.43V149H243.563ZM252.57 141.687L256.555 149H252.336L248.43 141.687H252.57ZM261.996 133V149H258.129V133H261.996ZM268.057 133L271.635 144.719H271.768L275.346 133H279.674L274.275 149H269.127L263.729 133H268.057ZM282.473 149H278.316L283.715 133H288.863L294.262 149H290.105L286.348 137.031H286.223L282.473 149ZM281.918 142.703H290.605V145.641H281.918V142.703ZM309.756 138.797H305.85C305.798 138.396 305.691 138.034 305.529 137.711C305.368 137.388 305.154 137.112 304.889 136.883C304.623 136.654 304.308 136.479 303.943 136.359C303.584 136.234 303.186 136.172 302.748 136.172C301.972 136.172 301.303 136.362 300.74 136.742C300.183 137.122 299.753 137.672 299.451 138.391C299.154 139.109 299.006 139.979 299.006 141C299.006 142.062 299.157 142.953 299.459 143.672C299.766 144.385 300.196 144.924 300.748 145.289C301.305 145.648 301.964 145.828 302.725 145.828C303.152 145.828 303.54 145.773 303.889 145.664C304.243 145.555 304.553 145.396 304.818 145.188C305.089 144.974 305.311 144.716 305.482 144.414C305.66 144.107 305.782 143.76 305.85 143.375L309.756 143.398C309.688 144.107 309.482 144.805 309.139 145.492C308.8 146.18 308.334 146.807 307.74 147.375C307.146 147.937 306.423 148.385 305.568 148.719C304.719 149.052 303.745 149.219 302.646 149.219C301.199 149.219 299.902 148.901 298.756 148.266C297.615 147.625 296.714 146.693 296.053 145.469C295.391 144.245 295.061 142.755 295.061 141C295.061 139.24 295.396 137.747 296.068 136.523C296.74 135.299 297.649 134.37 298.795 133.734C299.941 133.099 301.225 132.781 302.646 132.781C303.615 132.781 304.511 132.917 305.334 133.188C306.157 133.453 306.881 133.844 307.506 134.359C308.131 134.87 308.639 135.497 309.029 136.242C309.42 136.987 309.662 137.839 309.756 138.797ZM311.172 133H315.492L318.875 139.695H319.016L322.398 133H326.719L320.867 143.656V149H317.023V143.656L311.172 133ZM333.066 149V133H339.676C340.874 133 341.908 133.234 342.777 133.703C343.652 134.167 344.327 134.815 344.801 135.648C345.275 136.477 345.512 137.44 345.512 138.539C345.512 139.643 345.27 140.609 344.785 141.438C344.306 142.26 343.621 142.898 342.73 143.352C341.84 143.805 340.783 144.031 339.559 144.031H335.48V140.984H338.84C339.423 140.984 339.91 140.883 340.301 140.68C340.697 140.477 340.996 140.193 341.199 139.828C341.402 139.458 341.504 139.029 341.504 138.539C341.504 138.044 341.402 137.617 341.199 137.258C340.996 136.893 340.697 136.612 340.301 136.414C339.905 136.216 339.418 136.117 338.84 136.117H336.934V149H333.066ZM362.52 141C362.52 142.76 362.181 144.253 361.504 145.477C360.827 146.701 359.91 147.63 358.754 148.266C357.603 148.901 356.311 149.219 354.879 149.219C353.441 149.219 352.147 148.898 350.996 148.258C349.845 147.617 348.931 146.687 348.254 145.469C347.582 144.245 347.246 142.755 347.246 141C347.246 139.24 347.582 137.747 348.254 136.523C348.931 135.299 349.845 134.37 350.996 133.734C352.147 133.099 353.441 132.781 354.879 132.781C356.311 132.781 357.603 133.099 358.754 133.734C359.91 134.37 360.827 135.299 361.504 136.523C362.181 137.747 362.52 139.24 362.52 141ZM358.566 141C358.566 139.958 358.418 139.078 358.121 138.359C357.829 137.641 357.408 137.096 356.855 136.727C356.309 136.357 355.65 136.172 354.879 136.172C354.113 136.172 353.454 136.357 352.902 136.727C352.35 137.096 351.926 137.641 351.629 138.359C351.337 139.078 351.191 139.958 351.191 141C351.191 142.042 351.337 142.922 351.629 143.641C351.926 144.359 352.35 144.904 352.902 145.273C353.454 145.643 354.113 145.828 354.879 145.828C355.65 145.828 356.309 145.643 356.855 145.273C357.408 144.904 357.829 144.359 358.121 143.641C358.418 142.922 358.566 142.042 358.566 141ZM364.777 149V133H368.645V145.859H375.301V149H364.777ZM381.17 133V149H377.303V133H381.17ZM398.121 138.797H394.215C394.163 138.396 394.056 138.034 393.895 137.711C393.733 137.388 393.52 137.112 393.254 136.883C392.988 136.654 392.673 136.479 392.309 136.359C391.949 136.234 391.551 136.172 391.113 136.172C390.337 136.172 389.668 136.362 389.105 136.742C388.548 137.122 388.118 137.672 387.816 138.391C387.52 139.109 387.371 139.979 387.371 141C387.371 142.062 387.522 142.953 387.824 143.672C388.132 144.385 388.561 144.924 389.113 145.289C389.671 145.648 390.329 145.828 391.09 145.828C391.517 145.828 391.905 145.773 392.254 145.664C392.608 145.555 392.918 145.396 393.184 145.188C393.454 144.974 393.676 144.716 393.848 144.414C394.025 144.107 394.147 143.76 394.215 143.375L398.121 143.398C398.053 144.107 397.848 144.805 397.504 145.492C397.165 146.18 396.699 146.807 396.105 147.375C395.512 147.937 394.788 148.385 393.934 148.719C393.085 149.052 392.111 149.219 391.012 149.219C389.564 149.219 388.267 148.901 387.121 148.266C385.98 147.625 385.079 146.693 384.418 145.469C383.757 144.245 383.426 142.755 383.426 141C383.426 139.24 383.762 137.747 384.434 136.523C385.105 135.299 386.014 134.37 387.16 133.734C388.306 133.099 389.59 132.781 391.012 132.781C391.98 132.781 392.876 132.917 393.699 133.188C394.522 133.453 395.246 133.844 395.871 134.359C396.496 134.87 397.004 135.497 397.395 136.242C397.785 136.987 398.027 137.839 398.121 138.797ZM399.537 133H403.857L407.24 139.695H407.381L410.764 133H415.084L409.232 143.656V149H405.389V143.656L399.537 133Z" fill="#348DCB"/>
</g>
<defs>
<clipPath id="clip0_1_2">
<rect width="644.463" height="569.058" fill="white"/>
</clipPath>
</defs>
</svg>
