<svg width="827" height="574" viewBox="0 0 827 574" fill="none" xmlns="http://www.w3.org/2000/svg">
<g id="undraw_Selecting_team_re_ndkb 1" clip-path="url(#clip0)">
<path id="Ellipse 182" d="M93.108 60.318C95.5126 60.318 97.462 58.3686 97.462 55.964C97.462 53.5594 95.5126 51.61 93.108 51.61C90.7034 51.61 88.754 53.5594 88.754 55.964C88.754 58.3686 90.7034 60.318 93.108 60.318Z" fill="white"/>
<path id="Ellipse 183" d="M109.633 60.318C112.038 60.318 113.987 58.3686 113.987 55.964C113.987 53.5594 112.038 51.61 109.633 51.61C107.228 51.61 105.279 53.5594 105.279 55.964C105.279 58.3686 107.228 60.318 109.633 60.318Z" fill="white"/>
<path id="Ellipse 184" d="M126.158 60.318C128.563 60.318 130.512 58.3686 130.512 55.964C130.512 53.5594 128.563 51.61 126.158 51.61C123.753 51.61 121.804 53.5594 121.804 55.964C121.804 58.3686 123.753 60.318 126.158 60.318Z" fill="white"/>
<path id="Rectangle 266" d="M635.428 66.193H82.529V69.266H635.428V66.193Z" fill="white"/>
<path id="Rectangle 246" d="M635.902 0.360001H0.270996V407.446H635.902V0.360001Z" fill="#E6E6E6"/>
<path id="Rectangle 264" d="M635.631 0H0V27.004H635.631V0Z" fill="#E0A91B"/>
<path id="Rectangle 247" d="M618.252 48.785H18.972V203.97H618.252V48.785Z" fill="white"/>
<path id="Rectangle 259" d="M618.631 229.471H19.351V384.656H618.631V229.471Z" fill="white"/>
<g id="Group 31">
<path id="Rectangle 250" d="M545.671 83.115H221.34V97.57H545.671V83.115Z" fill="#E6E6E6"/>
<path id="Rectangle 251" d="M336.979 119.252H221.34V133.707H336.979V119.252Z" fill="#E6E6E6"/>
<path id="Rectangle 252" d="M451.715 155.389H221.34V169.844H451.715V155.389Z" fill="#E6E6E6"/>
</g>
<path id="Path 952" d="M196.947 306.269C196.964 316.793 193.901 327.092 188.134 335.896C186.926 337.753 185.601 339.531 184.169 341.221C180.81 345.2 176.898 348.676 172.552 351.543C171.37 352.326 170.155 353.06 168.907 353.743C162.411 357.336 155.242 359.544 147.85 360.228C146.17 360.392 144.462 360.47 142.739 360.47C138.016 360.475 133.314 359.86 128.751 358.641C126.165 357.961 123.635 357.083 121.184 356.014C119.931 355.473 118.707 354.884 117.511 354.249C114.634 352.738 111.901 350.968 109.346 348.96C108.157 348.035 107.011 347.059 105.908 346.034C99.3063 339.917 94.3319 332.252 91.4338 323.731C88.5357 315.21 87.8051 306.102 89.3079 297.228C90.8107 288.354 94.4997 279.994 100.042 272.903C105.584 265.811 112.805 260.212 121.053 256.609C129.3 253.007 138.315 251.515 147.284 252.268C156.253 253.022 164.892 255.997 172.424 260.925C179.955 265.853 186.14 272.578 190.422 280.495C194.703 288.412 196.946 297.27 196.947 306.27V306.269Z" fill="#E0A91B"/>
<g id="Group 32">
<path id="Rectangle 273" d="M146.065 280.966H139.42V331.558H146.065V280.966Z" fill="white"/>
<path id="Rectangle 274" d="M168.038 302.94H117.446V309.585H168.038V302.94Z" fill="white"/>
</g>
<g id="Group 33">
<path id="Rectangle 250-2" d="M537.54 263.801H213.209V278.256H537.54V263.801Z" fill="#E6E6E6"/>
<path id="Rectangle 251-2" d="M328.848 299.938H213.209V314.393H328.848V299.938Z" fill="#E6E6E6"/>
<path id="Rectangle 252-2" d="M443.584 336.075H213.209V350.53H443.584V336.075Z" fill="#E6E6E6"/>
</g>
<path id="Ellipse 194" d="M42.039 17.9C44.5061 17.9 46.506 15.9001 46.506 13.433C46.506 10.9659 44.5061 8.966 42.039 8.966C39.572 8.966 37.572 10.9659 37.572 13.433C37.572 15.9001 39.572 17.9 42.039 17.9Z" fill="white"/>
<path id="Ellipse 195" d="M58.995 17.9C61.4621 17.9 63.462 15.9001 63.462 13.433C63.462 10.9659 61.4621 8.966 58.995 8.966C56.528 8.966 54.528 10.9659 54.528 13.433C54.528 15.9001 56.528 17.9 58.995 17.9Z" fill="white"/>
<path id="Ellipse 246" d="M25.039 17.9C27.5061 17.9 29.506 15.9001 29.506 13.433C29.506 10.9659 27.5061 8.966 25.039 8.966C22.572 8.966 20.572 10.9659 20.572 13.433C20.572 15.9001 22.572 17.9 25.039 17.9Z" fill="white"/>
<path id="Vector" d="M673.068 376.971C670.405 369.319 666.104 362.34 660.466 356.521C654.828 350.701 647.988 346.182 640.424 343.278C632.86 340.374 624.754 339.154 616.67 339.705C608.586 340.255 600.72 342.563 593.619 346.466C586.519 350.369 580.355 355.774 575.558 362.304C570.761 368.834 567.447 376.332 565.845 384.274C564.244 392.217 564.394 400.413 566.286 408.292C568.178 416.17 571.765 423.542 576.798 429.891C577.298 430.521 577.818 431.151 578.348 431.761C578.388 431.801 578.418 431.841 578.458 431.881C579.762 433.383 581.147 434.812 582.608 436.161C582.988 436.511 583.388 436.871 583.788 437.211C584.548 437.891 585.328 438.541 586.138 439.161C587.72 440.408 589.369 441.566 591.078 442.631L591.138 442.661C592.248 443.351 593.378 443.991 594.528 444.601L594.998 444.841C596.078 445.401 597.178 445.931 598.308 446.421C598.538 446.521 598.788 446.621 599.018 446.721C599.038 446.731 599.048 446.731 599.068 446.741C601.351 447.691 603.697 448.482 606.088 449.111C610.776 450.361 615.607 450.993 620.458 450.991C622.228 450.991 623.978 450.911 625.708 450.741C629.661 450.376 633.563 449.588 637.348 448.391C637.358 448.391 637.368 448.381 637.378 448.381C639.769 447.62 642.104 446.694 644.368 445.611C644.378 445.601 644.398 445.601 644.408 445.591C644.918 445.351 645.408 445.091 645.908 444.841L646.148 444.721C646.548 444.511 646.948 444.301 647.348 444.081C648.348 443.531 649.328 442.951 650.298 442.331C650.568 442.171 650.828 442.001 651.098 441.821C651.978 441.241 652.848 440.621 653.688 439.991C653.838 439.881 653.998 439.771 654.148 439.651C663.517 432.54 670.393 422.645 673.792 411.385C677.191 400.125 676.937 388.078 673.068 376.971V376.971Z" fill="white"/>
<path id="Vector_2" d="M669.931 372.603C671.313 372.102 672.569 371.304 673.609 370.265C674.649 369.226 675.449 367.972 675.952 366.591C676.455 365.21 676.649 363.735 676.521 362.27C676.392 360.806 675.944 359.387 675.208 358.115L698.567 331.072L680.153 328.675L660.794 354.723C658.738 356.101 657.259 358.186 656.637 360.581C656.016 362.977 656.294 365.518 657.421 367.722C658.547 369.925 660.443 371.64 662.748 372.539C665.054 373.439 667.61 373.462 669.931 372.603V372.603Z" fill="#FFB8B8"/>
<path id="Vector_3" d="M801.595 378.318C802.564 377.212 803.28 375.908 803.69 374.496C804.101 373.085 804.197 371.6 803.971 370.147C803.746 368.695 803.205 367.309 802.386 366.088C801.568 364.867 800.491 363.84 799.233 363.08L806.658 328.125L789.37 334.904L784.969 367.059C783.833 369.257 783.542 371.797 784.152 374.195C784.763 376.594 786.232 378.685 788.281 380.073C790.331 381.461 792.818 382.049 795.272 381.725C797.726 381.402 799.976 380.189 801.595 378.318V378.318Z" fill="#FFB8B8"/>
<path id="Vector_4" d="M717.931 560.49L705.671 560.489L699.839 513.201L717.933 513.202L717.931 560.49Z" fill="#FFB8B8"/>
<path id="Vector_5" d="M721.058 572.374L681.527 572.373V571.873C681.527 569.852 681.925 567.851 682.698 565.984C683.471 564.118 684.605 562.421 686.034 560.993C687.462 559.564 689.159 558.431 691.025 557.657C692.892 556.884 694.893 556.486 696.914 556.486H696.914L721.058 556.487L721.058 572.374Z" fill="#2F2E41"/>
<path id="Vector_6" d="M777.931 560.49L765.671 560.489L759.839 513.201L777.933 513.202L777.931 560.49Z" fill="#FFB8B8"/>
<path id="Vector_7" d="M781.058 572.374L741.527 572.373V571.873C741.527 569.852 741.925 567.851 742.698 565.984C743.471 564.118 744.605 562.421 746.034 560.993C747.462 559.564 749.159 558.431 751.025 557.657C752.892 556.884 754.893 556.486 756.914 556.486H756.914L781.058 556.487L781.058 572.374Z" fill="#2F2E41"/>
<path id="Vector_8" d="M719.208 535.798L701.854 535.103C700.67 535.052 699.554 534.538 698.746 533.671C697.938 532.804 697.503 531.654 697.536 530.47L702.425 370.091L702.745 369.975C733.161 358.972 758.323 359.804 779.671 372.515L779.909 372.658L782.838 528.86C782.85 529.458 782.742 530.052 782.521 530.608C782.3 531.164 781.97 531.67 781.551 532.097C781.132 532.524 780.632 532.863 780.081 533.095C779.529 533.326 778.937 533.445 778.339 533.445H763.705C762.663 533.443 761.653 533.08 760.848 532.418C760.043 531.756 759.492 530.836 759.289 529.813L739.354 428.404C739.285 428.054 739.094 427.739 738.814 427.517C738.534 427.296 738.184 427.181 737.827 427.194C737.47 427.207 737.13 427.347 736.867 427.589C736.604 427.831 736.436 428.159 736.393 428.514L723.855 531.844C723.717 532.933 723.188 533.935 722.366 534.663C721.543 535.391 720.484 535.796 719.386 535.801C719.327 535.801 719.268 535.8 719.208 535.798Z" fill="#2F2E41"/>
<path id="Vector_9" d="M736.092 229.443C749.657 229.443 760.653 218.447 760.653 204.882C760.653 191.317 749.657 180.321 736.092 180.321C722.527 180.321 711.531 191.317 711.531 204.882C711.531 218.447 722.527 229.443 736.092 229.443Z" fill="#FFB8B8"/>
<path id="Vector_10" d="M678.231 353.081C677.379 352.745 676.65 352.157 676.141 351.396L671.395 344.294C670.883 343.524 670.62 342.615 670.641 341.691C670.662 340.766 670.967 339.87 671.514 339.125L690.646 313.157L702.632 255.646C703.322 253.87 704.354 252.248 705.671 250.872C706.988 249.496 708.563 248.392 710.307 247.625C712.05 246.858 713.928 246.442 715.832 246.401C717.736 246.36 719.63 246.694 721.405 247.385C723.18 248.077 724.801 249.111 726.177 250.429C727.552 251.747 728.653 253.323 729.419 255.067C730.185 256.811 730.599 258.689 730.639 260.594C730.678 262.498 730.342 264.391 729.649 266.166L723.984 302.767C722.267 313.876 716.572 323.983 707.96 331.208L682.775 352.343C682.291 352.749 681.726 353.048 681.118 353.222C680.511 353.395 679.873 353.439 679.247 353.35C678.899 353.301 678.558 353.211 678.231 353.081V353.081Z" fill="#3F3D56"/>
<path id="Vector_11" d="M800.547 355.687C799.685 355.998 798.749 356.038 797.864 355.803L789.609 353.608C788.716 353.368 787.918 352.86 787.323 352.152C786.728 351.444 786.365 350.57 786.283 349.649L783.486 317.516L754.485 266.427C753.828 264.639 753.531 262.738 753.61 260.835C753.689 258.931 754.142 257.062 754.944 255.334C755.746 253.606 756.88 252.052 758.283 250.763C759.685 249.474 761.328 248.473 763.117 247.819C764.907 247.165 766.807 246.87 768.711 246.951C770.614 247.032 772.483 247.488 774.21 248.291C775.937 249.095 777.489 250.231 778.777 251.635C780.065 253.039 781.063 254.683 781.715 256.473L801.647 287.69C807.697 297.164 810.101 308.513 808.41 319.626L803.469 352.13C803.374 352.755 803.148 353.353 802.807 353.885C802.465 354.417 802.015 354.871 801.487 355.218C801.193 355.411 800.877 355.568 800.547 355.687V355.687Z" fill="#3F3D56"/>
<path id="Vector_12" d="M709.227 248.499C713.446 243.873 718.649 240.253 724.454 237.906C730.258 235.559 736.516 234.546 742.764 234.94C743.175 234.965 743.584 234.994 743.991 235.026H743.992C749.914 235.494 755.668 237.221 760.869 240.092C766.071 242.963 770.599 246.911 774.152 251.672C777.764 256.5 780.303 262.044 781.601 267.932C782.899 273.82 782.924 279.918 781.676 285.817C776.914 308.361 778.119 331.757 785.173 353.693L791.762 374.152C791.973 374.807 792.031 375.503 791.931 376.184C791.831 376.866 791.576 377.515 791.186 378.082C790.795 378.65 790.28 379.12 789.679 379.456C789.078 379.793 788.408 379.987 787.72 380.024L754.035 381.835L745.415 366.945V382.298L704.474 384.499C704.392 384.504 704.311 384.506 704.231 384.506C703.609 384.506 702.995 384.377 702.426 384.128C701.857 383.878 701.346 383.514 700.924 383.057C700.503 382.601 700.181 382.062 699.978 381.474C699.776 380.887 699.697 380.264 699.747 379.645L704.374 322.263L698.57 283.29C697.63 277.063 698.1 270.705 699.945 264.684C701.789 258.662 704.961 253.132 709.227 248.499V248.499Z" fill="#3F3D56"/>
<path id="Vector_13" d="M753.162 228.329C750.888 229.638 741.899 230.505 741.259 227.961L741.245 227.905C740.799 226.041 741.17 224.094 741.298 222.182C741.426 220.27 741.238 218.169 739.936 216.763C737.508 214.141 733.188 215.531 729.677 214.868C727.621 214.409 725.802 213.216 724.562 211.513C723.321 209.81 722.744 207.713 722.937 205.615C722.987 205.218 723.066 204.82 723.154 204.422C723.373 203.414 723.356 202.37 723.104 201.37C722.852 200.37 722.371 199.442 721.7 198.659C721.029 197.876 720.186 197.259 719.236 196.857C718.286 196.454 717.256 196.278 716.227 196.341C712.679 196.544 708.849 197.619 705.913 194.991C703.643 192.958 703.089 187.668 704.087 184.789C705.763 179.951 716.501 177.418 721.189 176.026C726.987 174.35 733.086 173.988 739.041 174.965C744.997 175.943 750.66 178.235 755.619 181.675C758.58 183.762 761.346 186.385 762.608 189.781C763.87 193.177 763.261 197.461 760.415 199.703C762.621 202.039 764.175 204.913 764.92 208.038C765.665 211.163 765.576 214.43 764.661 217.509C763.256 222.039 756.547 226.381 753.162 228.329Z" fill="#2F2E41"/>
<path id="Vector_14" d="M825.681 573.951H612.681C612.416 573.951 612.161 573.846 611.974 573.658C611.786 573.471 611.681 573.216 611.681 572.951C611.681 572.686 611.786 572.432 611.974 572.244C612.161 572.057 612.416 571.951 612.681 571.951H825.681C825.946 571.951 826.201 572.057 826.388 572.244C826.576 572.432 826.681 572.686 826.681 572.951C826.681 573.216 826.576 573.471 826.388 573.658C826.201 573.846 825.946 573.951 825.681 573.951Z" fill="#CCCCCC"/>
<path id="Rectangle 275" d="M117 150H167V170C167 175.523 162.523 180 157 180H132C123.716 180 117 173.284 117 165V150Z" fill="#3F3D56"/>
<path id="Rectangle 276" d="M595 418H645V438C645 443.523 640.523 448 635 448H610C601.716 448 595 441.284 595 433V418Z" fill="#3F3D56"/>
<path id="Vector_15" d="M176.951 175.63L176.313 173.736L175.389 170.982L174.944 169.661L174.02 166.915L167.352 147.076C167.174 146.544 166.863 146.046 166.438 145.611C166.012 145.175 165.48 144.811 164.873 144.539C164.266 144.267 163.596 144.094 162.903 144.029C162.21 143.964 161.507 144.009 160.837 144.16L157 145.023L158.901 170.301L159.097 172.939L159.222 174.603V174.606L159.421 177.23L159.701 180.961C159.724 181.241 159.881 181.504 160.14 181.697C160.399 181.89 160.741 181.998 161.098 182C161.291 181.999 161.481 181.967 161.658 181.907L176.158 176.923C176.466 176.819 176.716 176.631 176.862 176.393C177.008 176.156 177.039 175.884 176.951 175.63V175.63Z" fill="#E0A91B"/>
<path id="Vector_16" d="M654.951 438.63L654.313 436.736L653.389 433.982L652.944 432.661L652.02 429.915L645.352 410.076C645.174 409.544 644.863 409.046 644.438 408.611C644.012 408.175 643.48 407.811 642.873 407.539C642.266 407.267 641.596 407.094 640.903 407.029C640.21 406.964 639.507 407.009 638.837 407.16L635 408.023L636.901 433.301L637.097 435.939L637.222 437.603V437.606L637.421 440.23L637.701 443.961C637.724 444.241 637.881 444.504 638.14 444.697C638.399 444.89 638.741 444.998 639.098 445C639.291 444.999 639.481 444.967 639.658 444.907L654.158 439.923C654.466 439.819 654.716 439.631 654.862 439.393C655.008 439.156 655.039 438.884 654.951 438.63V438.63Z" fill="#E0A91B"/>
<path id="Vector_17" d="M108.049 171.63L108.687 169.736L109.611 166.982L110.056 165.661L110.98 162.915L117.648 143.076C117.826 142.544 118.137 142.046 118.562 141.611C118.988 141.175 119.52 140.811 120.127 140.539C120.734 140.267 121.404 140.094 122.097 140.029C122.79 139.964 123.493 140.009 124.163 140.16L128 141.023L126.099 166.301L125.903 168.939L125.778 170.603V170.606L125.579 173.23L125.299 176.961C125.276 177.241 125.119 177.504 124.86 177.697C124.601 177.89 124.259 177.998 123.902 178C123.709 177.999 123.519 177.967 123.342 177.907L108.842 172.923C108.534 172.819 108.284 172.631 108.138 172.393C107.992 172.156 107.961 171.884 108.049 171.63V171.63Z" fill="#E0A91B"/>
<path id="Vector_18" d="M585.049 436.63L585.687 434.736L586.611 431.982L587.056 430.661L587.98 427.915L594.648 408.076C594.826 407.544 595.137 407.046 595.562 406.611C595.988 406.175 596.52 405.811 597.127 405.539C597.734 405.267 598.404 405.094 599.097 405.029C599.79 404.964 600.493 405.009 601.163 405.16L605 406.023L603.099 431.301L602.903 433.939L602.778 435.603V435.606L602.579 438.23L602.299 441.961C602.276 442.241 602.119 442.504 601.86 442.697C601.601 442.89 601.259 442.998 600.902 443C600.709 442.999 600.519 442.967 600.342 442.907L585.842 437.923C585.534 437.819 585.284 437.631 585.138 437.393C584.992 437.156 584.961 436.884 585.049 436.63V436.63Z" fill="#E0A91B"/>
<path id="Vector_19" d="M198.978 109.611C196.314 101.959 192.013 94.9799 186.375 89.1607C180.737 83.3415 173.898 78.8221 166.334 75.9178C158.77 73.0135 150.663 71.7941 142.579 72.3447C134.496 72.8953 126.629 75.2026 119.529 79.1057C112.428 83.0089 106.265 88.4139 101.468 94.9438C96.671 101.474 93.3563 108.972 91.7548 116.914C90.1533 124.857 90.3037 133.053 92.1954 140.932C94.0872 148.81 97.6747 156.181 102.708 162.531C103.208 163.161 103.728 163.791 104.258 164.401C104.298 164.441 104.328 164.481 104.368 164.521C105.672 166.023 107.057 167.452 108.518 168.801C108.898 169.151 109.298 169.511 109.698 169.851C110.458 170.531 111.238 171.181 112.048 171.801C112.368 172.051 112.678 172.301 113.008 172.541C114.288 173.511 115.618 174.411 116.988 175.271L117.048 175.301C117.438 175.541 117.838 175.781 118.238 176.011C118.958 176.441 119.698 176.851 120.438 177.241L120.908 177.481C121.988 178.041 123.088 178.571 124.218 179.061C124.448 179.161 124.698 179.261 124.928 179.361C124.948 179.371 124.958 179.371 124.978 179.381C125.508 179.601 126.038 179.811 126.578 180.011C128.352 180.689 130.161 181.269 131.998 181.751C136.686 183.001 141.517 183.633 146.368 183.631C148.138 183.631 149.888 183.551 151.618 183.381C155.571 183.016 159.473 182.228 163.258 181.031C163.268 181.031 163.278 181.021 163.288 181.021C165.679 180.259 168.015 179.334 170.278 178.251C170.288 178.241 170.308 178.241 170.318 178.231C170.828 177.991 171.318 177.731 171.818 177.481L172.058 177.361C172.458 177.151 172.858 176.941 173.258 176.721C174.258 176.171 175.238 175.591 176.208 174.971C176.478 174.811 176.738 174.641 177.008 174.461C177.388 174.211 177.768 173.951 178.138 173.681C178.628 173.341 179.118 172.991 179.598 172.631C179.748 172.521 179.908 172.411 180.058 172.291C189.427 165.18 196.303 155.285 199.702 144.025C203.101 132.765 202.848 120.718 198.978 109.611H198.978ZM178.218 169.861C177.888 170.121 177.548 170.371 177.208 170.601C176.878 170.851 176.548 171.091 176.208 171.311C175.918 171.521 175.628 171.721 175.328 171.911L175.238 171.971C175.018 172.121 174.798 172.261 174.578 172.401C173.748 172.921 172.908 173.421 172.058 173.901C171.968 173.951 171.878 174.001 171.788 174.051C171.408 174.261 171.028 174.461 170.648 174.661C170.598 174.691 170.538 174.711 170.488 174.741L170.428 174.771C169.948 175.021 169.458 175.261 168.968 175.491C167.077 176.402 165.13 177.19 163.138 177.851C162.878 177.941 162.618 178.031 162.358 178.111C158.776 179.251 155.081 180.002 151.338 180.351C149.698 180.501 148.038 180.581 146.368 180.581C141.779 180.591 137.21 179.992 132.778 178.801C130.504 178.208 128.275 177.452 126.108 176.541C125.998 176.491 125.878 176.451 125.768 176.401C125.648 176.351 125.538 176.311 125.428 176.261C125.308 176.211 125.198 176.161 125.078 176.101C124.138 175.691 123.208 175.241 122.298 174.771L121.858 174.541C120.748 173.961 119.658 173.341 118.598 172.681C118.288 172.491 117.968 172.291 117.668 172.081C117.588 172.031 117.518 171.981 117.438 171.931C116.728 171.461 116.018 170.971 115.328 170.461C114.858 170.111 114.388 169.761 113.928 169.401C113.158 168.821 112.418 168.201 111.698 167.561C111.318 167.241 110.948 166.891 110.588 166.561C109.17 165.252 107.828 163.863 106.568 162.401C106.148 161.921 105.738 161.441 105.348 160.941C105.259 160.842 105.176 160.739 105.098 160.631C98.6007 152.432 94.6926 142.484 93.8722 132.055C93.0518 121.626 95.3562 111.189 100.492 102.075C105.627 92.9612 113.36 85.5833 122.706 80.8824C132.051 76.1815 142.585 74.3706 152.964 75.6807C163.343 76.9909 173.096 81.3626 180.98 88.2384C188.864 95.1142 194.522 104.182 197.231 114.287C199.941 124.391 199.579 135.073 196.193 144.971C192.807 154.869 186.549 163.534 178.218 169.861V169.861Z" fill="#3F3D56"/>
<path id="Vector_20" d="M146.5 144C158.926 144 169 133.926 169 121.5C169 109.074 158.926 99 146.5 99C134.074 99 124 109.074 124 121.5C124 133.926 134.074 144 146.5 144Z" fill="#FFB8B8"/>
<path id="Vector_21" d="M167.861 99.9501C165.586 94.232 161.419 89.4673 156.054 86.4512C150.69 83.4351 144.453 82.3501 138.385 83.3773L145.291 88.958C136.711 89.2469 127.679 88.6326 121.552 94.647C123.503 94.5929 126.059 98.7647 128.01 98.7106C124.363 98.7827 121.057 101.345 119.446 104.617C117.954 107.979 117.605 111.737 118.452 115.316C119.173 118.891 124.667 127.268 126.145 130.601C125.891 121.889 143.044 101.106 151.42 103.275C147.165 104.854 143.472 107.658 140.808 111.332C146.506 108.457 152.951 107.402 159.269 108.312C160.711 108.643 162.199 108.726 163.67 108.558C164.571 108.38 165.411 107.974 166.111 107.378C166.81 106.782 167.345 106.017 167.665 105.156C167.984 104.295 168.077 103.366 167.936 102.458C167.794 101.551 167.422 100.695 166.855 99.9716L167.861 99.9501Z" fill="#2F2E41"/>
<path id="Vector_22" d="M143.667 80C150.594 80.0007 157.249 82.6976 162.222 87.5194C167.196 92.3413 170.097 98.9095 170.312 105.833H175.333C175.775 105.833 176.199 106.009 176.512 106.322C176.824 106.634 177 107.058 177 107.5V114.167C177 114.609 176.824 115.033 176.512 115.345C176.199 115.658 175.775 115.833 175.333 115.833H118.667C118.225 115.833 117.801 115.658 117.488 115.345C117.176 115.033 117 114.609 117 114.167V106.667C117 103.165 117.69 99.6971 119.03 96.4617C120.37 93.2264 122.334 90.2867 124.81 87.8104C127.287 85.3342 130.226 83.3699 133.462 82.0298C136.697 80.6897 140.165 80 143.667 80Z" fill="#E0A91B"/>
<path id="Vector_23" d="M619.5 411C631.926 411 642 400.926 642 388.5C642 376.074 631.926 366 619.5 366C607.074 366 597 376.074 597 388.5C597 400.926 607.074 411 619.5 411Z" fill="#A0616A"/>
<path id="Vector_24" d="M636.781 399.786C632.79 404.037 625.378 401.755 624.858 395.947C624.817 395.496 624.82 395.042 624.867 394.592C625.135 392.019 626.621 389.684 626.265 386.967C626.185 386.291 625.933 385.647 625.534 385.096C622.353 380.837 614.888 387 611.886 383.145C610.046 380.781 612.209 377.059 610.797 374.417C608.933 370.93 603.412 372.65 599.949 370.74C596.097 368.616 596.328 362.705 598.863 359.11C601.956 354.726 607.378 352.386 612.733 352.049C618.088 351.712 623.405 353.159 628.405 355.107C634.084 357.321 639.717 360.38 643.212 365.375C647.463 371.448 647.872 379.614 645.746 386.716C644.453 391.036 640.04 396.314 636.781 399.786Z" fill="#2F2E41"/>
<path id="Vector_25" d="M620.333 347C613.406 347.001 606.751 349.698 601.778 354.519C596.804 359.341 593.903 365.91 593.688 372.833H588.667C588.225 372.833 587.801 373.009 587.488 373.322C587.176 373.634 587 374.058 587 374.5V381.167C587 381.609 587.176 382.033 587.488 382.345C587.801 382.658 588.225 382.833 588.667 382.833H645.333C645.775 382.833 646.199 382.658 646.512 382.345C646.824 382.033 647 381.609 647 381.167V373.667C647 370.165 646.31 366.697 644.97 363.462C643.63 360.226 641.666 357.287 639.19 354.81C636.713 352.334 633.774 350.37 630.538 349.03C627.303 347.69 623.835 347 620.333 347V347Z" fill="#E0A91B"/>
<path id="Vector_26" d="M673.068 376.971C670.405 369.319 666.104 362.34 660.466 356.521C654.828 350.701 647.988 346.182 640.424 343.278C632.86 340.374 624.754 339.154 616.67 339.705C608.586 340.255 600.72 342.563 593.619 346.466C586.519 350.369 580.355 355.774 575.558 362.304C570.761 368.834 567.447 376.332 565.845 384.274C564.244 392.217 564.394 400.413 566.286 408.292C568.178 416.17 571.765 423.542 576.798 429.891C577.298 430.521 577.818 431.151 578.348 431.761C578.388 431.801 578.418 431.841 578.458 431.881C579.762 433.383 581.147 434.812 582.608 436.161C582.988 436.511 583.388 436.871 583.788 437.211C584.548 437.891 585.328 438.541 586.138 439.161C587.72 440.408 589.369 441.566 591.078 442.631L591.138 442.661C592.248 443.351 593.378 443.991 594.528 444.601L594.998 444.841C596.078 445.401 597.178 445.931 598.308 446.421C598.538 446.521 598.788 446.621 599.018 446.721C599.038 446.731 599.048 446.731 599.068 446.741C601.351 447.691 603.697 448.482 606.088 449.111C610.776 450.361 615.607 450.993 620.458 450.991C622.228 450.991 623.978 450.911 625.708 450.741C629.661 450.376 633.563 449.588 637.348 448.391C637.358 448.391 637.368 448.381 637.378 448.381C639.769 447.62 642.104 446.694 644.368 445.611C644.378 445.601 644.398 445.601 644.408 445.591C644.918 445.351 645.408 445.091 645.908 444.841L646.148 444.721C646.548 444.511 646.948 444.301 647.348 444.081C648.348 443.531 649.328 442.951 650.298 442.331C650.568 442.171 650.828 442.001 651.098 441.821C651.978 441.241 652.848 440.621 653.688 439.991C653.838 439.881 653.998 439.771 654.148 439.651C663.517 432.54 670.393 422.645 673.792 411.385C677.191 400.125 676.937 388.078 673.068 376.971V376.971ZM652.308 437.221C651.978 437.481 651.638 437.731 651.298 437.961C650.968 438.211 650.638 438.451 650.298 438.671C650.008 438.881 649.718 439.081 649.418 439.271C649.168 439.441 648.918 439.601 648.668 439.761C647.838 440.281 646.998 440.781 646.148 441.261C646.058 441.311 645.968 441.361 645.878 441.411C645.498 441.621 645.118 441.821 644.738 442.021C644.688 442.051 644.628 442.071 644.578 442.101L644.518 442.131C644.038 442.381 643.548 442.621 643.058 442.851C641.167 443.762 639.22 444.55 637.228 445.211C636.968 445.301 636.708 445.391 636.448 445.471C632.866 446.611 629.171 447.362 625.428 447.711C623.788 447.861 622.128 447.941 620.458 447.941C615.869 447.951 611.3 447.352 606.868 446.161C604.594 445.567 602.365 444.812 600.198 443.901C599.968 443.811 599.738 443.711 599.518 443.621C599.398 443.571 599.288 443.521 599.168 443.461C598.228 443.051 597.298 442.601 596.388 442.131L595.948 441.901C594.838 441.321 593.748 440.701 592.688 440.041C592.298 439.801 591.908 439.551 591.528 439.291C590.328 438.501 589.158 437.651 588.018 436.761C587.248 436.181 586.508 435.561 585.788 434.921C585.408 434.601 585.038 434.251 584.678 433.921C583.26 432.612 581.918 431.223 580.658 429.761C580.238 429.281 579.828 428.801 579.438 428.301C579.349 428.202 579.266 428.099 579.188 427.991C572.691 419.792 568.783 409.844 567.962 399.415C567.142 388.986 569.446 378.549 574.581 369.435C579.717 360.321 587.45 352.943 596.796 348.242C606.141 343.542 616.675 341.731 627.054 343.041C637.433 344.351 647.186 348.723 655.07 355.598C662.954 362.474 668.612 371.543 671.321 381.647C674.031 391.751 673.669 402.433 670.283 412.331C666.896 422.229 660.639 430.894 652.308 437.221V437.221Z" fill="#3F3D56"/>
</g>
<defs>
<clipPath id="clip0">
<rect width="826.681" height="573.951" fill="white"/>
</clipPath>
</defs>
</svg>
