<svg width="998" height="466" viewBox="0 0 998 466" fill="none" xmlns="http://www.w3.org/2000/svg">
<g id="undraw_For_sale_re_egkk 1" clip-path="url(#clip0)">
<path id="Vector" d="M908.534 464.563H506.935C496.011 464.563 487.124 454.732 487.124 442.647V143.997C487.078 141.719 487.665 139.473 488.82 137.508C489.975 135.544 491.653 133.94 493.667 132.873L645.426 41.0025C653.744 36.8734 662.904 34.7204 672.191 34.711C681.478 34.7016 690.642 36.8361 698.969 40.9483L921.762 132.864C923.786 133.926 925.474 135.532 926.636 137.5C927.799 139.468 928.391 141.721 928.345 144.006V442.647C928.345 454.732 919.458 464.563 908.534 464.563Z" fill="#F2F2F2"/>
<path id="Vector_2" d="M849.234 464.24H504.37C494.951 464.24 487.288 457.3 487.288 448.77V240.011C487.332 238.271 487.899 236.585 488.914 235.172C489.929 233.758 491.346 232.682 492.98 232.084L653.556 167.852C668.311 162.014 684.733 162.006 699.494 167.829L860.614 232.087C862.251 232.684 863.67 233.759 864.687 235.174C865.704 236.588 866.272 238.276 866.316 240.018V448.77C866.316 457.3 858.653 464.24 849.234 464.24Z" fill="#E0A91B"/>
<path id="Vector_3" d="M298.685 245.012C326.593 245.012 349.217 222.388 349.217 194.48C349.217 166.572 326.593 143.948 298.685 143.948C270.777 143.948 248.153 166.572 248.153 194.48C248.153 222.388 270.777 245.012 298.685 245.012Z" fill="#FF6584"/>
<path id="Vector_4" d="M319.81 378.456C355.157 378.456 383.811 342.59 383.811 298.347C383.811 254.103 355.157 218.237 319.81 218.237C284.464 218.237 255.81 254.103 255.81 298.347C255.81 342.59 284.464 378.456 319.81 378.456Z" fill="#F2F2F2"/>
<path id="Vector_5" d="M319.986 282.238H320.162L323.327 463.69H316.646L319.986 282.238Z" fill="#CCCCCC"/>
<path id="Vector_6" d="M330.902 402.365C331.098 402.736 331.138 403.17 331.014 403.571C330.889 403.972 330.611 404.307 330.239 404.502L321.06 409.335L319.586 406.534L328.765 401.702C329.136 401.506 329.57 401.466 329.971 401.591C330.372 401.715 330.707 401.993 330.902 402.365Z" fill="#CCCCCC"/>
<path id="Vector_7" d="M135.81 378.456C171.157 378.456 199.811 342.59 199.811 298.347C199.811 254.103 171.157 218.237 135.81 218.237C100.464 218.237 71.8097 254.103 71.8097 298.347C71.8097 342.59 100.464 378.456 135.81 378.456Z" fill="#F2F2F2"/>
<path id="Vector_8" d="M146.903 405.365C146.707 404.993 146.372 404.715 145.971 404.591C145.57 404.466 145.136 404.506 144.765 404.702L138.357 408.076L136.162 282.238H135.986L132.646 463.69H139.327L138.419 411.62L146.24 407.502C146.611 407.307 146.889 406.972 147.013 406.571C147.138 406.17 147.098 405.736 146.903 405.365Z" fill="#CCCCCC"/>
<path id="Vector_9" d="M227.588 113.73C272.376 113.73 308.779 198.121 308.779 254.182C308.779 310.243 272.471 355.69 227.683 355.69C182.895 355.69 146.588 310.243 146.588 254.182C146.588 198.121 182.8 113.73 227.588 113.73Z" fill="#E0A91B"/>
<path id="Vector_10" d="M241.738 389.786C241.615 389.553 241.448 389.346 241.246 389.178C241.043 389.009 240.81 388.883 240.558 388.805C240.307 388.727 240.042 388.699 239.78 388.723C239.518 388.747 239.263 388.823 239.03 388.945L230.91 393.22L228.129 233.77H227.906L223.674 463.69H232.139L230.989 397.711L240.898 392.494C241.131 392.371 241.338 392.204 241.506 392.001C241.674 391.799 241.801 391.565 241.879 391.314C241.957 391.062 241.985 390.798 241.961 390.536C241.936 390.273 241.861 390.019 241.738 389.786V389.786Z" fill="#3F3D56"/>
<path id="Vector_11" d="M596.28 320.778V299.187C596.28 296.371 595.162 293.671 593.171 291.68C591.179 289.688 588.479 288.57 585.663 288.57H531.179C528.363 288.57 525.663 289.688 523.671 291.68C521.68 293.671 520.561 296.371 520.561 299.187V320.778H596.28Z" fill="white"/>
<path id="Vector_12" d="M520.561 324.169V357.626C520.561 360.442 521.68 363.143 523.671 365.134C525.663 367.125 528.363 368.244 531.179 368.244H585.663C588.479 368.244 591.179 367.125 593.171 365.134C595.162 363.143 596.28 360.442 596.28 357.626V324.169H520.561Z" fill="white"/>
<path id="Vector_13" d="M853.201 261.515L689.625 201.552C679.683 197.907 668.771 197.907 658.829 201.552L495.253 261.515C491.805 262.779 488.104 263.192 484.462 262.719C480.821 262.246 477.348 260.901 474.337 258.798C471.327 256.695 468.869 253.897 467.171 250.641C465.474 247.385 464.588 243.767 464.588 240.096V240.096C464.588 235.423 466.023 230.863 468.698 227.032C471.374 223.201 475.162 220.284 479.549 218.676L658.829 152.956C668.771 149.312 679.683 149.312 689.625 152.956L868.905 218.676C873.292 220.284 877.08 223.201 879.755 227.032C882.431 230.863 883.866 235.423 883.866 240.096V240.096C883.866 243.767 882.98 247.385 881.282 250.641C879.585 253.897 877.127 256.695 874.116 258.798C871.106 260.901 867.633 262.246 863.991 262.719C860.35 263.192 856.648 262.779 853.201 261.515Z" fill="#3F3D56"/>
<path id="Vector_14" d="M700.639 465.24H656.921C652.281 465.234 647.833 463.389 644.552 460.108C641.271 456.827 639.426 452.379 639.421 447.74V341.864C639.426 337.224 641.271 332.776 644.552 329.495C647.833 326.214 652.281 324.369 656.921 324.364H700.639C705.279 324.369 709.727 326.214 713.008 329.495C716.289 332.776 718.134 337.224 718.139 341.864V447.74C718.134 452.379 716.289 456.827 713.008 460.108C709.727 463.389 705.279 465.234 700.639 465.24V465.24ZM656.921 327.364C653.076 327.368 649.391 328.897 646.672 331.615C643.954 334.334 642.425 338.019 642.421 341.864V447.74C642.425 451.584 643.954 455.269 646.672 457.988C649.391 460.706 653.076 462.235 656.921 462.24H700.639C704.484 462.235 708.169 460.706 710.888 457.988C713.606 455.269 715.135 451.584 715.139 447.74V341.864C715.135 338.019 713.606 334.334 710.888 331.615C708.169 328.897 704.484 327.368 700.639 327.364H656.921Z" fill="#3F3D56"/>
<path id="Vector_15" d="M704.88 99.1816C704.176 91.3103 700.551 83.9875 694.719 78.6542C688.888 73.3209 681.271 70.3633 673.368 70.3633C665.466 70.3633 657.849 73.3209 652.017 78.6542C646.186 83.9875 642.561 91.3103 641.857 99.1816H704.88Z" fill="white"/>
<path id="Vector_16" d="M641.739 102.572C641.885 110.864 645.281 118.768 651.197 124.581C657.113 130.393 665.075 133.65 673.368 133.65C681.662 133.65 689.624 130.393 695.54 124.581C701.456 118.768 704.852 110.864 704.998 102.572H641.739Z" fill="white"/>
<path id="Vector_17" d="M699.927 137.541H646.81C644.28 137.541 641.853 136.536 640.064 134.747C638.274 132.957 637.269 130.53 637.269 128C637.269 125.47 638.274 123.043 640.064 121.254C641.853 119.464 644.28 118.459 646.81 118.459H699.927C702.457 118.459 704.884 119.464 706.673 121.254C708.462 123.043 709.468 125.47 709.468 128C709.468 130.53 708.462 132.957 706.673 134.747C704.884 136.536 702.457 137.541 699.927 137.541V137.541Z" fill="#CCCCCC"/>
<path id="Vector_18" d="M521.127 357.442C518.861 357.442 516.689 358.342 515.087 359.944C513.486 361.546 512.586 363.718 512.586 365.983C512.586 368.249 513.486 370.421 515.087 372.023C516.689 373.625 518.861 374.524 521.127 374.524H595.715C597.981 374.524 600.153 373.625 601.755 372.023C603.357 370.421 604.256 368.249 604.256 365.983C604.256 363.718 603.357 361.546 601.755 359.944C600.153 358.342 597.981 357.442 595.715 357.442H521.127Z" fill="#CCCCCC"/>
<path id="Vector_19" d="M752.803 324.169V357.626C752.803 360.442 753.922 363.143 755.913 365.134C757.904 367.125 760.605 368.244 763.421 368.244H817.904C820.72 368.244 823.421 367.125 825.412 365.134C827.404 363.143 828.522 360.442 828.522 357.626V324.169H752.803Z" fill="white"/>
<path id="Vector_20" d="M828.522 320.778V299.187C828.522 296.371 827.404 293.671 825.412 291.68C823.421 289.688 820.72 288.57 817.904 288.57H763.421C760.605 288.57 757.904 289.688 755.913 291.68C753.922 293.671 752.803 296.371 752.803 299.187V320.778H828.522Z" fill="white"/>
<path id="Vector_21" d="M704.773 398.192C708.206 398.192 710.989 395.409 710.989 391.977C710.989 388.544 708.206 385.761 704.773 385.761C701.34 385.761 698.557 388.544 698.557 391.977C698.557 395.409 701.34 398.192 704.773 398.192Z" fill="#3F3D56"/>
<path id="Vector_22" d="M425.523 351L387 288.202L388.783 287L425.337 346.591L455.124 287.086L457 288.116L425.523 351Z" fill="#3F3D56"/>
<path id="Vector_23" d="M456.624 267.332H366.03V265.657C366.03 262.945 365.528 260.258 364.555 257.752C363.581 255.246 362.154 252.969 360.355 251.05C358.555 249.132 356.419 247.611 354.069 246.572C351.718 245.534 349.198 245 346.654 245V245C344.109 245 341.59 245.534 339.239 246.572C336.888 247.611 334.752 249.132 332.953 251.05C331.154 252.969 329.727 255.246 328.753 257.752C327.779 260.258 327.278 262.945 327.278 265.657V267.332H318.376C313.237 267.332 308.309 269.509 304.675 273.383C301.041 277.257 299 282.511 299 287.99C299 293.469 301.041 298.723 304.675 302.597C308.309 306.471 313.237 308.647 318.376 308.647H327.278V464.758C365.886 463.934 326.999 465.592 366.03 464.758V308.647H456.624C461.763 308.647 466.691 306.471 470.325 302.597C473.959 298.723 476 293.469 476 287.99C476 282.511 473.959 277.257 470.325 273.383C466.691 269.509 461.763 267.332 456.624 267.332V267.332Z" fill="#3F3D56"/>
<path id="Vector_24" d="M346 295C349.866 295 353 291.642 353 287.5C353 283.358 349.866 280 346 280C342.134 280 339 283.358 339 287.5C339 291.642 342.134 295 346 295Z" fill="white"/>
<path id="Vector_25" d="M468.026 391H383.974C380.004 390.995 376.198 389.313 373.391 386.322C370.583 383.331 369.004 379.276 369 375.046V345.953C369.005 341.723 370.584 337.668 373.391 334.678C376.198 331.687 380.004 330.005 383.974 330H468.026C471.996 330.005 475.802 331.687 478.609 334.678C481.416 337.668 482.995 341.723 483 345.953V375.046C482.996 379.276 481.417 383.331 478.609 386.322C475.802 389.313 471.996 390.995 468.026 391V391Z" fill="#CCCCCC"/>
<path id="SALE" d="M394.714 363.386C394.714 362.509 394.401 361.825 393.774 361.335C393.159 360.846 392.071 360.339 390.51 359.814C388.949 359.29 387.673 358.783 386.682 358.293C383.458 356.71 381.846 354.534 381.846 351.765C381.846 350.387 382.244 349.173 383.042 348.125C383.851 347.065 384.99 346.245 386.46 345.664C387.93 345.072 389.582 344.775 391.416 344.775C393.205 344.775 394.806 345.094 396.218 345.732C397.642 346.37 398.748 347.282 399.534 348.467C400.32 349.64 400.713 350.985 400.713 352.5H394.731C394.731 351.486 394.418 350.7 393.792 350.142C393.176 349.583 392.339 349.304 391.279 349.304C390.208 349.304 389.36 349.543 388.733 350.022C388.118 350.489 387.81 351.087 387.81 351.816C387.81 352.454 388.152 353.035 388.835 353.56C389.519 354.072 390.721 354.608 392.441 355.166C394.162 355.713 395.575 356.305 396.68 356.943C399.368 358.493 400.713 360.629 400.713 363.352C400.713 365.528 399.893 367.237 398.252 368.479C396.611 369.721 394.361 370.342 391.501 370.342C389.485 370.342 387.656 369.983 386.016 369.265C384.386 368.536 383.156 367.545 382.324 366.292C381.504 365.027 381.094 363.574 381.094 361.934H387.109C387.109 363.267 387.451 364.252 388.135 364.89C388.83 365.517 389.952 365.83 391.501 365.83C392.493 365.83 393.273 365.619 393.843 365.198C394.424 364.765 394.714 364.161 394.714 363.386ZM417.922 365.352H409.702L408.267 370H401.858L410.984 345.117H416.624L425.818 370H419.375L417.922 365.352ZM411.138 360.72H416.487L413.804 352.09L411.138 360.72ZM433.645 365.386H444.087V370H427.646V345.117H433.645V365.386ZM462.048 359.456H452.615V365.386H463.757V370H446.616V345.117H463.792V349.749H452.615V354.995H462.048V359.456Z" fill="black"/>
<path id="Vector_26" d="M996.402 465.459H0.773056C0.568028 465.459 0.371402 465.378 0.226425 465.233C0.0814483 465.088 0 464.891 0 464.686C0 464.481 0.0814483 464.285 0.226425 464.14C0.371402 463.995 0.568028 463.913 0.773056 463.913H996.402C996.607 463.913 996.804 463.995 996.949 464.14C997.094 464.285 997.175 464.481 997.175 464.686C997.175 464.891 997.094 465.088 996.949 465.233C996.804 465.378 996.607 465.459 996.402 465.459V465.459Z" fill="#CCCCCC"/>
<path id="Vector_27" d="M827.392 375.524H752.803C750.273 375.524 747.846 374.519 746.057 372.73C744.267 370.941 743.262 368.514 743.262 365.983C743.262 363.453 744.267 361.026 746.057 359.237C747.846 357.448 750.273 356.442 752.803 356.442H827.392C829.922 356.442 832.349 357.448 834.138 359.237C835.928 361.026 836.933 363.453 836.933 365.983C836.933 368.514 835.928 370.941 834.138 372.73C832.349 374.519 829.922 375.524 827.392 375.524Z" fill="#CCCCCC"/>
<path id="Vector_28" d="M927.588 153.959C927.588 153.959 909.5 152.676 872.588 150.959C828.588 73.9595 685.584 55.3994 685.584 0.000137329V0H861.35C878.936 0 895.802 6.98596 908.237 19.4211C920.672 31.8561 927.658 48.7217 927.658 66.3076L927.588 153.959Z" fill="#CCCCCC"/>
<path id="Vector_29" d="M775.143 20.2437C774.745 20.2441 774.364 20.4023 774.083 20.6835C773.801 20.9647 773.643 21.346 773.643 21.7437V71.8237C773.643 72.2214 773.801 72.6027 774.083 72.8839C774.364 73.1651 774.745 73.3233 775.143 73.3237H806.338C806.736 73.3233 807.117 73.1651 807.398 72.8839C807.679 72.6027 807.837 72.2214 807.838 71.8237V21.7437C807.837 21.346 807.679 20.9647 807.398 20.6835C807.117 20.4023 806.736 20.2441 806.338 20.2437H775.143Z" fill="#F2F2F2"/>
<path id="Vector_30" d="M861.785 149.921L698.209 51.329C688.267 47.6845 677.355 47.6845 667.413 51.329L503.837 149.921C500.389 151.185 496.688 151.598 493.046 151.125C489.405 150.652 485.932 149.307 482.921 147.204C479.911 145.101 477.453 142.303 475.756 139.047C474.058 135.791 473.172 132.173 473.172 128.501V128.501C473.172 123.829 474.607 119.269 477.283 115.438C479.958 111.607 483.746 108.69 488.133 107.082L667.413 2.73338C677.355 -0.911128 688.267 -0.911128 698.209 2.73338L877.489 107.082C881.876 108.69 885.664 111.607 888.339 115.438C891.015 119.268 892.45 123.829 892.45 128.501V128.501C892.45 132.173 891.564 135.791 889.866 139.047C888.169 142.303 885.711 145.101 882.701 147.204C879.69 149.307 876.217 150.652 872.576 151.125C868.934 151.598 865.233 151.185 861.785 149.921V149.921Z" fill="#CCCCCC"/>
</g>
<defs>
<clipPath id="clip0">
<rect width="997.175" height="465.46" fill="white"/>
</clipPath>
</defs>
</svg>
