<svg width="1137" height="519" viewBox="0 0 1137 519" fill="none" xmlns="http://www.w3.org/2000/svg">
<g id="undraw_best_place_r685 1" clip-path="url(#clip0)">
<path id="Vector" d="M144.264 510.611L142.313 510.172C164.069 413.421 218.743 325.563 296.264 262.78C354.873 215.389 424.579 183.693 498.818 170.678C573.058 157.662 649.389 163.755 720.624 188.383C791.858 213.011 855.654 255.363 906.002 311.452C956.35 367.541 991.596 435.521 1008.42 508.991L1006.47 509.435C960.416 307.226 783.195 166 575.5 166C370.526 166 189.166 310.93 144.264 510.611Z" fill="#3F3D56"/>
<path id="Vector_2" d="M960.633 147.218C990.631 147.218 1014.95 122.9 1014.95 92.9027C1014.95 62.9053 990.631 38.5876 960.633 38.5876C930.636 38.5876 906.318 62.9053 906.318 92.9027C906.318 122.9 930.636 147.218 960.633 147.218Z" fill="#FFC165"/>
<path id="Vector_3" d="M879 437.057H877V516.057H879V437.057Z" fill="#3F3D56"/>
<path id="Vector_4" d="M897.458 447.124C897.585 474.749 878.15 497.233 878.15 497.233C878.15 497.233 858.508 474.929 858.381 447.304C858.254 419.68 877.689 397.196 877.689 397.196C877.689 397.196 897.33 419.5 897.458 447.124Z" fill="#E0A91B"/>
<path id="Vector_5" opacity="0.1" d="M897.458 447.124C897.585 474.749 878.15 497.233 878.15 497.233C878.15 497.233 858.508 474.929 858.381 447.304C858.254 419.68 877.689 397.196 877.689 397.196C877.689 397.196 897.33 419.5 897.458 447.124Z" fill="black"/>
<path id="Vector_6" opacity="0.4" d="M501.022 279.99C518.279 279.99 532.27 266 532.27 248.742C532.27 231.484 518.279 217.494 501.022 217.494C483.764 217.494 469.774 231.484 469.774 248.742C469.774 266 483.764 279.99 501.022 279.99Z" fill="#E0A91B"/>
<path id="Vector_7" opacity="0.4" d="M443.19 285.587C455.296 285.587 465.11 275.773 465.11 263.666C465.11 251.56 455.296 241.746 443.19 241.746C431.084 241.746 421.27 251.56 421.27 263.666C421.27 275.773 431.084 285.587 443.19 285.587Z" fill="#E0A91B"/>
<path id="Vector_8" opacity="0.4" d="M208.19 348.587C220.296 348.587 230.11 338.773 230.11 326.666C230.11 314.56 220.296 304.746 208.19 304.746C196.084 304.746 186.27 314.56 186.27 326.666C186.27 338.773 196.084 348.587 208.19 348.587Z" fill="#E0A91B"/>
<path id="Vector_9" opacity="0.4" d="M856.312 277.419C873.57 277.419 887.56 263.429 887.56 246.171C887.56 228.914 873.57 214.923 856.312 214.923C839.054 214.923 825.064 228.914 825.064 246.171C825.064 263.429 839.054 277.419 856.312 277.419Z" fill="#E0A91B"/>
<path id="Vector_10" d="M56.6306 507.272C58.3246 513.534 64.1267 517.412 64.1267 517.412C64.1267 517.412 67.1824 511.138 65.4884 504.876C63.7945 498.614 57.9923 494.736 57.9923 494.736C57.9923 494.736 54.9366 501.011 56.6306 507.272Z" fill="#3F3D56"/>
<path id="Vector_11" d="M59.1197 505.927C63.7679 510.452 64.3357 517.407 64.3357 517.407C64.3357 517.407 57.3672 517.027 52.719 512.502C48.0708 507.977 47.503 501.021 47.503 501.021C47.503 501.021 54.4715 501.402 59.1197 505.927Z" fill="#E0A91B"/>
<path id="Vector_12" d="M668.631 507.272C670.325 513.534 676.127 517.412 676.127 517.412C676.127 517.412 679.182 511.138 677.488 504.876C675.795 498.614 669.992 494.736 669.992 494.736C669.992 494.736 666.937 501.011 668.631 507.272Z" fill="#3F3D56"/>
<path id="Vector_13" d="M671.12 505.927C675.768 510.452 676.336 517.407 676.336 517.407C676.336 517.407 669.367 517.027 664.719 512.502C660.071 507.977 659.503 501.021 659.503 501.021C659.503 501.021 666.471 501.402 671.12 505.927Z" fill="#E0A91B"/>
<path id="Vector_14" d="M68.137 460.203L64 453.308L102.614 420.21H201.908V429.863L166.052 468.478L124.679 476.752L68.137 460.203Z" fill="#3F3D56"/>
<path id="Vector_15" d="M219 439.633V418.056H206V424.86L201.908 420.21L168.81 453.308L163.293 458.824L156.398 486.406L168.81 516.745H232.247V454.687L219 439.633Z" fill="#CCCCCC"/>
<path id="Vector_16" d="M168.81 453.308H64V516.745H168.81V453.308Z" fill="#F2F2F2"/>
<path id="Vector_17" d="M154.329 473.304H132.264V492.611H154.329V473.304Z" fill="#3F3D56"/>
<path id="Vector_18" d="M123.3 472.615H103.993V516.745H123.3V472.615Z" fill="#CCCCCC"/>
<path id="Vector_19" d="M81.928 479.51V472.615H73.654V479.51H81.238H81.928Z" fill="#3F3D56"/>
<path id="Vector_20" d="M81.238 485.026H73.654V491.922H81.928V485.026H81.238Z" fill="#3F3D56"/>
<path id="Vector_21" d="M95.7187 472.615H87.4443V479.51H95.7187V472.615Z" fill="#3F3D56"/>
<path id="Vector_22" d="M95.7187 485.026H87.4443V491.922H95.7187V485.026Z" fill="#3F3D56"/>
<path id="Vector_23" d="M198.46 480.2V473.304H190.185V480.2H197.77H198.46Z" fill="#3F3D56"/>
<path id="Vector_24" d="M197.77 485.716H190.185V492.611H198.46V485.716H197.77Z" fill="#3F3D56"/>
<path id="Vector_25" d="M212.251 473.304H203.976V480.2H212.251V473.304Z" fill="#3F3D56"/>
<path id="Vector_26" d="M212.251 485.716H203.976V492.611H212.251V485.716Z" fill="#3F3D56"/>
<path id="Vector_27" d="M467.137 460.203L463 453.308L501.614 420.21H600.908V429.863L565.052 468.478L523.679 476.752L467.137 460.203Z" fill="#3F3D56"/>
<path id="Vector_28" d="M618 439.633V418.056H605V424.86L600.908 420.21L567.81 453.308L562.293 458.824L555.398 486.406L567.81 516.745H631.247V454.687L618 439.633Z" fill="#CCCCCC"/>
<path id="Vector_29" d="M567.81 453.308H463V516.745H567.81V453.308Z" fill="#F2F2F2"/>
<path id="Vector_30" d="M553.329 473.304H531.264V492.611H553.329V473.304Z" fill="#3F3D56"/>
<path id="Vector_31" d="M522.3 472.615H502.993V516.745H522.3V472.615Z" fill="#CCCCCC"/>
<path id="Vector_32" d="M480.928 479.51V472.615H472.654V479.51H480.238H480.928Z" fill="#3F3D56"/>
<path id="Vector_33" d="M480.238 485.026H472.654V491.922H480.928V485.026H480.238Z" fill="#3F3D56"/>
<path id="Vector_34" d="M494.719 472.615H486.444V479.51H494.719V472.615Z" fill="#3F3D56"/>
<path id="Vector_35" d="M494.719 485.026H486.444V491.922H494.719V485.026Z" fill="#3F3D56"/>
<path id="Vector_36" d="M597.46 480.2V473.304H589.185V480.2H596.77H597.46Z" fill="#3F3D56"/>
<path id="Vector_37" d="M596.77 485.716H589.185V492.611H597.46V485.716H596.77Z" fill="#3F3D56"/>
<path id="Vector_38" d="M611.251 473.304H602.976V480.2H611.251V473.304Z" fill="#3F3D56"/>
<path id="Vector_39" d="M611.251 485.716H602.976V492.611H611.251V485.716Z" fill="#3F3D56"/>
<path id="Vector_40" d="M280.515 344.361L273.62 338.844L312.234 304.367H410.148V334.707L346.711 377.459L280.515 344.361Z" fill="#3F3D56"/>
<path id="Vector_41" d="M428 323.707V305.056H415V309.624L410.148 304.367L378.429 338.844L366.018 347.119L346.773 487.722L375.796 516.745H443.246V340.223L428 323.707Z" fill="#CCCCCC"/>
<path id="Vector_42" d="M378.429 338.844H273.62V516.745H378.429V338.844Z" fill="#F2F2F2"/>
<path id="Vector_43" d="M333.609 473.304H314.302V516.745H333.609V473.304Z" fill="#CCCCCC"/>
<path id="Vector_44" d="M293.616 485.716V478.821H285.342V485.716H292.927H293.616Z" fill="#3F3D56"/>
<path id="Vector_45" d="M292.927 491.232H285.342V498.128H293.616V491.232H292.927Z" fill="#3F3D56"/>
<path id="Vector_46" d="M307.407 478.821H299.132V485.716H307.407V478.821Z" fill="#3F3D56"/>
<path id="Vector_47" d="M307.407 491.232H299.132V498.128H307.407V491.232Z" fill="#3F3D56"/>
<path id="Vector_48" d="M350.158 485.716V478.821H341.884V485.716H349.469H350.158Z" fill="#3F3D56"/>
<path id="Vector_49" d="M349.469 491.232H341.884V498.128H350.158V491.232H349.469Z" fill="#3F3D56"/>
<path id="Vector_50" d="M363.949 478.821H355.675V485.716H363.949V478.821Z" fill="#3F3D56"/>
<path id="Vector_51" d="M363.949 491.232H355.675V498.128H363.949V491.232Z" fill="#3F3D56"/>
<path id="Vector_52" d="M408.079 347.808V340.913H399.805V347.808H407.39H408.079Z" fill="#3F3D56"/>
<path id="Vector_53" d="M407.39 353.325H399.805V360.22H408.079V353.325H407.39Z" fill="#3F3D56"/>
<path id="Vector_54" d="M421.87 340.913H413.596V347.808H421.87V340.913Z" fill="#3F3D56"/>
<path id="Vector_55" d="M421.87 353.325H413.596V360.22H421.87V353.325Z" fill="#3F3D56"/>
<path id="Vector_56" d="M408.079 386.423V379.527H399.805V386.423H407.39H408.079Z" fill="#3F3D56"/>
<path id="Vector_57" d="M407.39 391.939H399.805V398.834H408.079V391.939H407.39Z" fill="#3F3D56"/>
<path id="Vector_58" d="M421.87 379.527H413.596V386.423H421.87V379.527Z" fill="#3F3D56"/>
<path id="Vector_59" d="M421.87 391.939H413.596V398.834H421.87V391.939Z" fill="#3F3D56"/>
<path id="Vector_60" d="M408.079 425.037V418.141H399.805V425.037H407.39H408.079Z" fill="#3F3D56"/>
<path id="Vector_61" d="M407.39 430.553H399.805V437.448H408.079V430.553H407.39Z" fill="#3F3D56"/>
<path id="Vector_62" d="M421.87 418.141H413.596V425.037H421.87V418.141Z" fill="#3F3D56"/>
<path id="Vector_63" d="M421.87 430.553H413.596V437.448H421.87V430.553Z" fill="#3F3D56"/>
<path id="Vector_64" d="M408.079 463.651V456.755H399.805V463.651H407.39H408.079Z" fill="#3F3D56"/>
<path id="Vector_65" d="M407.39 469.167H399.805V476.062H408.079V469.167H407.39Z" fill="#3F3D56"/>
<path id="Vector_66" d="M421.87 456.755H413.596V463.651H421.87V456.755Z" fill="#3F3D56"/>
<path id="Vector_67" d="M421.87 469.167H413.596V476.062H421.87V469.167Z" fill="#3F3D56"/>
<path id="Vector_68" d="M365.328 347.808H285.342V364.357H365.328V347.808Z" fill="#3F3D56"/>
<path id="Vector_69" d="M365.328 380.906H285.342V397.455H365.328V380.906Z" fill="#3F3D56"/>
<path id="Vector_70" d="M365.328 414.004H285.342V430.553H365.328V414.004Z" fill="#3F3D56"/>
<path id="Vector_71" d="M365.328 447.102H285.342V463.651H365.328V447.102Z" fill="#3F3D56"/>
<path id="Vector_72" d="M683.515 344.361L676.62 338.844L715.234 304.367H813.148V334.707L749.711 377.459L683.515 344.361Z" fill="#3F3D56"/>
<path id="Vector_73" d="M831 323.707V305.056H818V309.624L813.148 304.367L781.429 338.844L769.018 347.119L749.773 487.722L778.796 516.745H846.246V340.223L831 323.707Z" fill="#CCCCCC"/>
<path id="Vector_74" d="M781.429 338.844H676.62V516.745H781.429V338.844Z" fill="#F2F2F2"/>
<path id="Vector_75" d="M736.609 473.304H717.302V516.745H736.609V473.304Z" fill="#CCCCCC"/>
<path id="Vector_76" d="M696.616 485.716V478.821H688.342V485.716H695.927H696.616Z" fill="#3F3D56"/>
<path id="Vector_77" d="M695.927 491.232H688.342V498.128H696.616V491.232H695.927Z" fill="#3F3D56"/>
<path id="Vector_78" d="M710.407 478.821H702.132V485.716H710.407V478.821Z" fill="#3F3D56"/>
<path id="Vector_79" d="M710.407 491.232H702.132V498.128H710.407V491.232Z" fill="#3F3D56"/>
<path id="Vector_80" d="M753.158 485.716V478.821H744.884V485.716H752.469H753.158Z" fill="#3F3D56"/>
<path id="Vector_81" d="M752.469 491.232H744.884V498.128H753.158V491.232H752.469Z" fill="#3F3D56"/>
<path id="Vector_82" d="M766.949 478.821H758.675V485.716H766.949V478.821Z" fill="#3F3D56"/>
<path id="Vector_83" d="M766.949 491.232H758.675V498.128H766.949V491.232Z" fill="#3F3D56"/>
<path id="Vector_84" d="M811.079 347.808V340.913H802.805V347.808H810.39H811.079Z" fill="#3F3D56"/>
<path id="Vector_85" d="M810.39 353.325H802.805V360.22H811.079V353.325H810.39Z" fill="#3F3D56"/>
<path id="Vector_86" d="M824.87 340.913H816.596V347.808H824.87V340.913Z" fill="#3F3D56"/>
<path id="Vector_87" d="M824.87 353.325H816.596V360.22H824.87V353.325Z" fill="#3F3D56"/>
<path id="Vector_88" d="M811.079 386.423V379.527H802.805V386.423H810.39H811.079Z" fill="#3F3D56"/>
<path id="Vector_89" d="M810.39 391.939H802.805V398.834H811.079V391.939H810.39Z" fill="#3F3D56"/>
<path id="Vector_90" d="M824.87 379.527H816.596V386.423H824.87V379.527Z" fill="#3F3D56"/>
<path id="Vector_91" d="M824.87 391.939H816.596V398.834H824.87V391.939Z" fill="#3F3D56"/>
<path id="Vector_92" d="M811.079 425.037V418.141H802.805V425.037H810.39H811.079Z" fill="#3F3D56"/>
<path id="Vector_93" d="M810.39 430.553H802.805V437.448H811.079V430.553H810.39Z" fill="#3F3D56"/>
<path id="Vector_94" d="M824.87 418.141H816.596V425.037H824.87V418.141Z" fill="#3F3D56"/>
<path id="Vector_95" d="M824.87 430.553H816.596V437.448H824.87V430.553Z" fill="#3F3D56"/>
<path id="Vector_96" d="M811.079 463.651V456.755H802.805V463.651H810.39H811.079Z" fill="#3F3D56"/>
<path id="Vector_97" d="M810.39 469.167H802.805V476.062H811.079V469.167H810.39Z" fill="#3F3D56"/>
<path id="Vector_98" d="M824.87 456.755H816.596V463.651H824.87V456.755Z" fill="#3F3D56"/>
<path id="Vector_99" d="M824.87 469.167H816.596V476.062H824.87V469.167Z" fill="#3F3D56"/>
<path id="Vector_100" d="M768.328 347.808H688.342V364.357H768.328V347.808Z" fill="#3F3D56"/>
<path id="Vector_101" d="M768.328 380.906H688.342V397.455H768.328V380.906Z" fill="#3F3D56"/>
<path id="Vector_102" d="M768.328 414.004H688.342V430.553H768.328V414.004Z" fill="#3F3D56"/>
<path id="Vector_103" d="M768.328 447.102H688.342V463.651H768.328V447.102Z" fill="#3F3D56"/>
<path id="Vector_104" d="M904.515 344.361L897.62 338.844L936.234 304.367H1034.15V334.707L970.711 377.459L904.515 344.361Z" fill="#3F3D56"/>
<path id="Vector_105" d="M1052 323.707V305.056H1039V309.624L1034.15 304.367L1002.43 338.844L990.018 347.119L970.773 487.722L999.796 516.745H1067.25V340.223L1052 323.707Z" fill="#CCCCCC"/>
<path id="Vector_106" d="M1002.43 338.844H897.62V516.745H1002.43V338.844Z" fill="#F2F2F2"/>
<path id="Vector_107" d="M957.609 473.304H938.302V516.745H957.609V473.304Z" fill="#CCCCCC"/>
<path id="Vector_108" d="M917.616 485.716V478.821H909.342V485.716H916.927H917.616Z" fill="#3F3D56"/>
<path id="Vector_109" d="M916.927 491.232H909.342V498.128H917.616V491.232H916.927Z" fill="#3F3D56"/>
<path id="Vector_110" d="M931.407 478.821H923.132V485.716H931.407V478.821Z" fill="#3F3D56"/>
<path id="Vector_111" d="M931.407 491.232H923.132V498.128H931.407V491.232Z" fill="#3F3D56"/>
<path id="Vector_112" d="M974.158 485.716V478.821H965.884V485.716H973.469H974.158Z" fill="#3F3D56"/>
<path id="Vector_113" d="M973.469 491.232H965.884V498.128H974.158V491.232H973.469Z" fill="#3F3D56"/>
<path id="Vector_114" d="M987.949 478.821H979.675V485.716H987.949V478.821Z" fill="#3F3D56"/>
<path id="Vector_115" d="M987.949 491.232H979.675V498.128H987.949V491.232Z" fill="#3F3D56"/>
<path id="Vector_116" d="M1032.08 347.808V340.913H1023.8V347.808H1031.39H1032.08Z" fill="#3F3D56"/>
<path id="Vector_117" d="M1031.39 353.325H1023.8V360.22H1032.08V353.325H1031.39Z" fill="#3F3D56"/>
<path id="Vector_118" d="M1045.87 340.913H1037.6V347.808H1045.87V340.913Z" fill="#3F3D56"/>
<path id="Vector_119" d="M1045.87 353.325H1037.6V360.22H1045.87V353.325Z" fill="#3F3D56"/>
<path id="Vector_120" d="M1032.08 386.423V379.527H1023.8V386.423H1031.39H1032.08Z" fill="#3F3D56"/>
<path id="Vector_121" d="M1031.39 391.939H1023.8V398.834H1032.08V391.939H1031.39Z" fill="#3F3D56"/>
<path id="Vector_122" d="M1045.87 379.527H1037.6V386.423H1045.87V379.527Z" fill="#3F3D56"/>
<path id="Vector_123" d="M1045.87 391.939H1037.6V398.834H1045.87V391.939Z" fill="#3F3D56"/>
<path id="Vector_124" d="M1032.08 425.037V418.141H1023.8V425.037H1031.39H1032.08Z" fill="#3F3D56"/>
<path id="Vector_125" d="M1031.39 430.553H1023.8V437.448H1032.08V430.553H1031.39Z" fill="#3F3D56"/>
<path id="Vector_126" d="M1045.87 418.141H1037.6V425.037H1045.87V418.141Z" fill="#3F3D56"/>
<path id="Vector_127" d="M1045.87 430.553H1037.6V437.448H1045.87V430.553Z" fill="#3F3D56"/>
<path id="Vector_128" d="M1032.08 463.651V456.755H1023.8V463.651H1031.39H1032.08Z" fill="#3F3D56"/>
<path id="Vector_129" d="M1031.39 469.167H1023.8V476.062H1032.08V469.167H1031.39Z" fill="#3F3D56"/>
<path id="Vector_130" d="M1045.87 456.755H1037.6V463.651H1045.87V456.755Z" fill="#3F3D56"/>
<path id="Vector_131" d="M1045.87 469.167H1037.6V476.062H1045.87V469.167Z" fill="#3F3D56"/>
<path id="Vector_132" d="M989.328 347.808H909.342V364.357H989.328V347.808Z" fill="#3F3D56"/>
<path id="Vector_133" d="M989.328 380.906H909.342V397.455H989.328V380.906Z" fill="#3F3D56"/>
<path id="Vector_134" d="M989.328 414.004H909.342V430.553H989.328V414.004Z" fill="#3F3D56"/>
<path id="Vector_135" d="M989.328 447.102H909.342V463.651H989.328V447.102Z" fill="#3F3D56"/>
<path id="Vector_136" d="M1137 516.057H0V518.057H1137V516.057Z" fill="#3F3D56"/>
<path id="Vector_137" d="M254 437.057H252V516.057H254V437.057Z" fill="#3F3D56"/>
<path id="Vector_138" d="M272.458 447.124C272.585 474.749 253.15 497.233 253.15 497.233C253.15 497.233 233.508 474.929 233.381 447.304C233.254 419.68 252.689 397.196 252.689 397.196C252.689 397.196 272.33 419.5 272.458 447.124Z" fill="#E0A91B"/>
<path id="Vector_139" d="M454 437.057H452V516.057H454V437.057Z" fill="#3F3D56"/>
<path id="Vector_140" d="M472.458 447.124C472.585 474.749 453.15 497.233 453.15 497.233C453.15 497.233 433.508 474.929 433.381 447.304C433.254 419.68 452.689 397.196 452.689 397.196C452.689 397.196 472.33 419.5 472.458 447.124Z" fill="#E0A91B"/>
<path id="Vector_141" d="M853 437.057H851V516.057H853V437.057Z" fill="#3F3D56"/>
<path id="Vector_142" d="M871.458 447.124C871.585 474.749 852.15 497.233 852.15 497.233C852.15 497.233 832.508 474.929 832.381 447.304C832.254 419.68 851.689 397.196 851.689 397.196C851.689 397.196 871.33 419.5 871.458 447.124Z" fill="#E0A91B"/>
<path id="Vector_143" d="M587.5 172.05C608.487 172.05 625.5 168.222 625.5 163.5C625.5 158.778 608.487 154.95 587.5 154.95C566.513 154.95 549.5 158.778 549.5 163.5C549.5 168.222 566.513 172.05 587.5 172.05Z" fill="#E0A91B"/>
<path id="Vector_144" d="M630.5 44C630.5 68.3005 586.5 137 586.5 137C586.5 137 542.5 68.3005 542.5 44C542.5 32.3305 547.136 21.1389 555.387 12.8873C563.639 4.6357 574.83 0 586.5 0C598.17 0 609.361 4.6357 617.613 12.8873C625.864 21.1389 630.5 32.3305 630.5 44Z" fill="#E0A91B"/>
<path id="Vector_145" d="M586.5 69C600.307 69 611.5 57.8071 611.5 44C611.5 30.1929 600.307 19 586.5 19C572.693 19 561.5 30.1929 561.5 44C561.5 57.8071 572.693 69 586.5 69Z" fill="#F2F2F2"/>
</g>
<defs>
<clipPath id="clip0">
<rect width="1137" height="518.057" fill="white"/>
</clipPath>
</defs>
</svg>
