<svg width="729" height="599" viewBox="0 0 729 599" fill="none" xmlns="http://www.w3.org/2000/svg">
<g id="thanks-1 1" clip-path="url(#clip0)">
<path id="Vector" d="M592.675 60.196C597.328 41.2175 592.904 19.084 577.871 6.60059C577.577 27.8484 569.777 48.3075 555.851 64.358C550.458 70.5285 543.816 76.83 543.555 85.0211C543.392 90.1178 545.88 95.0132 549.309 98.7879C552.737 102.563 557.062 105.387 561.336 108.169L561.964 109.277C575.721 95.3996 588.022 79.1746 592.675 60.196Z" fill="#F0F0F0"/>
<path id="Vector_2" d="M577.569 6.87864C583.334 21.9903 584.192 38.5344 580.019 54.161C579.181 57.541 577.815 60.7678 575.971 63.7224C574.083 66.5425 571.473 68.8055 568.414 70.2761C565.59 71.7046 562.535 72.8388 560.107 74.9291C558.88 76.0175 557.897 77.353 557.222 78.848C556.547 80.3431 556.196 81.9638 556.192 83.6041C556.074 87.6907 557.433 91.5758 558.893 95.3289C560.514 99.4961 562.264 103.799 561.889 108.361C561.844 108.914 562.704 108.952 562.749 108.4C563.401 100.462 558.01 93.7574 557.155 86.0581C556.756 82.4655 557.438 78.7308 560.094 76.1115C562.417 73.821 565.566 72.6488 568.438 71.2271C571.443 69.8362 574.062 67.7306 576.066 65.0942C578.054 62.243 579.542 59.0743 580.467 55.7238C582.669 48.2139 583.676 40.4045 583.452 32.5816C583.247 23.6521 581.515 14.8236 578.332 6.47804C578.134 5.96158 577.373 6.36555 577.569 6.87863V6.87864Z" fill="white"/>
<path id="Vector_3" d="M581.659 49.2077C584.376 49.5518 587.127 48.919 589.42 47.4223C591.713 45.9255 593.4 43.6623 594.179 41.0368C594.334 40.505 593.515 40.238 593.359 40.7705C592.639 43.2167 591.067 45.3248 588.929 46.7142C586.791 48.1036 584.226 48.6828 581.698 48.3473C581.149 48.2751 581.113 49.1359 581.659 49.2077V49.2077Z" fill="white"/>
<path id="Vector_4" d="M569.942 69.7403C566.473 65.3466 564.787 59.8068 565.221 54.2255C565.265 53.6725 564.404 53.6342 564.361 54.1865C563.92 59.9954 565.686 65.7568 569.306 70.3211C569.651 70.7559 570.285 70.1727 569.942 69.7403V69.7403Z" fill="white"/>
<path id="Vector_5" d="M582.209 24.13C581.13 24.2159 580.047 24.0325 579.056 23.5962C578.066 23.1599 577.199 22.4844 576.534 21.6304C576.195 21.1914 575.561 21.7751 575.898 22.2112C576.637 23.1513 577.595 23.8962 578.689 24.3806C579.782 24.8651 580.977 25.0744 582.17 24.9904C582.283 24.9919 582.393 24.9502 582.476 24.8739C582.56 24.7977 582.611 24.6924 582.62 24.5797C582.625 24.4657 582.584 24.3546 582.507 24.2704C582.43 24.1862 582.323 24.1357 582.209 24.13V24.13Z" fill="white"/>
<path id="Vector_6" d="M512.861 18.8877C513.065 19.1678 513.269 19.448 513.471 19.735C516.199 23.5153 518.614 27.511 520.694 31.6825C520.86 32.0025 521.023 32.3292 521.18 32.6533C526.084 42.7569 529.07 53.6831 529.985 64.8766C530.346 69.3311 530.366 73.8066 530.048 78.2642C529.607 84.4204 528.639 91.0602 530.212 96.8325C530.369 97.4366 530.564 98.0303 530.795 98.6103L560.564 109.957C560.644 109.949 560.723 109.948 560.804 109.94L561.971 110.447C562.004 110.219 562.033 109.981 562.065 109.752C562.085 109.619 562.097 109.484 562.117 109.352C562.128 109.262 562.138 109.173 562.153 109.093C562.157 109.063 562.16 109.034 562.161 109.011C562.176 108.931 562.182 108.855 562.194 108.782C562.358 107.452 562.514 106.119 562.66 104.783C562.663 104.776 562.663 104.776 562.659 104.766C563.873 94.5926 563.875 84.3108 562.666 74.1364C562.626 73.8333 562.589 73.5235 562.535 73.2152C561.909 68.6769 560.914 64.1973 559.558 59.8212C558.808 57.4273 557.937 55.073 556.949 52.7672C554.385 46.8143 550.9 41.3018 546.623 36.4318C538.095 26.7247 526.557 19.8532 513.834 18.9473C513.508 18.9244 513.189 18.9038 512.861 18.8877Z" fill="#F0F0F0"/>
<path id="Vector_7" d="M512.784 19.2901C526.486 27.8848 537.131 40.5781 543.208 55.5672C544.573 58.7708 545.425 62.1697 545.732 65.6386C545.922 69.0274 545.201 72.4052 543.644 75.4212C542.249 78.2624 540.493 81.0071 539.812 84.138C539.488 85.7459 539.507 87.4041 539.869 89.004C540.23 90.604 540.925 92.1094 541.909 93.4217C544.276 96.7553 547.7 99.0396 551.125 101.157C554.929 103.508 558.916 105.89 561.364 109.759C561.661 110.227 562.37 109.74 562.074 109.272C557.816 102.541 549.474 100.434 544.156 94.8009C541.675 92.1727 539.97 88.7806 540.514 85.09C540.99 81.8626 542.798 79.0307 544.236 76.1661C545.798 73.2462 546.621 69.9883 546.634 66.6769C546.504 63.2035 545.785 59.7776 544.506 56.5457C541.742 49.2237 537.845 42.3817 532.957 36.2704C527.416 29.2646 520.718 23.2583 513.152 18.5112C512.683 18.2176 512.319 18.9985 512.784 19.2902V19.2901Z" fill="white"/>
<path id="Vector_8" d="M541.535 50.6256C543.911 49.2646 545.727 47.1033 546.656 44.5274C547.586 41.9516 547.57 39.1291 546.611 36.564C546.416 36.0456 545.601 36.3255 545.797 36.8446C546.694 39.2316 546.709 41.8608 545.838 44.2576C544.967 46.6545 543.268 48.661 541.048 49.9152C540.566 50.1883 541.055 50.8972 541.535 50.6256Z" fill="white"/>
<path id="Vector_9" d="M544.541 74.074C539.126 72.6546 534.445 69.2462 531.431 64.5286C531.133 64.0609 530.423 64.5484 530.72 65.0154C533.866 69.9189 538.745 73.4559 544.383 74.9206C544.921 75.0599 545.076 74.2125 544.541 74.074V74.074Z" fill="white"/>
<path id="Vector_10" d="M526.876 30.2708C526.066 30.989 525.09 31.4949 524.037 31.7429C522.983 31.9909 521.884 31.9734 520.839 31.6918C520.304 31.5458 520.149 32.3934 520.681 32.5384C521.837 32.8441 523.051 32.862 524.215 32.5906C525.38 32.3191 526.461 31.7666 527.362 30.9813C527.454 30.9144 527.516 30.8152 527.537 30.7041C527.557 30.5929 527.535 30.4779 527.474 30.3826C527.409 30.2889 527.31 30.2246 527.198 30.2036C527.086 30.1827 526.97 30.2069 526.876 30.2709V30.2708Z" fill="white"/>
<path id="Vector_11" d="M473.5 447.587C373.696 447.587 292.5 366.391 292.5 266.587C292.5 166.783 373.696 85.5869 473.5 85.5869C484.051 85.5856 494.583 86.4982 504.977 88.3145C505.107 88.3368 505.23 88.3845 505.342 88.4549C505.453 88.5252 505.549 88.6168 505.625 88.7244C505.7 88.8319 505.754 88.9534 505.783 89.0817C505.811 89.2101 505.815 89.3428 505.792 89.4724C505.769 89.6019 505.721 89.7257 505.65 89.8367C505.58 89.9476 505.488 90.0436 505.38 90.119C505.272 90.1944 505.151 90.2478 505.022 90.2762C504.894 90.3045 504.761 90.3072 504.632 90.2842C494.352 88.4882 483.936 87.5858 473.5 87.5869C374.799 87.5869 294.5 167.886 294.5 266.587C294.5 365.288 374.799 445.587 473.5 445.587C572.201 445.587 652.5 365.288 652.5 266.587C652.544 221.975 635.886 178.963 605.805 146.018C605.628 145.822 605.536 145.563 605.549 145.3C605.562 145.036 605.679 144.787 605.874 144.609C606.069 144.431 606.327 144.338 606.591 144.349C606.855 144.361 607.104 144.476 607.283 144.67C637.7 177.983 654.545 221.476 654.5 266.587C654.5 366.391 573.304 447.587 473.5 447.587Z" fill="#E4E4E4"/>
<path id="Vector_12" d="M553.308 147.663C573.085 147.663 589.119 131.63 589.119 111.852C589.119 92.0742 573.085 76.041 553.308 76.041C533.53 76.041 517.497 92.0742 517.497 111.852C517.497 131.63 533.53 147.663 553.308 147.663Z" fill="#E10032"/>
<path id="Vector_13" d="M548.422 130.49C547.803 130.49 547.193 130.346 546.64 130.069C546.087 129.793 545.606 129.391 545.235 128.896L535.466 115.87C535.152 115.451 534.923 114.975 534.794 114.468C534.664 113.961 534.635 113.434 534.709 112.916C534.783 112.398 534.958 111.9 535.225 111.45C535.491 111 535.844 110.607 536.262 110.293C536.681 109.979 537.157 109.751 537.664 109.621C538.171 109.491 538.698 109.462 539.216 109.536C539.734 109.61 540.232 109.786 540.682 110.052C541.132 110.319 541.525 110.671 541.839 111.09L548.231 119.611L564.647 94.9872C565.235 94.1118 566.146 93.505 567.18 93.2998C568.214 93.0946 569.287 93.3078 570.165 93.8927C571.042 94.4776 571.651 95.3863 571.86 96.4199C572.068 97.4534 571.858 98.5275 571.276 99.4066L551.737 128.716C551.383 129.246 550.908 129.684 550.35 129.992C549.793 130.3 549.169 130.471 548.533 130.489C548.496 130.489 548.459 130.49 548.422 130.49Z" fill="white"/>
<path id="Vector_14" d="M468.843 238.498L413.62 84.8672L415.02 84.3638L404.864 56.1069L403.463 56.6109L386.507 9.44142C385.874 7.67969 384.9 6.05993 383.641 4.67463C382.382 3.28934 380.862 2.16563 379.168 1.36767C377.475 0.569711 375.641 0.11312 373.771 0.0239818C371.901 -0.0651562 370.032 0.2149 368.27 0.848155L268.437 36.7334C266.676 37.3666 265.056 38.3406 263.671 39.5998C262.285 40.859 261.161 42.3787 260.363 44.0722C259.565 45.7657 259.109 47.5998 259.02 49.4698C258.93 51.3397 259.21 53.209 259.844 54.9707L271.666 87.8601L269.453 88.7122L277 108.309L278.771 107.627L280.338 111.986L278.453 112.712L286 132.309L287.444 131.753L342.18 284.027C342.81 285.791 343.782 287.413 345.041 288.801C346.299 290.188 347.82 291.313 349.514 292.111C351.208 292.91 353.044 293.366 354.915 293.453C356.786 293.541 358.656 293.258 360.417 292.621L460.249 256.736C463.805 255.453 466.706 252.813 468.317 249.394C469.928 245.975 470.117 242.056 468.843 238.498Z" fill="#3F3D56"/>
<path id="Vector_15" d="M355.167 287.558C353.761 287.555 352.391 287.119 351.241 286.309C350.092 285.5 349.219 284.356 348.743 283.033L265.538 51.5593C264.926 49.8544 265.015 47.976 265.787 46.3372C266.56 44.6984 267.951 43.4334 269.656 42.8205L290.897 35.1852L290.865 35.9284C290.811 37.2185 291.074 38.5022 291.633 39.6664C292.191 40.8306 293.028 41.8395 294.068 42.6044C295.108 43.3693 296.321 43.8666 297.598 44.0526C298.876 44.2385 300.18 44.1073 301.395 43.6706L348.536 26.7258C349.674 26.2044 350.673 25.4226 351.452 24.4434C352.232 23.4643 352.77 22.3153 353.024 21.0896C353.274 19.8843 353.236 18.6368 352.913 17.4489C352.589 16.2611 351.99 15.1665 351.163 14.2546L350.665 13.7013L372.606 5.81415C374.311 5.20387 376.189 5.29467 377.827 6.06666C379.465 6.83865 380.731 8.22881 381.345 9.9323L460.73 230.778C462.35 235.302 462.109 240.284 460.061 244.631C458.013 248.978 454.324 252.335 449.803 253.966L357.482 287.152C356.74 287.419 355.956 287.557 355.167 287.558V287.558Z" fill="white"/>
<path id="Vector_16" d="M347.033 123.377C361.945 123.377 374.033 111.289 374.033 96.377C374.033 81.4653 361.945 69.377 347.033 69.377C332.122 69.377 320.033 81.4653 320.033 96.377C320.033 111.289 332.122 123.377 347.033 123.377Z" fill="#E10032"/>
<path id="Vector_17" d="M413.939 135.642L320.437 169.252C320.145 169.357 319.835 169.405 319.524 169.39C319.214 169.376 318.91 169.301 318.629 169.169C318.347 169.037 318.095 168.85 317.886 168.621C317.677 168.391 317.515 168.122 317.41 167.83C317.305 167.538 317.259 167.227 317.274 166.917C317.289 166.607 317.365 166.303 317.497 166.022C317.63 165.741 317.817 165.489 318.047 165.281C318.277 165.072 318.546 164.911 318.839 164.807L412.341 131.197C412.93 130.987 413.578 131.019 414.144 131.286C414.709 131.553 415.145 132.034 415.357 132.622C415.568 133.211 415.538 133.859 415.272 134.425C415.006 134.991 414.527 135.429 413.939 135.642V135.642Z" fill="#E6E6E6"/>
<path id="Vector_18" d="M386.172 156.952L355.417 168.007C355.125 168.113 354.815 168.16 354.504 168.145C354.194 168.131 353.89 168.055 353.609 167.923C353.328 167.791 353.075 167.605 352.866 167.375C352.657 167.146 352.496 166.877 352.391 166.585C352.286 166.293 352.239 165.982 352.254 165.672C352.269 165.362 352.345 165.058 352.478 164.777C352.61 164.496 352.797 164.244 353.027 164.036C353.257 163.827 353.526 163.666 353.819 163.562L384.574 152.506C385.164 152.295 385.813 152.325 386.38 152.592C386.947 152.859 387.384 153.341 387.596 153.93C387.808 154.52 387.777 155.169 387.51 155.736C387.243 156.302 386.762 156.74 386.172 156.952V156.952Z" fill="#E6E6E6"/>
<path id="Vector_19" d="M393.487 177.302L362.732 188.358C362.44 188.462 362.13 188.509 361.82 188.494C361.51 188.479 361.207 188.404 360.926 188.271C360.645 188.139 360.394 187.953 360.185 187.724C359.976 187.494 359.815 187.226 359.71 186.934C359.605 186.642 359.559 186.332 359.573 186.022C359.588 185.713 359.664 185.409 359.796 185.128C359.928 184.848 360.114 184.596 360.344 184.387C360.573 184.179 360.842 184.017 361.134 183.912L391.889 172.857C392.479 172.645 393.128 172.676 393.695 172.943C394.261 173.21 394.699 173.691 394.911 174.281C395.123 174.87 395.092 175.52 394.825 176.086C394.558 176.653 394.077 177.09 393.487 177.302V177.302Z" fill="#E6E6E6"/>
<path id="Vector_20" d="M397.234 187.726L366.478 198.781C366.186 198.887 365.876 198.934 365.566 198.92C365.256 198.906 364.951 198.83 364.67 198.698C364.389 198.566 364.136 198.38 363.927 198.15C363.718 197.921 363.556 197.652 363.451 197.359C363.346 197.067 363.3 196.757 363.315 196.447C363.33 196.136 363.406 195.832 363.539 195.551C363.671 195.27 363.858 195.018 364.089 194.81C364.319 194.601 364.588 194.44 364.881 194.336L395.636 183.281C395.928 183.175 396.238 183.128 396.548 183.142C396.859 183.156 397.163 183.232 397.444 183.364C397.725 183.496 397.978 183.682 398.187 183.912C398.396 184.142 398.557 184.41 398.663 184.703C398.768 184.995 398.814 185.305 398.799 185.615C398.784 185.925 398.708 186.23 398.575 186.51C398.443 186.791 398.256 187.043 398.026 187.252C397.795 187.46 397.526 187.621 397.234 187.726L397.234 187.726Z" fill="#E6E6E6"/>
<path id="Vector_21" d="M407.027 160.784L341.774 184.24C341.482 184.346 341.172 184.393 340.862 184.378C340.551 184.364 340.247 184.289 339.966 184.157C339.685 184.025 339.432 183.838 339.223 183.609C339.014 183.379 338.853 183.11 338.748 182.818C338.643 182.526 338.596 182.216 338.611 181.905C338.626 181.595 338.702 181.291 338.835 181.01C338.968 180.729 339.154 180.477 339.385 180.269C339.615 180.06 339.884 179.899 340.176 179.795L405.429 156.339C405.721 156.234 406.031 156.186 406.342 156.201C406.652 156.215 406.956 156.29 407.237 156.422C407.518 156.554 407.771 156.741 407.98 156.97C408.189 157.2 408.351 157.469 408.456 157.761C408.561 158.053 408.607 158.364 408.592 158.674C408.577 158.984 408.501 159.288 408.368 159.569C408.236 159.85 408.049 160.102 407.819 160.31C407.589 160.519 407.32 160.68 407.027 160.784V160.784Z" fill="#E6E6E6"/>
<path id="Vector_22" d="M393.883 213.03L382.716 217.044C381.714 217.403 380.61 217.35 379.647 216.896C378.684 216.442 377.941 215.624 377.581 214.622C377.221 213.62 377.273 212.516 377.727 211.553C378.18 210.59 378.998 209.846 379.999 209.485L391.166 205.471C392.168 205.112 393.272 205.165 394.235 205.619C395.198 206.073 395.941 206.891 396.302 207.893C396.662 208.895 396.609 209.999 396.156 210.962C395.702 211.925 394.885 212.669 393.883 213.03V213.03Z" fill="#FD49A0"/>
<path id="Vector_23" d="M305.883 35.9331C306.74 35.9331 307.436 35.2378 307.436 34.3801C307.436 33.5224 306.74 32.8271 305.883 32.8271C305.025 32.8271 304.33 33.5224 304.33 34.3801C304.33 35.2378 305.025 35.9331 305.883 35.9331Z" fill="white"/>
<path id="Vector_24" d="M127.283 121.724C144.689 101.235 172.93 88.3234 198.967 95.0176C175.517 112.476 158.997 137.666 152.332 166.131C149.801 177.118 148.131 189.602 139.21 196.497C133.66 200.788 126.196 201.961 119.224 201.182C112.252 200.403 105.616 197.859 99.0692 195.338L97.3286 195.531C101.707 169.006 109.878 142.212 127.283 121.724Z" fill="#F0F0F0"/>
<path id="Vector_25" d="M198.901 95.578C177.406 101.334 158.272 113.716 144.215 130.967C141.123 134.626 138.627 138.751 136.82 143.188C135.199 147.567 134.78 152.3 135.606 156.896C136.291 161.197 137.49 165.516 137.117 169.909C136.893 172.154 136.197 174.327 135.074 176.284C133.951 178.242 132.428 179.94 130.603 181.267C126.141 184.693 120.715 186.311 115.354 187.709C109.402 189.261 103.194 190.779 98.4101 194.875C97.8305 195.372 97.0943 194.443 97.6731 193.948C105.997 186.821 117.818 187.426 127.09 182.171C131.417 179.72 135.031 175.949 135.809 170.876C136.49 166.44 135.258 161.985 134.527 157.636C133.655 153.165 133.891 148.547 135.214 144.188C136.79 139.673 139.123 135.46 142.112 131.728C148.709 123.218 156.603 115.799 165.504 109.742C175.625 102.772 186.863 97.5849 198.733 94.4049C199.467 94.2084 199.631 95.3827 198.901 95.578H198.901Z" fill="white"/>
<path id="Vector_26" d="M148.415 125.145C145.841 122.394 144.328 118.818 144.148 115.054C143.968 111.291 145.131 107.586 147.43 104.601C147.897 103.999 148.855 104.697 148.387 105.3C146.241 108.075 145.158 111.527 145.333 115.031C145.508 118.535 146.93 121.861 149.342 124.408C149.866 124.963 148.935 125.697 148.415 125.145H148.415Z" fill="white"/>
<path id="Vector_27" d="M134.972 154.761C142.667 155.086 150.202 152.499 156.074 147.516C156.655 147.021 157.392 147.95 156.811 148.443C150.69 153.618 142.844 156.294 134.837 155.939C134.074 155.904 134.213 154.727 134.972 154.761V154.761Z" fill="white"/>
<path id="Vector_28" d="M175.929 104.314C176.703 105.586 177.781 106.645 179.066 107.398C180.351 108.15 181.802 108.572 183.29 108.625C184.054 108.65 183.914 109.827 183.156 109.802C181.512 109.736 179.909 109.268 178.487 108.44C177.066 107.612 175.869 106.448 175.001 105.051C174.908 104.926 174.866 104.77 174.884 104.616C174.902 104.461 174.977 104.319 175.096 104.218C175.219 104.121 175.376 104.077 175.532 104.095C175.688 104.113 175.83 104.191 175.929 104.314V104.314Z" fill="white"/>
<path id="Vector_29" d="M237.683 177.396C237.206 177.394 236.729 177.392 236.246 177.398C229.833 177.406 223.431 177.934 217.103 178.979C216.613 179.052 216.117 179.133 215.63 179.22C200.412 181.899 185.825 187.379 172.608 195.383C167.352 198.573 162.346 202.158 157.633 206.107C151.126 211.561 144.504 217.993 136.801 220.894C136.001 221.205 135.182 221.467 134.349 221.678L97.6992 197.639C97.6433 197.543 97.5816 197.455 97.5253 197.358L96.0181 196.465C96.2469 196.244 96.4889 196.02 96.7177 195.8C96.8499 195.671 96.9903 195.548 97.1225 195.419C97.2132 195.335 97.3044 195.252 97.3814 195.171C97.4115 195.143 97.442 195.115 97.4666 195.095C97.5437 195.014 97.6239 194.947 97.6955 194.874C99.045 193.619 100.406 192.371 101.778 191.13C101.783 191.122 101.783 191.122 101.797 191.119C112.274 181.69 123.631 173.054 135.937 166.416C136.308 166.216 136.683 166.008 137.07 165.82C142.634 162.858 148.43 160.357 154.402 158.34C157.675 157.246 161.001 156.318 164.368 155.561C173.072 153.62 182.027 153.06 190.905 153.902C208.602 155.584 225.564 162.906 236.832 176.36C237.12 176.704 237.4 177.043 237.683 177.396Z" fill="#F0F0F0"/>
<path id="Vector_30" d="M237.295 177.807C216.667 169.462 193.934 167.828 172.325 173.139C167.653 174.199 163.177 175.99 159.062 178.444C155.131 180.964 151.947 184.491 149.84 188.659C147.798 192.505 146.154 196.675 143.212 199.958C141.681 201.616 139.817 202.932 137.742 203.819C135.667 204.706 133.428 205.144 131.172 205.105C125.548 205.154 120.241 203.179 115.119 201.068C109.431 198.723 103.561 196.198 97.275 196.588C96.5133 196.636 96.4845 195.451 97.245 195.404C108.181 194.725 117.256 202.325 127.823 203.712C132.754 204.36 137.909 203.525 141.585 199.943C144.8 196.811 146.499 192.512 148.533 188.6C150.529 184.504 153.497 180.96 157.178 178.276C161.155 175.62 165.554 173.66 170.188 172.48C180.578 169.658 191.348 168.486 202.102 169.009C214.379 169.537 226.475 172.162 237.867 176.769C238.572 177.055 237.995 178.091 237.295 177.807L237.295 177.807Z" fill="white"/>
<path id="Vector_31" d="M179.183 171.019C178.784 167.272 179.73 163.506 181.851 160.393C183.973 157.279 187.133 155.022 190.765 154.022C191.501 153.823 191.846 154.957 191.109 155.157C187.725 156.081 184.782 158.184 182.812 161.087C180.842 163.991 179.975 167.502 180.367 170.989C180.451 171.747 179.266 171.772 179.183 171.019V171.019Z" fill="white"/>
<path id="Vector_32" d="M150.619 186.571C156.567 191.464 164.141 193.935 171.83 193.491C172.592 193.446 172.621 194.631 171.86 194.675C163.858 195.122 155.982 192.535 149.803 187.43C149.214 186.943 150.034 186.087 150.619 186.571H150.619Z" fill="white"/>
<path id="Vector_33" d="M213.693 170.95C213.546 172.432 213.768 173.927 214.341 175.302C214.914 176.676 215.819 177.887 216.976 178.825C217.57 179.304 216.75 180.16 216.159 179.684C214.886 178.641 213.888 177.303 213.252 175.786C212.616 174.269 212.36 172.619 212.509 170.98C212.51 170.825 212.57 170.675 212.677 170.563C212.785 170.45 212.931 170.382 213.086 170.373C213.243 170.37 213.395 170.429 213.508 170.537C213.622 170.645 213.689 170.794 213.693 170.95V170.95Z" fill="white"/>
<path id="Vector_34" d="M649.649 515.513C668.628 520.167 690.761 515.742 703.245 500.709C681.997 500.415 661.538 492.615 645.488 478.689C639.317 473.296 633.015 466.655 624.824 466.393C619.728 466.23 614.832 468.719 611.058 472.147C607.283 475.575 604.458 479.9 601.676 484.174L600.569 484.802C614.446 498.559 630.671 510.86 649.649 515.513Z" fill="#F0F0F0"/>
<path id="Vector_35" d="M702.968 500.408C687.856 506.173 671.312 507.031 655.685 502.858C652.305 502.02 649.078 500.654 646.124 498.81C643.304 496.922 641.041 494.312 639.57 491.253C638.142 488.429 637.007 485.374 634.917 482.946C633.829 481.719 632.493 480.735 630.998 480.061C629.503 479.386 627.882 479.035 626.242 479.031C622.155 478.913 618.27 480.271 614.517 481.732C610.35 483.353 606.047 485.103 601.485 484.728C600.932 484.683 600.894 485.543 601.446 485.588C609.384 486.24 616.089 480.849 623.788 479.994C627.381 479.595 631.115 480.276 633.735 482.933C636.025 485.255 637.197 488.405 638.619 491.277C640.01 494.282 642.116 496.901 644.752 498.905C647.603 500.893 650.772 502.381 654.122 503.305C661.632 505.508 669.442 506.515 677.264 506.291C686.194 506.085 695.023 504.353 703.368 501.17C703.885 500.973 703.481 500.212 702.967 500.408H702.968Z" fill="white"/>
<path id="Vector_36" d="M660.638 504.497C660.294 507.214 660.927 509.965 662.423 512.258C663.92 514.552 666.183 516.238 668.809 517.017C669.341 517.173 669.608 516.354 669.075 516.198C666.629 515.477 664.521 513.906 663.132 511.767C661.742 509.629 661.163 507.064 661.498 504.536C661.571 503.987 660.71 503.951 660.638 504.497V504.497Z" fill="white"/>
<path id="Vector_37" d="M640.106 492.78C644.5 489.311 650.039 487.626 655.621 488.06C656.174 488.103 656.212 487.243 655.66 487.199C649.851 486.758 644.089 488.524 639.525 492.144C639.09 492.49 639.673 493.124 640.106 492.78H640.106Z" fill="white"/>
<path id="Vector_38" d="M685.717 505.048C685.631 503.969 685.814 502.885 686.25 501.895C686.687 500.904 687.362 500.038 688.216 499.373C688.655 499.033 688.072 498.399 687.635 498.737C686.695 499.476 685.95 500.434 685.466 501.527C684.982 502.62 684.772 503.816 684.856 505.009C684.855 505.122 684.896 505.231 684.973 505.315C685.049 505.398 685.154 505.45 685.267 505.458C685.381 505.463 685.492 505.422 685.576 505.345C685.66 505.269 685.711 505.162 685.717 505.048V505.048Z" fill="white"/>
<path id="Vector_39" d="M690.959 435.7C690.679 435.904 690.399 436.109 690.112 436.311C686.331 439.038 682.336 441.453 678.164 443.534C677.844 443.7 677.517 443.863 677.193 444.019C667.09 448.923 656.164 451.909 644.97 452.825C640.516 453.185 636.04 453.206 631.583 452.887C625.426 452.446 618.786 451.479 613.014 453.051C612.41 453.209 611.816 453.403 611.236 453.634L599.889 483.403C599.898 483.484 599.899 483.562 599.907 483.643L599.399 484.811C599.628 484.843 599.866 484.872 600.095 484.905C600.227 484.924 600.363 484.937 600.495 484.956C600.584 484.967 600.674 484.978 600.754 484.992C600.783 484.996 600.813 485 600.836 485.001C600.916 485.016 600.992 485.021 601.065 485.033C602.395 485.198 603.728 485.353 605.064 485.5C605.071 485.502 605.071 485.502 605.08 485.498C615.254 486.712 625.536 486.714 635.71 485.505C636.013 485.465 636.323 485.428 636.632 485.374C641.17 484.748 645.649 483.753 650.026 482.397C652.419 481.647 654.774 480.777 657.08 479.789C663.032 477.224 668.545 473.74 673.415 469.462C683.122 460.934 689.994 449.396 690.899 436.673C690.922 436.347 690.943 436.028 690.959 435.7Z" fill="#F0F0F0"/>
<path id="Vector_40" d="M690.555 435.623C681.961 449.325 669.267 459.97 654.278 466.047C651.075 467.412 647.676 468.264 644.207 468.571C640.818 468.761 637.44 468.04 634.424 466.483C631.583 465.088 628.838 463.332 625.707 462.651C624.1 462.327 622.441 462.346 620.841 462.707C619.241 463.069 617.736 463.764 616.424 464.748C613.09 467.115 610.806 470.539 608.688 473.964C606.337 477.767 603.955 481.755 600.087 484.203C599.618 484.499 600.106 485.209 600.574 484.913C607.304 480.655 609.412 472.313 615.044 466.995C617.673 464.514 621.065 462.809 624.755 463.353C627.983 463.828 630.815 465.637 633.679 467.075C636.599 468.637 639.857 469.46 643.169 469.473C646.642 469.343 650.068 468.624 653.3 467.345C660.622 464.581 667.464 460.684 673.575 455.795C680.581 450.255 686.587 443.557 691.334 435.991C691.628 435.522 690.847 435.158 690.555 435.623H690.555Z" fill="white"/>
<path id="Vector_41" d="M659.22 464.374C660.581 466.75 662.742 468.565 665.318 469.495C667.894 470.425 670.717 470.409 673.282 469.45C673.8 469.255 673.52 468.44 673.001 468.636C670.614 469.533 667.985 469.548 665.588 468.677C663.191 467.806 661.185 466.107 659.93 463.887C659.657 463.405 658.949 463.894 659.22 464.374Z" fill="white"/>
<path id="Vector_42" d="M635.772 467.38C637.192 461.965 640.6 457.284 645.318 454.27C645.785 453.972 645.298 453.262 644.831 453.56C639.927 456.705 636.39 461.584 634.926 467.222C634.786 467.76 635.634 467.915 635.772 467.38Z" fill="white"/>
<path id="Vector_43" d="M679.575 449.714C678.857 448.905 678.351 447.929 678.103 446.876C677.855 445.822 677.873 444.723 678.154 443.678C678.3 443.143 677.453 442.988 677.307 443.52C677.002 444.676 676.984 445.89 677.255 447.054C677.527 448.219 678.079 449.299 678.865 450.201C678.932 450.292 679.031 450.355 679.142 450.376C679.253 450.396 679.368 450.374 679.463 450.313C679.557 450.248 679.621 450.149 679.642 450.037C679.663 449.925 679.639 449.809 679.575 449.714V449.714Z" fill="white"/>
<path id="Vector_44" d="M725.697 333.101L696.757 381.801L697.857 382.381L688.057 400.961L686.017 399.881L679.577 410.711L681.177 411.631L670.677 429.811L668.857 428.761L574.427 587.681C571.95 591.84 567.925 594.847 563.234 596.041C558.543 597.235 553.57 596.52 549.407 594.051L373.857 489.741C369.697 487.265 366.69 483.24 365.496 478.549C364.302 473.858 365.018 468.885 367.487 464.721L518.757 210.141C521.233 205.983 525.258 202.976 529.949 201.782C534.64 200.588 539.613 201.303 543.777 203.771L719.327 308.081C723.484 310.559 726.49 314.584 727.684 319.275C728.878 323.965 728.163 328.937 725.697 333.101V333.101Z" fill="#3F3D56"/>
<path id="Vector_45" d="M555.663 584.225L379.495 479.548C378.213 478.785 377.286 477.544 376.918 476.098C376.55 474.652 376.771 473.119 377.531 471.836L529.805 215.562C530.569 214.28 531.81 213.354 533.255 212.986C534.701 212.618 536.234 212.838 537.518 213.599L713.686 318.275C714.968 319.039 715.894 320.28 716.262 321.726C716.63 323.171 716.41 324.704 715.649 325.988L563.376 582.261C562.612 583.543 561.371 584.47 559.925 584.838C558.479 585.206 556.947 584.985 555.663 584.225Z" fill="white"/>
<path id="Vector_46" d="M628.028 261.886C628.886 261.886 629.581 261.191 629.581 260.333C629.581 259.476 628.886 258.78 628.028 258.78C627.17 258.78 626.475 259.476 626.475 260.333C626.475 261.191 627.17 261.886 628.028 261.886Z" fill="white"/>
<path id="Vector_47" d="M618.417 445.465L471.361 358.086C470.899 357.814 470.496 357.454 470.174 357.027C469.853 356.599 469.619 356.112 469.486 355.593C469.352 355.075 469.323 354.535 469.399 354.005C469.475 353.475 469.655 352.966 469.928 352.506C470.202 352.045 470.563 351.644 470.992 351.324C471.422 351.004 471.91 350.771 472.429 350.64C472.948 350.509 473.487 350.482 474.017 350.56C474.546 350.638 475.055 350.82 475.514 351.095L622.571 438.474C623.032 438.746 623.435 439.106 623.757 439.533C624.079 439.961 624.313 440.448 624.446 440.967C624.579 441.485 624.608 442.025 624.532 442.555C624.456 443.085 624.277 443.594 624.003 444.054C623.73 444.515 623.368 444.916 622.939 445.236C622.51 445.556 622.022 445.789 621.503 445.92C620.984 446.051 620.444 446.078 619.915 446C619.385 445.922 618.876 445.74 618.417 445.465H618.417Z" fill="#E6E6E6"/>
<path id="Vector_48" d="M559.698 431.926L511.327 403.184C510.868 402.912 510.467 402.551 510.147 402.123C509.827 401.696 509.595 401.209 509.463 400.692C509.331 400.174 509.303 399.636 509.379 399.107C509.455 398.579 509.635 398.07 509.908 397.611C510.181 397.152 510.541 396.751 510.969 396.431C511.397 396.112 511.883 395.879 512.401 395.748C512.918 395.616 513.457 395.588 513.985 395.664C514.514 395.74 515.022 395.92 515.481 396.193L563.852 424.934C564.311 425.207 564.712 425.568 565.032 425.995C565.352 426.423 565.584 426.909 565.716 427.427C565.848 427.944 565.876 428.483 565.8 429.011C565.723 429.54 565.544 430.048 565.271 430.507C564.998 430.966 564.638 431.367 564.21 431.687C563.782 432.006 563.296 432.239 562.778 432.37C562.261 432.502 561.723 432.531 561.194 432.454C560.666 432.378 560.157 432.198 559.698 431.926V431.926Z" fill="#E6E6E6"/>
<path id="Vector_49" d="M540.68 463.933L492.309 435.191C491.382 434.64 490.712 433.744 490.446 432.699C490.18 431.654 490.341 430.546 490.891 429.619C491.442 428.692 492.339 428.022 493.384 427.756C494.428 427.49 495.536 427.649 496.463 428.2L544.834 456.941C545.293 457.214 545.694 457.575 546.014 458.002C546.334 458.43 546.566 458.916 546.698 459.434C546.83 459.951 546.858 460.49 546.782 461.018C546.705 461.547 546.526 462.055 546.253 462.514C545.98 462.973 545.62 463.374 545.192 463.694C544.764 464.013 544.278 464.246 543.76 464.377C543.243 464.509 542.705 464.538 542.176 464.461C541.648 464.385 541.139 464.205 540.68 463.933V463.933Z" fill="#E6E6E6"/>
<path id="Vector_50" d="M530.94 480.326L482.569 451.585C482.108 451.313 481.706 450.953 481.385 450.525C481.064 450.097 480.831 449.61 480.698 449.092C480.566 448.574 480.537 448.035 480.613 447.506C480.689 446.976 480.869 446.467 481.142 446.008C481.415 445.548 481.776 445.147 482.205 444.827C482.633 444.507 483.12 444.274 483.639 444.143C484.157 444.012 484.697 443.984 485.226 444.061C485.755 444.139 486.263 444.32 486.723 444.594L535.094 473.335C535.555 473.607 535.958 473.967 536.28 474.395C536.602 474.823 536.836 475.31 536.969 475.828C537.102 476.347 537.131 476.886 537.056 477.416C536.98 477.946 536.8 478.456 536.526 478.916C536.253 479.376 535.891 479.778 535.462 480.098C535.033 480.418 534.545 480.65 534.026 480.782C533.507 480.913 532.967 480.94 532.437 480.862C531.908 480.784 531.399 480.602 530.94 480.326V480.326Z" fill="#E6E6E6"/>
<path id="Vector_51" d="M577.451 463.824L474.824 402.844C473.901 402.291 473.236 401.395 472.972 400.352C472.709 399.309 472.87 398.205 473.419 397.28C473.969 396.355 474.862 395.686 475.904 395.419C476.945 395.151 478.051 395.308 478.978 395.853L581.604 456.833C582.066 457.104 582.469 457.464 582.791 457.892C583.113 458.32 583.347 458.807 583.48 459.325C583.613 459.844 583.642 460.384 583.566 460.914C583.49 461.443 583.311 461.953 583.037 462.413C582.764 462.874 582.402 463.275 581.973 463.595C581.544 463.915 581.056 464.148 580.537 464.279C580.018 464.41 579.478 464.437 578.948 464.359C578.419 464.281 577.91 464.099 577.451 463.824V463.824Z" fill="#E6E6E6"/>
<path id="Vector_52" d="M557.89 541.755L540.327 531.319C538.753 530.381 537.615 528.857 537.164 527.081C536.713 525.305 536.985 523.422 537.921 521.847C538.857 520.272 540.38 519.133 542.156 518.68C543.931 518.226 545.814 518.497 547.39 519.431L564.954 529.867C566.53 530.804 567.67 532.328 568.122 534.105C568.575 535.882 568.303 537.766 567.366 539.343C566.429 540.919 564.905 542.059 563.128 542.511C561.35 542.964 559.467 542.692 557.89 541.755Z" fill="#E10032"/>
<path id="Vector_53" d="M590.659 372.314C610.541 372.314 626.659 356.197 626.659 336.314C626.659 316.432 610.541 300.314 590.659 300.314C570.776 300.314 554.659 316.432 554.659 336.314C554.659 356.197 570.776 372.314 590.659 372.314Z" fill="#E10032"/>
<path id="Vector_54" d="M0.423828 482.606H487.605V200.558C487.602 198.444 486.762 196.418 485.267 194.924C483.773 193.43 481.747 192.589 479.634 192.587H8.39482C6.28155 192.589 4.25551 193.43 2.76118 194.924C1.26685 196.418 0.426268 198.444 0.423828 200.558V482.606Z" fill="#CACACA"/>
<path id="Vector_55" d="M472.553 203.61H15.4761V463.101H472.553V203.61Z" fill="white"/>
<path id="Vector_56" d="M6.55376e-10 474.974V509.779C-1.57581e-05 511.222 0.284166 512.65 0.836319 513.983C1.38847 515.316 2.19779 516.528 3.21805 517.548C4.23831 518.568 5.44955 519.378 6.78259 519.93C8.11564 520.482 9.54438 520.766 10.9873 520.766H190.802V589.455H188.413C188.226 589.455 188.04 589.492 187.867 589.563C187.694 589.635 187.536 589.74 187.404 589.873C187.271 590.005 187.166 590.163 187.094 590.336C187.023 590.509 186.986 590.695 186.986 590.882V595.66C186.986 595.847 187.023 596.033 187.094 596.206C187.166 596.379 187.271 596.536 187.404 596.669C187.536 596.801 187.694 596.906 187.867 596.978C188.04 597.05 188.226 597.087 188.413 597.087H300.04C300.227 597.087 300.413 597.05 300.586 596.978C300.759 596.906 300.916 596.801 301.049 596.669C301.182 596.536 301.287 596.379 301.358 596.206C301.43 596.033 301.467 595.847 301.467 595.66V590.882C301.467 590.695 301.43 590.509 301.358 590.336C301.287 590.163 301.182 590.005 301.049 589.873C300.916 589.74 300.759 589.635 300.586 589.563C300.413 589.492 300.227 589.455 300.04 589.455H297.651V520.766H477.466C478.908 520.766 480.337 520.482 481.67 519.93C483.003 519.378 484.215 518.568 485.235 517.548C486.255 516.528 487.064 515.316 487.617 513.983C488.169 512.65 488.453 511.222 488.453 509.779V474.974L6.55376e-10 474.974Z" fill="#3F3D56"/>
<path id="Vector_57" d="M406.413 290.395H189.959C188.595 290.395 187.286 289.852 186.321 288.888C185.357 287.923 184.814 286.614 184.814 285.25C184.814 283.885 185.357 282.576 186.321 281.611C187.286 280.647 188.595 280.104 189.959 280.104H406.413C407.778 280.104 409.086 280.647 410.051 281.611C411.016 282.576 411.558 283.885 411.558 285.25C411.558 286.614 411.016 287.923 410.051 288.888C409.086 289.852 407.778 290.395 406.413 290.395V290.395Z" fill="#E6E6E6"/>
<path id="Vector_58" d="M333.785 313.62H262.587C261.223 313.62 259.914 313.078 258.949 312.113C257.984 311.148 257.442 309.839 257.442 308.474C257.442 307.11 257.984 305.801 258.949 304.836C259.914 303.871 261.223 303.329 262.587 303.329H333.785C335.15 303.329 336.458 303.871 337.423 304.836C338.388 305.801 338.93 307.11 338.93 308.474C338.93 309.839 338.388 311.148 337.423 312.113C336.458 313.078 335.15 313.62 333.785 313.62V313.62Z" fill="#E6E6E6"/>
<path id="Vector_59" d="M333.785 360.731H262.587C261.223 360.731 259.914 360.189 258.949 359.224C257.984 358.259 257.442 356.95 257.442 355.586C257.442 354.221 257.984 352.912 258.949 351.947C259.914 350.983 261.223 350.44 262.587 350.44H333.785C335.15 350.44 336.458 350.983 337.423 351.947C338.388 352.912 338.93 354.221 338.93 355.586C338.93 356.95 338.388 358.259 337.423 359.224C336.458 360.189 335.15 360.731 333.785 360.731Z" fill="#E6E6E6"/>
<path id="Vector_60" d="M333.785 384.861H262.587C261.912 384.861 261.243 384.728 260.618 384.47C259.994 384.211 259.427 383.832 258.949 383.354C258.472 382.877 258.093 382.309 257.834 381.685C257.575 381.061 257.442 380.392 257.442 379.716C257.442 379.041 257.575 378.372 257.834 377.747C258.093 377.123 258.472 376.556 258.949 376.078C259.427 375.6 259.994 375.222 260.618 374.963C261.243 374.704 261.912 374.571 262.587 374.571H333.785C334.461 374.571 335.13 374.704 335.754 374.963C336.378 375.222 336.945 375.6 337.423 376.078C337.901 376.556 338.28 377.123 338.538 377.747C338.797 378.372 338.93 379.041 338.93 379.716C338.93 380.392 338.797 381.061 338.538 381.685C338.28 382.309 337.901 382.877 337.423 383.354C336.945 383.832 336.378 384.211 335.754 384.47C335.13 384.728 334.461 384.861 333.785 384.861V384.861Z" fill="#E6E6E6"/>
<path id="Vector_61" d="M373.715 336.845H222.658C221.293 336.845 219.984 336.303 219.02 335.338C218.055 334.373 217.513 333.064 217.513 331.7C217.513 330.335 218.055 329.026 219.02 328.062C219.984 327.097 221.293 326.555 222.658 326.555H373.715C375.08 326.555 376.388 327.097 377.353 328.062C378.318 329.026 378.86 330.335 378.86 331.7C378.86 333.064 378.318 334.373 377.353 335.338C376.388 336.303 375.08 336.845 373.715 336.845V336.845Z" fill="#E6E6E6"/>
<path id="Vector_62" d="M402.81 434.266H376.958C374.638 434.266 372.412 433.344 370.772 431.703C369.131 430.062 368.209 427.837 368.209 425.517C368.209 423.196 369.131 420.971 370.772 419.33C372.412 417.689 374.638 416.768 376.958 416.768H402.81C405.13 416.768 407.355 417.689 408.996 419.33C410.637 420.971 411.559 423.196 411.559 425.517C411.559 427.837 410.637 430.062 408.996 431.703C407.355 433.344 405.13 434.266 402.81 434.266V434.266Z" fill="#E10032"/>
<path id="Vector_63" d="M121.895 370.766C146.747 370.766 166.895 350.618 166.895 325.766C166.895 300.913 146.747 280.766 121.895 280.766C97.0417 280.766 76.8945 300.913 76.8945 325.766C76.8945 350.618 97.0417 370.766 121.895 370.766Z" fill="#E10032"/>
<path id="Vector_64" d="M648.485 598.943H1.19066C0.875467 598.942 0.573504 598.816 0.350952 598.593C0.1284 598.37 0.00341797 598.067 0.00341797 597.752C0.00341797 597.437 0.1284 597.135 0.350952 596.911C0.573504 596.688 0.875467 596.562 1.19066 596.562H648.485C648.8 596.562 649.102 596.688 649.324 596.911C649.547 597.135 649.672 597.437 649.672 597.752C649.672 598.067 649.547 598.37 649.324 598.593C649.102 598.816 648.8 598.942 648.485 598.943V598.943Z" fill="#CACACA"/>
<path id="Vector_65" d="M243.802 198.099C244.739 198.099 245.498 197.34 245.498 196.403C245.498 195.466 244.739 194.707 243.802 194.707C242.866 194.707 242.106 195.466 242.106 196.403C242.106 197.34 242.866 198.099 243.802 198.099Z" fill="white"/>
</g>
<defs>
<clipPath id="clip0">
<rect width="728.252" height="598.943" fill="white"/>
</clipPath>
</defs>
</svg>
