<svg width="896" height="748" viewBox="0 0 896 748" fill="none" xmlns="http://www.w3.org/2000/svg">
<g id="undraw_empty_cart_co35 1" clip-path="url(#clip0_2_2)">
<path id="Vector" d="M41.634 712.738C54.0624 735.787 80.44 745.681 80.44 745.681C80.44 745.681 86.6671 718.206 74.2387 695.157C61.8103 672.108 35.4327 662.214 35.4327 662.214C35.4327 662.214 29.2056 689.689 41.634 712.738Z" fill="#2F2E41"/>
<path id="Vector_2" d="M50.1765 705.155C72.6149 718.655 81.2567 745.469 81.2567 745.469C81.2567 745.469 53.5186 750.396 31.0802 736.896C8.64174 723.396 0 696.582 0 696.582C0 696.582 27.7381 691.655 50.1765 705.155Z" fill="#88CA5E"/>
<path id="Vector_3" d="M553.248 35.9078H413.249V37.9078H553.248V35.9078Z" fill="#F2F2F2"/>
<path id="Vector_4" d="M515.248 37.4078H513.248V55.9078H515.248V37.4078Z" fill="#F2F2F2"/>
<path id="Vector_5" d="M454.249 37.4078H452.249V55.9078H454.249V37.4078Z" fill="#F2F2F2"/>
<path id="Vector_6" d="M624.248 131.908H484.249V133.908H624.248V131.908Z" fill="#F2F2F2"/>
<path id="Vector_7" d="M524.248 113.908H522.248V132.408H524.248V113.908Z" fill="#F2F2F2"/>
<path id="Vector_8" d="M585.248 113.908H583.248V132.408H585.248V113.908Z" fill="#F2F2F2"/>
<path id="Vector_9" d="M810.248 176.908H670.248V178.908H810.248V176.908Z" fill="#F2F2F2"/>
<path id="Vector_10" d="M710.248 158.908H708.248V177.408H710.248V158.908Z" fill="#F2F2F2"/>
<path id="Vector_11" d="M771.248 158.908H769.248V177.408H771.248V158.908Z" fill="#F2F2F2"/>
<path id="Vector_12" d="M796.248 640.908H656.248V642.908H796.248V640.908Z" fill="#F2F2F2"/>
<path id="Vector_13" d="M696.248 622.908H694.248V641.408H696.248V622.908Z" fill="#F2F2F2"/>
<path id="Vector_14" d="M757.248 622.908H755.248V641.408H757.248V622.908Z" fill="#F2F2F2"/>
<path id="Vector_15" d="M557.248 319.908H417.249V321.908H557.248V319.908Z" fill="#F2F2F2"/>
<path id="Vector_16" d="M457.249 301.908H455.249V320.408H457.249V301.908Z" fill="#F2F2F2"/>
<path id="Vector_17" d="M518.248 301.908H516.248V320.408H518.248V301.908Z" fill="#F2F2F2"/>
<path id="Vector_18" d="M601.248 560.908H461.249V562.908H601.248V560.908Z" fill="#F2F2F2"/>
<path id="Vector_19" d="M501.249 542.908H499.249V561.408H501.249V542.908Z" fill="#F2F2F2"/>
<path id="Vector_20" d="M562.248 542.908H560.248V561.408H562.248V542.908Z" fill="#F2F2F2"/>
<path id="Vector_21" d="M825.248 487.908H685.248V489.908H825.248V487.908Z" fill="#F2F2F2"/>
<path id="Vector_22" d="M725.248 469.908H723.248V488.408H725.248V469.908Z" fill="#F2F2F2"/>
<path id="Vector_23" d="M786.248 469.908H784.248V488.408H786.248V469.908Z" fill="#F2F2F2"/>
<path id="Vector_24" d="M362.06 702.184H125.274V700.481H360.356V617.861H145.18L134.727 596.084L136.263 595.347L146.252 616.157H362.06V702.184Z" fill="#2F2E41"/>
<path id="Vector_25" d="M156.789 743.92C166.667 743.92 174.675 735.912 174.675 726.033C174.675 716.154 166.667 708.146 156.789 708.146C146.91 708.146 138.902 716.154 138.902 726.033C138.902 735.912 146.91 743.92 156.789 743.92Z" fill="#3F3D56"/>
<path id="Vector_26" d="M333.101 743.92C342.979 743.92 350.987 735.912 350.987 726.033C350.987 716.154 342.979 708.146 333.101 708.146C323.222 708.146 315.214 716.154 315.214 726.033C315.214 735.912 323.222 743.92 333.101 743.92Z" fill="#3F3D56"/>
<path id="Vector_27" d="M540.927 357.226C547.043 357.226 552 352.268 552 346.153C552 340.038 547.043 335.08 540.927 335.08C534.812 335.08 529.854 340.038 529.854 346.153C529.854 352.268 534.812 357.226 540.927 357.226Z" fill="#3F3D56"/>
<path id="Vector_28" d="M387.385 589.753H121.237L63.6484 401.517H446.693L446.344 402.624L387.385 589.753ZM122.497 588.05H386.136L444.37 403.22H65.9508L122.497 588.05Z" fill="#2F2E41"/>
<path id="Vector_29" d="M366.61 579.958H132.842L82.26 413.015H418.701L418.395 413.998L366.61 579.958Z" fill="#F2F2F2"/>
<path id="Vector_30" d="M451.465 384.7L449.818 384.263L461.059 341.894H526.448V343.598H462.37L451.465 384.7Z" fill="#2F2E41"/>
<path id="Vector_31" d="M427.552 458.584H82.2584V460.287H427.552V458.584Z" fill="#2F2E41"/>
<path id="Vector_32" d="M407.777 521.344H101.459V523.047H407.777V521.344Z" fill="#2F2E41"/>
<path id="Vector_33" d="M256.017 402.368H254.314V588.901H256.017V402.368Z" fill="#2F2E41"/>
<path id="Vector_34" d="M332.286 402.315L320.058 588.843L321.758 588.955L333.986 402.426L332.286 402.315Z" fill="#2F2E41"/>
<path id="Vector_35" d="M178.081 402.313L176.38 402.424L188.538 588.957L190.238 588.846L178.081 402.313Z" fill="#2F2E41"/>
<path id="Vector_36" d="M896 745H0V747H896V745Z" fill="#2F2E41"/>
<path id="Vector_37" d="M595.411 61.876C595.411 61.876 610.029 103.482 601.033 109.883C592.037 116.284 631.394 168.559 631.394 168.559L678.623 155.757L652.76 112.017C652.76 112.017 649.386 68.2769 649.386 61.876C649.386 55.475 595.411 61.876 595.411 61.876Z" fill="#A0616A"/>
<path id="Vector_38" opacity="0.1" d="M595.411 61.876C595.411 61.876 610.029 103.482 601.033 109.883C592.037 116.284 631.394 168.559 631.394 168.559L678.623 155.757L652.76 112.017C652.76 112.017 649.386 68.2769 649.386 61.876C649.386 55.475 595.411 61.876 595.411 61.876Z" fill="black"/>
<path id="Vector_39" d="M570.874 358.454C570.874 358.454 566.606 411.795 570.874 439.533C575.141 467.27 581.542 544.082 581.542 544.082C581.542 544.082 581.542 689.171 605.012 691.304C628.482 693.438 645.552 695.572 647.685 687.037C649.819 678.502 637.017 674.235 643.418 669.968C649.819 665.7 651.953 650.765 643.418 633.696C634.883 616.626 643.418 443.8 643.418 443.8L683.957 552.617C683.957 552.617 688.225 642.23 692.492 655.032C696.759 667.834 688.225 691.304 703.16 693.438C718.096 695.572 735.165 682.77 743.7 678.502C752.234 674.235 730.898 674.235 735.165 672.101C739.432 669.968 752.234 663.567 747.967 661.433C743.7 659.299 739.432 556.884 739.432 556.884C739.432 556.884 727.697 338.184 712.762 329.65C697.826 321.115 688.225 335.815 688.225 335.815L570.874 358.454Z" fill="#2F2E41"/>
<path id="Vector_40" d="M609.279 682.77V699.839C609.279 699.839 590.077 746.238 609.279 746.238C628.482 746.238 643.418 751.047 643.418 744.646V687.037L609.279 682.77Z" fill="#2F2E41"/>
<path id="Vector_41" d="M735.165 682.739V699.809C735.165 699.809 754.368 746.208 735.165 746.208C715.962 746.208 701.027 751.016 701.027 744.615V687.007L735.165 682.739Z" fill="#2F2E41"/>
<path id="Vector_42" d="M625.282 92.814C646.493 92.814 663.688 75.6191 663.688 54.4082C663.688 33.1973 646.493 16.0024 625.282 16.0024C604.071 16.0024 586.876 33.1973 586.876 54.4082C586.876 75.6191 604.071 92.814 625.282 92.814Z" fill="#A0616A"/>
<path id="Vector_43" d="M613.547 125.886C613.547 125.886 624.215 157.89 641.284 151.49L658.354 145.089L688.225 349.919C688.225 349.919 664.754 384.058 630.616 362.721C596.477 341.385 613.547 125.886 613.547 125.886Z" fill="#88CA5E"/>
<path id="Vector_44" d="M643.418 119.485L653.019 99.215C653.019 99.215 709.561 125.886 718.096 134.42C726.63 142.955 726.63 155.757 726.63 155.757L711.695 209.098C711.695 209.098 715.962 326.449 715.962 330.717C715.962 334.984 730.898 358.454 720.229 349.919C709.561 341.385 707.428 332.85 698.893 345.652C690.358 358.454 671.155 373.39 671.155 373.39L643.418 119.485Z" fill="#3F3D56"/>
<path id="Vector_45" d="M718.096 273.108L711.695 332.85C711.695 332.85 673.289 366.989 681.824 369.122C690.358 371.256 694.626 362.721 694.626 362.721C694.626 362.721 709.561 377.657 718.096 369.122C726.63 360.588 747.967 279.509 747.967 279.509L718.096 273.108Z" fill="#A0616A"/>
<path id="Vector_46" d="M626.1 0.129871C617.586 -0.174499 608.475 -0.32506 601.296 4.26308C597.993 6.56567 595.096 9.40154 592.724 12.6546C585.732 21.4931 579.691 32.6139 582.288 43.58L585.304 42.4036C585.304 45.3308 584.654 48.2214 583.399 50.8662C583.824 49.6311 585.246 51.6277 584.866 52.877L581.543 63.7777C587.005 61.7753 593.8 65.8296 594.631 71.5874C595.011 58.9262 596.324 44.4078 606.595 36.9941C611.775 33.2554 618.33 32.1141 624.637 31.1006C630.455 30.1656 636.555 29.274 642.128 31.1895C647.701 33.1049 652.446 38.8045 651.183 44.5604C653.753 43.6752 656.626 45.466 657.896 47.8689C659.166 50.2718 659.233 53.1064 659.271 55.824C662.01 57.7598 665.128 53.9158 666.244 50.7529C668.864 43.3285 671.193 35.4255 669.782 27.6799C668.37 19.9343 662.058 12.5322 654.185 12.5059C655.141 11.4562 655.651 10.076 655.607 8.65715L649.118 8.10884C650.765 7.87558 652.28 7.07679 653.404 5.8493C650.798 8.71623 630.313 0.280481 626.1 0.129871Z" fill="#2F2E41"/>
<path id="Vector_47" d="M624.215 113.084C624.215 113.084 606.846 96.0629 600.595 97.1055C594.344 98.1481 585.809 113.084 585.809 113.084C585.809 113.084 534.602 130.153 536.735 147.222C538.869 164.291 562.339 247.504 562.339 247.504C562.339 247.504 581.542 347.786 564.473 358.454C547.403 369.122 645.552 396.86 647.685 384.058C649.819 371.256 654.086 243.237 647.685 224.034C641.284 204.831 624.215 113.084 624.215 113.084Z" fill="#3F3D56"/>
<path id="Vector_48" d="M698.893 147.222H725.276C725.276 147.222 743.7 228.301 745.833 236.836C747.967 245.37 752.234 285.91 750.101 285.91C747.967 285.91 705.294 277.375 705.294 283.776L698.893 147.222Z" fill="#3F3D56"/>
<path id="Vector_49" d="M740 348H639C629.144 302.66 628.32 258.853 639 217H740C723.701 258.101 722.682 301.607 740 348Z" fill="#F2F2F2"/>
<path id="Vector_50" d="M555.938 292.311L585.809 305.113C585.809 305.113 643.418 313.647 643.418 290.177C643.418 266.707 585.809 279.509 585.809 279.509L566.605 273.369L555.938 292.311Z" fill="#A0616A"/>
<path id="Vector_51" d="M562.339 134.42L536.735 140.821L517.532 253.905C517.532 253.905 511.131 283.776 521.8 285.91C532.468 288.043 562.339 305.113 562.339 305.113C562.339 305.113 566.606 273.108 575.141 273.108L553.804 256.039L566.606 181.361L562.339 134.42Z" fill="#3F3D56"/>
<path id="Vector_52" d="M200.249 352.908H60.2485V354.908H200.249V352.908Z" fill="#F2F2F2"/>
<path id="Vector_53" d="M100.249 334.908H98.2485V353.408H100.249V334.908Z" fill="#F2F2F2"/>
<path id="Vector_54" d="M161.249 334.908H159.249V353.408H161.249V334.908Z" fill="#F2F2F2"/>
<path id="Vector_55" d="M249.249 56.9078H109.249V58.9078H249.249V56.9078Z" fill="#F2F2F2"/>
<path id="Vector_56" d="M211.249 58.4078H209.249V76.9078H211.249V58.4078Z" fill="#F2F2F2"/>
<path id="Vector_57" d="M150.249 58.4078H148.249V76.9078H150.249V58.4078Z" fill="#F2F2F2"/>
<path id="Vector_58" d="M390.249 253.908H250.249V255.908H390.249V253.908Z" fill="#F2F2F2"/>
<path id="Vector_59" d="M352.249 255.408H350.249V273.908H352.249V255.408Z" fill="#F2F2F2"/>
<path id="Vector_60" d="M291.249 255.408H289.249V273.908H291.249V255.408Z" fill="#F2F2F2"/>
<path id="Vector_61" d="M152.249 252.908H12.2485V254.908H152.249V252.908Z" fill="#F2F2F2"/>
<path id="Vector_62" d="M114.249 254.408H112.249V272.908H114.249V254.408Z" fill="#F2F2F2"/>
<path id="Vector_63" d="M53.2485 254.408H51.2485V272.908H53.2485V254.408Z" fill="#F2F2F2"/>
<path id="Vector_64" d="M320.249 152.908H180.249V154.908H320.249V152.908Z" fill="#F2F2F2"/>
<path id="Vector_65" d="M220.249 134.908H218.249V153.408H220.249V134.908Z" fill="#F2F2F2"/>
<path id="Vector_66" d="M281.249 134.908H279.249V153.408H281.249V134.908Z" fill="#F2F2F2"/>
<path id="Your cart is empty" d="M645.13 238.892C645.546 237.991 646.309 237.54 647.418 237.54C649.481 237.54 651.431 240.504 653.268 246.432C654.343 244.82 655.261 243.182 656.024 241.518C656.804 239.837 657.194 238.459 657.194 237.384C659.031 237.384 659.95 237.869 659.95 238.84C659.95 239.516 659.534 240.521 658.702 241.856C657.87 243.191 656.969 244.569 655.998 245.99C655.045 247.394 654.481 248.425 654.308 249.084C654.256 249.76 654.23 250.592 654.23 251.58C654.23 252.568 654.351 253.937 654.594 255.688C654.039 255.896 653.45 256 652.826 256C652.202 256 651.656 255.801 651.188 255.402C650.737 255.003 650.512 254.501 650.512 253.894C650.512 253.27 650.616 251.693 650.824 249.162C649.489 243.962 647.591 240.539 645.13 238.892ZM664.236 256.312C662.33 256.312 660.926 255.757 660.024 254.648C659.123 253.521 658.672 251.961 658.672 249.968C658.672 247.957 659.27 246.215 660.466 244.742C661.662 243.269 663.196 242.532 665.068 242.532C668.916 242.532 670.84 244.699 670.84 249.032C670.84 251.06 670.216 252.785 668.968 254.206C667.72 255.61 666.143 256.312 664.236 256.312ZM662.364 245.392C662.052 246.397 661.896 247.403 661.896 248.408C661.896 249.413 661.931 250.193 662 250.748C662.07 251.303 662.2 251.857 662.39 252.412C662.789 253.539 663.569 254.102 664.73 254.102C665.909 254.102 666.68 253.79 667.044 253.166C667.426 252.542 667.616 251.58 667.616 250.28C667.616 246.588 666.741 244.742 664.99 244.742C663.985 244.742 663.11 244.959 662.364 245.392ZM673.171 253.348L673.431 247.94C673.431 246.259 673.189 244.664 672.703 243.156C673.189 242.948 673.787 242.844 674.497 242.844C675.884 242.844 676.577 243.615 676.577 245.158C676.577 246.025 676.482 247.247 676.291 248.824C676.101 250.384 676.005 251.519 676.005 252.23C676.005 253.097 676.395 253.53 677.175 253.53C677.643 253.53 678.189 253.14 678.813 252.36C679.455 251.563 680.001 250.679 680.451 249.708C680.919 248.72 681.197 247.914 681.283 247.29C681.179 245.383 681.032 244.005 680.841 243.156C681.396 242.948 681.959 242.844 682.531 242.844C683.121 242.844 683.606 243.026 683.987 243.39C684.386 243.754 684.585 244.205 684.585 244.742C684.585 245.279 684.507 246.172 684.351 247.42C684.195 248.668 684.117 249.977 684.117 251.346C684.117 252.698 684.273 254.145 684.585 255.688C683.909 255.896 683.303 256 682.765 256C681.691 256 681.153 255.289 681.153 253.868C681.153 253.244 681.223 252.377 681.361 251.268C680.668 252.741 679.819 253.929 678.813 254.83C677.825 255.714 676.82 256.156 675.797 256.156C674.047 256.156 673.171 255.22 673.171 253.348ZM691.053 255.688C690.516 255.896 689.944 256 689.337 256C688.73 256 688.236 255.861 687.855 255.584C687.491 255.289 687.309 254.891 687.309 254.388C687.309 253.868 687.387 252.932 687.543 251.58C687.699 250.228 687.777 248.919 687.777 247.654C687.777 246.371 687.578 244.872 687.179 243.156C687.734 242.948 688.28 242.844 688.817 242.844C689.354 242.844 689.814 243.026 690.195 243.39C690.594 243.754 690.793 244.239 690.793 244.846C690.793 245.158 690.741 245.626 690.637 246.25C690.533 246.857 690.472 247.316 690.455 247.628C691.131 246.085 691.928 244.881 692.847 244.014C693.783 243.13 694.71 242.688 695.629 242.688C696.27 242.688 696.782 242.913 697.163 243.364C697.544 243.815 697.735 244.387 697.735 245.08C697.735 245.756 697.562 246.311 697.215 246.744C696.868 247.16 696.435 247.368 695.915 247.368C695.412 247.368 695.005 247.316 694.693 247.212C694.745 247.004 694.771 246.813 694.771 246.64C694.771 245.929 694.52 245.574 694.017 245.574C693.254 245.574 692.535 246.345 691.859 247.888C691.2 249.413 690.758 250.843 690.533 252.178C690.62 253.478 690.793 254.648 691.053 255.688ZM651.526 288.312C649.671 288.312 648.25 287.818 647.262 286.83C646.274 285.842 645.78 284.421 645.78 282.566C645.78 280.313 646.413 278.415 647.678 276.872C648.943 275.312 650.625 274.532 652.722 274.532C653.918 274.532 654.889 274.775 655.634 275.26C656.379 275.728 656.752 276.43 656.752 277.366C656.752 277.973 656.509 278.519 656.024 279.004C655.539 279.472 654.993 279.706 654.386 279.706C654.247 279.706 654.074 279.689 653.866 279.654C653.918 279.429 653.944 279.229 653.944 279.056C653.944 278.432 653.779 277.903 653.45 277.47C653.121 277.037 652.575 276.82 651.812 276.82C651.049 276.82 650.339 277.132 649.68 277.756C649.212 278.969 648.978 280.486 648.978 282.306C648.978 284.785 649.914 286.024 651.786 286.024C652.791 286.024 653.537 285.703 654.022 285.062C654.525 284.403 654.776 283.667 654.776 282.852C655.365 282.852 655.877 282.999 656.31 283.294C656.743 283.589 656.96 283.996 656.96 284.516C656.96 285.643 656.379 286.561 655.218 287.272C654.074 287.965 652.843 288.312 651.526 288.312ZM671.132 275.754C670.664 277.747 670.43 279.749 670.43 281.76C670.43 283.753 670.656 285.729 671.106 287.688C670.482 287.896 669.841 288 669.182 288C668.524 288 668.064 287.809 667.804 287.428C667.544 287.029 667.414 286.466 667.414 285.738C667.414 284.993 667.527 283.979 667.752 282.696C666.522 285.331 665.334 286.995 664.19 287.688C663.67 288 663.133 288.156 662.578 288.156C661.261 288.156 660.238 287.671 659.51 286.7C658.782 285.712 658.418 284.49 658.418 283.034C658.418 280.815 659.034 278.874 660.264 277.21C661.495 275.529 663.09 274.688 665.048 274.688C667.024 274.688 669.052 275.043 671.132 275.754ZM667.726 277.314C666.808 277.037 666.028 276.898 665.386 276.898C664.086 276.898 663.116 277.184 662.474 277.756C661.885 279.212 661.59 280.694 661.59 282.202C661.59 282.999 661.712 283.805 661.954 284.62C662.214 285.435 662.604 285.842 663.124 285.842C663.731 285.842 664.511 284.949 665.464 283.164C666.418 281.379 667.172 279.429 667.726 277.314ZM677.24 287.688C676.703 287.896 676.131 288 675.524 288C674.918 288 674.424 287.861 674.042 287.584C673.678 287.289 673.496 286.891 673.496 286.388C673.496 285.868 673.574 284.932 673.73 283.58C673.886 282.228 673.964 280.919 673.964 279.654C673.964 278.371 673.765 276.872 673.366 275.156C673.921 274.948 674.467 274.844 675.004 274.844C675.542 274.844 676.001 275.026 676.382 275.39C676.781 275.754 676.98 276.239 676.98 276.846C676.98 277.158 676.928 277.626 676.824 278.25C676.72 278.857 676.66 279.316 676.642 279.628C677.318 278.085 678.116 276.881 679.034 276.014C679.97 275.13 680.898 274.688 681.816 274.688C682.458 274.688 682.969 274.913 683.35 275.364C683.732 275.815 683.922 276.387 683.922 277.08C683.922 277.756 683.749 278.311 683.402 278.744C683.056 279.16 682.622 279.368 682.102 279.368C681.6 279.368 681.192 279.316 680.88 279.212C680.932 279.004 680.958 278.813 680.958 278.64C680.958 277.929 680.707 277.574 680.204 277.574C679.442 277.574 678.722 278.345 678.046 279.888C677.388 281.413 676.946 282.843 676.72 284.178C676.807 285.478 676.98 286.648 677.24 287.688ZM686.315 271.022C686.87 270.745 687.433 270.606 688.005 270.606C688.577 270.606 689.037 270.788 689.383 271.152C689.747 271.516 689.929 272.053 689.929 272.764C689.929 273.475 689.886 274.281 689.799 275.182C691.099 275.182 692.339 275 693.517 274.636C693.725 274.983 693.829 275.39 693.829 275.858C693.829 276.309 693.621 276.681 693.205 276.976C692.807 277.253 692.399 277.392 691.983 277.392C691.567 277.392 691.099 277.34 690.579 277.236C690.059 277.132 689.721 277.071 689.565 277.054C689.548 277.21 689.496 277.522 689.409 277.99C689.34 278.458 689.279 278.865 689.227 279.212C689.089 280.165 689.019 281.188 689.019 282.28C689.019 284.655 689.791 285.842 691.333 285.842C691.905 285.842 692.564 285.643 693.309 285.244C693.535 285.573 693.647 285.998 693.647 286.518C693.647 287.038 693.361 287.445 692.789 287.74C692.235 288.017 691.567 288.156 690.787 288.156C687.737 288.156 686.211 286.423 686.211 282.956C686.211 282.453 686.281 281.543 686.419 280.226C686.575 278.909 686.653 277.843 686.653 277.028C685.821 277.08 685.154 277.227 684.651 277.47C684.443 277.158 684.339 276.803 684.339 276.404C684.339 275.988 684.487 275.65 684.781 275.39C685.076 275.113 685.44 274.974 685.873 274.974C686.307 274.974 686.593 274.983 686.731 275C686.749 274.861 686.757 274.679 686.757 274.454C686.757 273.154 686.61 272.01 686.315 271.022ZM703.001 275.078C703.556 274.922 704.11 274.844 704.665 274.844C705.237 274.844 705.722 275.017 706.121 275.364C706.52 275.711 706.719 276.161 706.719 276.716C706.719 277.253 706.624 278.198 706.433 279.55C706.26 280.885 706.173 281.925 706.173 282.67C706.173 284.611 706.355 286.284 706.719 287.688C706.182 287.896 705.601 288 704.977 288C704.353 288 703.859 287.861 703.495 287.584C703.131 287.289 702.949 286.873 702.949 286.336C702.949 285.781 703.053 284.88 703.261 283.632C703.469 282.384 703.573 281.353 703.573 280.538C703.573 278.371 703.382 276.551 703.001 275.078ZM703.339 269.202C703.946 268.925 704.544 268.786 705.133 268.786C705.722 268.786 706.156 268.942 706.433 269.254C706.728 269.549 706.875 269.991 706.875 270.58C706.875 271.169 706.676 271.689 706.277 272.14C705.896 272.591 705.393 272.816 704.769 272.816C703.486 272.816 702.845 272.149 702.845 270.814C702.845 270.225 703.01 269.687 703.339 269.202ZM711.838 283.268C711.786 283.511 711.76 283.71 711.76 283.866C711.76 284.577 711.968 285.123 712.384 285.504C712.817 285.885 713.389 286.076 714.1 286.076C714.828 286.076 715.426 285.946 715.894 285.686C716.379 285.409 716.622 285.001 716.622 284.464C716.622 283.927 716.362 283.502 715.842 283.19C715.339 282.861 714.724 282.601 713.996 282.41C713.285 282.219 712.566 282.011 711.838 281.786C711.11 281.543 710.486 281.171 709.966 280.668C709.463 280.165 709.212 279.533 709.212 278.77C709.212 277.574 709.845 276.569 711.11 275.754C712.375 274.939 713.701 274.532 715.088 274.532C716.613 274.532 717.775 274.844 718.572 275.468C719.04 275.832 719.274 276.317 719.274 276.924C719.274 277.513 719.04 277.999 718.572 278.38C718.121 278.744 717.567 278.926 716.908 278.926C716.769 278.926 716.596 278.909 716.388 278.874C716.44 278.649 716.466 278.449 716.466 278.276C716.466 277.773 716.275 277.392 715.894 277.132C715.513 276.872 714.993 276.742 714.334 276.742C713.693 276.742 713.103 276.872 712.566 277.132C712.358 277.409 712.254 277.765 712.254 278.198C712.254 278.631 712.505 278.987 713.008 279.264C713.511 279.524 714.117 279.758 714.828 279.966C715.556 280.157 716.284 280.382 717.012 280.642C717.74 280.885 718.355 281.275 718.858 281.812C719.361 282.332 719.612 282.991 719.612 283.788C719.612 285.088 718.962 286.171 717.662 287.038C716.379 287.887 715.053 288.312 713.684 288.312C712.315 288.312 711.179 288.069 710.278 287.584C709.394 287.081 708.952 286.327 708.952 285.322C708.952 284.698 709.177 284.195 709.628 283.814C710.096 283.415 710.659 283.216 711.318 283.216C711.457 283.216 711.63 283.233 711.838 283.268ZM648.692 314.098C648.692 315.346 648.891 316.334 649.29 317.062C649.689 317.773 650.356 318.128 651.292 318.128C652.228 318.128 652.956 317.816 653.476 317.192C654.013 316.551 654.282 315.779 654.282 314.878C654.871 314.878 655.383 315.025 655.816 315.32C656.249 315.615 656.466 316.022 656.466 316.542C656.466 317.617 655.894 318.518 654.75 319.246C653.606 319.957 652.401 320.312 651.136 320.312C649.16 320.312 647.73 319.783 646.846 318.726C645.962 317.651 645.52 316.065 645.52 313.968C645.52 311.871 646.109 310.111 647.288 308.69C648.484 307.251 650.07 306.532 652.046 306.532C653.398 306.532 654.481 306.844 655.296 307.468C656.128 308.075 656.544 309.028 656.544 310.328C656.544 311.611 655.955 312.581 654.776 313.24C653.615 313.881 652.193 314.202 650.512 314.202C649.923 314.202 649.316 314.167 648.692 314.098ZM648.718 312.044C649.238 312.148 649.784 312.2 650.356 312.2C651.604 312.2 652.653 311.966 653.502 311.498C653.606 311.082 653.658 310.753 653.658 310.51C653.658 309.903 653.441 309.444 653.008 309.132C652.575 308.82 651.977 308.664 651.214 308.664C650.469 308.664 649.793 308.907 649.186 309.392C648.874 310.293 648.718 311.177 648.718 312.044ZM678.861 309.496L678.601 315.06C678.601 316.741 678.843 318.336 679.329 319.844C678.843 320.052 678.289 320.156 677.665 320.156C676.191 320.156 675.455 319.333 675.455 317.686C675.455 316.941 675.55 315.693 675.741 313.942C675.931 312.174 676.027 311.065 676.027 310.614C676.027 309.747 675.671 309.314 674.961 309.314C674.181 309.314 673.245 310.111 672.153 311.706C671.078 313.301 670.541 314.549 670.541 315.45C670.627 316.819 670.87 318.18 671.269 319.532C670.61 319.74 670.055 319.844 669.605 319.844C668.131 319.844 667.395 319.021 667.395 317.374C667.395 316.681 667.49 315.519 667.681 313.89C667.871 312.261 667.967 311.238 667.967 310.822C667.967 309.955 667.577 309.522 666.797 309.522C666.259 309.522 665.644 309.921 664.951 310.718C664.257 311.515 663.668 312.399 663.183 313.37C662.715 314.323 662.463 315.086 662.429 315.658C662.515 317.149 662.689 318.492 662.949 319.688C662.394 319.896 661.813 320 661.207 320C660.617 320 660.132 319.861 659.751 319.584C659.387 319.289 659.205 318.891 659.205 318.388C659.205 317.868 659.283 316.949 659.439 315.632C659.595 314.297 659.673 312.98 659.673 311.68C659.673 310.363 659.473 308.855 659.075 307.156C659.629 306.948 660.219 306.844 660.843 306.844C661.467 306.844 661.969 307.026 662.351 307.39C662.749 307.754 662.949 308.239 662.949 308.846C662.949 309.158 662.888 309.921 662.767 311.134C663.408 309.99 664.223 309.002 665.211 308.17C666.199 307.321 667.187 306.896 668.175 306.896C669.925 306.896 670.801 307.832 670.801 309.704C670.801 310.172 670.775 310.692 670.723 311.264C671.364 310.051 672.187 308.985 673.193 308.066C674.215 307.147 675.229 306.688 676.235 306.688C677.985 306.688 678.861 307.624 678.861 309.496ZM685.329 317.452C686.04 317.712 686.863 317.842 687.799 317.842C688.735 317.842 689.558 317.66 690.269 317.296C691.118 315.84 691.543 314.098 691.543 312.07C691.543 310.025 691.188 309.002 690.477 309.002C689.593 309.002 688.596 309.895 687.487 311.68C686.395 313.465 685.676 315.389 685.329 317.452ZM685.329 312.122C687.166 308.499 689.203 306.688 691.439 306.688C692.618 306.688 693.458 307.173 693.961 308.144C694.481 309.097 694.741 310.311 694.741 311.784C694.741 313.899 694.117 315.823 692.869 317.556C691.621 319.289 690.052 320.156 688.163 320.156C687.088 320.156 686.109 319.983 685.225 319.636C685.26 322.011 685.407 324.186 685.667 326.162C685.112 326.37 684.54 326.474 683.951 326.474C683.362 326.474 682.876 326.275 682.495 325.876C682.114 325.495 681.923 324.905 681.923 324.108C681.923 323.311 682.027 321.95 682.235 320.026C682.443 318.102 682.547 316.594 682.547 315.502C682.547 311.897 682.356 309.115 681.975 307.156C682.53 306.948 683.11 306.844 683.717 306.844C684.341 306.844 684.818 307.026 685.147 307.39C685.494 307.737 685.667 308.291 685.667 309.054C685.667 309.799 685.554 310.822 685.329 312.122ZM697.893 303.022C698.448 302.745 699.011 302.606 699.583 302.606C700.155 302.606 700.615 302.788 700.961 303.152C701.325 303.516 701.507 304.053 701.507 304.764C701.507 305.475 701.464 306.281 701.377 307.182C702.677 307.182 703.917 307 705.095 306.636C705.303 306.983 705.407 307.39 705.407 307.858C705.407 308.309 705.199 308.681 704.783 308.976C704.385 309.253 703.977 309.392 703.561 309.392C703.145 309.392 702.677 309.34 702.157 309.236C701.637 309.132 701.299 309.071 701.143 309.054C701.126 309.21 701.074 309.522 700.987 309.99C700.918 310.458 700.857 310.865 700.805 311.212C700.667 312.165 700.597 313.188 700.597 314.28C700.597 316.655 701.369 317.842 702.911 317.842C703.483 317.842 704.142 317.643 704.887 317.244C705.113 317.573 705.225 317.998 705.225 318.518C705.225 319.038 704.939 319.445 704.367 319.74C703.813 320.017 703.145 320.156 702.365 320.156C699.315 320.156 697.789 318.423 697.789 314.956C697.789 314.453 697.859 313.543 697.997 312.226C698.153 310.909 698.231 309.843 698.231 309.028C697.399 309.08 696.732 309.227 696.229 309.47C696.021 309.158 695.917 308.803 695.917 308.404C695.917 307.988 696.065 307.65 696.359 307.39C696.654 307.113 697.018 306.974 697.451 306.974C697.885 306.974 698.171 306.983 698.309 307C698.327 306.861 698.335 306.679 698.335 306.454C698.335 305.154 698.188 304.01 697.893 303.022ZM707.423 315.684L707.683 311.94C707.683 310.259 707.44 308.664 706.955 307.156C707.44 306.948 708.038 306.844 708.749 306.844C710.136 306.844 710.829 307.615 710.829 309.158C710.829 309.851 710.734 310.831 710.543 312.096C710.352 313.361 710.257 314.237 710.257 314.722C710.257 315.19 710.266 315.537 710.283 315.762C710.3 315.97 710.344 316.221 710.413 316.516C710.517 317.105 710.855 317.4 711.427 317.4C712.016 317.4 712.64 316.941 713.299 316.022C713.975 315.086 714.512 314.055 714.911 312.928C715.327 311.801 715.535 310.909 715.535 310.25C715.448 308.881 715.301 307.849 715.093 307.156C715.648 306.948 716.211 306.844 716.783 306.844C717.372 306.844 717.858 307.026 718.239 307.39C718.638 307.754 718.837 308.239 718.837 308.846C718.837 318.31 717.104 323.987 713.637 325.876C712.857 326.292 711.973 326.5 710.985 326.5C709.997 326.5 709.13 326.24 708.385 325.72C707.657 325.2 707.293 324.472 707.293 323.536C707.293 322.912 707.527 322.383 707.995 321.95C708.463 321.534 709.018 321.326 709.659 321.326C709.798 321.326 709.971 321.343 710.179 321.378C710.127 321.603 710.101 321.803 710.101 321.976C710.101 323.501 710.63 324.264 711.687 324.264C712.328 324.264 712.909 323.917 713.429 323.224C713.949 322.531 714.365 321.681 714.677 320.676C715.284 318.631 715.587 316.776 715.587 315.112C715.067 316.516 714.356 317.651 713.455 318.518C712.571 319.367 711.609 319.792 710.569 319.792C708.472 319.792 707.423 318.423 707.423 315.684Z" fill="#1D741B"/>
</g>
<defs>
<clipPath id="clip0_2_2">
<rect width="896" height="747.971" fill="white"/>
</clipPath>
</defs>
</svg>
