<svg width="687" height="508" viewBox="0 0 687 508" fill="none" xmlns="http://www.w3.org/2000/svg">
<g id="analytics-1 1" clip-path="url(#clip0)">
<path id="Vector" d="M582.707 507.375H553.687C553.256 506.595 552.856 505.795 552.486 504.985C549.146 497.835 547.736 489.855 546.386 482.035L544.196 469.335C551.196 474.425 558.193 479.512 565.187 484.595C567.466 486.255 569.796 487.985 571.986 489.855C576.597 493.765 580.577 498.285 582.136 504.025C582.216 504.345 582.296 504.665 582.357 504.985C582.523 505.774 582.639 506.572 582.707 507.375V507.375Z" fill="#F0F0F0"/>
<path id="Vector_2" d="M586.776 504.985C586.778 505.036 586.775 505.086 586.767 505.135C586.67 505.9 586.488 506.651 586.227 507.375H573.196C572.787 506.608 572.439 505.808 572.157 504.985C571.761 503.887 571.476 502.751 571.307 501.595C570.874 497.672 571.104 493.703 571.986 489.855C572.236 488.605 572.506 487.345 572.776 486.105L574.316 479.025L582.026 491.415C584.607 495.565 587.287 500.135 586.776 504.985Z" fill="#F0F0F0"/>
<path id="Vector_3" d="M685.316 36.5522H0.993073C0.727686 36.5463 0.475159 36.4367 0.289551 36.247C0.103942 36.0572 0 35.8023 0 35.5368C0 35.2714 0.103942 35.0165 0.289551 34.8267C0.475159 34.6369 0.727686 34.5274 0.993073 34.5215H685.316C685.582 34.5274 685.834 34.6369 686.02 34.8267C686.206 35.0165 686.309 35.2714 686.309 35.5368C686.309 35.8023 686.206 36.0572 686.02 36.247C685.834 36.4367 685.582 36.5463 685.316 36.5522V36.5522Z" fill="#CACACA"/>
<path id="Vector_4" d="M23.3482 22.3376C29.3821 22.3376 34.2735 17.3372 34.2735 11.1688C34.2735 5.00045 29.3821 0 23.3482 0C17.3143 0 12.4229 5.00045 12.4229 11.1688C12.4229 17.3372 17.3143 22.3376 23.3482 22.3376Z" fill="#3F3D56"/>
<path id="Vector_5" d="M61.0904 22.3376C67.1243 22.3376 72.0157 17.3372 72.0157 11.1688C72.0157 5.00045 67.1243 0 61.0904 0C55.0565 0 50.165 5.00045 50.165 11.1688C50.165 17.3372 55.0565 22.3376 61.0904 22.3376Z" fill="#3F3D56"/>
<path id="Vector_6" d="M98.8326 22.3376C104.866 22.3376 109.758 17.3372 109.758 11.1688C109.758 5.00045 104.866 0 98.8326 0C92.7987 0 87.9072 5.00045 87.9072 11.1688C87.9072 17.3372 92.7987 22.3376 98.8326 22.3376Z" fill="#3F3D56"/>
<path id="Vector_7" d="M662.703 6.83191H635.887C635.356 6.82019 634.851 6.60109 634.48 6.22154C634.108 5.84199 633.9 5.33215 633.9 4.80121C633.9 4.27027 634.108 3.76043 634.48 3.38087C634.851 3.00132 635.356 2.78223 635.887 2.77051H662.703C663.234 2.78223 663.739 3.00132 664.111 3.38087C664.482 3.76043 664.69 4.27027 664.69 4.80121C664.69 5.33215 664.482 5.84199 664.111 6.22154C663.739 6.60109 663.234 6.82019 662.703 6.83191V6.83191Z" fill="#3F3D56"/>
<path id="Vector_8" d="M662.703 14.4471H635.887C635.356 14.4354 634.851 14.2163 634.48 13.8368C634.108 13.4572 633.9 12.9474 633.9 12.4164C633.9 11.8855 634.108 11.3757 634.48 10.9961C634.851 10.6166 635.356 10.3975 635.887 10.3857H662.703C663.234 10.3975 663.739 10.6166 664.111 10.9961C664.482 11.3757 664.69 11.8855 664.69 12.4164C664.69 12.9474 664.482 13.4572 664.111 13.8368C663.739 14.2163 663.234 14.4354 662.703 14.4471V14.4471Z" fill="#3F3D56"/>
<path id="Vector_9" d="M662.703 22.0614H635.887C635.356 22.0497 634.851 21.8306 634.48 21.451C634.108 21.0715 633.9 20.5616 633.9 20.0307C633.9 19.4997 634.108 18.9899 634.48 18.6104C634.851 18.2308 635.356 18.0117 635.887 18H662.703C663.234 18.0117 663.739 18.2308 664.111 18.6104C664.482 18.9899 664.69 19.4997 664.69 20.0307C664.69 20.5616 664.482 21.0715 664.111 21.451C663.739 21.8306 663.234 22.0497 662.703 22.0614V22.0614Z" fill="#3F3D56"/>
<path id="Vector_10" d="M584.421 381.976H64.8323C59.3426 381.969 54.0796 379.786 50.1978 375.904C46.3161 372.022 44.1326 366.759 44.1265 361.27V102.681C44.1327 97.1916 46.3163 91.9286 50.198 88.0469C54.0797 84.1652 59.3427 81.9818 64.8323 81.9756H584.421C589.91 81.9818 595.173 84.1652 599.055 88.0469C602.937 91.9286 605.12 97.1916 605.126 102.681V361.27C605.12 366.759 602.937 372.022 599.055 375.904C595.173 379.786 589.91 381.969 584.421 381.976V381.976Z" fill="#F0F0F0"/>
<path id="Vector_11" d="M641.455 452.529H121.867C116.377 452.523 111.114 450.34 107.233 446.458C103.351 442.576 101.167 437.313 101.161 431.823V173.235C101.167 167.745 103.351 162.482 107.233 158.601C111.114 154.719 116.377 152.535 121.867 152.529H641.455C646.945 152.535 652.208 154.719 656.09 158.601C659.971 162.482 662.155 167.745 662.161 173.235V431.823C662.155 437.313 659.972 442.576 656.09 446.458C652.208 450.34 646.945 452.523 641.455 452.529Z" fill="white"/>
<path id="Vector_12" d="M641.455 452.529H121.867C116.377 452.523 111.114 450.34 107.233 446.458C103.351 442.576 101.167 437.313 101.161 431.823V173.235C101.167 167.745 103.351 162.482 107.233 158.601C111.114 154.719 116.377 152.535 121.867 152.529H641.455C646.945 152.535 652.208 154.719 656.09 158.601C659.971 162.482 662.155 167.745 662.161 173.235V431.823C662.155 437.313 659.972 442.576 656.09 446.458C652.208 450.34 646.945 452.523 641.455 452.529ZM121.867 155.529C117.173 155.535 112.672 157.402 109.353 160.721C106.034 164.04 104.166 168.541 104.161 173.235V431.823C104.166 436.517 106.034 441.018 109.353 444.337C112.672 447.657 117.173 449.524 121.867 449.529H641.455C646.15 449.524 650.65 447.657 653.969 444.337C657.289 441.018 659.156 436.517 659.161 431.823V173.235C659.156 168.541 657.289 164.04 653.969 160.721C650.65 157.402 646.15 155.535 641.455 155.529H121.867Z" fill="#E4E4E4"/>
<path id="Vector_13" d="M161.767 407.257H577.247V336.045C577.184 328.536 575.622 321.115 572.652 314.218C569.682 307.321 565.365 301.087 559.953 295.881L559.84 295.771C552.419 288.325 527.619 269.428 501.96 271.03C488.405 271.874 476.801 278.407 467.469 290.446C438.422 327.936 400.267 315.281 380.108 304.401C362.342 294.811 344.198 290.31 326.178 291.026C300.94 292.013 265.417 301.31 239.51 340.001C229.615 354.766 208.097 374.809 161.767 386.588L161.767 407.257Z" fill="#E10032"/>
<path id="Vector_14" d="M600.755 408.913H162.567C162.203 408.913 161.854 408.768 161.597 408.511C161.34 408.254 161.195 407.905 161.195 407.542V197.518C161.195 197.154 161.34 196.805 161.597 196.548C161.854 196.291 162.203 196.146 162.567 196.146C162.93 196.146 163.279 196.291 163.536 196.548C163.793 196.805 163.938 197.154 163.938 197.518V406.17H600.755C601.119 406.17 601.468 406.315 601.725 406.572C601.982 406.829 602.126 407.178 602.126 407.542C602.126 407.905 601.982 408.254 601.725 408.511C601.468 408.768 601.119 408.913 600.755 408.913V408.913Z" fill="#3F3D56"/>
<path id="Vector_15" d="M325.262 301.411C329.806 301.411 333.49 297.727 333.49 293.183C333.49 288.639 329.806 284.955 325.262 284.955C320.718 284.955 317.034 288.639 317.034 293.183C317.034 297.727 320.718 301.411 325.262 301.411Z" fill="#3F3D56"/>
<path id="Vector_16" d="M486.639 279.893C491.183 279.893 494.867 276.21 494.867 271.665C494.867 267.121 491.183 263.438 486.639 263.438C482.094 263.438 478.411 267.121 478.411 271.665C478.411 276.21 482.094 279.893 486.639 279.893Z" fill="#3F3D56"/>
<path id="Vector_17" d="M405.95 324.272C410.494 324.272 414.178 320.589 414.178 316.044C414.178 311.5 410.494 307.816 405.95 307.816C401.406 307.816 397.722 311.5 397.722 316.044C397.722 320.589 401.406 324.272 405.95 324.272Z" fill="#3F3D56"/>
<path id="Vector_18" d="M244.573 336.376C249.117 336.376 252.801 332.692 252.801 328.148C252.801 323.604 249.117 319.92 244.573 319.92C240.029 319.92 236.345 323.604 236.345 328.148C236.345 332.692 240.029 336.376 244.573 336.376Z" fill="#3F3D56"/>
<path id="Vector_19" d="M567.327 309.479C571.871 309.479 575.555 305.796 575.555 301.251C575.555 296.707 571.871 293.023 567.327 293.023C562.783 293.023 559.099 296.707 559.099 301.251C559.099 305.796 562.783 309.479 567.327 309.479Z" fill="#3F3D56"/>
<path id="Vector_20" d="M662.647 327.133C661.739 326.258 661.033 325.194 660.58 324.017C660.127 322.839 659.938 321.577 660.026 320.319C660.114 319.06 660.476 317.836 661.088 316.733C661.7 315.63 662.547 314.675 663.568 313.934L654.697 284.582L669.968 289.131L676.051 316.307C677.181 318.105 677.613 320.255 677.264 322.35C676.915 324.445 675.81 326.339 674.158 327.673C672.505 329.008 670.421 329.69 668.3 329.59C666.178 329.491 664.167 328.617 662.647 327.133V327.133Z" fill="#9E616A"/>
<path id="Vector_21" d="M518.653 152.588C518.491 153.839 518.605 155.111 518.988 156.313C519.371 157.515 520.012 158.618 520.867 159.546C521.722 160.473 522.77 161.201 523.938 161.68C525.105 162.158 526.363 162.375 527.623 162.315L539.049 190.77L548.124 177.673L535.883 152.659C535.641 150.549 534.634 148.601 533.052 147.184C531.47 145.767 529.423 144.979 527.299 144.971C525.175 144.962 523.122 145.733 521.529 147.137C519.935 148.541 518.912 150.48 518.653 152.588V152.588Z" fill="#9E616A"/>
<path id="Vector_22" d="M647.472 494.812H636.952L631.948 454.235L647.474 454.236L647.472 494.812Z" fill="#9E616A"/>
<path id="Vector_23" d="M650.155 505.01L616.234 505.009V504.58C616.235 501.078 617.626 497.72 620.102 495.244C622.578 492.768 625.936 491.377 629.437 491.377H629.438L650.156 491.378L650.155 505.01Z" fill="#2F2E41"/>
<path id="Vector_24" d="M613.047 494.478L603.018 491.303L610.493 451.107L625.295 455.794L613.047 494.478Z" fill="#9E616A"/>
<path id="Vector_25" d="M612.528 505.01L580.189 494.771L580.318 494.362C581.375 491.024 583.715 488.243 586.823 486.629C589.931 485.016 593.552 484.703 596.89 485.76L596.891 485.76L616.642 492.013L612.528 505.01Z" fill="#2F2E41"/>
<path id="Vector_26" d="M600.588 296.496C600.588 296.496 584.979 321.005 590.495 342.879C596.01 364.754 602.017 406.799 602.017 406.799L631.923 477.972L654.216 477.062L632.077 393.148L632.952 337.042C632.952 337.042 648.34 310.227 645.343 301.88C642.346 293.533 600.588 296.496 600.588 296.496Z" fill="#2F2E41"/>
<path id="Vector_27" d="M651.581 305.259C651.581 305.259 653.502 329.573 647.495 339.87C641.488 350.166 635.089 389.358 635.089 389.358L624.88 467.74L603.733 460.859L621.765 373.041L635.938 303.962L651.581 305.259Z" fill="#2F2E41"/>
<path id="Vector_28" d="M659.079 187.56L642.58 176.22L617.473 175.49L608.729 184.062L595.386 190.876L594.15 301.88C594.15 301.88 634.107 321.032 655.603 311.788L665.944 225.316C670.234 208.154 659.079 187.56 659.079 187.56Z" fill="#3F3D56"/>
<path id="Vector_29" d="M598.737 220.54H554.728L525.813 170.769L544.615 163.322L560.537 191.646L583.582 189.56L597.972 188.864C600.278 188.752 602.58 189.146 604.718 190.017C606.856 190.889 608.778 192.217 610.349 193.908C611.92 195.6 613.102 197.614 613.813 199.811C614.525 202.007 614.747 204.332 614.466 206.623V206.623C613.991 210.462 612.13 213.994 609.234 216.557C606.337 219.119 602.604 220.536 598.737 220.54V220.54Z" fill="#3F3D56"/>
<path id="Vector_30" d="M632.073 166.349C644.096 166.349 653.843 156.602 653.843 144.579C653.843 132.556 644.096 122.81 632.073 122.81C620.05 122.81 610.304 132.556 610.304 144.579C610.304 156.602 620.05 166.349 632.073 166.349Z" fill="#9E616A"/>
<path id="Vector_31" d="M658.304 139.626C657.635 134.847 654.399 130.309 649.795 128.861C647.966 123.551 643.123 119.641 637.771 117.937C632.816 116.357 627.475 116.467 622.589 118.249C617.702 120.031 613.545 123.385 610.77 127.785C610.361 128.429 609.101 130.011 609.136 130.779C609.181 131.755 610.674 132.763 611.424 133.378C613.283 134.815 615.288 136.052 617.405 137.07C625.233 141.128 622.628 147.506 622.521 154.734C622.47 158.246 623.642 161.245 626.637 163.251C630.959 166.146 637.145 164.994 641.848 163.832C647.184 162.514 651.621 157.826 654.664 153.306C657.36 149.303 658.973 144.406 658.304 139.626Z" fill="#2F2E41"/>
<path id="Vector_32" d="M658.087 215.476L676.547 306.933L649.333 308.422L658.087 215.476Z" fill="#3F3D56"/>
<path id="Vector_33" d="M677.147 506.175C677.147 506.332 677.117 506.488 677.058 506.633C676.998 506.778 676.911 506.91 676.8 507.022C676.69 507.133 676.558 507.222 676.414 507.282C676.269 507.343 676.114 507.375 675.957 507.375H534.657C534.34 507.375 534.036 507.249 533.812 507.025C533.588 506.801 533.462 506.497 533.462 506.18C533.462 505.863 533.588 505.559 533.812 505.335C534.036 505.111 534.34 504.985 534.657 504.985H675.957C676.272 504.986 676.574 505.112 676.797 505.335C677.02 505.558 677.146 505.86 677.147 506.175V506.175Z" fill="#CACACA"/>
</g>
<defs>
<clipPath id="clip0">
<rect width="686.31" height="507.375" fill="white"/>
</clipPath>
</defs>
</svg>
