<svg width="950" height="768" viewBox="0 0 950 768" fill="none" xmlns="http://www.w3.org/2000/svg">
<g id="undraw_Golden_gate_bridge_re_e8tc 1" clip-path="url(#clip0)">
<path id="Vector" d="M602.716 148.311C602.387 146.584 602.04 144.864 601.675 143.15C600.857 139.305 599.958 135.47 598.988 131.671C598.508 129.749 597.991 127.826 597.467 125.913V125.904C580.503 65.1452 544.7 11.3347 495.21 -27.7826C445.72 -66.8998 385.095 -89.3064 322.061 -91.7776H322.034C318.216 -91.9288 314.39 -92.003 310.555 -92C309.505 -92 308.455 -91.9911 307.414 -91.9733C243.105 -91.266 180.75 -69.7738 129.662 -30.7067C78.5745 8.36035 41.4957 62.9059 23.9636 124.783C23.4118 126.723 22.8868 128.669 22.3886 130.621C21.3919 134.456 20.4843 138.309 19.6387 142.188V142.197C19.2651 143.933 18.9092 145.659 18.5621 147.394C14.7859 166.583 12.8905 186.095 12.9028 205.652C12.9028 213.118 13.1787 220.592 13.7305 227.925C13.8104 228.975 13.8904 230.025 13.9795 231.066C14.1933 233.691 14.46 236.423 14.7716 239.199C22.3409 305.777 52.1485 367.856 99.373 415.393C146.598 462.931 208.477 493.148 275.004 501.157C341.531 509.166 408.815 494.499 465.972 459.527C523.13 424.556 566.819 371.326 589.974 308.447C592.029 302.867 593.91 297.232 595.616 291.54C599.804 277.662 602.957 263.492 605.048 249.148C605.537 245.837 605.967 242.521 606.338 239.199C606.65 236.423 606.916 233.691 607.13 231.075C607.842 222.737 608.207 214.186 608.207 205.652C608.216 186.407 606.378 167.205 602.716 148.311V148.311Z" fill="white"/>
<path id="Vector_2" d="M102.672 230.15H67.0809V312.656H102.672V230.15Z" fill="#3F3D56"/>
<path id="Vector_3" d="M554.029 230.15H518.438V312.656H554.029V230.15Z" fill="#3F3D56"/>
<path id="Vector_4" d="M588.719 307.984C547.066 421.207 438.238 501.969 310.555 501.969C182.871 501.969 74.0437 421.207 32.3901 307.984H588.719Z" fill="#61573F"/>
<path id="Vector_5" d="M102.332 160.27C158.848 160.27 204.664 114.455 204.664 57.9383C204.664 1.42204 158.848 -44.3935 102.332 -44.3935C45.8155 -44.3935 0 1.42204 0 57.9383C0 114.455 45.8155 160.27 102.332 160.27Z" fill="#E4E4E4"/>
<path id="Vector_6" d="M602.716 148.311C602.387 146.584 602.04 144.864 601.675 143.15C600.857 139.305 599.958 135.47 598.988 131.671C598.508 129.749 597.991 127.826 597.467 125.913V125.904C580.503 65.1452 544.7 11.3347 495.21 -27.7826C445.72 -66.8998 385.095 -89.3064 322.061 -91.7776H322.034C318.216 -91.9288 314.39 -92.003 310.555 -92C309.505 -92 308.455 -91.9911 307.414 -91.9733C243.105 -91.266 180.75 -69.7738 129.662 -30.7067C78.5745 8.36035 41.4957 62.9059 23.9636 124.783C23.4118 126.723 22.8868 128.669 22.3886 130.621C21.3919 134.456 20.4843 138.309 19.6387 142.188V142.197C19.2651 143.933 18.9092 145.659 18.5621 147.394C14.7859 166.583 12.8905 186.095 12.9028 205.652C12.9028 213.118 13.1787 220.592 13.7305 227.925C13.8104 228.975 13.8904 230.025 13.9795 231.066C14.1933 233.691 14.46 236.423 14.7716 239.199C22.3409 305.777 52.1485 367.856 99.373 415.393C146.598 462.931 208.477 493.148 275.004 501.157C341.531 509.166 408.815 494.499 465.972 459.527C523.13 424.556 566.819 371.326 589.974 308.447C592.029 302.867 593.91 297.232 595.616 291.54C599.804 277.662 602.957 263.492 605.048 249.148C605.537 245.837 605.967 242.521 606.338 239.199C606.65 236.423 606.916 233.691 607.13 231.075C607.842 222.737 608.207 214.186 608.207 205.652C608.216 186.407 606.378 167.205 602.716 148.311V148.311ZM604.469 230.852C604.265 233.442 603.998 236.156 603.686 238.897C603.313 242.198 602.889 245.49 602.414 248.774C600.328 262.99 597.202 277.033 593.062 290.792C591.362 296.425 589.496 302.001 587.464 307.521C544.975 423.031 433.691 500.635 310.555 500.635C187.419 500.635 76.1349 423.031 33.645 307.521C25.4959 285.382 20.0492 262.341 17.4232 238.897C17.1117 236.156 16.8449 233.442 16.6311 230.844C16.5421 229.811 16.4621 228.779 16.3821 227.738C15.8481 220.468 15.5722 213.047 15.5722 205.652C15.5596 185.084 17.701 164.571 21.9615 144.449C22.3351 142.66 22.7353 140.881 23.1359 139.101V139.092C24.0792 135.07 25.0966 131.077 26.1882 127.115C26.3394 126.563 26.4906 126.011 26.651 125.468C26.793 124.943 26.9442 124.418 27.1046 123.893C27.3713 122.932 27.6564 121.98 27.941 121.037C64.113 0.436844 175.539 -87.9422 307.432 -89.3126C308.473 -89.3215 309.514 -89.3304 310.555 -89.3304C314.364 -89.3304 318.16 -89.2592 321.945 -89.1168C450.634 -84.2049 558.473 3.55129 593.524 122.221C594.112 124.214 594.681 126.219 595.233 128.236C596.301 132.151 597.288 136.111 598.196 140.089C598.597 141.85 598.979 143.621 599.344 145.401C603.475 165.218 605.551 185.409 605.537 205.652C605.537 214.106 605.181 222.586 604.469 230.852Z" fill="#3F3D56"/>
<path id="Vector_7" d="M98.6274 182.426H71.1254V234.195H98.6274V182.426Z" fill="#3F3D56"/>
<path id="Vector_8" d="M81.6408 70.8002H75.1698V187.279H81.6408V70.8002Z" fill="#3F3D56"/>
<path id="Vector_9" d="M94.5829 70.8002H88.1119V187.279H94.5829V70.8002Z" fill="#3F3D56"/>
<path id="Vector_10" d="M92.9652 75.6535H78.4053V83.7423H92.9652V75.6535Z" fill="#3F3D56"/>
<path id="Vector_11" d="M92.9652 108.009H78.4053V116.098H92.9652V108.009Z" fill="#3F3D56"/>
<path id="Vector_12" d="M92.9652 143.6H78.4053V151.689H92.9652V143.6Z" fill="#3F3D56"/>
<path id="Vector_13" d="M80.0231 65.9469H76.7875V74.0357H80.0231V65.9469Z" fill="#3F3D56"/>
<path id="Vector_14" d="M92.9652 65.9469H89.7297V74.0357H92.9652V65.9469Z" fill="#3F3D56"/>
<path id="Vector_15" d="M549.984 182.426H522.482V234.195H549.984V182.426Z" fill="#3F3D56"/>
<path id="Vector_16" d="M532.998 70.8002H526.527V187.279H532.998V70.8002Z" fill="#3F3D56"/>
<path id="Vector_17" d="M545.94 70.8002H539.469V187.279H545.94V70.8002Z" fill="#3F3D56"/>
<path id="Vector_18" d="M544.322 75.6535H529.762V83.7423H544.322V75.6535Z" fill="#3F3D56"/>
<path id="Vector_19" d="M544.322 108.009H529.762V116.098H544.322V108.009Z" fill="#3F3D56"/>
<path id="Vector_20" d="M544.322 143.6H529.762V151.689H544.322V143.6Z" fill="#3F3D56"/>
<path id="Vector_21" d="M531.38 65.9469H528.144V74.0357H531.38V65.9469Z" fill="#3F3D56"/>
<path id="Vector_22" d="M544.322 65.9469H541.086V74.0357H544.322V65.9469Z" fill="#3F3D56"/>
<path id="Vector_23" d="M605.804 230.959C605.582 233.673 605.318 236.369 605.012 239.048H16.0971C15.7947 236.369 15.5308 233.673 15.3055 230.959H605.804Z" fill="#3F3D56"/>
<path id="Vector_24" d="M314.989 218.374C237.422 218.374 157.421 167.996 77.1466 68.5813L79.664 66.548C160.407 166.544 240.676 216.566 318.198 215.109C393.548 213.732 468.647 163.765 541.409 66.5946L543.999 68.5346C470.608 166.545 394.657 216.948 318.257 218.345C317.168 218.364 316.079 218.374 314.989 218.374Z" fill="#3F3D56"/>
<path id="Vector_25" d="M314.743 207.501C241.476 207.501 165.916 160.785 90.0977 68.5924L92.5971 66.537C168.845 159.251 244.602 205.554 317.842 204.237C388.943 202.932 459.811 156.618 528.476 66.5836L531.048 68.5458C461.754 159.406 390.041 206.148 317.901 207.472C316.85 207.491 315.795 207.501 314.743 207.501Z" fill="#3F3D56"/>
<path id="Vector_26" d="M602.716 148.311C601.595 147.35 600.465 146.38 599.344 145.401C575.131 124.32 550.857 98.7138 526.519 68.5808L529.038 66.5519C552.147 95.1781 575.199 119.69 598.196 140.088C599.353 141.121 600.512 142.141 601.675 143.149C602.04 144.867 602.387 146.587 602.716 148.311Z" fill="#3F3D56"/>
<path id="Vector_27" d="M598.988 131.671C597.733 130.549 596.482 129.404 595.233 128.236C575.304 109.65 556.672 89.7214 539.466 68.5897L541.967 66.5342C557.967 86.1601 575.187 104.759 593.524 122.22C594.841 123.475 596.15 124.703 597.466 125.904V125.913C597.991 127.826 598.508 129.749 598.988 131.671Z" fill="#3F3D56"/>
<path id="Vector_28" d="M114.987 93.0895H111.752V233.386H114.987V93.0895Z" fill="#3F3D56"/>
<path id="Vector_29" d="M145.088 123.889H141.852V233.386H145.088V123.889Z" fill="#3F3D56"/>
<path id="Vector_30" d="M186.088 158.131H182.853V234.195H186.088V158.131Z" fill="#3F3D56"/>
<path id="Vector_31" d="M225.338 182.426H222.103V233.386H225.338V182.426Z" fill="#3F3D56"/>
<path id="Vector_32" d="M257.907 196.163H254.672V235.003H257.907V196.163Z" fill="#3F3D56"/>
<path id="Vector_33" d="M563.467 93.0895H560.232V233.386H563.467V93.0895Z" fill="#3F3D56"/>
<path id="Vector_34" d="M593.568 123.889H590.333V233.386H593.568V123.889Z" fill="#3F3D56"/>
<path id="Vector_35" d="M93.7001 68.5808C82.4529 82.5068 71.2143 95.4748 59.9844 107.485C58.8986 108.633 57.8219 109.775 56.7544 110.911C47.7847 120.334 38.8298 129.143 29.8897 137.339C28.8043 138.336 27.7248 139.317 26.651 140.284C25.0846 141.69 23.5274 143.078 21.9615 144.449C21.5965 144.769 21.2407 145.089 20.8757 145.401C20.1105 146.068 19.3363 146.736 18.562 147.394C18.9092 145.659 19.265 143.933 19.6387 142.197V142.189C20.4399 141.503 21.2315 140.8 22.0236 140.089C22.3973 139.759 22.7623 139.43 23.1359 139.101V139.092C24.3104 138.051 25.482 136.995 26.651 135.924C27.7363 134.945 28.8159 133.952 29.8897 132.943C38.8329 124.659 47.7878 115.739 56.7544 106.186C57.8311 105.038 58.9077 103.89 59.9844 102.724C70.3774 91.5031 80.7767 79.4458 91.1823 66.552L93.7001 68.5808Z" fill="#3F3D56"/>
<path id="Vector_36" d="M80.7531 68.5897C73.7143 77.15 66.6816 85.3158 59.655 93.0871C58.6852 94.1549 57.7241 95.2138 56.7543 96.2638C47.7043 106.132 38.6605 115.342 29.6228 123.893C28.6261 124.837 27.6355 125.768 26.6509 126.688C26.4997 126.839 26.3394 126.981 26.1882 127.115C25.7876 127.497 25.3874 127.862 24.9868 128.236C24.1235 129.046 23.2606 129.838 22.3885 130.621C22.8869 128.672 23.4119 126.726 23.9635 124.783C24.8799 123.947 25.7904 123.093 26.6952 122.22C27.1136 121.829 27.5229 121.437 27.9409 121.037C37.2664 112.183 46.6009 102.62 55.9444 92.3485C63.3747 84.1798 70.8107 75.575 78.2526 66.5342L80.7531 68.5897Z" fill="#3F3D56"/>
<path id="Vector_37" d="M59.9879 93.0895H56.7523V233.386H59.9879V93.0895Z" fill="#3F3D56"/>
<path id="Vector_38" d="M29.887 123.889H26.6515V233.386H29.887V123.889Z" fill="#3F3D56"/>
<path id="Vector_39" d="M514.211 89.854H510.976V233.386H514.211V89.854Z" fill="#3F3D56"/>
<path id="Vector_40" d="M484.11 123.889H480.875V233.386H484.11V123.889Z" fill="#3F3D56"/>
<path id="Vector_41" d="M443.11 158.131H439.875V234.195H443.11V158.131Z" fill="#3F3D56"/>
<path id="Vector_42" d="M403.86 182.426H400.624V233.386H403.86V182.426Z" fill="#3F3D56"/>
<path id="Vector_43" d="M371.291 196.163H368.055V235.003H371.291V196.163Z" fill="#3F3D56"/>
<path id="Vector_44" d="M308.567 205.711H305.331V235.003H308.567V205.711Z" fill="#3F3D56"/>
<path id="Vector_45" d="M287.949 386.638H213.153C211.999 386.638 210.892 386.179 210.076 385.363C209.26 384.547 208.801 383.44 208.801 382.286C208.801 381.131 209.26 380.024 210.076 379.208C210.892 378.392 211.999 377.933 213.153 377.933H287.949C289.103 377.933 290.21 378.392 291.026 379.208C291.842 380.024 292.301 381.131 292.301 382.286C292.301 383.44 291.842 384.547 291.026 385.363C290.21 386.179 289.103 386.638 287.949 386.638Z" fill="white"/>
<path id="Vector_46" d="M407.956 359.845H333.161C332.007 359.845 330.9 359.387 330.083 358.571C329.267 357.754 328.809 356.647 328.809 355.493C328.809 354.339 329.267 353.232 330.083 352.416C330.9 351.6 332.007 351.141 333.161 351.141H407.956C409.11 351.141 410.217 351.6 411.033 352.416C411.85 353.232 412.308 354.339 412.308 355.493C412.308 356.647 411.85 357.754 411.033 358.571C410.217 359.387 409.11 359.845 407.956 359.845Z" fill="white"/>
<path id="Vector_47" d="M359.346 424.108H284.551C283.397 424.108 282.29 423.65 281.474 422.833C280.658 422.017 280.199 420.91 280.199 419.756C280.199 418.602 280.658 417.495 281.474 416.679C282.29 415.862 283.397 415.404 284.551 415.404H359.346C360.501 415.404 361.608 415.862 362.424 416.679C363.24 417.495 363.699 418.602 363.699 419.756C363.699 420.91 363.24 422.017 362.424 422.833C361.608 423.65 360.501 424.108 359.346 424.108Z" fill="white"/>
<path id="Vector_48" d="M236.309 39.5098C236.206 39.5102 236.104 39.4903 236.009 39.4511C235.914 39.412 235.827 39.3545 235.754 39.2818C235.682 39.2092 235.624 39.1229 235.584 39.0278C235.545 38.9328 235.524 38.8309 235.524 38.728C235.524 38.625 235.545 38.5232 235.584 38.4281C235.624 38.3331 235.682 38.2468 235.754 38.1741C235.827 38.1015 235.914 38.0439 236.009 38.0048C236.104 37.9657 236.206 37.9457 236.309 37.9461H288.065C289.368 32.5743 292.432 27.7937 296.77 24.3673C301.107 20.9408 306.467 19.0659 311.995 19.0418C313.962 12.6765 317.736 7.01978 322.858 2.75869C327.98 -1.50241 334.229 -4.18443 340.846 -4.96156C347.462 -5.73868 354.163 -4.57746 360.132 -1.61897C366.102 1.33953 371.084 5.96797 374.473 11.704C375.242 11.6441 375.996 11.6139 376.722 11.6139C384.082 11.6339 391.163 14.4325 396.548 19.4497C401.934 24.467 405.226 31.3327 405.766 38.6732C405.773 38.7756 405.76 38.8785 405.727 38.9759C405.695 39.0733 405.643 39.1633 405.576 39.2408C405.509 39.3183 405.427 39.3818 405.335 39.4276C405.243 39.4735 405.143 39.5008 405.041 39.5079C405.022 39.5093 405.003 39.5098 404.985 39.5098C404.787 39.5096 404.597 39.4345 404.452 39.2996C404.308 39.1647 404.22 38.98 404.206 38.7828L236.309 39.5098Z" fill="#E6E6E6"/>
<path id="Vector_49" d="M298.73 60.872H255.727C255.52 60.8713 255.322 60.7886 255.176 60.642C255.03 60.4955 254.948 60.2971 254.948 60.0902C254.948 59.8833 255.03 59.6848 255.176 59.5383C255.322 59.3917 255.52 59.309 255.727 59.3083H298.73C298.833 59.3079 298.935 59.3279 299.03 59.367C299.125 59.4061 299.212 59.4637 299.284 59.5363C299.357 59.6089 299.415 59.6953 299.455 59.7903C299.494 59.8854 299.514 59.9873 299.514 60.0902C299.514 60.1931 299.494 60.295 299.455 60.39C299.415 60.4851 299.357 60.5714 299.284 60.644C299.212 60.7167 299.125 60.7742 299.03 60.8133C298.935 60.8525 298.833 60.8724 298.73 60.872Z" fill="#E6E6E6"/>
<path id="Vector_50" d="M346.245 88.8508L352.747 83.6501C347.695 83.0928 345.62 85.8477 344.771 88.0283C340.824 86.3896 336.528 88.5372 336.528 88.5372L349.538 93.2603C348.882 91.5072 347.739 89.9776 346.245 88.8508V88.8508Z" fill="#3F3D56"/>
<path id="Vector_51" d="M498.407 38.1298L504.91 32.9291C499.858 32.3718 497.783 35.1267 496.933 37.3073C492.987 35.6686 488.691 37.8161 488.691 37.8161L501.701 42.5393C501.045 40.7862 499.902 39.2566 498.407 38.1298V38.1298Z" fill="#3F3D56"/>
<path id="Vector_52" d="M114.79 297.306H51.6108V307.984H114.79V297.306Z" fill="#3F3D56"/>
<path id="Vector_53" d="M567.719 297.306H504.54V307.984H567.719V297.306Z" fill="#3F3D56"/>
<path id="Vector_54" d="M606.276 223.146H14.7302V225.815H606.276V223.146Z" fill="#3F3D56"/>
<path id="Vector_55" d="M961.544 728H-66.5438C-66.93 728 -67.3004 727.842 -67.5735 727.561C-67.8466 727.279 -68 726.898 -68 726.5C-68 726.102 -67.8466 725.721 -67.5735 725.439C-67.3004 725.158 -66.93 725 -66.5438 725H961.544C961.93 725 962.3 725.158 962.573 725.439C962.847 725.721 963 726.102 963 726.5C963 726.898 962.847 727.279 962.573 727.561C962.3 727.842 961.93 728 961.544 728Z" fill="#3F3D56"/>
<g id="undraw_Mobile_login_re_9ntv 1" clip-path="url(#clip1)">
<path id="Path 133" d="M899.465 678.448C885.893 692.98 870.341 705.526 853.269 715.719C852.877 715.96 852.479 716.186 852.079 716.419L824.44 691.957C824.731 691.687 825.052 691.384 825.399 691.052C845.992 671.497 948.229 534.772 955.042 501.477C954.572 504.251 961.189 613.028 899.465 678.448Z" fill="#F0F0F0"/>
<path id="Path 134" d="M858.602 720.439C858.079 720.564 857.547 720.68 857.014 720.787L836.279 702.434C836.684 702.293 837.157 702.125 837.699 701.939C846.596 698.788 873.093 689.278 899.463 678.447C927.798 666.803 955.996 653.647 962.061 645.22C960.76 647.178 920.686 706.556 858.602 720.439Z" fill="#F0F0F0"/>
<path id="Vector_56" d="M899.082 316.58H896.129V235.686C896.129 229.538 894.918 223.45 892.565 217.77C890.212 212.089 886.764 206.928 882.416 202.58C878.068 198.233 872.907 194.784 867.227 192.431C861.546 190.078 855.458 188.867 849.31 188.867H677.926C671.777 188.867 665.689 190.078 660.009 192.431C654.329 194.784 649.167 198.233 644.82 202.58C640.472 206.928 637.023 212.089 634.671 217.769C632.318 223.45 631.107 229.538 631.107 235.686V679.475C631.107 685.624 632.318 691.712 634.671 697.392C637.023 703.072 640.472 708.234 644.82 712.581C649.167 716.929 654.328 720.377 660.009 722.73C665.689 725.083 671.777 726.294 677.926 726.294H849.31C855.458 726.294 861.546 725.083 867.227 722.73C872.907 720.377 878.068 716.929 882.416 712.581C886.763 708.234 890.212 703.072 892.565 697.392C894.918 691.712 896.129 685.624 896.129 679.475V374.162H899.082V316.58Z" fill="#3F3D56"/>
<path id="Vector_57" d="M886.163 236.008V679.151C886.163 683.743 885.258 688.289 883.501 692.531C881.743 696.773 879.167 700.627 875.92 703.874C872.672 707.12 868.817 709.694 864.575 711.45C860.332 713.206 855.785 714.109 851.193 714.108H678.984C674.394 714.108 669.848 713.204 665.606 711.447C661.365 709.691 657.511 707.116 654.265 703.87C651.019 700.624 648.444 696.77 646.688 692.529C644.931 688.287 644.027 683.742 644.027 679.151V236.008C644.027 231.417 644.931 226.872 646.688 222.63C648.444 218.389 651.019 214.535 654.265 211.289C657.511 208.043 661.365 205.468 665.606 203.712C669.848 201.955 674.394 201.051 678.984 201.051H699.883C698.857 203.574 698.466 206.31 698.746 209.018C699.026 211.727 699.966 214.325 701.486 216.585C703.005 218.845 705.056 220.696 707.459 221.977C709.862 223.258 712.543 223.929 715.266 223.931H813.448C816.172 223.934 818.855 223.266 821.261 221.986C823.666 220.706 825.72 218.854 827.24 216.593C828.76 214.332 829.701 211.732 829.978 209.021C830.256 206.311 829.862 203.574 828.832 201.051H851.193C855.785 201.05 860.332 201.953 864.575 203.709C868.817 205.465 872.672 208.039 875.92 211.285C879.167 214.532 881.743 218.386 883.501 222.628C885.258 226.87 886.163 231.416 886.163 236.008V236.008Z" fill="white"/>
<path id="Vector_58" d="M832.595 466.289H681.228C678.577 466.286 676.035 465.231 674.16 463.357C672.285 461.482 671.231 458.94 671.228 456.289V451.311C671.231 448.66 672.285 446.118 674.16 444.243C676.035 442.369 678.577 441.314 681.228 441.311H832.595C835.246 441.314 837.788 442.369 839.662 444.243C841.537 446.118 842.592 448.66 842.595 451.311V456.289C842.592 458.94 841.537 461.482 839.662 463.357C837.788 465.231 835.246 466.286 832.595 466.289Z" fill="#F0F0F0"/>
<path id="Vector_59" d="M832.595 509.196H681.228C678.577 509.193 676.035 508.139 674.16 506.264C672.285 504.389 671.231 501.847 671.228 499.196V494.219C671.231 491.567 672.285 489.025 674.16 487.151C676.035 485.276 678.577 484.221 681.228 484.219H832.595C835.246 484.221 837.788 485.276 839.662 487.151C841.537 489.025 842.592 491.567 842.595 494.219V499.196C842.592 501.847 841.537 504.389 839.662 506.264C837.788 508.139 835.246 509.193 832.595 509.196V509.196Z" fill="#F0F0F0"/>
<path id="Vector_60" d="M840.166 456.693H688.8C686.016 456.689 683.347 455.582 681.379 453.614C679.41 451.645 678.303 448.976 678.3 446.193V441.215C678.303 438.431 679.41 435.762 681.379 433.794C683.347 431.826 686.016 430.718 688.8 430.715H840.166C842.95 430.718 845.619 431.826 847.587 433.794C849.556 435.762 850.663 438.431 850.666 441.215V446.193C850.663 448.976 849.556 451.645 847.587 453.614C845.619 455.582 842.95 456.689 840.166 456.693V456.693ZM688.8 432.715C686.546 432.718 684.386 433.614 682.792 435.207C681.199 436.801 680.302 438.962 680.3 441.215V446.193C680.302 448.446 681.199 450.607 682.792 452.2C684.386 453.794 686.546 454.69 688.8 454.693H840.166C842.42 454.69 844.58 453.794 846.174 452.2C847.768 450.607 848.664 448.446 848.666 446.193V441.215C848.664 438.962 847.768 436.801 846.174 435.207C844.58 433.614 842.42 432.718 840.166 432.715H688.8Z" fill="#3F3D56"/>
<path id="Vector_61" d="M840.166 499.6H688.8C686.016 499.597 683.347 498.489 681.379 496.521C679.41 494.553 678.303 491.884 678.3 489.1V484.122C678.303 481.339 679.41 478.67 681.379 476.701C683.347 474.733 686.016 473.625 688.8 473.622H840.166C842.95 473.625 845.619 474.733 847.587 476.701C849.556 478.67 850.663 481.339 850.666 484.122V489.1C850.663 491.884 849.556 494.553 847.587 496.521C845.619 498.489 842.95 499.597 840.166 499.6V499.6ZM688.8 475.622C686.546 475.625 684.386 476.521 682.792 478.115C681.199 479.708 680.302 481.869 680.3 484.122V489.1C680.302 491.353 681.199 493.514 682.792 495.107C684.386 496.701 686.546 497.597 688.8 497.6H840.166C842.42 497.597 844.58 496.701 846.174 495.107C847.768 493.514 848.664 491.353 848.666 489.1V484.122C848.664 481.869 847.768 479.708 846.174 478.115C844.58 476.521 842.42 475.625 840.166 475.622H688.8Z" fill="#3F3D56"/>
<path id="Vector_62" d="M886.163 236.008V332.398C870.847 336.427 854.811 336.89 839.288 333.749C823.765 330.609 809.17 323.949 796.625 314.283C784.08 304.617 773.919 292.202 766.925 277.993C759.931 263.784 756.289 248.16 756.28 232.323C756.28 229.496 756.394 226.699 756.621 223.931H813.448C816.172 223.934 818.855 223.266 821.261 221.986C823.666 220.706 825.72 218.854 827.24 216.593C828.76 214.332 829.701 211.732 829.978 209.021C830.256 206.311 829.862 203.574 828.832 201.051H851.193C855.785 201.05 860.332 201.953 864.575 203.709C868.817 205.465 872.672 208.039 875.92 211.285C879.167 214.532 881.743 218.386 883.501 222.628C885.258 226.87 886.163 231.416 886.163 236.008V236.008Z" fill="#6C63FF"/>
<path id="Vector_63" d="M731.041 708.088C731.041 710.12 730.965 712.126 730.801 714.108H678.984C674.394 714.108 669.848 713.204 665.606 711.447C661.365 709.691 657.511 707.116 654.265 703.87C651.019 700.624 648.444 696.77 646.688 692.529C644.931 688.287 644.027 683.742 644.027 679.151V631.751C654.889 630.338 665.927 631.257 676.405 634.446C686.884 637.634 696.562 643.02 704.796 650.243C713.03 657.467 719.629 666.362 724.154 676.336C728.68 686.311 731.028 697.135 731.041 708.088H731.041Z" fill="#6C63FF"/>
<path id="Vector_64" d="M313.121 624.919C314.577 625.559 316.228 625.596 317.711 625.021C319.194 624.446 320.388 623.306 321.032 621.852L367.712 516.058C368.78 513.637 369.107 510.953 368.65 508.347C368.193 505.74 366.973 503.328 365.145 501.414C363.317 499.501 360.963 498.172 358.38 497.597C355.797 497.022 353.102 497.225 350.634 498.182H350.634C347.784 499.27 345.398 501.313 343.884 503.962C343.643 504.381 343.425 504.813 343.23 505.255L296.55 611.049C296.232 611.77 296.059 612.547 296.041 613.334C296.023 614.122 296.16 614.906 296.445 615.64C296.73 616.375 297.157 617.046 297.701 617.616C298.246 618.186 298.897 618.643 299.618 618.961L313.121 624.919Z" fill="#F1B529"/>
<path id="Vector_65" d="M365.795 559.491L319.624 549.23L331.052 518.998C332.998 511.609 337.529 505.162 343.822 500.827C350.115 496.492 357.753 494.556 365.351 495.37L365.795 495.42L365.795 559.491Z" fill="#2F2E41"/>
<path id="Vector_66" d="M459.055 626.432C457.697 626.43 456.369 626.034 455.231 625.293C454.093 624.551 453.194 623.496 452.643 622.255L405.964 516.461C404.479 513.095 404.341 509.288 405.578 505.823C406.815 502.359 409.333 499.5 412.614 497.835C415.894 496.17 419.688 495.825 423.215 496.873C426.742 497.92 429.733 500.279 431.573 503.464V503.464C431.832 503.914 432.067 504.377 432.276 504.852L478.955 610.646C479.705 612.344 479.749 614.271 479.077 616.002C478.406 617.733 477.075 619.126 475.377 619.876L461.415 626.035L461.408 626.02C460.653 626.292 459.857 626.432 459.055 626.432V626.432Z" fill="#F1B529"/>
<path id="Vector_67" d="M394.485 590.103C392.895 590.105 391.37 590.737 390.245 591.862C389.12 592.987 388.487 594.512 388.485 596.103V719.117C388.487 720.708 389.12 722.233 390.245 723.358C391.37 724.482 392.895 725.115 394.485 725.117H409.245C410.836 725.115 412.361 724.482 413.486 723.358C414.611 722.233 415.243 720.708 415.245 719.117V596.103C415.243 594.512 414.611 592.987 413.486 591.862C412.361 590.737 410.836 590.105 409.245 590.103H394.485Z" fill="#F1B529"/>
<path id="Vector_68" d="M365.293 590.103C363.702 590.105 362.177 590.737 361.052 591.862C359.928 592.987 359.295 594.512 359.293 596.103V719.117C359.295 720.708 359.928 722.233 361.052 723.358C362.177 724.482 363.702 725.115 365.293 725.117H380.053C381.644 725.115 383.169 724.482 384.294 723.358C385.418 722.233 386.051 720.708 386.053 719.117V596.103C386.051 594.512 385.418 592.987 384.294 591.862C383.169 590.737 381.644 590.105 380.053 590.103H365.293Z" fill="#F1B529"/>
<path id="Vector_69" d="M386.828 461.224C414.995 461.224 437.828 438.391 437.828 410.224C437.828 382.058 414.995 359.224 386.828 359.224C358.662 359.224 335.828 382.058 335.828 410.224C335.828 438.391 358.662 461.224 386.828 461.224Z" fill="#F1B529"/>
<path id="Vector_70" d="M403.8 431.633C407.106 431.541 411.22 431.426 414.39 429.111C415.334 428.393 416.109 427.478 416.662 426.429C417.215 425.38 417.532 424.223 417.59 423.038C417.647 422.197 417.509 421.353 417.187 420.574C416.864 419.794 416.365 419.1 415.73 418.545C414.074 417.146 411.657 416.818 409.051 417.584L411.751 397.858L409.769 397.587L406.596 420.777L408.251 420.017C410.169 419.137 412.802 418.69 414.439 420.072C414.84 420.434 415.154 420.883 415.353 421.385C415.553 421.888 415.635 422.429 415.591 422.968C415.543 423.849 415.305 424.71 414.894 425.491C414.483 426.273 413.909 426.956 413.21 427.496C410.743 429.298 407.464 429.53 403.744 429.634L403.8 431.633Z" fill="#2F2E41"/>
<path id="Vector_71" d="M432.321 399.559H421.55V401.559H432.321V399.559Z" fill="#2F2E41"/>
<path id="Vector_72" d="M398.321 399.559H387.55V401.559H398.321V399.559Z" fill="#2F2E41"/>
<path id="Vector_73" d="M437.362 627.053L419.006 493.053C418.809 491.616 418.098 490.299 417.005 489.346C415.912 488.393 414.511 487.867 413.061 487.867H399.205C399.263 487.537 399.293 487.203 399.295 486.867V481.867C399.295 480.276 398.663 478.75 397.538 477.625C396.413 476.5 394.887 475.867 393.295 475.867H381.295C379.704 475.867 378.178 476.5 377.053 477.625C375.927 478.75 375.295 480.276 375.295 481.867V486.867C375.297 487.203 375.327 487.537 375.385 487.867H361.53C360.079 487.867 358.678 488.393 357.585 489.346C356.492 490.299 355.782 491.616 355.585 493.053L337.229 627.053C337.113 627.902 337.179 628.766 337.425 629.586C337.67 630.407 338.089 631.166 338.652 631.812C339.215 632.457 339.91 632.975 340.69 633.329C341.47 633.684 342.316 633.867 343.173 633.867H431.417C432.274 633.867 433.121 633.684 433.901 633.329C434.681 632.975 435.375 632.457 435.939 631.812C436.502 631.166 436.92 630.407 437.166 629.587C437.411 628.766 437.478 627.902 437.362 627.053V627.053Z" fill="#2F2E41"/>
<path id="Vector_74" d="M408.795 559.491V495.42L409.24 495.37C416.847 494.557 424.494 496.5 430.791 500.845C437.087 505.19 441.617 511.65 443.556 519.051L454.967 549.23L408.795 559.491Z" fill="#2F2E41"/>
<path id="Vector_75" d="M384.26 462.815L348.984 449.124C343.216 446.885 337.416 444.714 331.678 442.398C329.22 441.541 326.956 440.207 325.016 438.472C323.328 436.684 322.177 434.457 321.695 432.045C320.472 426.873 320.693 421.22 320.78 415.942C320.848 410.169 321.323 404.408 322.202 398.702C323.743 387.979 327.36 377.659 332.852 368.321C342.745 352.09 359.79 339.878 379.395 340.852C388.472 341.303 397.601 344.56 404.345 350.766C405.048 351.607 405.837 352.372 406.7 353.049C407.299 353.273 407.951 353.317 408.575 353.175C409.398 353.122 410.222 353.081 411.046 353.053C413.906 352.933 416.772 353.053 419.612 353.413C424.787 353.972 429.693 356.009 433.742 359.28C437.112 362.179 439.854 366.272 440.137 370.82C440.273 372.908 439.928 374.999 439.128 376.932C438.327 378.866 437.094 380.589 435.522 381.97C431.314 385.517 425.309 384.271 420.261 384.003L401.767 383.023L392.397 382.527C390.468 382.425 390.473 385.425 392.397 385.527L417.302 386.846C421.304 387.058 425.429 387.578 429.434 387.338C432.512 387.199 435.451 386.017 437.768 383.986C439.883 382.042 441.459 379.583 442.342 376.849C443.225 374.115 443.384 371.199 442.804 368.385C441.52 362.247 436.952 357.17 431.598 354.15C424.311 350.04 415.609 349.646 407.457 350.254L408.517 350.693C399.295 340.795 385.169 336.616 371.907 338.078C357.905 339.622 345.451 347.434 336.503 358.116C326.527 370.025 321.09 384.875 318.977 400.145C317.877 408.39 317.515 416.716 317.895 425.025C317.879 428.69 318.506 432.328 319.747 435.776C321.163 439.132 323.723 441.877 326.972 443.522C330.697 445.321 334.526 446.894 338.44 448.233L351.436 453.278L376.964 463.186L383.462 465.708C385.263 466.407 386.043 463.508 384.26 462.815Z" fill="#2F2E41"/>
<path id="Vector_76" d="M328.795 360.867C325.73 360.867 322.733 359.958 320.184 358.255C317.635 356.552 315.648 354.131 314.475 351.299C313.302 348.467 312.995 345.35 313.593 342.344C314.191 339.337 315.667 336.575 317.835 334.407C320.003 332.24 322.765 330.763 325.771 330.165C328.778 329.567 331.895 329.874 334.727 331.047C337.559 332.22 339.98 334.207 341.683 336.756C343.386 339.305 344.295 342.302 344.295 345.367C344.291 349.477 342.656 353.417 339.75 356.322C336.845 359.228 332.905 360.863 328.795 360.867ZM328.795 332.867C326.323 332.867 323.906 333.601 321.851 334.974C319.795 336.348 318.193 338.3 317.247 340.584C316.301 342.868 316.053 345.381 316.535 347.806C317.018 350.231 318.208 352.458 319.956 354.206C321.705 355.954 323.932 357.145 326.357 357.627C328.781 358.11 331.295 357.862 333.579 356.916C335.863 355.97 337.815 354.368 339.189 352.312C340.562 350.256 341.295 347.84 341.295 345.367C341.292 342.053 339.973 338.876 337.63 336.533C335.287 334.189 332.109 332.871 328.795 332.867V332.867Z" fill="#2F2E41"/>
<path id="Vector_77" d="M789.687 560.937H717.825C715.174 560.934 712.632 559.879 710.758 558.005C708.883 556.13 707.828 553.588 707.825 550.937V545.959C707.828 543.308 708.883 540.766 710.758 538.891C712.632 537.017 715.174 535.962 717.825 535.959H789.687C792.339 535.962 794.88 537.017 796.755 538.891C798.63 540.766 799.684 543.308 799.687 545.959V550.937C799.684 553.588 798.63 556.13 796.755 558.005C794.88 559.879 792.339 560.934 789.687 560.937V560.937Z" fill="#F1B529"/>
<path id="Vector_78" d="M797.259 551.341H725.397C722.613 551.338 719.944 550.231 717.976 548.262C716.008 546.294 714.9 543.625 714.897 540.841V535.864C714.9 533.08 716.008 530.411 717.976 528.442C719.944 526.474 722.613 525.367 725.397 525.364H797.259C800.043 525.367 802.712 526.474 804.68 528.442C806.649 530.411 807.756 533.08 807.759 535.864V540.841C807.756 543.625 806.649 546.294 804.68 548.262C802.712 550.231 800.043 551.338 797.259 551.341V551.341ZM725.397 527.364C723.144 527.366 720.983 528.262 719.389 529.856C717.796 531.449 716.9 533.61 716.897 535.864V540.841C716.9 543.095 717.796 545.255 719.389 546.849C720.983 548.442 723.144 549.339 725.397 549.341H797.259C799.513 549.339 801.674 548.442 803.267 546.849C804.861 545.255 805.757 543.095 805.759 540.841V535.864C805.757 533.61 804.861 531.449 803.267 529.856C801.674 528.262 799.513 527.366 797.259 527.364H725.397Z" fill="#3F3D56"/>
</g>
</g>
<defs>
<clipPath id="clip0">
<rect width="949.016" height="767.116" fill="white"/>
</clipPath>
<clipPath id="clip1">
<rect width="708" height="555.867" fill="white" transform="translate(255 171)"/>
</clipPath>
</defs>
</svg>
