<svg width="1006" height="549" viewBox="0 0 1006 549" fill="none" xmlns="http://www.w3.org/2000/svg">
<g id="customize_it-1 1" clip-path="url(#clip0)">
<path id="Vector" d="M872.894 545.098C872.99 544.81 882.308 515.979 865.817 490.253L864.133 491.332C880.097 516.235 871.09 544.187 870.997 544.466L872.894 545.098Z" fill="#E4E4E4"/>
<path id="Vector_2" d="M854.025 493.952C854.38 495.637 855.064 497.235 856.037 498.656C857.01 500.077 858.253 501.292 859.696 502.232C861.139 503.172 862.753 503.819 864.445 504.136C866.138 504.452 867.877 504.432 869.562 504.077C871.247 503.721 872.845 503.038 874.266 502.065C875.686 501.092 876.902 499.848 877.842 498.405C878.782 496.963 879.429 495.349 879.745 493.656C880.062 491.963 880.042 490.225 879.687 488.54C878.192 481.454 865.522 463.818 858.436 465.312C851.35 466.807 852.53 486.866 854.025 493.952Z" fill="#E4E4E4"/>
<path id="Vector_3" d="M856.414 527.095C862.738 533.93 874.052 533.744 874.052 533.744C874.052 533.744 875.113 522.478 868.788 515.644C862.464 508.81 851.15 508.996 851.15 508.996C851.15 508.996 850.09 520.261 856.414 527.095Z" fill="#E4E4E4"/>
<path id="Vector_4" d="M952.27 547.097C952.496 546.417 974.486 478.38 935.568 417.668L931.595 420.215C969.267 478.985 948.011 544.947 947.792 545.606L952.27 547.097Z" fill="#E4E4E4"/>
<path id="Vector_5" d="M907.739 426.398C909.435 434.427 914.249 441.454 921.125 445.934C928.001 450.413 936.374 451.978 944.403 450.285C952.433 448.591 959.461 443.778 963.942 436.904C968.423 430.029 969.99 421.657 968.299 413.627C964.772 396.904 934.873 355.284 918.149 358.811C901.426 362.337 904.212 409.675 907.739 426.398Z" fill="#E4E4E4"/>
<path id="Vector_6" d="M913.378 504.614C928.303 520.742 955.003 520.304 955.003 520.304C955.003 520.304 957.505 493.718 942.58 477.59C927.655 461.462 900.955 461.9 900.955 461.9C900.955 461.9 898.453 488.486 913.378 504.614Z" fill="#E4E4E4"/>
<path id="Vector_7" d="M580.096 541.974L565.504 535.83L555.494 462.679H422.189L411.339 535.531L398.284 542.059C397.659 542.371 397.158 542.885 396.862 543.518C396.566 544.15 396.492 544.864 396.653 545.544C396.813 546.224 397.199 546.829 397.746 547.263C398.294 547.696 398.972 547.932 399.67 547.932H578.893C579.609 547.932 580.303 547.684 580.857 547.231C581.411 546.778 581.791 546.147 581.932 545.445C582.074 544.744 581.969 544.015 581.634 543.382C581.299 542.749 580.756 542.252 580.096 541.974V541.974Z" fill="#E6E6E6"/>
<path id="Vector_8" d="M816.987 472.411H162.158C158.722 472.404 155.43 471.034 153.003 468.601C150.577 466.169 149.214 462.874 149.214 459.438V367.099H829.932V459.438C829.932 462.874 828.569 466.169 826.142 468.601C823.715 471.034 820.423 472.404 816.987 472.411V472.411Z" fill="#CCCCCC"/>
<path id="Vector_9" d="M830.616 410.74H148.616V15.6391C148.621 11.4927 150.27 7.51755 153.202 4.58568C156.134 1.6538 160.109 0.0046475 164.256 0H814.976C819.123 0.00464478 823.098 1.65379 826.03 4.58566C828.962 7.51753 830.611 11.4927 830.616 15.6391V410.74Z" fill="#3F3D56"/>
<path id="Vector_10" d="M789.887 28.6758H189.347C186.151 28.6798 183.087 29.952 180.827 32.2131C178.568 34.4742 177.299 37.5394 177.297 40.7358V370.006C177.299 373.202 178.568 376.267 180.827 378.528C183.087 380.79 186.151 382.062 189.347 382.066H789.887C793.083 382.06 796.146 380.787 798.405 378.527C800.664 376.266 801.934 373.202 801.938 370.006V40.7358C801.934 37.5399 800.664 34.4756 798.405 32.2149C796.146 29.9541 793.083 28.6814 789.887 28.6758Z" fill="white"/>
<path id="Vector_11" d="M295.797 28.6758V382.066H189.347C186.151 382.062 183.087 380.79 180.827 378.528C178.568 376.267 177.299 373.202 177.297 370.006V40.7358C177.299 37.5394 178.568 34.4742 180.827 32.2131C183.087 29.952 186.151 28.6798 189.347 28.6758H295.797Z" fill="#F0F0F0"/>
<path id="Vector_12" d="M207.978 207.197C206.779 206.924 205.536 206.917 204.335 207.177C203.134 207.437 202.004 207.957 201.026 208.701C200.047 209.444 199.244 210.393 198.672 211.481C198.1 212.569 197.773 213.768 197.715 214.996L169.062 223.443L180.924 233.457L206.315 223.9C208.383 223.861 210.366 223.064 211.886 221.661C213.407 220.258 214.36 218.346 214.565 216.287C214.77 214.228 214.213 212.166 212.999 210.49C211.785 208.815 209.998 207.643 207.978 207.197H207.978Z" fill="#FFB6B6"/>
<path id="Vector_13" d="M92.2051 270.771C89.3724 270.768 86.6331 269.758 84.4756 267.923C82.3182 266.087 80.8828 263.545 80.4254 260.749C79.968 257.954 80.5184 255.087 81.9784 252.659C83.4385 250.232 85.7132 248.402 88.397 247.496L146.461 227.896L191.753 211.396L197.312 230.851L157.328 257.197L94.7041 270.508C93.8826 270.683 93.045 270.771 92.2051 270.771V270.771Z" fill="#E10032"/>
<path id="Vector_14" d="M128.541 538.792H136.693L140.572 507.347H128.539L128.541 538.792Z" fill="#FFB6B6"/>
<path id="Vector_15" d="M126.461 536.131L142.516 536.13H142.517C145.231 536.13 147.833 537.208 149.752 539.127C151.67 541.046 152.748 543.648 152.749 546.361V546.694L126.462 546.695L126.461 536.131Z" fill="#2F2E41"/>
<path id="Vector_16" d="M66.033 538.792H74.185L78.064 507.347H66.032L66.033 538.792Z" fill="#FFB6B6"/>
<path id="Vector_17" d="M63.9534 536.131L80.0086 536.13H80.0092C82.7228 536.13 85.3251 537.208 87.2439 539.127C89.1626 541.046 90.2407 543.648 90.2409 546.361V546.694L63.9539 546.695L63.9534 536.131Z" fill="#2F2E41"/>
<path id="Vector_18" d="M65.9522 350.177C62.2213 358.867 61.4048 368.533 63.6248 377.726L61.2974 533.71H79.202L89.2263 447.928L105.851 391.405L123.805 435.294V526.765L141.094 525.73L150.404 428.644L139.765 359.486L65.9522 350.177Z" fill="#2F2E41"/>
<path id="Vector_19" d="M131.452 228.818L116.158 224.163L112.168 216.184H92.5224L87.5639 224.828C87.5639 224.828 67.6146 232.143 66.9496 267.387C66.2847 302.63 63.6248 359.153 63.6248 359.153L142.286 370.368L131.452 228.818Z" fill="#E10032"/>
<path id="Vector_20" d="M154.035 364.057C154.551 362.941 154.816 361.726 154.812 360.497C154.807 359.268 154.534 358.055 154.01 356.944C153.486 355.832 152.725 354.849 151.78 354.063C150.835 353.278 149.729 352.709 148.54 352.397L146.235 322.613L133.974 332.134L138.043 358.957C137.651 360.989 138.018 363.093 139.074 364.873C140.131 366.652 141.803 367.981 143.774 368.61C145.745 369.239 147.879 369.122 149.77 368.283C151.661 367.444 153.179 365.94 154.035 364.057H154.035Z" fill="#FFB6B6"/>
<path id="Vector_21" d="M133.116 348.706L115.658 304.118V240.095C115.658 237.046 116.823 234.112 118.916 231.894C121.009 229.676 123.87 228.342 126.915 228.165C129.959 227.988 132.956 228.981 135.292 230.942C137.627 232.902 139.125 235.682 139.479 238.711L146.579 299.581L153.301 347.314L133.116 348.706Z" fill="#E10032"/>
<path id="Vector_22" d="M106.114 205.832C116.957 205.832 125.746 197.042 125.746 186.2C125.746 175.357 116.957 166.567 106.114 166.567C95.2712 166.567 86.4814 175.357 86.4814 186.2C86.4814 197.042 95.2712 205.832 106.114 205.832Z" fill="#FFB9B9"/>
<path id="Vector_23" d="M107.4 180.232C106.481 181.412 105.222 182.476 105.02 183.957C104.87 185.054 105.349 186.139 105.395 187.245C105.398 188.362 104.976 189.438 104.214 190.255C103.452 191.071 102.407 191.566 101.293 191.638C100.516 190.662 99.3948 190.02 98.1593 189.847C97.5445 189.777 96.9235 189.906 96.3877 190.216C95.8519 190.525 95.4295 190.999 95.1827 191.566C94.5997 193.213 95.9491 194.886 96.1661 196.62C96.1949 197.902 95.9875 199.179 95.5541 200.386C95.0567 202.375 94.9237 204.479 94.051 206.335C93.1783 208.19 91.2377 209.786 89.2288 209.376C87.5396 209.031 86.3966 207.395 85.9242 205.737C85.4517 204.079 85.473 202.321 85.131 200.631C84.0201 195.14 79.2939 191.072 77.4397 185.786C75.0637 179.012 77.918 171.265 82.8373 166.037C84.8261 163.747 87.4223 162.066 90.3259 161.189C93.3914 160.408 96.6326 160.969 99.7782 160.635C103.142 160.278 106.304 158.911 109.574 158.042C112.843 157.174 116.495 156.846 119.466 158.463C121.539 159.59 123.04 161.534 124.971 162.889C127.185 164.432 129.87 165.15 132.558 164.92L129.348 166.323C130.576 167.451 132.06 168.264 133.672 168.692C132.36 169.732 130.738 170.301 129.064 170.31C129.413 170.939 129.887 171.49 130.457 171.928C131.028 172.367 131.682 172.684 132.38 172.86C129.942 174.004 127.354 175.177 124.674 174.918C123.361 174.792 122.106 174.325 120.809 174.085C118.044 173.573 115.205 174.104 112.444 174.633C110.994 174.912 109.214 175.179 108.482 176.573C107.872 177.734 108.338 179.027 107.4 180.232Z" fill="#2F2E41"/>
<path id="Vector_24" d="M236.547 236.691C253.845 236.691 267.867 222.668 267.867 205.371C267.867 188.073 253.845 174.051 236.547 174.051C219.25 174.051 205.227 188.073 205.227 205.371C205.227 222.668 219.25 236.691 236.547 236.691Z" fill="#E10032"/>
<path id="Vector_25" d="M255.339 205.371H238.427V188.458H234.668V205.371H217.755V209.129H234.668V226.042H238.427V209.129H255.339V205.371Z" fill="white"/>
<path id="Vector_26" d="M503.256 70.0088C502.29 70.0098 501.364 70.394 500.681 71.0769C499.998 71.7599 499.614 72.6859 499.613 73.6518V134.65C499.614 135.616 499.998 136.542 500.681 137.225C501.364 137.908 502.29 138.292 503.256 138.293H749.158C750.124 138.292 751.05 137.908 751.733 137.225C752.416 136.542 752.8 135.616 752.801 134.65V73.6518C752.8 72.6859 752.416 71.7599 751.733 71.0769C751.05 70.394 750.124 70.0098 749.158 70.0088H503.256Z" fill="white"/>
<path id="Vector_27" d="M503.256 70.0088C502.29 70.0098 501.364 70.394 500.681 71.0769C499.998 71.7599 499.614 72.6859 499.613 73.6518V134.65C499.614 135.616 499.998 136.542 500.681 137.225C501.364 137.908 502.29 138.292 503.256 138.293H749.158C750.124 138.292 751.05 137.908 751.733 137.225C752.416 136.542 752.8 135.616 752.801 134.65V73.6518C752.8 72.6859 752.416 71.7599 751.733 71.0769C751.05 70.394 750.124 70.0098 749.158 70.0088H503.256Z" fill="#E6E6E6"/>
<path id="Vector_28" d="M503.711 134.195H748.703V74.1074H503.711V134.195Z" fill="white"/>
<path id="Vector_29" d="M531.566 91.4004C530.72 91.4004 529.909 91.7362 529.312 92.334C528.714 92.9318 528.378 93.7426 528.378 94.588C528.378 95.4334 528.714 96.2442 529.312 96.842C529.909 97.4398 530.72 97.7756 531.566 97.7756H720.839C721.258 97.7758 721.673 97.6936 722.059 97.5335C722.446 97.3735 722.798 97.1389 723.094 96.843C723.39 96.5471 723.625 96.1958 723.785 95.8091C723.946 95.4225 724.028 95.008 724.028 94.5894C724.029 94.1708 723.946 93.7563 723.786 93.3694C723.626 92.9826 723.392 92.6311 723.096 92.335C722.8 92.0389 722.449 91.8039 722.062 91.6436C721.675 91.4832 721.261 91.4006 720.842 91.4004H531.566Z" fill="#E4E4E4"/>
<path id="Vector_30" d="M531.565 110.525C530.721 110.527 529.912 110.863 529.315 111.461C528.719 112.059 528.384 112.869 528.384 113.713C528.384 114.557 528.719 115.367 529.315 115.965C529.912 116.563 530.721 116.899 531.565 116.901H720.839C721.685 116.903 722.496 116.568 723.095 115.972C723.695 115.376 724.032 114.566 724.034 113.72C724.036 112.875 723.702 112.063 723.105 111.464C722.509 110.865 721.699 110.527 720.854 110.525H531.565V110.525Z" fill="#E4E4E4"/>
<path id="Vector_31" d="M332.256 173.509C331.29 173.51 330.364 173.894 329.681 174.577C328.998 175.26 328.614 176.186 328.613 177.152V238.15C328.614 239.116 328.998 240.042 329.681 240.725C330.364 241.408 331.29 241.792 332.256 241.793H578.158C579.124 241.792 580.05 241.408 580.733 240.725C581.416 240.042 581.8 239.116 581.801 238.15V177.152C581.8 176.186 581.416 175.26 580.733 174.577C580.05 173.894 579.124 173.51 578.158 173.509H332.256Z" fill="white"/>
<path id="Vector_32" d="M332.256 173.509C331.29 173.51 330.364 173.894 329.681 174.577C328.998 175.26 328.614 176.186 328.613 177.152V238.15C328.614 239.116 328.998 240.042 329.681 240.725C330.364 241.408 331.29 241.792 332.256 241.793H578.158C579.124 241.792 580.05 241.408 580.733 240.725C581.416 240.042 581.8 239.116 581.801 238.15V177.152C581.8 176.186 581.416 175.26 580.733 174.577C580.05 173.894 579.124 173.51 578.158 173.509H332.256Z" fill="#E6E6E6"/>
<path id="Vector_33" d="M332.711 237.695H577.703V177.607H332.711V237.695Z" fill="white"/>
<path id="Vector_34" d="M360.566 194.9C359.72 194.9 358.909 195.236 358.312 195.834C357.714 196.432 357.378 197.243 357.378 198.088C357.378 198.933 357.714 199.744 358.312 200.342C358.909 200.94 359.72 201.276 360.566 201.276H549.839C550.258 201.276 550.672 201.194 551.059 201.034C551.446 200.874 551.798 200.639 552.094 200.343C552.39 200.047 552.625 199.696 552.785 199.309C552.946 198.922 553.028 198.508 553.028 198.089C553.029 197.671 552.946 197.256 552.786 196.869C552.626 196.483 552.392 196.131 552.096 195.835C551.8 195.539 551.448 195.304 551.062 195.144C550.675 194.983 550.261 194.901 549.842 194.9H360.566Z" fill="#E4E4E4"/>
<path id="Vector_35" d="M360.566 214.025C359.721 214.027 358.912 214.363 358.315 214.961C357.719 215.559 357.384 216.369 357.384 217.213C357.384 218.057 357.719 218.867 358.315 219.465C358.912 220.063 359.721 220.399 360.566 220.401H549.839C550.685 220.403 551.496 220.068 552.095 219.472C552.695 218.876 553.032 218.066 553.034 217.22C553.036 216.375 552.702 215.563 552.105 214.964C551.509 214.365 550.699 214.027 549.854 214.025H360.566V214.025Z" fill="#E4E4E4"/>
<path id="Vector_36" d="M631.992 337.222C633.087 337.101 634.143 336.742 635.084 336.169C636.025 335.596 636.83 334.824 637.44 333.907C638.051 332.99 638.453 331.95 638.618 330.861C638.784 329.772 638.708 328.659 638.397 327.603L660.19 312.036L647.202 307.035L628.498 322.584C626.758 323.224 625.312 324.481 624.436 326.116C623.559 327.751 623.313 329.65 623.744 331.455C624.175 333.259 625.252 334.843 626.772 335.905C628.293 336.968 630.15 337.437 631.992 337.222V337.222Z" fill="#FFB7B7"/>
<path id="Vector_37" d="M644.091 326.969L636.862 314.621L637.015 314.446L666.185 281.237L688.833 242.614L708.5 245.121L708.79 251.066L708.731 251.154L677.485 298.124L677.452 298.152L644.091 326.969Z" fill="#3F3D56"/>
<path id="Vector_38" d="M740.467 535.914L729.346 535.913L724.054 493.014L740.469 493.015L740.467 535.914Z" fill="#FFB7B7"/>
<path id="Vector_39" d="M743.304 546.695L707.442 546.694V546.24C707.442 542.539 708.913 538.988 711.531 536.371C714.148 533.753 717.698 532.282 721.4 532.282H721.401L743.304 532.283L743.304 546.695Z" fill="#2F2E41"/>
<path id="Vector_40" d="M644.748 535.55L633.93 532.967L638.746 490.012L654.712 493.824L644.748 535.55Z" fill="#FFB7B7"/>
<path id="Vector_41" d="M645.003 546.695L610.122 538.366L610.227 537.925C611.087 534.324 613.342 531.212 616.496 529.274C619.65 527.336 623.445 526.73 627.046 527.589L627.046 527.59L648.351 532.677L645.003 546.695Z" fill="#2F2E41"/>
<path id="Vector_42" d="M687.973 223.002V204.281C687.973 197.627 690.616 191.247 695.32 186.542C700.025 181.837 706.406 179.194 713.059 179.194C719.712 179.194 726.093 181.837 730.798 186.542C735.502 191.247 738.145 197.627 738.145 204.281V223.002C738.144 223.895 737.789 224.752 737.157 225.383C736.525 226.015 735.669 226.371 734.775 226.372H691.342C690.449 226.371 689.592 226.015 688.961 225.383C688.329 224.752 687.974 223.895 687.973 223.002V223.002Z" fill="#2F2E41"/>
<path id="Vector_43" d="M706.867 226.087C717.025 226.087 725.26 217.852 725.26 207.694C725.26 197.536 717.025 189.302 706.867 189.302C696.71 189.302 688.475 197.536 688.475 207.694C688.475 217.852 696.71 226.087 706.867 226.087Z" fill="#FFB7B7"/>
<path id="Vector_44" d="M682.038 205.778C682.044 200.517 684.136 195.473 687.856 191.752C691.577 188.032 696.621 185.94 701.882 185.934H705.626C710.888 185.94 715.932 188.032 719.652 191.752C723.372 195.473 725.465 200.517 725.471 205.778V206.152H717.558L714.859 198.595L714.319 206.152H710.23L708.868 202.339L708.596 206.152H682.038V205.778Z" fill="#2F2E41"/>
<path id="Vector_45" d="M717.596 304.768L670.766 302.986L668.148 272.349C666.129 266.741 666.096 261.926 668.051 258.039C669.732 254.845 672.556 252.404 675.959 251.203L686.206 238.827C687.525 237.236 689.18 235.958 691.053 235.085C692.926 234.212 694.97 233.766 697.036 233.779L723.659 233.961C724.301 233.575 728.194 231.597 735.871 234.925C744.198 238.535 742.264 251.072 742.243 251.198L742.224 251.316L742.133 251.394L724.423 266.307L717.596 304.768Z" fill="#3F3D56"/>
<path id="Vector_46" d="M671.139 299.694L648.988 340.08L632.194 523.817L651.169 529.612L684.756 385.882L723.736 525.534L746.481 526.103L730.994 364.944L717.46 302.548L671.139 299.694Z" fill="#2F2E41"/>
<path id="Vector_47" d="M527.776 269.758C526.857 269.461 525.857 269.541 524.997 269.98C524.137 270.419 523.486 271.181 523.187 272.1L504.377 330.125C504.08 331.044 504.16 332.044 504.599 332.904C505.038 333.764 505.8 334.415 506.719 334.714L740.638 410.543C741.557 410.84 742.556 410.76 743.417 410.321C744.277 409.882 744.928 409.119 745.227 408.201L764.037 350.175C764.334 349.256 764.254 348.257 763.815 347.397C763.376 346.536 762.613 345.885 761.695 345.587L527.776 269.758Z" fill="white"/>
<path id="Vector_48" d="M527.776 269.758C526.857 269.461 525.857 269.541 524.997 269.98C524.137 270.419 523.486 271.181 523.187 272.1L504.377 330.125C504.08 331.044 504.16 332.044 504.599 332.904C505.038 333.764 505.8 334.415 506.719 334.714L740.638 410.543C741.557 410.84 742.556 410.76 743.417 410.321C744.277 409.882 744.928 409.119 745.227 408.201L764.037 350.175C764.334 349.256 764.254 348.257 763.815 347.397C763.376 346.536 762.613 345.885 761.695 345.587L527.776 269.758Z" fill="#E6E6E6"/>
<path id="Vector_49" d="M508.416 330.956L741.469 406.504L759.998 349.345L526.945 273.797L508.416 330.956Z" fill="white"/>
<path id="Vector_50" d="M548.11 298.836C547.306 298.576 546.431 298.646 545.678 299.03C544.926 299.415 544.357 300.082 544.096 300.886C543.835 301.69 543.905 302.565 544.289 303.318C544.673 304.07 545.34 304.64 546.144 304.901L726.194 363.267C726.592 363.397 727.012 363.447 727.43 363.415C727.847 363.382 728.254 363.267 728.628 363.077C729.001 362.887 729.333 362.625 729.605 362.307C729.877 361.988 730.084 361.619 730.213 361.221C730.342 360.822 730.392 360.402 730.359 359.985C730.326 359.567 730.211 359.16 730.02 358.787C729.83 358.414 729.568 358.082 729.249 357.81C728.93 357.539 728.561 357.333 728.162 357.204L728.16 357.203L548.11 298.836Z" fill="#E10032"/>
<path id="Vector_51" d="M542.212 317.03C541.408 316.772 540.535 316.842 539.783 317.227C539.031 317.611 538.463 318.278 538.203 319.082C537.942 319.885 538.011 320.758 538.394 321.511C538.777 322.263 539.443 322.833 540.246 323.095L720.296 381.461C721.099 381.724 721.974 381.656 722.728 381.273C723.482 380.891 724.053 380.224 724.315 379.421C724.578 378.617 724.51 377.742 724.128 376.988C723.745 376.234 723.079 375.663 722.275 375.401L722.262 375.397L542.212 317.03Z" fill="#E10032"/>
<path id="Vector_52" d="M730.32 365.076C731.14 364.34 731.788 363.433 732.22 362.42C732.652 361.406 732.856 360.31 732.818 359.209C732.78 358.108 732.501 357.028 732.001 356.046C731.501 355.065 730.792 354.205 729.923 353.527L738.571 328.18L725.101 331.679L718.954 355.213C717.912 356.747 717.469 358.611 717.709 360.45C717.949 362.289 718.855 363.977 720.256 365.193C721.657 366.408 723.455 367.068 725.31 367.047C727.165 367.025 728.947 366.324 730.32 365.076V365.076Z" fill="#FFB7B7"/>
<path id="Vector_53" d="M734.183 349.695L721.114 343.869L725.505 299.653L721.419 255.067L738.865 245.649L742.563 250.312L742.567 250.418L744.527 306.798L744.516 306.841L734.183 349.695Z" fill="#3F3D56"/>
<path id="Vector_54" d="M1004.04 548.695H320.588C320.242 548.702 319.904 548.595 319.626 548.39C319.347 548.185 319.145 547.894 319.049 547.561C318.989 547.335 318.982 547.098 319.029 546.869C319.075 546.64 319.173 546.424 319.316 546.239C319.459 546.054 319.642 545.903 319.852 545.8C320.062 545.697 320.292 545.643 320.526 545.643H1003.91C1004.28 545.63 1004.63 545.741 1004.93 545.958C1005.22 546.174 1005.43 546.484 1005.53 546.836C1005.58 547.06 1005.58 547.291 1005.52 547.514C1005.47 547.737 1005.37 547.945 1005.23 548.123C1005.08 548.302 1004.9 548.446 1004.7 548.545C1004.49 548.644 1004.27 548.695 1004.04 548.695Z" fill="#CCCCCC"/>
<path id="Vector_55" d="M230.036 548.695H1.58815C1.24248 548.702 0.904084 548.595 0.625699 548.39C0.347314 548.185 0.144568 547.894 0.049054 547.561C-0.0105765 547.335 -0.0175171 547.098 0.0287598 546.869C0.0750367 546.64 0.173294 546.424 0.315984 546.239C0.458673 546.054 0.641984 545.903 0.851811 545.8C1.06164 545.697 1.29239 545.643 1.5263 545.643H229.911C230.276 545.63 230.634 545.741 230.928 545.958C231.221 546.174 231.432 546.484 231.527 546.836C231.577 547.06 231.576 547.291 231.524 547.514C231.472 547.737 231.371 547.945 231.228 548.123C231.084 548.302 230.903 548.446 230.697 548.545C230.491 548.644 230.265 548.695 230.036 548.695V548.695Z" fill="#CCCCCC"/>
</g>
<defs>
<clipPath id="clip0">
<rect width="1005.56" height="548.695" fill="white"/>
</clipPath>
</defs>
</svg>
