<svg width="980" height="490" viewBox="0 0 980 490" fill="none" xmlns="http://www.w3.org/2000/svg">
<g id="design-1 2" clip-path="url(#clip0)">
<g id="design-1 1">
<path id="Vector" d="M251.228 0.000275817C226.124 -0.0412209 201.25 4.60006 177.983 13.6672C177.046 14.0366 176.105 14.4078 175.165 14.7873C139.804 29.1428 109.634 53.2198 88.4362 84.0007C67.238 114.782 55.9546 150.897 56.0001 187.821V392.767C56.0027 394.932 56.8975 397.007 58.4883 398.537C60.0792 400.068 62.2361 400.929 64.4859 400.931L64.6543 400.945C228.209 429.52 387.211 444 537.377 444C539.628 444 541.877 443.997 544.124 443.99C691.733 443.558 835.461 429.078 971.316 400.952L971.514 400.931C973.764 400.929 975.921 400.068 977.512 398.538C979.103 397.007 979.998 394.932 980 392.767V8.16408C979.997 5.99967 979.103 3.92459 977.512 2.39412C975.921 0.863645 973.764 0.00276804 971.514 0.000331181L251.228 0.000275817Z" fill="#E10032"/>
<path id="Path 40" d="M759.486 163.001C758.023 163.025 756.628 163.614 755.601 164.643C754.575 165.672 754 167.057 754 168.5C754 169.943 754.575 171.328 755.601 172.357C756.628 173.386 758.023 173.975 759.486 173.999H899.324C900.057 174.012 900.785 173.882 901.467 173.617C902.149 173.352 902.772 172.957 903.299 172.455C903.826 171.952 904.247 171.352 904.539 170.689C904.831 170.026 904.987 169.313 904.999 168.59C905.011 167.868 904.879 167.15 904.609 166.478C904.34 165.805 903.938 165.192 903.428 164.673C902.918 164.154 902.309 163.739 901.637 163.452C900.964 163.165 900.24 163.012 899.507 163.001C899.446 163 899.385 163 899.324 163.001H759.486Z" fill="#3F3D56"/>
<path id="Vector_2" d="M931.779 162.314C931.68 162.413 931.602 162.531 931.548 162.661C931.494 162.791 931.467 162.931 931.467 163.071C931.467 163.212 931.494 163.351 931.548 163.481C931.602 163.611 931.68 163.73 931.779 163.829L936.358 168.429H925.067C924.784 168.429 924.513 168.541 924.312 168.742C924.112 168.943 924 169.216 924 169.5C924 169.784 924.112 170.057 924.312 170.258C924.513 170.459 924.784 170.571 925.067 170.571H936.358L931.779 175.171C931.68 175.27 931.602 175.389 931.548 175.519C931.494 175.649 931.467 175.788 931.467 175.929C931.467 176.069 931.494 176.209 931.548 176.339C931.602 176.469 931.68 176.587 931.779 176.686C931.878 176.786 931.996 176.865 932.125 176.918C932.255 176.972 932.393 177 932.533 177C932.673 177 932.812 176.972 932.942 176.918C933.071 176.865 933.189 176.786 933.288 176.686L939.688 170.258C939.888 170.057 940 169.784 940 169.5C940 169.216 939.888 168.943 939.688 168.742L933.288 162.314C933.189 162.214 933.071 162.135 932.942 162.082C932.812 162.028 932.673 162 932.533 162C932.393 162 932.255 162.028 932.125 162.082C931.996 162.135 931.878 162.214 931.779 162.314Z" fill="white"/>
<path id="Vector_3" d="M727.219 162.314C727.318 162.413 727.397 162.531 727.45 162.661C727.504 162.791 727.532 162.931 727.532 163.071C727.532 163.212 727.504 163.351 727.45 163.481C727.397 163.611 727.318 163.73 727.219 163.829L722.641 168.429H733.93C734.071 168.428 734.21 168.456 734.339 168.509C734.469 168.563 734.587 168.642 734.687 168.741C734.786 168.841 734.865 168.959 734.919 169.089C734.972 169.219 735 169.359 735 169.5C735 169.641 734.972 169.781 734.919 169.911C734.865 170.041 734.786 170.159 734.687 170.259C734.587 170.358 734.469 170.437 734.339 170.491C734.21 170.544 734.071 170.572 733.93 170.571H722.641L727.219 175.171C727.419 175.372 727.532 175.644 727.532 175.929C727.532 176.213 727.419 176.485 727.219 176.686C727.019 176.887 726.748 177 726.465 177C726.182 177 725.911 176.887 725.711 176.686L719.312 170.258C719.112 170.057 719 169.784 719 169.5C719 169.216 719.112 168.943 719.312 168.742L725.711 162.314C725.81 162.214 725.928 162.135 726.057 162.082C726.186 162.028 726.325 162 726.465 162C726.605 162 726.744 162.028 726.873 162.082C727.003 162.135 727.12 162.214 727.219 162.314Z" fill="white"/>
<g id="Group" opacity="0.4">
<path id="Vector_4" opacity="0.4" d="M764.859 51.5549C768.186 51.5549 770.884 48.9573 770.884 45.753C770.884 42.5488 768.186 39.9512 764.859 39.9512C761.531 39.9512 758.834 42.5488 758.834 45.753C758.834 48.9573 761.531 51.5549 764.859 51.5549Z" fill="white"/>
<path id="Vector_5" opacity="0.4" d="M789.962 51.5549C793.289 51.5549 795.987 48.9573 795.987 45.753C795.987 42.5488 793.289 39.9512 789.962 39.9512C786.635 39.9512 783.937 42.5488 783.937 45.753C783.937 48.9573 786.635 51.5549 789.962 51.5549Z" fill="white"/>
<path id="Vector_6" opacity="0.4" d="M815.065 51.5549C818.393 51.5549 821.09 48.9573 821.09 45.753C821.09 42.5488 818.393 39.9512 815.065 39.9512C811.738 39.9512 809.041 42.5488 809.041 45.753C809.041 48.9573 811.738 51.5549 815.065 51.5549Z" fill="white"/>
<path id="Vector_7" opacity="0.4" d="M840.168 51.5549C843.496 51.5549 846.193 48.9573 846.193 45.753C846.193 42.5488 843.496 39.9512 840.168 39.9512C836.841 39.9512 834.144 42.5488 834.144 45.753C834.144 48.9573 836.841 51.5549 840.168 51.5549Z" fill="white"/>
<path id="Vector_8" opacity="0.4" d="M865.271 51.5549C868.599 51.5549 871.296 48.9573 871.296 45.753C871.296 42.5488 868.599 39.9512 865.271 39.9512C861.944 39.9512 859.247 42.5488 859.247 45.753C859.247 48.9573 861.944 51.5549 865.271 51.5549Z" fill="white"/>
<path id="Vector_9" opacity="0.4" d="M890.375 51.5549C893.702 51.5549 896.4 48.9573 896.4 45.753C896.4 42.5488 893.702 39.9512 890.375 39.9512C887.047 39.9512 884.35 42.5488 884.35 45.753C884.35 48.9573 887.047 51.5549 890.375 51.5549Z" fill="white"/>
<path id="Vector_10" opacity="0.4" d="M915.478 51.5549C918.805 51.5549 921.503 48.9573 921.503 45.753C921.503 42.5488 918.805 39.9512 915.478 39.9512C912.15 39.9512 909.453 42.5488 909.453 45.753C909.453 48.9573 912.15 51.5549 915.478 51.5549Z" fill="white"/>
<path id="Vector_11" opacity="0.4" d="M764.859 69.927C768.186 69.927 770.884 67.3294 770.884 64.1251C770.884 60.9208 768.186 58.3232 764.859 58.3232C761.531 58.3232 758.834 60.9208 758.834 64.1251C758.834 67.3294 761.531 69.927 764.859 69.927Z" fill="white"/>
<path id="Vector_12" opacity="0.4" d="M789.962 69.927C793.289 69.927 795.987 67.3294 795.987 64.1251C795.987 60.9208 793.289 58.3232 789.962 58.3232C786.635 58.3232 783.937 60.9208 783.937 64.1251C783.937 67.3294 786.635 69.927 789.962 69.927Z" fill="white"/>
<path id="Vector_13" opacity="0.4" d="M815.065 69.927C818.393 69.927 821.09 67.3294 821.09 64.1251C821.09 60.9208 818.393 58.3232 815.065 58.3232C811.738 58.3232 809.041 60.9208 809.041 64.1251C809.041 67.3294 811.738 69.927 815.065 69.927Z" fill="white"/>
<path id="Vector_14" opacity="0.4" d="M840.168 69.927C843.496 69.927 846.193 67.3294 846.193 64.1251C846.193 60.9208 843.496 58.3232 840.168 58.3232C836.841 58.3232 834.144 60.9208 834.144 64.1251C834.144 67.3294 836.841 69.927 840.168 69.927Z" fill="white"/>
<path id="Vector_15" opacity="0.4" d="M865.271 69.927C868.599 69.927 871.296 67.3294 871.296 64.1251C871.296 60.9208 868.599 58.3232 865.271 58.3232C861.944 58.3232 859.247 60.9208 859.247 64.1251C859.247 67.3294 861.944 69.927 865.271 69.927Z" fill="white"/>
<path id="Vector_16" opacity="0.4" d="M890.375 69.927C893.702 69.927 896.4 67.3294 896.4 64.1251C896.4 60.9208 893.702 58.3232 890.375 58.3232C887.047 58.3232 884.35 60.9208 884.35 64.1251C884.35 67.3294 887.047 69.927 890.375 69.927Z" fill="white"/>
<path id="Vector_17" opacity="0.4" d="M915.478 69.927C918.805 69.927 921.503 67.3294 921.503 64.1251C921.503 60.9208 918.805 58.3232 915.478 58.3232C912.15 58.3232 909.453 60.9208 909.453 64.1251C909.453 67.3294 912.15 69.927 915.478 69.927Z" fill="white"/>
<path id="Vector_18" opacity="0.4" d="M764.859 88.3C768.186 88.3 770.884 85.7024 770.884 82.4982C770.884 79.2939 768.186 76.6963 764.859 76.6963C761.531 76.6963 758.834 79.2939 758.834 82.4982C758.834 85.7024 761.531 88.3 764.859 88.3Z" fill="white"/>
<path id="Vector_19" opacity="0.4" d="M789.962 88.3C793.289 88.3 795.987 85.7024 795.987 82.4982C795.987 79.2939 793.289 76.6963 789.962 76.6963C786.635 76.6963 783.937 79.2939 783.937 82.4982C783.937 85.7024 786.635 88.3 789.962 88.3Z" fill="white"/>
<path id="Vector_20" opacity="0.4" d="M815.065 88.3C818.393 88.3 821.09 85.7024 821.09 82.4982C821.09 79.2939 818.393 76.6963 815.065 76.6963C811.738 76.6963 809.041 79.2939 809.041 82.4982C809.041 85.7024 811.738 88.3 815.065 88.3Z" fill="white"/>
<path id="Vector_21" opacity="0.4" d="M840.168 88.3C843.496 88.3 846.193 85.7024 846.193 82.4982C846.193 79.2939 843.496 76.6963 840.168 76.6963C836.841 76.6963 834.144 79.2939 834.144 82.4982C834.144 85.7024 836.841 88.3 840.168 88.3Z" fill="white"/>
<path id="Vector_22" opacity="0.4" d="M865.271 88.3C868.599 88.3 871.296 85.7024 871.296 82.4982C871.296 79.2939 868.599 76.6963 865.271 76.6963C861.944 76.6963 859.247 79.2939 859.247 82.4982C859.247 85.7024 861.944 88.3 865.271 88.3Z" fill="white"/>
<path id="Vector_23" opacity="0.4" d="M890.375 88.3C893.702 88.3 896.4 85.7024 896.4 82.4982C896.4 79.2939 893.702 76.6963 890.375 76.6963C887.047 76.6963 884.35 79.2939 884.35 82.4982C884.35 85.7024 887.047 88.3 890.375 88.3Z" fill="white"/>
<path id="Vector_24" opacity="0.4" d="M915.478 88.3C918.805 88.3 921.503 85.7024 921.503 82.4982C921.503 79.2939 918.805 76.6963 915.478 76.6963C912.15 76.6963 909.453 79.2939 909.453 82.4982C909.453 85.7024 912.15 88.3 915.478 88.3Z" fill="white"/>
<path id="Vector_25" opacity="0.4" d="M764.859 106.673C768.186 106.673 770.884 104.075 770.884 100.871C770.884 97.6669 768.186 95.0693 764.859 95.0693C761.531 95.0693 758.834 97.6669 758.834 100.871C758.834 104.075 761.531 106.673 764.859 106.673Z" fill="white"/>
<path id="Vector_26" opacity="0.4" d="M789.962 106.673C793.289 106.673 795.987 104.075 795.987 100.871C795.987 97.6669 793.289 95.0693 789.962 95.0693C786.635 95.0693 783.937 97.6669 783.937 100.871C783.937 104.075 786.635 106.673 789.962 106.673Z" fill="white"/>
<path id="Vector_27" opacity="0.4" d="M764.859 125.045C768.186 125.045 770.884 122.448 770.884 119.243C770.884 116.039 768.186 113.441 764.859 113.441C761.531 113.441 758.834 116.039 758.834 119.243C758.834 122.448 761.531 125.045 764.859 125.045Z" fill="white"/>
<path id="Vector_28" opacity="0.4" d="M789.962 125.045C793.289 125.045 795.987 122.448 795.987 119.243C795.987 116.039 793.289 113.441 789.962 113.441C786.635 113.441 783.937 116.039 783.937 119.243C783.937 122.448 786.635 125.045 789.962 125.045Z" fill="white"/>
<path id="Vector_29" opacity="0.4" d="M815.065 125.045C818.393 125.045 821.09 122.448 821.09 119.243C821.09 116.039 818.393 113.441 815.065 113.441C811.738 113.441 809.041 116.039 809.041 119.243C809.041 122.448 811.738 125.045 815.065 125.045Z" fill="white"/>
<path id="Vector_30" opacity="0.4" d="M815.065 106.673C818.393 106.673 821.09 104.075 821.09 100.871C821.09 97.6669 818.393 95.0693 815.065 95.0693C811.738 95.0693 809.041 97.6669 809.041 100.871C809.041 104.075 811.738 106.673 815.065 106.673Z" fill="white"/>
<path id="Vector_31" opacity="0.4" d="M840.168 106.673C843.496 106.673 846.193 104.075 846.193 100.871C846.193 97.6669 843.496 95.0693 840.168 95.0693C836.841 95.0693 834.144 97.6669 834.144 100.871C834.144 104.075 836.841 106.673 840.168 106.673Z" fill="white"/>
<path id="Vector_32" opacity="0.4" d="M865.271 106.673C868.599 106.673 871.296 104.075 871.296 100.871C871.296 97.6669 868.599 95.0693 865.271 95.0693C861.944 95.0693 859.247 97.6669 859.247 100.871C859.247 104.075 861.944 106.673 865.271 106.673Z" fill="white"/>
<path id="Vector_33" opacity="0.4" d="M890.375 106.673C893.702 106.673 896.4 104.075 896.4 100.871C896.4 97.6669 893.702 95.0693 890.375 95.0693C887.047 95.0693 884.35 97.6669 884.35 100.871C884.35 104.075 887.047 106.673 890.375 106.673Z" fill="white"/>
<path id="Vector_34" opacity="0.4" d="M915.478 106.673C918.805 106.673 921.503 104.075 921.503 100.871C921.503 97.6669 918.805 95.0693 915.478 95.0693C912.15 95.0693 909.453 97.6669 909.453 100.871C909.453 104.075 912.15 106.673 915.478 106.673Z" fill="white"/>
</g>
<path id="Vector_35" d="M678.5 340C671.874 340 665.397 338.153 659.888 334.691C654.379 331.23 650.086 326.31 647.55 320.555C645.015 314.799 644.351 308.465 645.644 302.355C646.936 296.244 650.127 290.631 654.812 286.226C659.497 281.821 665.466 278.821 671.965 277.605C678.463 276.39 685.199 277.014 691.32 279.398C697.441 281.782 702.673 285.819 706.354 291C710.035 296.18 712 302.27 712 308.5C711.99 316.851 708.457 324.858 702.177 330.763C695.897 336.669 687.382 339.991 678.5 340ZM678.5 278.786C672.25 278.786 666.14 280.529 660.944 283.794C655.747 287.059 651.697 291.7 649.305 297.129C646.913 302.559 646.287 308.533 647.507 314.297C648.726 320.061 651.736 325.355 656.155 329.511C660.575 333.666 666.205 336.496 672.335 337.643C678.465 338.789 684.819 338.201 690.593 335.952C696.367 333.703 701.303 329.895 704.775 325.008C708.247 320.122 710.101 314.377 710.101 308.5C710.091 300.622 706.759 293.069 700.835 287.499C694.91 281.928 686.878 278.795 678.5 278.786Z" fill="#3F3D56"/>
<path id="Vector_36" d="M690.8 305.4H681.2V296.1C681.2 295.278 680.863 294.489 680.263 293.908C679.663 293.327 678.849 293 678 293C677.151 293 676.337 293.327 675.737 293.908C675.137 294.489 674.8 295.278 674.8 296.1V305.4H665.2C664.351 305.4 663.537 305.727 662.937 306.308C662.337 306.889 662 307.678 662 308.5C662 309.322 662.337 310.111 662.937 310.692C663.537 311.273 664.351 311.6 665.2 311.6H674.8V320.9C674.8 321.722 675.137 322.511 675.737 323.092C676.337 323.673 677.151 324 678 324C678.849 324 679.663 323.673 680.263 323.092C680.863 322.511 681.2 321.722 681.2 320.9V311.6H690.8C691.649 311.6 692.463 311.273 693.063 310.692C693.663 310.111 694 309.322 694 308.5C694 307.678 693.663 306.889 693.063 306.308C692.463 305.727 691.649 305.4 690.8 305.4Z" fill="white"/>
<g id="Group_2" opacity="0.4">
<path id="Vector_37" opacity="0.4" d="M106.937 344.84C109.553 344.84 111.674 342.798 111.674 340.278C111.674 337.759 109.553 335.717 106.937 335.717C104.321 335.717 102.2 337.759 102.2 340.278C102.2 342.798 104.321 344.84 106.937 344.84Z" fill="white"/>
<path id="Vector_38" opacity="0.4" d="M106.937 325.833C109.553 325.833 111.674 323.791 111.674 321.272C111.674 318.752 109.553 316.71 106.937 316.71C104.321 316.71 102.2 318.752 102.2 321.272C102.2 323.791 104.321 325.833 106.937 325.833Z" fill="white"/>
<path id="Vector_39" opacity="0.4" d="M106.937 306.826C109.553 306.826 111.674 304.784 111.674 302.265C111.674 299.745 109.553 297.703 106.937 297.703C104.321 297.703 102.2 299.745 102.2 302.265C102.2 304.784 104.321 306.826 106.937 306.826Z" fill="white"/>
<path id="Vector_40" opacity="0.4" d="M106.937 287.818C109.553 287.818 111.674 285.776 111.674 283.257C111.674 280.738 109.553 278.695 106.937 278.695C104.321 278.695 102.2 280.738 102.2 283.257C102.2 285.776 104.321 287.818 106.937 287.818Z" fill="white"/>
<path id="Vector_41" opacity="0.4" d="M106.937 268.813C109.553 268.813 111.674 266.77 111.674 264.251C111.674 261.732 109.553 259.689 106.937 259.689C104.321 259.689 102.2 261.732 102.2 264.251C102.2 266.77 104.321 268.813 106.937 268.813Z" fill="white"/>
<path id="Vector_42" opacity="0.4" d="M106.937 249.806C109.553 249.806 111.674 247.764 111.674 245.244C111.674 242.725 109.553 240.683 106.937 240.683C104.321 240.683 102.2 242.725 102.2 245.244C102.2 247.764 104.321 249.806 106.937 249.806Z" fill="white"/>
<path id="Vector_43" opacity="0.4" d="M106.937 230.8C109.553 230.8 111.674 228.758 111.674 226.238C111.674 223.719 109.553 221.677 106.937 221.677C104.321 221.677 102.2 223.719 102.2 226.238C102.2 228.758 104.321 230.8 106.937 230.8Z" fill="white"/>
<path id="Vector_44" opacity="0.4" d="M121.937 344.84C124.553 344.84 126.674 342.798 126.674 340.278C126.674 337.759 124.553 335.717 121.937 335.717C119.321 335.717 117.2 337.759 117.2 340.278C117.2 342.798 119.321 344.84 121.937 344.84Z" fill="white"/>
<path id="Vector_45" opacity="0.4" d="M121.937 325.833C124.553 325.833 126.674 323.791 126.674 321.272C126.674 318.752 124.553 316.71 121.937 316.71C119.321 316.71 117.2 318.752 117.2 321.272C117.2 323.791 119.321 325.833 121.937 325.833Z" fill="white"/>
<path id="Vector_46" opacity="0.4" d="M121.937 306.826C124.553 306.826 126.674 304.784 126.674 302.265C126.674 299.745 124.553 297.703 121.937 297.703C119.321 297.703 117.2 299.745 117.2 302.265C117.2 304.784 119.321 306.826 121.937 306.826Z" fill="white"/>
<path id="Vector_47" opacity="0.4" d="M121.937 287.818C124.553 287.818 126.674 285.776 126.674 283.257C126.674 280.738 124.553 278.695 121.937 278.695C119.321 278.695 117.2 280.738 117.2 283.257C117.2 285.776 119.321 287.818 121.937 287.818Z" fill="white"/>
<path id="Vector_48" opacity="0.4" d="M121.937 268.813C124.553 268.813 126.674 266.77 126.674 264.251C126.674 261.732 124.553 259.689 121.937 259.689C119.321 259.689 117.2 261.732 117.2 264.251C117.2 266.77 119.321 268.813 121.937 268.813Z" fill="white"/>
<path id="Vector_49" opacity="0.4" d="M121.937 249.806C124.553 249.806 126.674 247.764 126.674 245.244C126.674 242.725 124.553 240.683 121.937 240.683C119.321 240.683 117.2 242.725 117.2 245.244C117.2 247.764 119.321 249.806 121.937 249.806Z" fill="white"/>
<path id="Vector_50" opacity="0.4" d="M121.937 230.8C124.553 230.8 126.674 228.758 126.674 226.238C126.674 223.719 124.553 221.677 121.937 221.677C119.321 221.677 117.2 223.719 117.2 226.238C117.2 228.758 119.321 230.8 121.937 230.8Z" fill="white"/>
<path id="Vector_51" opacity="0.4" d="M136.937 344.84C139.553 344.84 141.674 342.798 141.674 340.278C141.674 337.759 139.553 335.717 136.937 335.717C134.321 335.717 132.2 337.759 132.2 340.278C132.2 342.798 134.321 344.84 136.937 344.84Z" fill="white"/>
<path id="Vector_52" opacity="0.4" d="M136.937 325.833C139.553 325.833 141.674 323.791 141.674 321.272C141.674 318.752 139.553 316.71 136.937 316.71C134.321 316.71 132.2 318.752 132.2 321.272C132.2 323.791 134.321 325.833 136.937 325.833Z" fill="white"/>
<path id="Vector_53" opacity="0.4" d="M136.937 306.826C139.553 306.826 141.674 304.784 141.674 302.265C141.674 299.745 139.553 297.703 136.937 297.703C134.321 297.703 132.2 299.745 132.2 302.265C132.2 304.784 134.321 306.826 136.937 306.826Z" fill="white"/>
<path id="Vector_54" opacity="0.4" d="M136.937 287.818C139.553 287.818 141.674 285.776 141.674 283.257C141.674 280.738 139.553 278.695 136.937 278.695C134.321 278.695 132.2 280.738 132.2 283.257C132.2 285.776 134.321 287.818 136.937 287.818Z" fill="white"/>
<path id="Vector_55" opacity="0.4" d="M136.937 268.813C139.553 268.813 141.674 266.77 141.674 264.251C141.674 261.732 139.553 259.689 136.937 259.689C134.321 259.689 132.2 261.732 132.2 264.251C132.2 266.77 134.321 268.813 136.937 268.813Z" fill="white"/>
<path id="Vector_56" opacity="0.4" d="M136.937 249.806C139.553 249.806 141.674 247.764 141.674 245.244C141.674 242.725 139.553 240.683 136.937 240.683C134.321 240.683 132.2 242.725 132.2 245.244C132.2 247.764 134.321 249.806 136.937 249.806Z" fill="white"/>
<path id="Vector_57" opacity="0.4" d="M136.937 230.8C139.553 230.8 141.674 228.758 141.674 226.238C141.674 223.719 139.553 221.677 136.937 221.677C134.321 221.677 132.2 223.719 132.2 226.238C132.2 228.758 134.321 230.8 136.937 230.8Z" fill="white"/>
<path id="Vector_58" opacity="0.4" d="M151.937 344.84C154.553 344.84 156.674 342.798 156.674 340.278C156.674 337.759 154.553 335.717 151.937 335.717C149.321 335.717 147.2 337.759 147.2 340.278C147.2 342.798 149.321 344.84 151.937 344.84Z" fill="white"/>
<path id="Vector_59" opacity="0.4" d="M151.937 325.833C154.553 325.833 156.674 323.791 156.674 321.272C156.674 318.752 154.553 316.71 151.937 316.71C149.321 316.71 147.2 318.752 147.2 321.272C147.2 323.791 149.321 325.833 151.937 325.833Z" fill="white"/>
<path id="Vector_60" opacity="0.4" d="M166.937 344.84C169.553 344.84 171.674 342.798 171.674 340.278C171.674 337.759 169.553 335.717 166.937 335.717C164.321 335.717 162.2 337.759 162.2 340.278C162.2 342.798 164.321 344.84 166.937 344.84Z" fill="white"/>
<path id="Vector_61" opacity="0.4" d="M166.937 325.833C169.553 325.833 171.674 323.791 171.674 321.272C171.674 318.752 169.553 316.71 166.937 316.71C164.321 316.71 162.2 318.752 162.2 321.272C162.2 323.791 164.321 325.833 166.937 325.833Z" fill="white"/>
<path id="Vector_62" opacity="0.4" d="M166.937 306.826C169.553 306.826 171.674 304.784 171.674 302.265C171.674 299.745 169.553 297.703 166.937 297.703C164.321 297.703 162.2 299.745 162.2 302.265C162.2 304.784 164.321 306.826 166.937 306.826Z" fill="white"/>
<path id="Vector_63" opacity="0.4" d="M151.937 306.826C154.553 306.826 156.674 304.784 156.674 302.265C156.674 299.745 154.553 297.703 151.937 297.703C149.321 297.703 147.2 299.745 147.2 302.265C147.2 304.784 149.321 306.826 151.937 306.826Z" fill="white"/>
<path id="Vector_64" opacity="0.4" d="M151.937 287.818C154.553 287.818 156.674 285.776 156.674 283.257C156.674 280.738 154.553 278.695 151.937 278.695C149.321 278.695 147.2 280.738 147.2 283.257C147.2 285.776 149.321 287.818 151.937 287.818Z" fill="white"/>
<path id="Vector_65" opacity="0.4" d="M151.937 268.813C154.553 268.813 156.674 266.77 156.674 264.251C156.674 261.732 154.553 259.689 151.937 259.689C149.321 259.689 147.2 261.732 147.2 264.251C147.2 266.77 149.321 268.813 151.937 268.813Z" fill="white"/>
<path id="Vector_66" opacity="0.4" d="M151.937 249.806C154.553 249.806 156.674 247.764 156.674 245.244C156.674 242.725 154.553 240.683 151.937 240.683C149.321 240.683 147.2 242.725 147.2 245.244C147.2 247.764 149.321 249.806 151.937 249.806Z" fill="white"/>
<path id="Vector_67" opacity="0.4" d="M151.937 230.8C154.553 230.8 156.674 228.758 156.674 226.238C156.674 223.719 154.553 221.677 151.937 221.677C149.321 221.677 147.2 223.719 147.2 226.238C147.2 228.758 149.321 230.8 151.937 230.8Z" fill="white"/>
</g>
<path id="Vector_68" d="M525.159 30H209.841C208.292 30.0015 206.808 30.5948 205.712 31.6498C204.617 32.7047 204.002 34.1351 204 35.627V295.373C204.002 296.865 204.617 298.295 205.712 299.35C206.808 300.405 208.292 300.998 209.841 301H525.159C526.708 300.999 528.192 300.405 529.287 299.35C530.383 298.295 530.998 296.865 531 295.373V35.627C530.998 34.1351 530.383 32.7047 529.287 31.6498C528.192 30.5948 526.708 30.0015 525.159 30ZM528.659 295.373C528.659 296.268 528.29 297.127 527.634 297.761C526.978 298.395 526.088 298.752 525.159 298.756H209.841C208.911 298.754 208.02 298.397 207.364 297.763C206.707 297.128 206.339 296.269 206.341 295.373V35.627C206.339 34.7313 206.707 33.8717 207.364 33.2374C208.02 32.6031 208.911 32.2459 209.841 32.2444H525.159C526.088 32.2477 526.978 32.6054 527.634 33.2393C528.29 33.8733 528.659 34.7318 528.659 35.627V295.373Z" fill="#3F3D56"/>
<path id="Vector_69" d="M283 254.51C283 254.903 282.989 255.296 282.967 255.679C282.646 261.434 279.981 266.854 275.522 270.821C271.062 274.788 265.148 277 259 277C252.852 277 246.938 274.788 242.478 270.821C238.019 266.854 235.354 261.434 235.033 255.679C235.011 255.296 235 254.903 235 254.51C234.998 251.554 235.617 248.628 236.823 245.897C238.028 243.166 239.795 240.684 242.024 238.594C244.253 236.503 246.899 234.845 249.812 233.714C252.725 232.582 255.847 232 259 232C262.153 232 265.275 232.582 268.188 233.714C271.101 234.845 273.747 236.503 275.976 238.594C278.205 240.684 279.972 243.166 281.177 245.897C282.383 248.628 283.002 251.554 283 254.51Z" fill="white"/>
<path id="Vector_70" d="M500.057 239H313.943C312.896 239.002 311.894 239.424 311.154 240.174C310.415 240.924 310 241.94 310 243C310 244.06 310.415 245.076 311.154 245.826C311.894 246.576 312.896 246.998 313.943 247H500.057C501.104 246.998 502.106 246.576 502.846 245.826C503.585 245.076 504 244.06 504 243C504 241.94 503.585 240.924 502.846 240.174C502.106 239.424 501.104 239.002 500.057 239Z" fill="#3F3D56"/>
<path id="Vector_71" d="M394.055 261H313.944C312.898 261 311.895 261.474 311.155 262.318C310.416 263.162 310 264.307 310 265.5C310 266.693 310.416 267.838 311.155 268.682C311.895 269.526 312.898 270 313.944 270H394.055C395.102 270 396.105 269.526 396.845 268.682C397.584 267.838 398 266.693 398 265.5C398 264.307 397.584 263.162 396.845 262.318C396.105 261.474 395.102 261 394.055 261Z" fill="white"/>
<path id="Vector_72" d="M599.935 212H285.065C282.927 211.998 280.877 211.182 279.365 209.731C277.853 208.281 277.002 206.315 277 204.264V71.7359C277.002 69.685 277.853 67.7188 279.365 66.2685C280.877 64.8182 282.927 64.0024 285.065 64H599.935C602.073 64.0024 604.123 64.8182 605.635 66.2685C607.147 67.7188 607.998 69.685 608 71.7359V204.264C607.998 206.315 607.147 208.281 605.635 209.731C604.123 211.182 602.073 211.998 599.935 212ZM285.065 66.7146C283.677 66.7161 282.347 67.2457 281.365 68.1871C280.384 69.1284 279.832 70.4047 279.83 71.7359V204.264C279.832 205.595 280.384 206.871 281.365 207.813C282.347 208.754 283.677 209.284 285.065 209.285H599.935C601.323 209.284 602.653 208.754 603.635 207.813C604.616 206.871 605.168 205.595 605.17 204.264V71.7359C605.168 70.4047 604.616 69.1284 603.635 68.1871C602.653 67.2457 601.323 66.7161 599.935 66.7146H285.065Z" fill="white"/>
<path id="Vector_73" d="M348.968 112C347.916 112 346.906 112.421 346.162 113.172C345.418 113.922 345 114.939 345 116C345 117.061 345.418 118.078 346.162 118.828C346.906 119.579 347.916 120 348.968 120H536.032C537.084 120 538.094 119.579 538.838 118.828C539.582 118.078 540 117.061 540 116C540 114.939 539.582 113.922 538.838 113.172C538.094 112.421 537.084 112 536.032 112H348.968Z" fill="white"/>
<path id="Vector_74" d="M348.968 134C347.916 134 346.906 134.421 346.162 135.172C345.418 135.922 345 136.939 345 138C345 139.061 345.418 140.078 346.162 140.828C346.906 141.579 347.916 142 348.968 142H536.038C537.089 141.998 538.097 141.576 538.84 140.826C539.583 140.076 540 139.06 540 138C540 136.94 539.583 135.924 538.84 135.174C538.097 134.424 537.089 134.002 536.038 134H348.968Z" fill="white"/>
<path id="Vector_75" d="M348.949 156C347.902 156 346.897 156.369 346.157 157.025C345.416 157.682 345 158.572 345 159.5C345 160.428 345.416 161.318 346.157 161.975C346.897 162.631 347.902 163 348.949 163H429.057C430.103 162.999 431.106 162.629 431.846 161.973C432.585 161.317 433 160.427 433 159.5C433 158.573 432.585 157.683 431.846 157.027C431.106 156.371 430.103 156.001 429.057 156H348.949Z" fill="white"/>
<path id="Vector_76" d="M651.742 268.841L620.446 225.689L630.577 227.752C630.757 227.788 630.943 227.79 631.124 227.756C631.305 227.723 631.477 227.655 631.631 227.556C631.785 227.458 631.918 227.331 632.021 227.182C632.125 227.033 632.197 226.866 632.235 226.69C632.273 226.514 632.274 226.333 632.24 226.156C632.206 225.979 632.136 225.811 632.035 225.661C631.934 225.51 631.804 225.381 631.652 225.279C631.5 225.178 631.329 225.107 631.149 225.071L616.051 222L614.013 236.933C613.988 237.111 613.999 237.293 614.046 237.467C614.093 237.641 614.175 237.804 614.287 237.948C614.399 238.091 614.539 238.211 614.698 238.302C614.858 238.392 615.034 238.451 615.217 238.475C615.399 238.498 615.585 238.487 615.763 238.44C615.941 238.394 616.108 238.313 616.255 238.204C616.401 238.094 616.524 237.957 616.616 237.801C616.708 237.645 616.768 237.473 616.791 237.294L618.158 227.267L649.457 270.423C649.564 270.57 649.698 270.694 649.854 270.79C650.01 270.886 650.183 270.95 650.364 270.981C650.546 271.011 650.731 271.006 650.911 270.966C651.09 270.926 651.259 270.852 651.409 270.748C651.559 270.644 651.687 270.513 651.785 270.36C651.883 270.208 651.949 270.039 651.98 269.862C652.011 269.685 652.006 269.503 651.965 269.328C651.924 269.153 651.849 268.988 651.742 268.841Z" fill="white"/>
<path id="Vector_77" d="M479.839 393H255.161C254.058 392.999 253 392.574 252.22 391.819C251.44 391.064 251.001 390.04 251 388.973V335.027C251.001 333.96 251.44 332.936 252.22 332.181C253 331.426 254.058 331.001 255.161 331H479.839C480.942 331.001 482 331.426 482.78 332.181C483.56 332.936 483.999 333.96 484 335.027V388.973C483.999 390.04 483.56 391.064 482.78 391.819C482 392.574 480.942 392.999 479.839 393ZM255.161 332.611C254.499 332.612 253.864 332.866 253.396 333.319C252.928 333.772 252.665 334.387 252.664 335.027V388.973C252.665 389.613 252.928 390.228 253.396 390.681C253.864 391.134 254.499 391.388 255.161 391.389H479.839C480.501 391.388 481.136 391.134 481.604 390.681C482.072 390.228 482.335 389.613 482.336 388.973V335.027C482.335 334.387 482.072 333.772 481.604 333.319C481.136 332.866 480.501 332.612 479.839 332.611H255.161Z" fill="#3F3D56"/>
<path id="Vector_78" d="M290 377C299.389 377 307 369.613 307 360.5C307 351.387 299.389 344 290 344C280.611 344 273 351.387 273 360.5C273 369.613 280.611 377 290 377Z" fill="white"/>
<path id="Vector_79" d="M329.813 350C329.444 349.999 329.078 350.064 328.737 350.189C328.396 350.314 328.086 350.498 327.824 350.731C327.563 350.963 327.356 351.239 327.214 351.542C327.073 351.846 327 352.171 327 352.5C327 352.829 327.073 353.154 327.214 353.458C327.356 353.761 327.563 354.037 327.824 354.269C328.086 354.502 328.396 354.686 328.737 354.811C329.078 354.936 329.444 355.001 329.813 355H462.192C462.937 355 463.651 354.737 464.178 354.268C464.704 353.799 465 353.163 465 352.5C465 351.837 464.704 351.201 464.178 350.732C463.651 350.263 462.937 350 462.192 350H329.813Z" fill="white"/>
<path id="Vector_80" d="M329.787 366C329.421 365.999 329.059 366.064 328.721 366.189C328.383 366.314 328.075 366.498 327.817 366.731C327.558 366.963 327.352 367.239 327.212 367.542C327.072 367.846 327 368.171 327 368.5C327 368.829 327.072 369.154 327.212 369.458C327.352 369.761 327.558 370.037 327.817 370.269C328.075 370.502 328.383 370.686 328.721 370.811C329.059 370.936 329.421 371.001 329.787 371H386.218C386.956 371 387.664 370.737 388.185 370.268C388.707 369.799 389 369.163 389 368.5C389 367.837 388.707 367.201 388.185 366.732C387.664 366.263 386.956 366 386.218 366H329.787Z" fill="white"/>
<path id="Vector_81" d="M776.154 202H875.846C876.947 202.001 878.003 202.427 878.782 203.184C879.561 203.941 879.999 204.967 880 206.038V306.962C879.999 308.033 879.561 309.059 878.782 309.816C878.003 310.573 876.947 310.999 875.846 311H776.154C775.053 310.999 773.997 310.573 773.218 309.816C772.439 309.059 772.001 308.033 772 306.962V206.038C772.001 204.967 772.439 203.941 773.218 203.184C773.997 202.427 775.053 202.001 776.154 202ZM875.846 309.385C876.507 309.384 877.14 309.129 877.608 308.675C878.075 308.22 878.338 307.605 878.338 306.962V206.038C878.338 205.395 878.075 204.78 877.608 204.325C877.14 203.871 876.507 203.616 875.846 203.615H776.154C775.493 203.616 774.86 203.871 774.392 204.325C773.925 204.78 773.662 205.395 773.662 206.038V306.962C773.662 307.605 773.925 308.22 774.392 308.675C774.86 309.129 775.493 309.384 776.154 309.385H875.846Z" fill="#3F3D56"/>
<path id="Vector_82" d="M855.173 290C855.923 290 856.642 289.684 857.172 289.121C857.702 288.559 858 287.796 858 287C858 286.204 857.702 285.441 857.172 284.879C856.642 284.316 855.923 284 855.173 284H797.827C797.077 284 796.358 284.316 795.828 284.879C795.298 285.441 795 286.204 795 287C795 287.796 795.298 288.559 795.828 289.121C796.358 289.684 797.077 290 797.827 290H855.173Z" fill="white"/>
<path id="Vector_83" d="M855.168 273C855.54 273.001 855.908 272.936 856.252 272.811C856.595 272.686 856.907 272.502 857.17 272.269C857.433 272.037 857.642 271.761 857.784 271.458C857.927 271.154 858 270.829 858 270.5C858 270.171 857.927 269.846 857.784 269.542C857.642 269.239 857.433 268.963 857.17 268.731C856.907 268.498 856.595 268.314 856.252 268.189C855.908 268.064 855.54 267.999 855.168 268H797.832C797.46 267.999 797.092 268.064 796.748 268.189C796.405 268.314 796.093 268.498 795.83 268.731C795.567 268.963 795.358 269.239 795.216 269.542C795.073 269.846 795 270.171 795 270.5C795 270.829 795.073 271.154 795.216 271.458C795.358 271.761 795.567 272.037 795.83 272.269C796.093 272.502 796.405 272.686 796.748 272.811C797.092 272.936 797.46 273.001 797.832 273H855.168Z" fill="white"/>
<path id="Vector_84" d="M826.5 222C829.961 222 833.345 223.026 836.222 224.949C839.1 226.872 841.343 229.605 842.668 232.803C843.992 236.001 844.339 239.519 843.664 242.914C842.988 246.309 841.322 249.427 838.874 251.874C836.427 254.322 833.309 255.988 829.914 256.664C826.519 257.339 823.001 256.992 819.803 255.668C816.605 254.343 813.872 252.1 811.949 249.222C810.026 246.345 809 242.961 809 239.5C809.005 234.86 810.851 230.412 814.131 227.131C817.412 223.851 821.86 222.005 826.5 222Z" fill="white"/>
<g id="man">
<path id="Vector_85" d="M135.634 246.867C134.449 246.423 133.376 245.726 132.491 244.822C131.605 243.919 130.928 242.833 130.507 241.64C130.087 240.447 129.933 239.177 130.057 237.918C130.181 236.659 130.579 235.443 131.224 234.354L111.369 210.877L127.234 208.98L143.656 231.565C145.412 232.77 146.666 234.576 147.179 236.643C147.693 238.71 147.43 240.893 146.441 242.779C145.452 244.665 143.806 246.123 141.814 246.877C139.822 247.63 137.623 247.627 135.634 246.867Z" fill="#FFB6B6"/>
<path id="Vector_86" d="M53.8923 466.903L64.4402 466.902L69.459 426.215L53.8896 426.216L53.8923 466.903Z" fill="#FFB6B6"/>
<path id="Vector_87" d="M51.2012 463.459H54.1703L65.7622 458.745L71.9751 463.459H71.976C75.487 463.459 78.8542 464.854 81.3369 467.336C83.8196 469.819 85.2145 473.186 85.2147 476.697V477.127L51.2018 477.129L51.2012 463.459Z" fill="#2F2E41"/>
<path id="Vector_88" d="M94.77 460.256L105.06 462.579L118.917 423.996L103.73 420.567L94.77 460.256Z" fill="#FFB6B6"/>
<path id="Vector_89" d="M92.9037 456.303L95.7999 456.957L108.146 454.912L113.168 460.878V460.879C116.593 461.652 119.57 463.754 121.445 466.723C123.32 469.691 123.939 473.283 123.166 476.708L123.071 477.128L89.8933 469.637L92.9037 456.303Z" fill="#2F2E41"/>
<path id="Vector_90" d="M34.5806 257.614L44.1194 364.486C44.1194 364.486 40.5453 428.647 52.0783 451.224H68.8041L77.0854 358.626L78.1253 296.474L113.984 348.91L91.1445 449.711L111.73 451.551L148.792 342.159L108.075 239.465L34.5806 257.614Z" fill="#2F2E41"/>
<path id="Vector_91" d="M44.5707 87.4227C58.1569 87.4227 69.1707 76.4089 69.1707 62.8227C69.1707 49.2365 58.1569 38.2227 44.5707 38.2227C30.9845 38.2227 19.9707 49.2365 19.9707 62.8227C19.9707 76.4089 30.9845 87.4227 44.5707 87.4227Z" fill="#FFB8B8"/>
<path id="Vector_92" d="M96.2134 110.865L67.634 102.206L63.9148 90.7686L33.2664 95.7433L26.7546 106.909L5.6748 126.51L30.3722 238.179L29.6246 262.569C29.6246 262.569 45.4316 269.685 113.984 253.301C114.806 253.105 113.085 252.244 113.085 252.244L96.2134 110.865Z" fill="#3F3D56"/>
<path id="Vector_93" d="M123.355 233.961L89.8533 189.099L80.3557 109.592L80.6328 109.458C83.2267 108.209 86.0903 107.625 88.9661 107.758C91.8419 107.89 94.6396 108.736 97.1074 110.219C99.5752 111.701 101.636 113.774 103.104 116.25C104.571 118.727 105.4 121.53 105.516 124.406L107.491 173.537L140.763 217.445L123.355 233.961Z" fill="#3F3D56"/>
<path id="Vector_94" d="M18.9904 76.7819C18.819 76.548 18.6493 76.3121 18.4812 76.0742C18.4136 76.217 18.3598 76.3646 18.2825 76.5041L18.9904 76.7819Z" fill="#2F2E41"/>
<path id="Vector_95" d="M69.0413 44.8288C67.397 41.2467 64.4651 38.4143 60.8283 36.8945C57.2236 35.4406 53.195 35.4441 49.5929 36.9043C46.3407 34.8496 42.7272 33.2207 38.9217 33.0189C35.1162 32.8171 31.0927 34.229 28.7476 37.3367C28.2239 38.1571 27.629 38.9298 26.97 39.646C25.0849 41.3917 22.2201 41.1399 19.7144 40.783C20.8383 41.7462 21.9624 42.7093 23.0868 43.6725C21.7264 44.0279 20.3659 44.3833 19.0053 44.7387C20.5929 45.7016 22.1804 46.6645 23.7678 47.6273C19.159 50.3936 17.0643 56.4314 17.6176 61.9149C18.1411 67.1066 20.6476 71.854 23.6439 76.0736C24.8392 73.5513 24.5816 70.5332 24.5618 67.6923C24.5413 64.6907 25.0723 61.2822 27.4775 59.6047C29.1 58.473 31.1864 58.4225 33.1429 58.4332C43.012 58.4874 52.8701 59.1028 62.6693 60.2765C63.999 60.3341 65.2955 60.7101 66.4496 61.3729C68.6166 62.8513 69.0388 65.9022 69.2564 68.5788C70.4013 64.1593 70.9617 59.6089 70.9231 55.0437C71.0194 51.5445 70.3783 48.0641 69.0413 44.8288Z" fill="#2F2E41"/>
<path id="Vector_96" d="M66.6225 343.449C88.0063 343.449 105.341 326.114 105.341 304.73C105.341 283.347 88.0063 266.012 66.6225 266.012C45.2388 266.012 27.9038 283.347 27.9038 304.73C27.9038 326.114 45.2388 343.449 66.6225 343.449Z" fill="#F0F0F0"/>
<path id="Vector_97" d="M66.6224 265.151C64.6321 265.152 62.6447 265.301 60.6768 265.599C59.6702 265.745 58.6896 265.934 57.717 266.167C50.5741 267.813 44.0291 271.412 38.8123 276.561C33.5954 281.711 29.912 288.208 28.1728 295.329C26.4336 302.45 26.7072 309.914 28.9629 316.889C31.2187 323.863 35.3679 330.074 40.9477 334.828C41.6102 335.387 42.2812 335.929 42.9782 336.445C48.0013 340.191 53.842 342.689 60.0196 343.736C66.1972 344.783 72.5351 344.348 78.5117 342.467C84.4883 340.586 89.9327 337.312 94.397 332.916C98.8612 328.519 102.218 323.125 104.19 317.178C106.162 311.231 106.694 304.901 105.742 298.708C104.79 292.515 102.38 286.637 98.7122 281.557C95.0442 276.477 90.2223 272.341 84.6434 269.489C79.0645 266.637 72.8881 265.15 66.6224 265.151ZM66.6224 342.589C58.5725 342.597 50.7318 340.025 44.2516 335.249C43.5462 334.733 42.8664 334.2 42.2039 333.632C36.7677 329.046 32.734 323.021 30.5656 316.247C28.3971 309.474 28.1817 302.226 29.9441 295.336C31.7064 288.446 35.3751 282.192 40.5294 277.291C45.6837 272.391 52.1149 269.042 59.0853 267.629C60.0487 267.431 61.0125 267.277 61.9935 267.156C63.5291 266.966 65.075 266.871 66.6224 266.872C76.663 266.872 86.2925 270.861 93.3923 277.961C100.492 285.06 104.481 294.69 104.481 304.731C104.481 314.771 100.492 324.401 93.3923 331.5C86.2925 338.6 76.663 342.589 66.6224 342.589Z" fill="#3F3D56"/>
<path id="Vector_98" d="M47.6934 296.986H85.5517C86.9773 296.986 88.1329 295.831 88.1329 294.405C88.1329 292.979 86.9773 291.824 85.5517 291.824H47.6934C46.2678 291.824 45.1121 292.979 45.1121 294.405C45.1121 295.831 46.2678 296.986 47.6934 296.986Z" fill="#E10032"/>
<path id="Vector_99" d="M47.6934 307.312H85.5517C86.9773 307.312 88.1329 306.156 88.1329 304.73C88.1329 303.305 86.9773 302.149 85.5517 302.149H47.6934C46.2678 302.149 45.1121 303.305 45.1121 304.73C45.1121 306.156 46.2678 307.312 47.6934 307.312Z" fill="#E10032"/>
<path id="Vector_100" d="M47.6934 317.637H85.5517C86.9773 317.637 88.1329 316.481 88.1329 315.055C88.1329 313.63 86.9773 312.474 85.5517 312.474H47.6934C46.2678 312.474 45.1121 313.63 45.1121 315.055C45.1121 316.481 46.2678 317.637 47.6934 317.637Z" fill="#E10032"/>
<path id="Vector_101" d="M69.1004 277.003C67.8503 276.81 66.6577 276.345 65.6067 275.641C64.5556 274.938 63.6716 274.012 63.017 272.93C62.3624 271.847 61.9531 270.635 61.8178 269.377C61.6826 268.119 61.8247 266.847 62.2342 265.651L38.0144 246.709L53.1602 241.621L73.8377 260.388C75.8026 261.209 77.398 262.723 78.3216 264.642C79.2451 266.561 79.4327 268.752 78.8488 270.8C78.2648 272.848 76.9499 274.61 75.1532 275.753C73.3565 276.897 71.2028 277.341 69.1003 277.003H69.1004Z" fill="#FFB6B6"/>
<path id="Vector_102" d="M20.5904 126.193L5.67507 126.51C2.74912 129.205 0.420726 132.483 -1.15983 136.134C-2.74039 139.785 -3.53801 143.726 -3.50122 147.704V218.18L52.4672 264.973L70.565 247.448L28.9071 202.062L20.5904 126.193Z" fill="#3F3D56"/>
<path id="Vector_103" d="M213.979 477.838H-83.9785C-84.2497 477.837 -84.5095 477.729 -84.701 477.537C-84.8925 477.345 -85 477.085 -85 476.814C-85 476.542 -84.8925 476.282 -84.701 476.09C-84.5095 475.898 -84.2497 475.79 -83.9785 475.789H213.979C214.25 475.79 214.51 475.898 214.701 476.09C214.893 476.282 215 476.542 215 476.814C215 477.085 214.893 477.345 214.701 477.537C214.51 477.729 214.25 477.837 213.979 477.838Z" fill="#CACACA"/>
</g>
</g>
</g>
<defs>
<clipPath id="clip0">
<rect width="980" height="490" fill="white"/>
</clipPath>
</defs>
</svg>
