<svg width="788" height="454" viewBox="0 0 788 454" fill="none" xmlns="http://www.w3.org/2000/svg">
<g id="meeting-1 1" clip-path="url(#clip0)">
<path id="Vector" d="M406.691 12.9338C410.263 12.9338 413.158 10.0385 413.158 6.46689C413.158 2.89533 410.263 0 406.691 0C403.12 0 400.224 2.89533 400.224 6.46689C400.224 10.0385 403.12 12.9338 406.691 12.9338Z" fill="#F2F2F2"/>
<path id="Vector_2" d="M406.691 38.7072C410.263 38.7072 413.158 35.8119 413.158 32.2403C413.158 28.6688 410.263 25.7734 406.691 25.7734C403.12 25.7734 400.224 28.6688 400.224 32.2403C400.224 35.8119 403.12 38.7072 406.691 38.7072Z" fill="#F2F2F2"/>
<path id="Vector_3" d="M433.691 12.9338C437.263 12.9338 440.158 10.0385 440.158 6.46689C440.158 2.89533 437.263 0 433.691 0C430.12 0 427.224 2.89533 427.224 6.46689C427.224 10.0385 430.12 12.9338 433.691 12.9338Z" fill="#F2F2F2"/>
<path id="Vector_4" d="M433.691 38.7072C437.263 38.7072 440.158 35.8119 440.158 32.2403C440.158 28.6688 437.263 25.7734 433.691 25.7734C430.12 25.7734 427.224 28.6688 427.224 32.2403C427.224 35.8119 430.12 38.7072 433.691 38.7072Z" fill="#F2F2F2"/>
<path id="Vector_5" d="M460.691 12.9338C464.263 12.9338 467.158 10.0385 467.158 6.46689C467.158 2.89533 464.263 0 460.691 0C457.12 0 454.224 2.89533 454.224 6.46689C454.224 10.0385 457.12 12.9338 460.691 12.9338Z" fill="#F2F2F2"/>
<path id="Vector_6" d="M460.691 38.7072C464.263 38.7072 467.158 35.8119 467.158 32.2403C467.158 28.6688 464.263 25.7734 460.691 25.7734C457.12 25.7734 454.224 28.6688 454.224 32.2403C454.224 35.8119 457.12 38.7072 460.691 38.7072Z" fill="#F2F2F2"/>
<path id="Vector_7" d="M460.691 64.4807C464.263 64.4807 467.158 61.5853 467.158 58.0138C467.158 54.4422 464.263 51.5469 460.691 51.5469C457.12 51.5469 454.224 54.4422 454.224 58.0138C454.224 61.5853 457.12 64.4807 460.691 64.4807Z" fill="#F2F2F2"/>
<path id="Vector_8" d="M460.691 90.2541C464.263 90.2541 467.158 87.3588 467.158 83.7872C467.158 80.2156 464.263 77.3203 460.691 77.3203C457.12 77.3203 454.224 80.2156 454.224 83.7872C454.224 87.3588 457.12 90.2541 460.691 90.2541Z" fill="#F2F2F2"/>
<path id="Vector_9" d="M487.691 12.9338C491.263 12.9338 494.158 10.0385 494.158 6.46689C494.158 2.89533 491.263 0 487.691 0C484.12 0 481.224 2.89533 481.224 6.46689C481.224 10.0385 484.12 12.9338 487.691 12.9338Z" fill="#F2F2F2"/>
<path id="Vector_10" d="M487.691 38.7072C491.263 38.7072 494.158 35.8119 494.158 32.2403C494.158 28.6688 491.263 25.7734 487.691 25.7734C484.12 25.7734 481.224 28.6688 481.224 32.2403C481.224 35.8119 484.12 38.7072 487.691 38.7072Z" fill="#F2F2F2"/>
<path id="Vector_11" d="M487.691 64.4807C491.263 64.4807 494.158 61.5853 494.158 58.0138C494.158 54.4422 491.263 51.5469 487.691 51.5469C484.12 51.5469 481.224 54.4422 481.224 58.0138C481.224 61.5853 484.12 64.4807 487.691 64.4807Z" fill="#F2F2F2"/>
<path id="Vector_12" d="M487.691 90.2541C491.263 90.2541 494.158 87.3588 494.158 83.7872C494.158 80.2156 491.263 77.3203 487.691 77.3203C484.12 77.3203 481.224 80.2156 481.224 83.7872C481.224 87.3588 484.12 90.2541 487.691 90.2541Z" fill="#F2F2F2"/>
<path id="Vector_13" d="M514.691 12.9338C518.263 12.9338 521.158 10.0385 521.158 6.46689C521.158 2.89533 518.263 0 514.691 0C511.12 0 508.224 2.89533 508.224 6.46689C508.224 10.0385 511.12 12.9338 514.691 12.9338Z" fill="#F2F2F2"/>
<path id="Vector_14" d="M514.691 38.7072C518.263 38.7072 521.158 35.8119 521.158 32.2403C521.158 28.6688 518.263 25.7734 514.691 25.7734C511.12 25.7734 508.224 28.6688 508.224 32.2403C508.224 35.8119 511.12 38.7072 514.691 38.7072Z" fill="#F2F2F2"/>
<path id="Vector_15" d="M541.691 12.9338C545.263 12.9338 548.158 10.0385 548.158 6.46689C548.158 2.89533 545.263 0 541.691 0C538.12 0 535.225 2.89533 535.225 6.46689C535.225 10.0385 538.12 12.9338 541.691 12.9338Z" fill="#F2F2F2"/>
<path id="Vector_16" d="M541.691 38.7072C545.263 38.7072 548.158 35.8119 548.158 32.2403C548.158 28.6688 545.263 25.7734 541.691 25.7734C538.12 25.7734 535.225 28.6688 535.225 32.2403C535.225 35.8119 538.12 38.7072 541.691 38.7072Z" fill="#F2F2F2"/>
<path id="Vector_17" d="M739.114 341.259H691.105C691.105 342.639 641.625 343.759 641.625 343.759C640.848 344.344 640.14 345.015 639.515 345.759C637.635 348 636.608 350.834 636.614 353.759V355.759C636.616 359.074 637.933 362.252 640.277 364.596C642.621 366.94 645.799 368.258 649.114 368.259H739.114C742.429 368.256 745.606 366.938 747.95 364.594C750.294 362.251 751.611 359.073 751.614 355.759V353.759C751.61 350.445 750.291 347.268 747.948 344.925C745.605 342.582 742.428 341.263 739.114 341.259V341.259Z" fill="#3F3D56"/>
<path id="Vector_18" d="M701.109 367.762H688.109V451.762H701.109V367.762Z" fill="#3F3D56"/>
<path id="Vector_19" d="M738.109 451.305C738.109 452.71 718.41 451.848 694.109 451.848C669.809 451.848 650.109 452.71 650.109 451.305C650.109 449.9 669.809 438.762 694.109 438.762C718.41 438.762 738.109 449.9 738.109 451.305Z" fill="#3F3D56"/>
<path id="Vector_20" d="M629.1 440.257L616.84 440.256L611.007 392.968L629.102 392.969L629.1 440.257Z" fill="#FFB8B8"/>
<path id="Vector_21" d="M608.083 436.753H631.727V451.64H593.196C593.196 447.692 594.764 443.905 597.556 441.113C600.348 438.321 604.134 436.753 608.083 436.753V436.753Z" fill="#2F2E41"/>
<path id="Vector_22" d="M609.962 433.414L598.265 429.743L606.857 382.878L624.121 388.296L609.962 433.414Z" fill="#FFB8B8"/>
<path id="Vector_23" d="M590.958 423.78L613.517 430.859L609.06 445.063L572.297 433.526C572.882 431.661 573.829 429.929 575.084 428.43C576.339 426.931 577.876 425.693 579.609 424.788C581.342 423.883 583.236 423.328 585.183 423.155C587.131 422.982 589.093 423.194 590.958 423.78V423.78Z" fill="#2F2E41"/>
<path id="Vector_24" d="M706.28 333.062C705.997 330.679 705.488 328.328 704.76 326.042L702.47 323.162L696.51 315.682L696.251 315.692C695.81 315.712 693.98 315.812 691.151 316.032H691.12C689.37 316.172 687.23 316.352 684.8 316.582C684.16 316.652 683.49 316.712 682.8 316.782V327.222H695.3C695.908 327.222 696.494 327.444 696.951 327.845C697.407 328.246 697.702 328.799 697.78 329.402C697.79 329.512 697.8 329.612 697.8 329.722C697.8 330.385 697.537 331.02 697.068 331.489C696.599 331.958 695.963 332.221 695.3 332.222H622.7C621.775 332.836 620.887 333.504 620.04 334.222C617.483 336.201 615.64 338.961 614.79 342.082C610.55 360.722 602.821 395.482 600.54 405.692C600.375 406.461 600.412 407.26 600.649 408.01C600.886 408.761 601.314 409.437 601.89 409.972C602.316 410.369 602.816 410.678 603.361 410.882L612.381 414.262C612.751 414.399 613.137 414.489 613.53 414.532C613.58 414.532 613.62 414.542 613.671 414.542C613.764 414.55 613.857 414.553 613.95 414.552C614.862 414.548 615.752 414.269 616.503 413.752C617.254 413.235 617.832 412.503 618.16 411.652L625.28 392.972L636.251 364.172L640.591 352.782C645.62 353.962 687.821 363.302 701.95 348.252C703.344 346.769 704.444 345.035 705.191 343.142C706.38 339.923 706.754 336.46 706.28 333.062Z" fill="#2F2E41"/>
<path id="Vector_25" d="M718.52 335.782C718.301 334.892 718.051 333.972 717.761 333.042L709.511 322.682L709.251 322.692C708.73 322.722 706.261 322.852 702.47 323.162C698.171 323.522 692.16 324.102 685.41 325.012C685.211 325.032 685.001 325.062 684.801 325.092C684.14 325.182 683.47 325.272 682.801 325.372V327.222H695.301C695.908 327.222 696.495 327.444 696.951 327.845C697.407 328.246 697.702 328.799 697.781 329.402C697.79 329.512 697.801 329.612 697.801 329.722C697.8 330.385 697.537 331.02 697.068 331.489C696.599 331.958 695.964 332.221 695.301 332.222H651.12C649.191 332.852 647.33 333.512 645.551 334.222C636.211 337.922 629.221 342.772 627.79 349.082C627.31 351.202 626.781 353.532 626.22 356.012C624.14 365.232 621.611 376.522 619.321 386.782V386.792C618.85 388.912 618.381 390.972 617.93 392.972C616.02 401.572 614.401 408.862 613.54 412.692C613.52 412.802 613.501 412.902 613.48 413.012V413.032C613.381 413.806 613.477 414.594 613.761 415.322L613.77 415.332V415.342C614.045 416.039 614.493 416.654 615.071 417.132C615.457 417.45 615.893 417.704 616.361 417.882L625.381 421.262C625.883 421.449 626.414 421.548 626.95 421.552C627.702 421.553 628.442 421.364 629.1 421.002C630.046 420.489 630.776 419.656 631.16 418.652L650.58 367.692L653.591 359.782C658.62 360.962 700.821 370.292 714.95 355.252C717.742 352.23 719.335 348.294 719.43 344.182C719.529 341.353 719.223 338.524 718.52 335.782V335.782Z" fill="#2F2E41"/>
<path id="Vector_26" d="M717.41 247.561C717.251 247.371 717.08 247.181 716.901 247.001C714.237 244.201 710.948 242.071 707.303 240.787C703.658 239.502 699.761 239.099 695.93 239.611C692.589 240.05 689.279 240.701 686.02 241.561C681.812 242.643 677.958 244.804 674.841 247.831C672.412 250.186 670.499 253.019 669.224 256.152C667.948 259.285 667.337 262.649 667.43 266.031C667.47 267.401 667.48 268.801 667.461 270.221C667.461 270.881 667.45 271.551 667.441 272.221H677.301C677.728 272.22 678.155 272.27 678.571 272.371C679.774 272.658 680.845 273.342 681.613 274.313C682.38 275.283 682.798 276.484 682.801 277.721V324.241C683.47 324.431 684.14 324.621 684.801 324.821C685.011 324.891 685.211 324.951 685.41 325.011C685.64 325.081 685.87 325.151 686.091 325.221C688.12 325.851 690.104 326.517 692.04 327.221H695.301C695.908 327.222 696.494 327.443 696.951 327.844C697.407 328.245 697.702 328.798 697.781 329.401C698.461 329.671 699.12 329.941 699.77 330.211C702.08 331.171 704.27 332.131 706.281 333.061C708.991 334.301 711.401 335.481 713.421 336.511C714.056 336.834 714.758 337.006 715.47 337.011C716.407 337.008 717.317 336.706 718.071 336.151C718.227 336.035 718.377 335.912 718.52 335.781C719.055 335.279 719.46 334.654 719.699 333.961C719.938 333.267 720.003 332.526 719.89 331.801C718.858 323.946 718.557 316.012 718.991 308.101C719.27 301.451 719.87 294.631 720.651 288.041C721.071 284.471 721.54 280.971 722.031 277.601C722.501 274.381 723.001 271.291 723.491 268.371C724.133 264.668 723.92 260.867 722.866 257.26C721.812 253.653 719.946 250.335 717.41 247.561Z" fill="#E10032"/>
<path id="Vector_27" d="M676.421 248.381C675.908 248.161 675.38 247.977 674.841 247.831C672.176 247.113 669.342 247.378 666.856 248.577C664.37 249.776 662.398 251.829 661.301 254.361L654.43 270.221L653.571 272.221H677.301C677.728 272.22 678.155 272.27 678.571 272.371L679.37 270.521L682.41 263.501C683.618 260.701 683.665 257.537 682.542 254.702C681.42 251.868 679.218 249.594 676.421 248.381V248.381Z" fill="#E10032"/>
<path id="Vector_28" d="M697.756 231.803C711.321 231.803 722.317 220.806 722.317 207.242C722.317 193.677 711.321 182.681 697.756 182.681C684.192 182.681 673.195 193.677 673.195 207.242C673.195 220.806 684.192 231.803 697.756 231.803Z" fill="#FFB8B8"/>
<path id="Vector_29" d="M722.031 277.601L708.011 277.981L706.991 287.831L706.761 290.111L684.801 299.971L682.801 300.871V318.401L684.801 317.831L691.12 316.031H691.151L718.99 308.101L719.31 308.011C721.56 307.361 723.54 306.003 724.956 304.139C726.372 302.274 727.149 300.002 727.171 297.661L727.24 286.031L727.301 277.461L722.031 277.601Z" fill="#FFB8B8"/>
<path id="Vector_30" d="M726.591 258.121C726.498 256.613 726.109 255.139 725.447 253.781C724.784 252.424 723.861 251.21 722.73 250.21C720.444 248.189 717.45 247.159 714.405 247.346C711.361 247.533 708.515 248.922 706.494 251.207C704.474 253.492 703.444 256.486 703.631 259.531L705.16 284.491C705.202 285.148 705.387 285.787 705.703 286.365C706.02 286.942 706.459 287.442 706.99 287.831C707.836 288.461 708.878 288.77 709.93 288.701L720.651 288.041L723.901 287.841C724.493 287.812 725.072 287.663 725.605 287.403C726.138 287.144 726.613 286.779 727.001 286.331C727.087 286.236 727.167 286.136 727.24 286.031C727.876 285.18 728.188 284.131 728.12 283.071L726.591 258.121Z" fill="#FD49A0"/>
<path id="Vector_31" d="M686.091 325.221H684.801V325.091C684.14 325.181 683.47 325.271 682.801 325.371V327.221H692.04C690.1 326.521 688.117 325.854 686.091 325.221ZM686.091 325.221H684.801V325.091C684.14 325.181 683.47 325.271 682.801 325.371V327.221H692.04C690.1 326.521 688.117 325.854 686.091 325.221ZM695.301 325.221H684.801V277.721C684.797 276.095 684.266 274.513 683.286 273.215C682.307 271.917 680.933 270.971 679.37 270.521C678.699 270.318 678.002 270.217 677.301 270.221H588.301C586.312 270.223 584.406 271.014 583 272.42C581.594 273.826 580.803 275.732 580.801 277.721V326.721C580.801 328.71 581.592 330.617 582.998 332.023C584.404 333.43 586.312 334.22 588.301 334.221H695.301C696.408 334.219 697.476 333.809 698.301 333.069C699.126 332.329 699.649 331.312 699.77 330.211C699.791 330.048 699.801 329.885 699.801 329.721C699.799 328.528 699.324 327.384 698.481 326.541C697.637 325.697 696.493 325.223 695.3 325.221H695.301ZM697.801 329.721C697.8 330.384 697.537 331.019 697.068 331.488C696.599 331.957 695.963 332.221 695.301 332.221H588.301C586.842 332.22 585.444 331.64 584.412 330.609C583.381 329.578 582.801 328.179 582.801 326.721V277.721C582.801 276.262 583.381 274.864 584.412 273.833C585.444 272.801 586.842 272.222 588.301 272.221H677.301C677.728 272.22 678.155 272.27 678.571 272.371C679.774 272.658 680.845 273.342 681.613 274.313C682.38 275.283 682.798 276.484 682.801 277.721V327.221H695.301C695.908 327.222 696.494 327.443 696.951 327.844C697.407 328.245 697.702 328.798 697.781 329.401C697.79 329.511 697.8 329.611 697.8 329.721H697.801ZM686.091 325.221H684.801V325.091C684.14 325.181 683.47 325.271 682.801 325.371V327.221H692.04C690.1 326.521 688.117 325.854 686.091 325.221Z" fill="#3F3D56"/>
<path id="Vector_32" d="M632.797 308.223C636.111 308.223 638.797 305.536 638.797 302.223C638.797 298.909 636.111 296.223 632.797 296.223C629.484 296.223 626.797 298.909 626.797 302.223C626.797 305.536 629.484 308.223 632.797 308.223Z" fill="#E10032"/>
<path id="Vector_33" d="M692.512 197.499C686.807 202.595 679.159 208.065 672.173 204.331C667.586 201.88 665.544 196.503 666.615 191.414C668.542 182.262 676.454 177.317 684.115 173.319C694.073 168.122 705.063 163.59 716.215 164.941C727.367 166.292 738.262 175.507 737.735 186.728C737.312 195.752 729.943 204.17 732.276 212.897C734.624 221.68 745.284 225.081 754.365 225.528C763.446 225.975 773.442 225.201 780.645 230.747C789.834 237.823 789.687 252.62 783.145 262.197C776.604 271.774 765.557 277.162 754.707 281.259C740.331 286.687 724.529 290.609 709.69 286.618C694.851 282.628 681.86 268.391 684.036 253.179C684.955 246.754 688.336 240.986 691.598 235.375C694.86 229.763 698.142 223.912 698.827 217.458C699.398 212.079 697.689 206.141 693.722 202.677C693.004 202.073 692.495 201.258 692.27 200.347C692.044 199.437 692.112 198.478 692.466 197.61L692.512 197.499Z" fill="#2F2E41"/>
<path id="Vector_34" d="M1.19072 453.112H774.485C774.801 453.112 775.103 452.986 775.327 452.763C775.55 452.54 775.675 452.237 775.675 451.921C775.675 451.605 775.55 451.303 775.327 451.079C775.103 450.856 774.801 450.73 774.485 450.73H1.19072C1.03407 450.73 0.878868 450.761 0.734009 450.82C0.589149 450.88 0.457489 450.967 0.346558 451.078C0.235626 451.189 0.147609 451.32 0.0875549 451.465C0.0275012 451.609 -0.00341797 451.764 -0.00341797 451.921C-0.00341797 452.078 0.0275012 452.233 0.0875549 452.378C0.147609 452.522 0.235626 452.654 0.346558 452.764C0.457489 452.875 0.589149 452.963 0.734009 453.022C0.878868 453.082 1.03407 453.112 1.19072 453.112V453.112Z" fill="#3F3D56"/>
<path id="Vector_35" d="M40.4299 353.759V355.759C40.4328 359.073 41.7507 362.251 44.0943 364.594C46.4378 366.938 49.6156 368.256 52.9299 368.259H142.93C146.245 368.258 149.423 366.94 151.767 364.596C154.111 362.252 155.429 359.074 155.43 355.759V353.759C155.436 350.834 154.409 348 152.53 345.759C151.904 345.015 151.196 344.344 150.42 343.759C150.42 343.759 100.94 342.639 100.94 341.259H52.9299C49.6161 341.263 46.4394 342.582 44.0962 344.925C41.7529 347.268 40.4345 350.445 40.4299 353.759V353.759Z" fill="#3F3D56"/>
<path id="Vector_36" d="M90.9348 451.762H103.935L103.935 367.762H90.9348L90.9348 451.762Z" fill="#3F3D56"/>
<path id="Vector_37" d="M53.9348 451.305C53.9348 452.71 73.6343 451.848 97.9348 451.848C122.235 451.848 141.935 452.71 141.935 451.305C141.935 449.9 122.235 438.762 97.9348 438.762C73.6343 438.762 53.9348 449.9 53.9348 451.305Z" fill="#3F3D56"/>
<path id="Vector_38" d="M163.53 441.018H175.79L181.622 393.73L163.528 393.731L163.53 441.018Z" fill="#A0616A"/>
<path id="Vector_39" d="M199.434 452.401L160.904 452.403L160.903 437.516L184.547 437.515C188.495 437.515 192.282 439.083 195.074 441.875C197.866 444.667 199.434 448.453 199.434 452.401L199.434 452.401Z" fill="#2F2E41"/>
<path id="Vector_40" d="M182.668 434.176L194.365 430.505L185.773 383.64L168.509 389.058L182.668 434.176Z" fill="#A0616A"/>
<path id="Vector_41" d="M220.333 434.287L183.57 445.824L179.113 431.62L201.672 424.541C205.439 423.358 209.521 423.721 213.021 425.549C216.521 427.377 219.151 430.52 220.333 434.287L220.333 434.287Z" fill="#2F2E41"/>
<path id="Vector_42" d="M174.466 412.411L152.039 353.54C147.007 354.722 104.812 364.059 90.6799 349.012C85.8366 343.854 84.892 336.383 87.8723 326.804L96.1198 316.439L96.3762 316.453C99.4946 316.617 172.811 320.727 177.837 342.842C182.075 361.486 189.814 396.247 192.085 406.457C192.315 407.515 192.157 408.62 191.641 409.572C191.124 410.523 190.283 411.257 189.271 411.641L180.251 415.022C179.749 415.212 179.216 415.309 178.679 415.309C177.766 415.308 176.875 415.031 176.123 414.514C175.371 413.997 174.793 413.264 174.466 412.411V412.411Z" fill="#2F2E41"/>
<path id="Vector_43" d="M161.466 419.411L139.039 360.54C134.007 361.722 91.8122 371.058 77.6799 356.012C72.8366 350.854 71.892 343.383 74.8723 333.804L83.1198 323.439L83.3762 323.453C86.4946 323.617 159.811 327.727 164.837 349.842C169.075 368.486 176.814 403.247 179.085 413.457C179.315 414.515 179.157 415.62 178.641 416.572C178.124 417.523 177.283 418.257 176.271 418.641L167.251 422.022C166.749 422.212 166.216 422.309 165.679 422.309C164.766 422.308 163.875 422.031 163.123 421.514C162.371 420.997 161.793 420.264 161.466 419.411V419.411Z" fill="#2F2E41"/>
<path id="Vector_44" d="M141.292 305.194C137.968 305.192 134.702 304.328 131.812 302.685C128.923 301.043 126.509 298.678 124.808 295.822L117.685 283.756L134.615 274.503L141.803 284.359L190.577 279.221C190.814 278.791 191.081 278.379 191.376 277.987C192.312 276.755 193.496 275.734 194.853 274.991C196.209 274.248 197.707 273.799 199.249 273.673C200.798 273.54 202.357 273.74 203.821 274.259C205.286 274.779 206.623 275.606 207.742 276.685C209.535 278.405 210.695 280.681 211.033 283.143C211.37 285.605 210.866 288.109 209.602 290.248C208.811 291.581 207.747 292.732 206.48 293.626C205.213 294.519 203.772 295.134 202.25 295.432C200.729 295.729 199.162 295.702 197.652 295.352C196.142 295.002 194.723 294.336 193.488 293.399C193.202 293.18 192.927 292.947 192.665 292.699L145.951 304.61C144.428 304.998 142.863 305.194 141.292 305.194V305.194Z" fill="#A0616A"/>
<path id="Vector_45" d="M74.5551 336.912C73.8801 336.426 73.3529 335.762 73.032 334.995C72.711 334.227 72.6087 333.386 72.7365 332.564C75.519 314.221 72.3175 287.945 69.1417 269.131C68.4916 265.314 68.7446 261.398 69.8803 257.696C71.0161 253.994 73.003 250.609 75.682 247.813C78.361 245.018 81.6575 242.888 85.3075 241.595C88.9576 240.303 92.8596 239.883 96.7011 240.369C100.043 240.811 103.354 241.464 106.614 242.324V242.324C112.029 243.687 116.818 246.852 120.195 251.299C123.572 255.746 125.336 261.209 125.196 266.791C124.721 284.946 128.407 307.597 130.014 316.492C130.124 317.104 130.106 317.731 129.963 318.335C129.82 318.939 129.553 319.507 129.181 320.003C128.815 320.495 128.351 320.904 127.818 321.205C127.285 321.507 126.695 321.693 126.085 321.753C108.277 323.571 89.0728 332.255 79.2105 337.27C78.5767 337.597 77.8743 337.769 77.161 337.771C76.2234 337.768 75.3109 337.467 74.5551 336.912Z" fill="#CCCCCC"/>
<path id="Vector_46" d="M122.626 289.601C122.076 289.385 121.574 289.061 121.149 288.65C120.724 288.238 120.386 287.747 120.152 287.203L110.221 264.261C109.62 262.875 109.297 261.384 109.273 259.873C109.248 258.362 109.521 256.861 110.076 255.456C110.632 254.051 111.459 252.769 112.51 251.684C113.561 250.598 114.816 249.731 116.203 249.131C117.59 248.531 119.081 248.209 120.592 248.186C122.102 248.162 123.603 248.437 125.008 248.994C126.412 249.55 127.694 250.378 128.778 251.43C129.863 252.483 130.729 253.738 131.328 255.125L141.26 278.068C141.732 279.163 141.751 280.401 141.312 281.51C140.873 282.619 140.012 283.509 138.918 283.985L126.07 289.546C125.528 289.783 124.945 289.909 124.353 289.919C123.762 289.928 123.175 289.82 122.626 289.601H122.626Z" fill="#CCCCCC"/>
<path id="Vector_47" d="M94.8733 232.564C108.438 232.564 119.434 221.568 119.434 208.003C119.434 194.439 108.438 183.442 94.8733 183.442C81.3086 183.442 70.3123 194.439 70.3123 208.003C70.3123 221.568 81.3086 232.564 94.8733 232.564Z" fill="#A0616A"/>
<path id="Vector_48" d="M80.0307 229.824C79.6828 230.225 79.2579 230.553 78.7811 230.788C78.3043 231.022 77.7852 231.159 77.2547 231.189C76.7242 231.22 76.193 231.144 75.6925 230.965C75.1919 230.787 74.7322 230.51 74.3406 230.151C68.8639 225.717 64.5203 220.045 61.6683 213.602C58.4753 205.991 58.0073 196.703 61.6413 189.569C64.7133 183.538 70.2279 179.699 75.7333 176.562C77.8438 175.232 80.1566 174.254 82.5811 173.667C83.8057 173.389 85.0749 173.371 86.307 173.613C87.5392 173.856 88.7069 174.353 89.7351 175.074C90.826 175.904 91.6704 177.015 92.1774 178.288C92.6845 179.562 92.8351 180.949 92.6131 182.301C95.1313 178.984 98.5263 176.436 102.415 174.945C104.801 173.918 107.467 173.739 109.969 174.439C113.504 175.619 116.121 179.189 117.578 183.025C118.755 185.962 119.187 189.145 118.833 192.289C118.679 193.79 118.221 195.244 117.487 196.563C116.753 197.882 115.759 199.038 114.564 199.96C111.68 201.95 107.965 201.748 104.611 200.867C101.257 199.987 98.0021 198.493 94.5897 198.077C91.1773 197.661 87.3955 198.563 85.3624 201.607C83.9306 203.75 83.5931 206.574 83.3009 209.265L81.7814 223.264C81.6741 225.267 81.2426 227.239 80.5038 229.103C80.3788 229.363 80.2197 229.606 80.0307 229.824V229.824Z" fill="#2F2E41"/>
<path id="Vector_49" d="M168.868 381.094H128.995C128.349 381.096 127.711 380.951 127.13 380.669C126.548 380.387 126.039 379.976 125.64 379.468C125.233 378.952 124.948 378.351 124.808 377.709C124.668 377.067 124.677 376.401 124.833 375.763C128.563 360.141 128.563 343.86 124.833 328.238C124.677 327.6 124.668 326.934 124.808 326.292C124.948 325.65 125.233 325.049 125.64 324.533C126.039 324.025 126.548 323.614 127.13 323.332C127.711 323.051 128.349 322.905 128.995 322.907H168.868C169.887 322.909 170.872 323.273 171.648 323.933C172.424 324.593 172.94 325.508 173.105 326.513C175.706 343.405 175.706 360.596 173.105 377.488C172.94 378.494 172.424 379.408 171.648 380.068C170.872 380.728 169.887 381.092 168.868 381.094V381.094Z" fill="#CCCCCC"/>
<path id="Vector_50" d="M138.266 344.584V343.412C138.266 342.617 138.583 341.854 139.145 341.292C139.708 340.729 140.47 340.413 141.266 340.412H162.189C162.985 340.413 163.747 340.729 164.31 341.292C164.872 341.854 165.188 342.617 165.189 343.412V344.584C165.188 345.379 164.872 346.142 164.31 346.704C163.747 347.267 162.985 347.583 162.189 347.584H141.266C140.47 347.583 139.708 347.267 139.145 346.704C138.583 346.142 138.266 345.379 138.266 344.584V344.584Z" fill="white"/>
<path id="Vector_51" d="M138.266 356.929V355.757C138.266 354.961 138.583 354.199 139.145 353.636C139.708 353.074 140.47 352.758 141.266 352.757H162.189C162.985 352.758 163.747 353.074 164.31 353.636C164.872 354.199 165.188 354.961 165.189 355.757V356.929C165.188 357.725 164.872 358.487 164.31 359.05C163.747 359.612 162.985 359.928 162.189 359.929H141.266C140.47 359.928 139.708 359.612 139.145 359.05C138.583 358.487 138.266 357.725 138.266 356.929Z" fill="white"/>
<path id="Vector_52" d="M151.128 308.841C150.714 308.317 150.425 307.705 150.282 307.053C150.14 306.4 150.149 305.724 150.307 305.075C154.099 289.196 154.099 272.648 150.307 256.769C150.149 256.12 150.14 255.444 150.282 254.791C150.425 254.139 150.714 253.527 151.128 253.003C151.533 252.486 152.051 252.069 152.642 251.783C153.233 251.496 153.882 251.349 154.538 251.351H195.066C196.101 251.353 197.103 251.722 197.891 252.393C198.68 253.064 199.205 253.994 199.372 255.016C202.016 272.185 202.016 289.659 199.372 306.828C199.205 307.85 198.68 308.78 197.891 309.451C197.103 310.122 196.101 310.491 195.066 310.493H154.538C153.882 310.495 153.233 310.348 152.642 310.061C152.051 309.775 151.533 309.358 151.128 308.841Z" fill="#E10032"/>
<path id="Vector_53" d="M187.245 273.172H165.896C165.1 273.171 164.338 272.855 163.775 272.293C163.213 271.73 162.897 270.968 162.896 270.172V268.898C162.897 268.103 163.213 267.34 163.775 266.778C164.338 266.216 165.1 265.899 165.896 265.898H187.245C188.041 265.899 188.803 266.216 189.365 266.778C189.928 267.34 190.244 268.103 190.245 268.898V270.172C190.244 270.968 189.928 271.73 189.365 272.293C188.803 272.855 188.041 273.171 187.245 273.172V273.172Z" fill="white"/>
<path id="Vector_54" d="M187.245 285.72H165.896C165.1 285.719 164.338 285.403 163.775 284.841C163.213 284.278 162.897 283.516 162.896 282.72V281.446C162.897 280.651 163.213 279.888 163.775 279.326C164.338 278.764 165.1 278.447 165.896 278.446H187.245C188.041 278.447 188.803 278.764 189.365 279.326C189.928 279.888 190.244 280.651 190.245 281.446V282.72C190.244 283.516 189.928 284.278 189.365 284.841C188.803 285.403 188.041 285.719 187.245 285.72V285.72Z" fill="white"/>
<path id="Vector_55" d="M132.533 330.839C131.073 330.329 129.736 329.517 128.611 328.456C127.485 327.395 126.595 326.109 125.999 324.681C125.862 324.348 125.742 324.008 125.64 323.662L73.3181 308.769C71.0697 308.12 69.0906 306.763 67.6745 304.9C66.2584 303.037 65.4807 300.766 65.457 298.426L65.3293 278.225L84.6152 278.741L85.8721 290.875L130.613 310.962C131.034 310.71 131.472 310.488 131.924 310.297H131.925C133.573 309.606 135.364 309.327 137.144 309.483C138.924 309.639 140.64 310.227 142.142 311.194C143.645 312.161 144.889 313.48 145.768 315.036C146.647 316.592 147.134 318.339 147.187 320.125C147.24 321.911 146.857 323.683 146.072 325.289C145.287 326.894 144.123 328.284 142.68 329.339C141.237 330.394 139.56 331.081 137.792 331.343C136.024 331.604 134.219 331.431 132.533 330.839V330.839Z" fill="#A0616A"/>
<path id="Vector_56" d="M65.6294 287.094C65.2366 286.652 64.9353 286.136 64.7431 285.577C64.5509 285.018 64.4715 284.426 64.5095 283.836L66.0435 258.883C66.1338 257.374 66.5208 255.898 67.1823 254.538C67.8438 253.179 68.7668 251.963 69.8986 250.961C71.0304 249.959 72.3487 249.189 73.7781 248.697C75.2075 248.205 76.7199 247.999 78.2289 248.092C79.7378 248.185 81.2137 248.574 82.5719 249.238C83.9302 249.902 85.1443 250.827 86.1447 251.961C87.145 253.094 87.9121 254.414 88.402 255.844C88.8919 257.274 89.0949 258.787 88.9995 260.296L87.4658 285.248C87.391 286.439 86.8471 287.551 85.9534 288.341C85.0597 289.132 83.8891 289.535 82.6983 289.463L68.7247 288.604C68.1345 288.57 67.557 288.418 67.0256 288.159C66.4943 287.9 66.0198 287.538 65.6294 287.094H65.6294Z" fill="#CCCCCC"/>
<path id="Vector_57" d="M290.522 153.063H208.522C206.136 153.061 203.848 152.112 202.161 150.424C200.474 148.737 199.525 146.45 199.522 144.063V55.0635C199.525 52.6774 200.474 50.3898 202.161 48.7025C203.848 47.0153 206.136 46.0662 208.522 46.0635H290.522C292.908 46.0662 295.196 47.0153 296.883 48.7025C298.57 50.3898 299.519 52.6774 299.522 55.0635V144.063C299.519 146.45 298.57 148.737 296.883 150.424C295.196 152.112 292.908 153.061 290.522 153.063V153.063ZM208.522 48.0635C206.666 48.0656 204.887 48.8037 203.575 50.116C202.262 51.4283 201.524 53.2076 201.522 55.0635V144.063C201.524 145.919 202.262 147.699 203.575 149.011C204.887 150.323 206.666 151.061 208.522 151.063H290.522C292.378 151.061 294.157 150.323 295.469 149.011C296.782 147.699 297.52 145.919 297.522 144.063V55.0635C297.52 53.2076 296.782 51.4283 295.469 50.116C294.157 48.8037 292.378 48.0656 290.522 48.0635H208.522Z" fill="#3F3D56"/>
<path id="Vector_58" d="M440.522 153.063H358.522C356.136 153.061 353.848 152.112 352.161 150.424C350.474 148.737 349.525 146.45 349.522 144.063V55.0635C349.525 52.6774 350.474 50.3898 352.161 48.7025C353.848 47.0153 356.136 46.0662 358.522 46.0635H440.522C442.908 46.0662 445.196 47.0153 446.883 48.7025C448.57 50.3898 449.519 52.6774 449.522 55.0635V144.063C449.519 146.45 448.57 148.737 446.883 150.424C445.196 152.112 442.908 153.061 440.522 153.063V153.063ZM358.522 48.0635C356.666 48.0656 354.887 48.8037 353.575 50.116C352.262 51.4283 351.524 53.2076 351.522 55.0635V144.063C351.524 145.919 352.262 147.699 353.575 149.011C354.887 150.323 356.666 151.061 358.522 151.063H440.522C442.378 151.061 444.157 150.323 445.469 149.011C446.782 147.699 447.52 145.919 447.522 144.063V55.0635C447.52 53.2076 446.782 51.4283 445.469 50.116C444.157 48.8037 442.378 48.0656 440.522 48.0635H358.522Z" fill="#3F3D56"/>
<path id="Vector_59" d="M225.037 83.0635H217.037C215.844 83.0622 214.7 82.5876 213.857 81.744C213.013 80.9004 212.538 79.7565 212.537 78.5635V70.5635C212.538 69.3704 213.013 68.2266 213.857 67.383C214.7 66.5393 215.844 66.0648 217.037 66.0635H225.037C226.23 66.0648 227.374 66.5393 228.218 67.383C229.061 68.2266 229.536 69.3704 229.537 70.5635V78.5635C229.536 79.7565 229.061 80.9004 228.218 81.744C227.374 82.5876 226.23 83.0622 225.037 83.0635V83.0635Z" fill="#E10032"/>
<path id="Vector_60" d="M225.037 108.063H217.037C215.844 108.062 214.7 107.588 213.857 106.744C213.013 105.9 212.538 104.757 212.537 103.563V95.5635C212.538 94.3704 213.013 93.2266 213.857 92.383C214.7 91.5393 215.844 91.0648 217.037 91.0635H225.037C226.23 91.0648 227.374 91.5393 228.218 92.383C229.061 93.2266 229.536 94.3704 229.537 95.5635V103.563C229.536 104.757 229.061 105.9 228.218 106.744C227.374 107.588 226.23 108.062 225.037 108.063V108.063Z" fill="#CCCCCC"/>
<path id="Vector_61" d="M283.507 78.2007H246.158C245.362 78.1998 244.6 77.8835 244.037 77.321C243.475 76.7586 243.159 75.9961 243.158 75.2007V73.9268C243.159 73.1314 243.475 72.3688 244.037 71.8064C244.6 71.244 245.362 70.9276 246.158 70.9268H283.507C284.302 70.9276 285.065 71.244 285.627 71.8064C286.19 72.3688 286.506 73.1314 286.507 73.9268V75.2007C286.506 75.9961 286.19 76.7586 285.627 77.321C285.065 77.8835 284.302 78.1998 283.507 78.2007V78.2007Z" fill="#E10032"/>
<path id="Vector_62" d="M375.727 81.4951H367.727C366.534 81.4938 365.39 81.0193 364.546 80.1756C363.703 79.332 363.228 78.1882 363.227 76.9951V68.9951C363.228 67.802 363.703 66.6582 364.546 65.8146C365.39 64.971 366.534 64.4964 367.727 64.4951H375.727C376.92 64.4964 378.064 64.971 378.907 65.8146C379.751 66.6582 380.225 67.802 380.227 68.9951V76.9951C380.225 78.1882 379.751 79.332 378.907 80.1756C378.064 81.0193 376.92 81.4938 375.727 81.4951V81.4951Z" fill="#CCCCCC"/>
<path id="Vector_63" d="M434.197 76.6323H396.847C396.052 76.6315 395.289 76.3151 394.727 75.7527C394.165 75.1903 393.848 74.4277 393.847 73.6323V72.3584C393.848 71.563 394.165 70.8005 394.727 70.238C395.289 69.6756 396.052 69.3593 396.847 69.3584H434.197C434.992 69.3593 435.755 69.6756 436.317 70.238C436.88 70.8005 437.196 71.563 437.197 72.3584V73.6323C437.196 74.4277 436.88 75.1903 436.317 75.7527C435.755 76.3151 434.992 76.6315 434.197 76.6323Z" fill="#CCCCCC"/>
<path id="Vector_64" d="M434.197 100.632H364.847C364.052 100.631 363.289 100.315 362.727 99.7527C362.165 99.1903 361.848 98.4277 361.847 97.6323V96.3584C361.848 95.563 362.165 94.8005 362.727 94.238C363.289 93.6756 364.052 93.3593 364.847 93.3584H434.197C434.992 93.3593 435.755 93.6756 436.317 94.238C436.88 94.8005 437.196 95.563 437.197 96.3584V97.6323C437.196 98.4277 436.88 99.1903 436.317 99.7527C435.755 100.315 434.992 100.631 434.197 100.632V100.632Z" fill="#E10032"/>
<path id="Vector_65" d="M434.197 117.632H364.847C364.052 117.631 363.289 117.315 362.727 116.753C362.165 116.19 361.848 115.428 361.847 114.632V113.358C361.848 112.563 362.165 111.8 362.727 111.238C363.289 110.676 364.052 110.359 364.847 110.358H434.197C434.992 110.359 435.755 110.676 436.317 111.238C436.88 111.8 437.196 112.563 437.197 113.358V114.632C437.196 115.428 436.88 116.19 436.317 116.753C435.755 117.315 434.992 117.631 434.197 117.632V117.632Z" fill="#CCCCCC"/>
<path id="Vector_66" d="M434.197 134.632H364.847C364.052 134.631 363.289 134.315 362.727 133.753C362.165 133.19 361.848 132.428 361.847 131.632V130.358C361.848 129.563 362.165 128.8 362.727 128.238C363.289 127.676 364.052 127.359 364.847 127.358H434.197C434.992 127.359 435.755 127.676 436.317 128.238C436.88 128.8 437.196 129.563 437.197 130.358V131.632C437.196 132.428 436.88 133.19 436.317 133.753C435.755 134.315 434.992 134.631 434.197 134.632V134.632Z" fill="#CCCCCC"/>
<path id="Vector_67" d="M590.522 153.063H508.522C506.136 153.061 503.848 152.112 502.161 150.424C500.474 148.737 499.525 146.45 499.522 144.063V55.0635C499.525 52.6774 500.474 50.3898 502.161 48.7025C503.848 47.0153 506.136 46.0662 508.522 46.0635H590.522C592.908 46.0662 595.196 47.0153 596.883 48.7025C598.57 50.3898 599.519 52.6774 599.522 55.0635V144.063C599.519 146.45 598.57 148.737 596.883 150.424C595.196 152.112 592.908 153.061 590.522 153.063V153.063ZM508.522 48.0635C506.666 48.0656 504.887 48.8037 503.575 50.116C502.262 51.4283 501.524 53.2076 501.522 55.0635V144.063C501.524 145.919 502.262 147.699 503.575 149.011C504.887 150.323 506.666 151.061 508.522 151.063H590.522C592.378 151.061 594.157 150.323 595.469 149.011C596.782 147.699 597.52 145.919 597.522 144.063V55.0635C597.52 53.2076 596.782 51.4283 595.469 50.116C594.157 48.8037 592.378 48.0656 590.522 48.0635H508.522Z" fill="#3F3D56"/>
<path id="Vector_68" d="M584.197 76.6323H546.847C546.052 76.6315 545.289 76.3151 544.727 75.7527C544.165 75.1903 543.848 74.4277 543.847 73.6323V72.3584C543.848 71.563 544.165 70.8005 544.727 70.238C545.289 69.6756 546.052 69.3593 546.847 69.3584H584.197C584.992 69.3593 585.755 69.6756 586.317 70.238C586.88 70.8005 587.196 71.563 587.197 72.3584V73.6323C587.196 74.4277 586.88 75.1903 586.317 75.7527C585.755 76.3151 584.992 76.6315 584.197 76.6323V76.6323Z" fill="#CCCCCC"/>
<path id="Vector_69" d="M584.197 100.632H514.847C514.052 100.631 513.289 100.315 512.727 99.7527C512.165 99.1903 511.848 98.4277 511.847 97.6323V96.3584C511.848 95.563 512.165 94.8005 512.727 94.238C513.289 93.6756 514.052 93.3593 514.847 93.3584H584.197C584.992 93.3593 585.755 93.6756 586.317 94.238C586.88 94.8005 587.196 95.563 587.197 96.3584V97.6323C587.196 98.4277 586.88 99.1903 586.317 99.7527C585.755 100.315 584.992 100.631 584.197 100.632Z" fill="#CCCCCC"/>
<path id="Vector_70" d="M584.197 117.632H514.847C514.052 117.631 513.289 117.315 512.727 116.753C512.165 116.19 511.848 115.428 511.847 114.632V113.358C511.848 112.563 512.165 111.8 512.727 111.238C513.289 110.676 514.052 110.359 514.847 110.358H584.197C584.992 110.359 585.755 110.676 586.317 111.238C586.88 111.8 587.196 112.563 587.197 113.358V114.632C587.196 115.428 586.88 116.19 586.317 116.753C585.755 117.315 584.992 117.631 584.197 117.632Z" fill="#CCCCCC"/>
<path id="Vector_71" d="M584.197 134.632H514.847C514.052 134.631 513.289 134.315 512.727 133.753C512.165 133.19 511.848 132.428 511.847 131.632V130.358C511.848 129.563 512.165 128.8 512.727 128.238C513.289 127.676 514.052 127.359 514.847 127.358H584.197C584.992 127.359 585.755 127.676 586.317 128.238C586.88 128.8 587.196 129.563 587.197 130.358V131.632C587.196 132.428 586.88 133.19 586.317 133.753C585.755 134.315 584.992 134.631 584.197 134.632Z" fill="#CCCCCC"/>
<path id="Vector_72" d="M283.507 103.201H246.158C245.362 103.2 244.6 102.883 244.037 102.321C243.475 101.759 243.159 100.996 243.158 100.201V98.9268C243.159 98.1314 243.475 97.3688 244.037 96.8064C244.6 96.244 245.362 95.9276 246.158 95.9268H283.507C284.302 95.9276 285.065 96.244 285.627 96.8064C286.19 97.3688 286.506 98.1314 286.507 98.9268V100.201C286.506 100.996 286.19 101.759 285.627 102.321C285.065 102.883 284.302 103.2 283.507 103.201Z" fill="#CCCCCC"/>
<path id="Vector_73" d="M225.037 133.063H217.037C215.844 133.062 214.7 132.588 213.857 131.744C213.013 130.9 212.538 129.757 212.537 128.563V120.563C212.538 119.37 213.013 118.227 213.857 117.383C214.7 116.539 215.844 116.065 217.037 116.063H225.037C226.23 116.065 227.374 116.539 228.218 117.383C229.061 118.227 229.536 119.37 229.537 120.563V128.563C229.536 129.757 229.061 130.9 228.218 131.744C227.374 132.588 226.23 133.062 225.037 133.063V133.063Z" fill="#CCCCCC"/>
<path id="Vector_74" d="M283.507 128.201H246.158C245.362 128.2 244.6 127.883 244.037 127.321C243.475 126.759 243.159 125.996 243.158 125.201V123.927C243.159 123.131 243.475 122.369 244.037 121.806C244.6 121.244 245.362 120.928 246.158 120.927H283.507C284.302 120.928 285.065 121.244 285.627 121.806C286.19 122.369 286.506 123.131 286.507 123.927V125.201C286.506 125.996 286.19 126.759 285.627 127.321C285.065 127.883 284.302 128.2 283.507 128.201Z" fill="#CCCCCC"/>
<path id="Vector_75" d="M530.519 72.0636C530.519 72.0405 530.522 72.0182 530.522 71.9951C530.522 70.8132 530.289 69.6429 529.837 68.551C529.385 67.459 528.722 66.4669 527.886 65.6311C527.05 64.7954 526.058 64.1325 524.966 63.6802C523.874 63.2279 522.704 62.9951 521.522 62.9951V72.0636H530.519Z" fill="#E10032"/>
<path id="Vector_76" d="M520.522 73.0636V63.9951C518.745 63.9945 517.007 64.5201 515.528 65.5056C514.049 66.4911 512.895 67.8925 512.212 69.533C511.528 71.1735 511.345 72.9797 511.687 74.7238C512.028 76.468 512.878 78.072 514.13 79.3337C515.382 80.5954 516.979 81.4583 518.72 81.8135C520.461 82.1687 522.269 82.0005 523.915 81.3299C525.561 80.6593 526.971 79.5164 527.969 78.0453C528.966 76.5742 529.505 74.8408 529.519 73.0636H520.522Z" fill="#CCCCCC"/>
</g>
<defs>
<clipPath id="clip0">
<rect width="787.827" height="453.112" fill="white"/>
</clipPath>
</defs>
</svg>
