<svg width="819" height="530" viewBox="0 0 819 530" fill="none" xmlns="http://www.w3.org/2000/svg">
<g id="publish_on_cloud-1 1" clip-path="url(#clip0)">
<path id="Vector" d="M816.405 304.619H296.899V8.26465H816.405V304.619Z" fill="white"/>
<path id="Vector_2" d="M818.406 306.62H294.9V6.26465H818.406V306.62ZM298.9 302.62H814.406V10.2646H298.9V302.62Z" fill="#CACACA"/>
<path id="Vector_3" d="M564.641 218.828C595.289 218.828 620.134 193.983 620.134 163.335C620.134 132.688 595.289 107.843 564.641 107.843C533.994 107.843 509.149 132.688 509.149 163.335C509.149 193.983 533.994 218.828 564.641 218.828Z" fill="#E10032"/>
<path id="Vector_4" d="M575.281 167.179C570.785 162.021 566.539 153.701 564.051 146.995C561.565 153.701 557.32 162.021 552.823 167.179L562.87 163.544V185.958H565.232V163.544L575.281 167.179Z" fill="white"/>
<path id="Vector_5" d="M577.272 18.891H481.63V0H577.272L586.712 9.446L577.272 18.891Z" fill="#CACACA"/>
<path id="Vector_6" d="M482.815 18.891H387.175V0H482.815L492.257 9.446L482.815 18.891Z" fill="#3F3D56"/>
<path id="Vector_7" d="M389.541 18.891H293.899V0H389.541L398.982 9.446L389.541 18.891Z" fill="#E10032"/>
<path id="Vector_8" d="M16.77 527.371L17.0653 526.05C17.1308 525.76 23.8175 496.845 45.869 480.66C67.9214 464.474 97.5111 466.765 97.8068 466.79L99.1556 466.904L98.8603 468.224C98.7948 468.514 92.1079 497.429 70.0566 513.614C48.0042 529.8 18.4145 527.509 18.1188 527.484L16.77 527.371ZM47.2663 482.564C28.6216 496.248 21.3131 519.38 19.7205 525.205C25.7565 525.428 50.0327 525.382 68.6593 511.71C87.2838 498.04 94.6071 474.897 96.2051 469.069C90.1656 468.846 65.8918 468.893 47.2663 482.564Z" fill="#F0F0F0"/>
<path id="Vector_9" d="M55.6046 489.319C44.9264 514.366 18.5544 527.118 18.5544 527.118C18.5544 527.118 9.49543 499.261 20.1736 474.214C30.8518 449.167 57.2238 436.415 57.2238 436.415C57.2238 436.415 66.2829 464.272 55.6046 489.319Z" fill="#F0F0F0"/>
<path id="Vector_10" d="M329.565 211.667C328.585 210.246 327.305 209.056 325.816 208.183C324.326 207.31 322.663 206.774 320.944 206.613C319.225 206.451 317.491 206.669 315.865 207.251C314.239 207.832 312.761 208.763 311.533 209.977L286.645 199.533L276.61 213.11L311.964 227.365C314.141 229.291 316.949 230.352 319.856 230.347C322.763 230.341 325.567 229.269 327.737 227.334C329.907 225.399 331.291 222.736 331.628 219.848C331.965 216.961 331.231 214.05 329.565 211.667H329.565Z" fill="#A0616A"/>
<path id="Vector_11" d="M281.261 512.726L296.464 512.725L297.94 458.653L281.258 454.085L281.261 512.726Z" fill="#A0616A"/>
<path id="Vector_12" d="M277.383 507.762L307.324 507.761H307.325C312.385 507.761 317.238 509.771 320.816 513.349C324.395 516.928 326.405 521.781 326.405 526.841V527.461L277.384 527.463L277.383 507.762Z" fill="#2F2E41"/>
<path id="Vector_13" d="M167.032 512.726L182.235 512.725L189.468 454.084L167.029 454.085L167.032 512.726Z" fill="#A0616A"/>
<path id="Vector_14" d="M163.154 507.762L193.095 507.761H193.096C198.156 507.761 203.009 509.771 206.587 513.349C210.166 516.928 212.176 521.781 212.176 526.841V527.461L163.155 527.463L163.154 507.762Z" fill="#2F2E41"/>
<path id="Vector_15" d="M258.406 175.105L308.644 203.572L299.754 226.24C299.754 226.24 268.802 211.324 266.768 212.378C264.735 213.432 258.406 175.105 258.406 175.105Z" fill="#575A89"/>
<path id="Vector_16" d="M201.756 260.742L190.303 369.544L155.944 494.997L184.576 499.578L267.037 324.878L252.149 230.964L226.952 221.802L201.756 260.742Z" fill="#2F2E41"/>
<path id="Vector_17" d="M183.431 259.596C183.431 259.596 212.067 276.418 221.405 309.105C231.405 344.105 249.858 398.176 249.858 398.176L275.054 500.723L305.977 492.706L269.328 259.596L238.405 233.254L198.32 228.673L183.431 259.596Z" fill="#2F2E41"/>
<path id="Vector_18" d="M254.008 80.4003C268.556 80.4003 280.349 68.6067 280.349 54.0585C280.349 39.5104 268.556 27.7168 254.008 27.7168C239.46 27.7168 227.666 39.5104 227.666 54.0585C227.666 68.6067 239.46 80.4003 254.008 80.4003Z" fill="#A0616A"/>
<path id="Vector_19" d="M256.352 104.982C256.352 104.982 237.437 84.1816 222.548 84.1816C217.763 84.1816 184.453 121.297 183.406 148.105L172.746 266.468C172.746 266.468 275.822 272.195 276.967 267.613C278.113 263.032 256.352 104.982 256.352 104.982Z" fill="#575A89"/>
<path id="Vector_20" d="M240.885 65.5734C242.998 65.4474 245.061 66.1614 247.16 66.44C250.937 66.8214 254.726 65.8368 257.84 63.6647C260.954 61.4925 263.187 58.2766 264.134 54.5998C264.267 53.6158 264.56 52.6602 265.002 51.771C266.158 49.8847 268.789 49.525 270.958 49.9588C273.127 50.3925 275.183 51.4078 277.392 51.5237C279.106 51.5302 280.791 51.0897 282.282 50.2457C283.774 49.4017 285.019 48.1835 285.895 46.7112C287.613 43.7281 288.344 40.2781 287.982 36.8548L286.347 38.5709C285.683 37.1653 285.426 35.6014 285.607 34.0571C284.74 33.8264 283.829 33.8219 282.961 34.0442C282.092 34.2665 281.295 34.7081 280.646 35.3266C279.204 35.4801 280.292 32.6524 279.221 31.6752C278.7 31.3551 278.079 31.2389 277.478 31.349C274.41 31.3786 271.929 29.0325 269.512 27.144C265.324 23.879 260.427 21.6452 255.216 20.623C251.761 19.8035 248.145 19.9788 244.785 21.1286C242.133 22.3189 239.74 24.0165 237.741 26.1256C232.598 31.0704 228.044 36.8804 225.905 43.6862C224.166 49.2607 224.117 55.2254 225.763 60.8279C226.625 63.7374 229.224 73.7017 233.027 73.9338C237.806 74.2253 234.937 65.9284 240.885 65.5734Z" fill="#2F2E41"/>
<path id="Vector_21" opacity="0.1" d="M234.047 133.571L207.073 173.132L198.447 265.027L234.047 133.571Z" fill="black"/>
<path id="Vector_22" d="M194.898 300.722C196.067 299.451 196.943 297.939 197.465 296.293C197.986 294.647 198.14 292.906 197.916 291.194C197.692 289.482 197.096 287.84 196.168 286.383C195.241 284.927 194.006 283.691 192.549 282.764L197.216 256.18L181.753 249.403L175.689 287.038C174.293 289.588 173.881 292.561 174.531 295.395C175.181 298.228 176.848 300.725 179.216 302.412C181.584 304.098 184.488 304.858 187.378 304.547C190.269 304.235 192.944 302.874 194.898 300.722H194.898Z" fill="#A0616A"/>
<path id="Vector_23" d="M209.602 96.3657L182.049 185.749C182.049 185.749 171.816 242.707 176.397 251.87C180.978 261.032 171.978 279.066 171.978 279.066L198.32 281.357L211.125 187.749L233.824 116.434C233.824 116.434 242.816 90.6393 209.602 96.3657Z" fill="#575A89"/>
<path id="Rectangle 25-2" d="M324.992 163.623L304.214 263.32L386.29 280.426L407.068 180.729L324.992 163.623Z" fill="#CACACA"/>
<path id="Rectangle 25-3" d="M326.138 166.063L306.238 261.542L384.096 277.769L403.995 182.29L326.138 166.063Z" fill="white"/>
<g id="Group 22">
<path id="Rectangle 28" d="M343.88 179.377L343.297 182.171L362.843 186.244L363.425 183.451L343.88 179.377Z" fill="#E6E6E6"/>
<path id="Rectangle 29" d="M342.17 187.58L341.588 190.373L381.36 198.662L381.942 195.869L342.17 187.58Z" fill="#E10032"/>
<path id="Rectangle 30" d="M341.139 195.514L340.557 198.308L369.71 204.384L370.292 201.59L341.139 195.514Z" fill="#E6E6E6"/>
<path id="Rectangle 31" d="M338.757 203.958L338.174 206.752L347.859 208.77L348.441 205.977L338.757 203.958Z" fill="#E6E6E6"/>
<path id="Rectangle 32" d="M337.012 212.33L336.43 215.123L360.02 220.04L360.602 217.246L337.012 212.33Z" fill="#E10032"/>
<path id="Rectangle 38" d="M335.257 220.752L334.674 223.546L354.219 227.619L354.802 224.826L335.257 220.752Z" fill="#E6E6E6"/>
<path id="Rectangle 39" d="M333.547 228.953L332.965 231.746L372.737 240.035L373.319 237.242L333.547 228.953Z" fill="#E10032"/>
<path id="Rectangle 40" d="M332.516 236.887L331.934 239.681L361.087 245.757L361.669 242.963L332.516 236.887Z" fill="#E6E6E6"/>
<path id="Rectangle 41" d="M330.133 245.333L329.551 248.127L339.236 250.145L339.818 247.352L330.133 245.333Z" fill="#E6E6E6"/>
<path id="Rectangle 42" d="M328.389 253.704L327.807 256.497L351.397 261.414L351.979 258.62L328.389 253.704Z" fill="#E6E6E6"/>
</g>
<path id="Vector_24" d="M382 529.105H1C0.734784 529.105 0.480429 529 0.292892 528.813C0.105356 528.625 0 528.371 0 528.105C0 527.84 0.105356 527.586 0.292892 527.398C0.480429 527.211 0.734784 527.105 1 527.105H382C382.265 527.105 382.52 527.211 382.707 527.398C382.895 527.586 383 527.84 383 528.105C383 528.371 382.895 528.625 382.707 528.813C382.52 529 382.265 529.105 382 529.105Z" fill="#CACACA"/>
</g>
<defs>
<clipPath id="clip0">
<rect width="818.406" height="529.105" fill="white"/>
</clipPath>
</defs>
</svg>
